<svg width="236" height="132" viewBox="0 0 236 132" fill="none" xmlns="http://www.w3.org/2000/svg">
<rect width="236" height="132" rx="4" fill="#F5F5F5"/>
<path d="M106.629 76.3708C107.248 76.9902 107.983 77.4812 108.791 77.8158C109.6 78.1503 110.467 78.3217 111.343 78.3201C112.218 78.3216 113.085 78.1502 113.894 77.8157C114.704 77.4812 115.439 76.9901 116.057 76.3708L119.828 72.5988L117.943 70.7134L114.172 74.4854C113.421 75.2335 112.404 75.6534 111.343 75.6534C110.283 75.6534 109.266 75.2335 108.515 74.4854C107.766 73.7344 107.346 72.7172 107.346 71.6568C107.346 70.5963 107.766 69.5791 108.515 68.8281L112.287 65.0574L110.401 63.1721L106.629 66.9428C105.381 68.1941 104.68 69.8893 104.68 71.6568C104.68 73.4242 105.381 75.1195 106.629 76.3708ZM127.371 65.0574C128.618 63.8058 129.319 62.1107 129.319 60.3434C129.319 58.5762 128.618 56.8811 127.371 55.6294C126.119 54.3812 124.424 53.6802 122.657 53.6802C120.889 53.6802 119.194 54.3812 117.943 55.6294L114.172 59.4014L116.057 61.2868L119.828 57.5148C120.579 56.7668 121.596 56.3468 122.657 56.3468C123.717 56.3468 124.734 56.7668 125.485 57.5148C126.234 58.2658 126.654 59.283 126.654 60.3434C126.654 61.4039 126.234 62.4211 125.485 63.1721L121.713 66.9428L123.599 68.8281L127.371 65.0574Z" fill="#BDBDBD"/>
<path d="M112.285 72.5999L110.399 70.7146L121.715 59.3999L123.6 61.2866L112.285 72.5999Z" fill="#BDBDBD"/>
</svg>
