<svg width="156" height="156" viewBox="0 0 156 156" fill="none" xmlns="http://www.w3.org/2000/svg">
<g id="Lecturing (Student)">
<g id="Group 19526">
<g id="&#233;&#138;&#157;&#239;&#147;&#131;&#231;&#142;&#168;&#233;&#138;&#157;&#232;&#140;&#129;BG">
<path id="Vector" d="M76.5954 149.443C110.652 149.443 138.261 145.078 138.261 139.693C138.261 134.309 110.652 129.943 76.5954 129.943C42.5384 129.943 14.9297 134.309 14.9297 139.693C14.9297 145.078 42.5384 149.443 76.5954 149.443Z" fill="#E8B622"/>
</g>
<g id="&#233;&#138;&#157;&#239;&#147;&#131;&#231;&#142;&#168;&#233;&#138;&#157;&#232;&#140;&#129;Screen_In">
<path id="Vector_2" d="M139.825 8.77148H18.5879V85.5634H139.825V8.77148Z" fill="#E4E8F5"/>
</g>
<g id="&#233;&#138;&#157;&#239;&#147;&#131;&#231;&#142;&#168;&#233;&#138;&#157;&#232;&#140;&#129;Screen">
<g id="Group">
<path id="Vector_3" d="M140.222 6.55078H16.9318C16.5175 6.55078 16.1777 6.93773 16.1777 7.41152V90.9416C16.1777 91.4154 16.5175 91.8023 16.9318 91.8023H140.222C140.636 91.8023 140.976 91.4154 140.976 90.9416V7.41152C140.976 6.93773 140.636 6.55078 140.222 6.55078ZM138.263 9.84902V84.694H18.9473V9.84902H138.263Z" fill="#5E5957"/>
<path id="Vector_4" d="M16.1777 87.7461V90.9407C16.1777 91.4145 16.5175 91.8015 16.9318 91.8015H140.222C140.636 91.8015 140.976 91.4145 140.976 90.9407V87.7461H16.1777Z" fill="#444343"/>
</g>
</g>
<g id="&#233;&#138;&#157;&#239;&#147;&#131;&#231;&#142;&#168;&#233;&#138;&#157;&#232;&#140;&#129;Boy_Arm">
<g id="Group_2">
<path id="Vector_5" d="M119.674 97.4656C119.921 89.265 120.111 84.5469 120.111 84.5469C120.111 84.5469 126.235 85.1684 126.19 87.8878C126.138 90.9864 126.598 96.7146 125.844 100.49C125.542 102.001 123.629 102.953 122.474 102.906C119.299 102.776 119.674 97.4641 119.674 97.4641V97.4656Z" fill="#F9DAB4"/>
<path id="Vector_6" d="M119.902 97.466C119.981 94.8198 120.067 92.1736 120.158 89.5274C120.208 88.0892 120.259 86.6526 120.315 85.2145C120.324 84.9921 120.332 84.7697 120.341 84.5473L120.112 84.7758C120.146 84.7788 120.18 84.7834 120.213 84.7864C120.253 84.791 120.292 84.7956 120.332 84.8017C120.376 84.8078 120.371 84.8062 120.355 84.8047C120.387 84.8093 120.417 84.8139 120.449 84.8184C120.777 84.8657 121.103 84.9205 121.427 84.986C122.317 85.1642 123.213 85.3989 124.043 85.7736C124.759 86.0966 125.614 86.5795 125.882 87.3671C126.033 87.8105 125.958 88.3208 125.961 88.7855C125.966 89.4558 125.982 90.1276 125.998 90.7979C126.034 92.3686 126.074 93.9392 126.048 95.5099C126.023 97.0181 125.956 98.537 125.7 100.025C125.646 100.344 125.594 100.662 125.446 100.952C125.298 101.241 125.105 101.477 124.875 101.694C124.421 102.117 123.846 102.422 123.248 102.582C122.347 102.821 121.439 102.582 120.856 101.835C120.32 101.148 120.096 100.236 119.98 99.3871C119.898 98.7853 119.87 98.1683 119.898 97.5605C119.898 97.5285 119.901 97.4965 119.902 97.4645C119.922 97.1705 119.465 97.172 119.445 97.4645C119.412 97.9398 119.43 98.4212 119.47 98.895C119.546 99.8182 119.722 100.766 120.161 101.591C120.626 102.47 121.424 103.078 122.436 103.132C123.042 103.164 123.659 102.97 124.197 102.704C124.796 102.407 125.345 101.969 125.71 101.406C126.093 100.811 126.162 100.085 126.252 99.4008C126.356 98.6177 126.416 97.8286 126.455 97.0394C126.535 95.3835 126.517 93.7244 126.482 92.0669C126.453 90.6684 126.42 89.2714 126.418 87.8729C126.418 86.9345 125.757 86.2337 125.003 85.7645C124.159 85.2389 123.181 84.9281 122.221 84.6935C121.561 84.5335 120.889 84.4101 120.216 84.3294C120.181 84.3248 120.146 84.3218 120.111 84.3172C119.985 84.305 119.887 84.433 119.882 84.5457C119.855 85.2404 119.829 85.9351 119.803 86.6298C119.73 88.6148 119.662 90.6014 119.598 92.588C119.544 94.2135 119.494 95.839 119.445 97.4645C119.436 97.7585 119.893 97.7585 119.902 97.4645V97.466Z" fill="#040000"/>
</g>
<g id="Group_3">
<path id="Vector_7" d="M36.8784 97.1104C36.9667 88.9067 36.9683 84.1855 36.9683 84.1855C36.9683 84.1855 29.9772 84.7675 29.9117 87.4868C29.8371 90.5855 30.5424 96.0425 31.1426 99.8465C31.3834 101.368 32.7026 102.433 33.8589 102.433C37.0353 102.433 36.8799 97.1104 36.8799 97.1104H36.8784Z" fill="#EAC293"/>
<path id="Vector_8" d="M37.1074 97.111C37.1363 94.4633 37.1592 91.8156 37.1759 89.1678C37.1851 87.7297 37.1927 86.2916 37.1958 84.8535C37.1958 84.631 37.1958 84.4086 37.1958 84.1862C37.1958 84.0704 37.0906 83.947 36.9672 83.9577C35.552 84.0765 34.1138 84.3446 32.7656 84.7895C31.879 85.082 30.9222 85.4704 30.2687 86.1651C29.9945 86.4561 29.7781 86.8126 29.7111 87.2117C29.6669 87.4707 29.6761 87.7389 29.6776 88.0009C29.6776 88.3345 29.6852 88.6682 29.6974 89.0003C29.8177 92.3061 30.2702 95.6074 30.7623 98.8737C30.8781 99.6445 30.9512 100.42 31.3625 101.102C31.7327 101.716 32.2964 102.216 32.9636 102.483C33.963 102.883 35.1102 102.583 35.817 101.782C36.4447 101.07 36.7524 100.12 36.9231 99.2027C37.0449 98.5507 37.1104 97.8804 37.1089 97.2162C37.1089 97.1811 37.1089 97.1461 37.1089 97.111C37.1013 96.817 36.6427 96.817 36.6519 97.111C36.6641 97.5544 36.6306 98.0022 36.5803 98.4425C36.4843 99.2804 36.2924 100.153 35.8795 100.9C35.4667 101.646 34.7384 102.227 33.8168 102.205C33.1906 102.19 32.6011 101.847 32.173 101.407C31.9277 101.154 31.7266 100.857 31.5834 100.536C31.4311 100.194 31.3732 99.8334 31.3153 99.4663C30.8263 96.3143 30.3951 93.1394 30.2047 89.9554C30.1651 89.2806 30.1361 88.6057 30.1377 87.9308C30.1377 87.5027 30.1377 87.1554 30.3586 86.7943C30.7821 86.1042 31.6367 85.699 32.3726 85.4156C33.8076 84.8611 35.392 84.5686 36.8804 84.4239C36.9109 84.4208 36.9413 84.4178 36.9718 84.4147L36.7433 84.1862C36.7433 84.8809 36.7402 85.5771 36.7372 86.2718C36.7296 88.2583 36.7159 90.2464 36.6991 92.233C36.6854 93.8585 36.6702 95.4855 36.6519 97.111C36.6488 97.4051 37.1059 97.4051 37.1089 97.111H37.1074Z" fill="#040000"/>
</g>
<g id="Group_4">
<path id="Vector_9" d="M56.4336 74.2616C57.0399 73.5395 64.3692 64.7706 66.4883 59.5346C67.442 57.1626 66.8234 56.7238 67.0809 55.1257C67.3384 53.5276 68.5845 52.8467 68.8801 54.6474C69.04 54.0471 69.9328 51.1541 72.3032 51.7635C75.1764 52.9015 73.9288 56.0048 73.5327 57.9822C72.4982 63.1421 68.7536 70.4378 62.4512 77.1028C62.3369 76.1537 58.9229 74.7796 56.4336 74.2586V74.2616Z" fill="#EAC293"/>
<path id="Vector_10" d="M56.5958 74.4233C57.1915 73.7149 57.7734 72.9958 58.3508 72.2722C59.4888 70.8432 60.6009 69.3914 61.6734 67.9136C62.8739 66.2592 64.0332 64.5697 65.0737 62.8086C65.5353 62.0271 65.9741 61.2288 66.358 60.4046C66.7861 59.4845 67.1746 58.5156 67.2584 57.4948C67.3208 56.7255 67.1761 55.9562 67.3025 55.1884C67.3741 54.7527 67.5204 54.2606 67.8571 53.9529C68.0749 53.7548 68.2745 53.7563 68.436 54.0138C68.5655 54.2225 68.6188 54.4723 68.6599 54.71C68.701 54.9477 69.0453 54.9157 69.1002 54.71C69.443 53.4303 70.2976 51.8018 71.8424 51.9175C72.8098 51.9891 73.6126 52.8164 73.8289 53.7289C74.0422 54.6293 73.8487 55.5921 73.6476 56.4772C73.4435 57.3715 73.2592 58.2764 73.023 59.163C72.7488 60.1944 72.4045 61.2059 72.013 62.1992C71.0791 64.5651 69.8726 66.8244 68.5137 68.9724C66.9201 71.4907 65.0981 73.8627 63.0978 76.0732C62.8328 76.3672 62.5631 76.6566 62.2919 76.9446L62.6743 77.0451C62.6362 76.7785 62.4291 76.55 62.2356 76.3779C61.9385 76.1143 61.5942 75.9025 61.2453 75.7152C60.3115 75.2094 59.3014 74.8316 58.2899 74.5147C57.7003 74.3304 57.1016 74.1689 56.4968 74.0424C56.2104 73.9815 56.087 74.4218 56.3749 74.4827C57.3956 74.6975 58.4011 75.0022 59.3761 75.3739C60.1987 75.6877 61.0641 76.0427 61.7679 76.582C61.8882 76.6749 62.0086 76.7785 62.1046 76.8974C62.1762 76.9857 62.2158 77.0527 62.2325 77.167C62.2569 77.3407 62.5067 77.3818 62.6149 77.2675C64.7782 74.9763 66.7526 72.5038 68.4801 69.8697C69.9564 67.6181 71.2558 65.2446 72.2796 62.7538C72.7077 61.7133 73.0855 60.6514 73.3871 59.5667C73.6446 58.642 73.832 57.699 74.0498 56.7651C74.2677 55.8313 74.4794 54.7923 74.3103 53.8051C74.1275 52.7493 73.4161 51.9815 72.4411 51.5778C71.9917 51.392 71.3975 51.4179 70.942 51.5717C70.5155 51.7165 70.1407 51.9815 69.836 52.3106C69.3196 52.8697 68.9768 53.5811 68.7452 54.3002C68.7148 54.3962 68.6858 54.4922 68.6599 54.5897H69.1002C69.0271 54.1661 68.8778 53.6268 68.4543 53.4212C68.1176 53.2582 67.758 53.4075 67.5082 53.6527C66.8425 54.3048 66.7587 55.394 66.7891 56.2715C66.8028 56.6463 66.8318 57.0195 66.8074 57.3943C66.7754 57.9138 66.6444 58.4226 66.4768 58.9132C66.1721 59.8074 65.7456 60.6606 65.2946 61.4908C64.3075 63.3083 63.1573 65.0359 61.9644 66.7223C60.8432 68.3082 59.6732 69.8606 58.4712 71.3856C57.778 72.2646 57.0757 73.1375 56.3566 73.9967C56.3277 74.0302 56.2987 74.0653 56.2713 74.0988C56.0824 74.3227 56.4054 74.6472 56.5943 74.4218L56.5958 74.4233Z" fill="#040000"/>
</g>
</g>
<g id="&#233;&#138;&#157;&#239;&#147;&#131;&#231;&#142;&#168;&#233;&#138;&#157;&#232;&#140;&#129;Boy_Cloth">
<path id="Vector_11" d="M33.4842 77.7105C29.1652 81.0727 28.3395 87.8627 28.3517 88.8864C29.0418 89.9544 34.0219 91.9379 34.549 91.6363C35.0761 91.3346 34.4195 78.0441 33.4842 77.709V77.7105Z" fill="white"/>
<path id="Vector_12" d="M52.5997 87.7691C55.0798 85.7552 62.7245 77.2864 63.7345 76.1286C62.7275 75.5466 59.2251 73.1868 57.9241 71.834C56.7252 73.4762 55.8507 74.4116 54.5299 75.1398C54.83 75.5451 52.3818 83.662 52.5997 87.7691Z" fill="white"/>
</g>
<g id="&#233;&#138;&#157;&#239;&#147;&#131;&#231;&#142;&#168;&#233;&#138;&#157;&#232;&#140;&#129;Boy_Head">
<g id="Group_5">
<path id="Vector_13" d="M37.3736 63.1483C36.0894 61.7772 34.5324 66.3201 38.0744 67.0894C39.5765 69.7951 40.1341 70.7518 43.4171 71.3002C43.4842 72.8358 43.4171 73.4955 43.4171 73.9297H48.6608V71.3002C49.8186 71.2637 52.9797 70.5522 54.037 66.9219C56.3587 67.6226 58.0117 62.3135 54.8551 63.1818C50.6809 62.3973 37.3721 63.1483 37.3721 63.1483H37.3736Z" fill="#EAC293"/>
<path id="Vector_14" d="M37.5352 62.9874C37.2884 62.7284 36.938 62.5837 36.5907 62.7208C36.2433 62.8579 36.0087 63.2083 35.8685 63.5496C35.506 64.4347 35.6461 65.5178 36.2372 66.2704C36.6775 66.8295 37.331 67.1571 38.0151 67.3094L37.878 67.2043C38.3563 68.065 38.8225 68.9608 39.4699 69.7103C40.0184 70.3471 40.7176 70.7874 41.5068 71.0693C42.1055 71.2841 42.7332 71.4135 43.3593 71.5202L43.1917 71.2993C43.2298 72.1783 43.1932 73.0512 43.1917 73.9287C43.1917 74.0521 43.2968 74.1573 43.4202 74.1573H48.6639C48.7873 74.1573 48.8924 74.0521 48.8924 73.9287V71.2993L48.6639 71.5278C50.4646 71.4669 52.2196 70.4843 53.2723 69.04C53.7232 68.4215 54.0447 67.7146 54.261 66.9819L53.9792 67.1418C55.5727 67.6065 56.8051 65.7266 56.8295 64.3357C56.8417 63.6486 56.4959 62.992 55.7677 62.8792C55.5529 62.8457 55.3411 62.8564 55.1263 62.8899C55.073 62.8975 55.0197 62.9082 54.9664 62.9204C54.9283 62.928 54.7607 62.9509 54.8948 62.9569C54.8125 62.9524 54.7272 62.9265 54.6449 62.9143C54.2671 62.8549 53.8847 62.8107 53.5039 62.7757C51.4533 62.5852 49.3814 62.5852 47.3233 62.5989C45.1676 62.6142 43.0135 62.6751 40.8593 62.7589C39.7152 62.8031 38.5681 62.8351 37.4255 62.9173C37.4087 62.9173 37.392 62.9189 37.3737 62.9204C37.0812 62.9371 37.0797 63.3942 37.3737 63.3774C38.2603 63.3271 39.147 63.2875 40.0351 63.2494C42.0293 63.1657 44.0235 63.1017 46.0177 63.0712C48.1063 63.0392 50.1995 63.0301 52.2866 63.1443C53.0605 63.187 53.8482 63.2418 54.5992 63.3668C54.6815 63.3805 54.7744 63.4109 54.8567 63.4094C54.9846 63.4079 55.1187 63.3485 55.2467 63.3302C55.4036 63.3089 55.591 63.3058 55.7235 63.3332C55.9962 63.3911 56.1607 63.5176 56.2765 63.7659C56.3755 63.9776 56.3892 64.3067 56.3557 64.5687C56.31 64.913 56.1942 65.2512 56.0328 65.559C55.7342 66.1257 55.2071 66.7077 54.5672 66.7534C54.3966 66.7655 54.2595 66.7473 54.0995 66.7016C53.9792 66.6665 53.8527 66.7442 53.8177 66.8615C53.478 68.0087 52.8564 69.0446 51.9256 69.8063C51.2583 70.3532 50.4539 70.731 49.6176 70.9321C49.2778 71.0144 49.0006 71.0601 48.6608 71.0708C48.5374 71.0753 48.4323 71.1713 48.4323 71.2993V73.9287L48.6608 73.7002H43.4172L43.6457 73.9287C43.6472 73.0497 43.6838 72.1783 43.6457 71.2993C43.6411 71.2079 43.5787 71.0951 43.4781 71.0784C42.4193 70.9001 41.2966 70.6579 40.4236 69.9922C39.6512 69.4026 39.15 68.5297 38.6778 67.6979C38.6031 67.5653 38.5285 67.4328 38.4538 67.3003C38.3837 67.1753 38.3152 66.9651 38.1887 66.8889C38.076 66.8219 37.9039 66.8112 37.7789 66.7716C37.654 66.732 37.5245 66.6818 37.4042 66.6223C37.0248 66.4365 36.6897 66.1653 36.4657 65.8043C36.094 65.2086 36.0346 64.456 36.2555 63.8085C36.3027 63.6684 36.3667 63.5359 36.4627 63.3957C36.5191 63.315 36.6211 63.219 36.7034 63.1657C36.7125 63.1596 36.7247 63.155 36.7339 63.1489C36.7841 63.1215 36.6897 63.1626 36.743 63.1443C36.7689 63.1352 36.7963 63.1276 36.8237 63.1215C36.8771 63.1078 36.7857 63.1245 36.8207 63.1215C36.8374 63.1215 36.8542 63.1184 36.871 63.1184C36.8847 63.1184 36.8984 63.1184 36.9136 63.12C36.9608 63.123 36.8694 63.1093 36.9212 63.1215C37.0126 63.1443 36.9776 63.1276 37.0553 63.1733C37.1269 63.2159 37.1437 63.2342 37.2137 63.3073C37.4179 63.5206 37.7408 63.1961 37.5367 62.9844L37.5352 62.9874Z" fill="#040000"/>
</g>
</g>
<g id="&#233;&#138;&#157;&#239;&#147;&#131;&#231;&#142;&#168;&#233;&#138;&#157;&#232;&#140;&#129;Girl_Head">
<g id="Group_6">
<path id="Vector_15" d="M119.072 63.1483C120.207 61.9463 122.344 66.5547 118.371 67.0894C116.869 69.7951 116.312 70.7518 113.029 71.3002C112.961 72.8358 113.029 73.4955 113.029 73.9297H107.785C107.785 73.9297 107.785 72.199 107.785 71.3002C106.627 71.2637 103.466 70.5522 102.409 66.9219C99.7563 68.2442 98.6594 62.8238 101.591 63.1818C105.765 62.3973 119.074 63.1483 119.074 63.1483H119.072Z" fill="#F9DAB4"/>
<path id="Vector_16" d="M119.234 63.3097C119.298 63.2427 119.277 63.2594 119.342 63.2198C119.357 63.2107 119.428 63.1817 119.371 63.2015C119.4 63.1909 119.428 63.1833 119.456 63.1772C119.435 63.1817 119.441 63.1772 119.482 63.1772C119.501 63.1772 119.584 63.1878 119.517 63.1772C119.539 63.1802 119.56 63.1848 119.581 63.1909C119.595 63.1955 119.607 63.2 119.621 63.2031C119.677 63.2214 119.595 63.1894 119.638 63.2092C119.854 63.3128 120 63.4925 120.13 63.7134C120.453 64.268 120.555 64.9931 120.313 65.6101C120.182 65.9422 119.93 66.2332 119.626 66.4297C119.42 66.5623 119.197 66.6598 118.964 66.7298C118.829 66.771 118.69 66.8045 118.55 66.8304C118.341 66.87 118.23 66.87 118.12 67.0696C117.605 67.9958 117.103 68.9982 116.323 69.7356C115.418 70.5902 114.159 70.8782 112.967 71.0792C112.866 71.096 112.802 71.2057 112.799 71.3001C112.761 72.1792 112.798 73.0521 112.799 73.9296L113.028 73.7011C111.501 73.7011 109.973 73.7011 108.447 73.7011C108.226 73.7011 108.005 73.7011 107.785 73.7011L108.014 73.9296C108.014 73.0536 108.014 72.1761 108.014 71.3001C108.014 71.1737 107.909 71.0762 107.785 71.0716C107.153 71.0503 106.489 70.8797 105.88 70.6207C104.97 70.2322 104.157 69.6106 103.572 68.8108C103.142 68.2213 102.836 67.5601 102.629 66.8624C102.584 66.7131 102.426 66.6613 102.293 66.7253C101.644 67.0421 100.998 66.905 100.561 66.3429C100.174 65.8432 99.9945 65.1043 100.1 64.4934C100.211 63.8475 100.625 63.3965 101.312 63.395C101.425 63.395 101.539 63.4179 101.649 63.4042C101.728 63.3935 101.806 63.3752 101.884 63.363C102.051 63.3356 102.196 63.3158 102.357 63.296C102.752 63.2473 103.15 63.2137 103.546 63.1848C105.579 63.0401 107.624 63.0401 109.662 63.0629C111.701 63.0858 113.766 63.1452 115.817 63.2274C116.534 63.2564 117.252 63.2884 117.97 63.3219C118.32 63.3387 118.673 63.3722 119.025 63.3767C119.041 63.3767 119.056 63.3783 119.071 63.3798C119.365 63.3965 119.364 62.9395 119.071 62.9228C118.13 62.8694 117.188 62.8283 116.245 62.7887C114.156 62.7019 112.068 62.6364 109.978 62.6105C107.887 62.5846 105.72 62.5769 103.599 62.7247C103.185 62.7537 102.77 62.7887 102.357 62.839C102.172 62.8618 101.986 62.8862 101.8 62.9167C101.727 62.9289 101.649 62.9517 101.574 62.9548C101.492 62.9578 101.376 62.9365 101.277 62.9395C100.491 62.9563 99.8818 63.4575 99.6898 64.2162C99.3395 65.5918 100.247 67.6089 101.903 67.3346C102.12 67.2981 102.325 67.2204 102.52 67.1244L102.185 66.9873C102.545 68.203 103.206 69.3242 104.195 70.1332C104.924 70.7304 105.788 71.1554 106.705 71.3763C107.057 71.4616 107.421 71.5195 107.784 71.5317L107.555 71.3032C107.555 72.1792 107.555 73.0567 107.555 73.9326C107.555 74.056 107.66 74.1612 107.784 74.1612C109.31 74.1612 110.838 74.1612 112.365 74.1612C112.586 74.1612 112.807 74.1612 113.026 74.1612C113.149 74.1612 113.255 74.056 113.255 73.9326C113.253 73.0536 113.216 72.1822 113.255 71.3032L113.087 71.5241C114.079 71.3565 115.11 71.128 115.972 70.5841C116.681 70.1378 117.205 69.4903 117.65 68.791C117.977 68.2761 118.271 67.7414 118.567 67.2082L118.43 67.3133C119.088 67.2219 119.754 66.9964 120.238 66.5242C120.605 66.1646 120.82 65.6908 120.881 65.1835C120.977 64.3837 120.686 63.3432 119.976 62.8801C119.624 62.6516 119.202 62.6851 118.908 62.9898C118.704 63.2015 119.027 63.5245 119.231 63.3128L119.234 63.3097Z" fill="#040000"/>
</g>
</g>
<g id="&#233;&#138;&#157;&#239;&#147;&#131;&#231;&#142;&#168;&#233;&#138;&#157;&#232;&#140;&#129;Boy_Collar">
<path id="Vector_17" d="M46.1775 75.1374C44.4134 75.0521 42.9387 74.4884 42.9814 74.4214C43.1032 73.8714 43.0545 73.6657 43.2175 73.0762C43.7812 73.3748 45.0517 73.4845 46.1791 73.4845M46.1775 75.1374C47.9417 75.0521 49.4164 74.4884 49.3737 74.4214C49.2518 73.8714 49.066 73.6718 48.903 73.0823C48.3393 73.3809 47.3034 73.4845 46.176 73.4845" fill="white"/>
<path id="Vector_18" d="M110.271 73.4845C111.398 73.4845 112.667 73.3748 113.232 73.0762C113.394 73.6657 113.345 73.8714 113.469 74.4214C113.511 74.4884 112.035 75.0536 110.272 75.1374M110.271 73.4845C109.144 73.4845 108.109 73.3809 107.544 73.0823C107.382 73.6718 107.197 73.8714 107.073 74.4214C107.031 74.4884 108.507 75.0536 110.269 75.1374" fill="white"/>
</g>
<g id="&#233;&#138;&#157;&#239;&#147;&#131;&#231;&#142;&#168;&#233;&#138;&#157;&#232;&#140;&#129;Boy_Hair">
<path id="Vector_19" d="M42.8361 53.6213C39.6186 52.5076 35.8603 56.4259 35.7247 61.9362C35.4551 62.4039 35.4383 62.5044 34.9219 63.3393C35.7232 63.874 36.424 63.5068 37.2268 63.2555C37.2863 64.5931 37.2375 64.8856 37.8834 66.4897C38.7686 68.8252 42.7706 70.6304 45.8541 70.6304C48.6816 70.6304 52.705 69.9418 54.3137 66.1211C56.0733 62.3353 56.0733 61.2354 55.895 59.3433C56.768 58.5328 56.5288 58.3744 56.9081 57.9631C55.8722 54.4896 45.9775 47.3432 42.8377 53.6213H42.8361Z" fill="#D83D3B"/>
</g>
<g id="&#233;&#138;&#157;&#239;&#147;&#131;&#231;&#142;&#168;&#233;&#138;&#157;&#232;&#140;&#129;Boy_Hair_Line">
<path id="Vector_20" d="M37.6523 66.3791C37.7087 66.6351 37.8153 66.8834 37.9174 67.1241C38.0195 67.3648 38.1353 67.6268 38.251 67.8767C38.3013 67.9848 38.4674 68.0214 38.5634 67.959C38.6761 67.8858 38.6989 67.7624 38.6456 67.6466C38.5984 67.5431 38.5512 67.4395 38.5039 67.3359C38.4765 67.2749 38.4491 67.214 38.4232 67.1531C38.408 67.1195 38.3943 67.086 38.379 67.0525C38.3729 67.0373 38.3653 67.022 38.3592 67.0053C38.3546 66.9961 38.3516 66.987 38.347 66.9779C38.3562 66.9977 38.3562 67.0007 38.3501 66.9855C38.2526 66.7493 38.149 66.5086 38.0926 66.2588C38.0667 66.1415 37.925 66.0623 37.8108 66.0988C37.6874 66.1384 37.6234 66.2542 37.6508 66.3807L37.6523 66.3791Z" fill="#040000"/>
<path id="Vector_21" d="M54.1541 66.0241C54.1039 66.2084 54.0399 66.3882 53.9713 66.5664C53.9348 66.6624 53.8967 66.7584 53.8571 66.8544C53.8388 66.9016 53.819 66.9473 53.7992 66.993C53.7885 67.0189 53.7763 67.0463 53.7657 67.0722C53.7839 67.0296 53.7504 67.1088 53.7474 67.1164C53.723 67.1758 53.7063 67.2276 53.7245 67.2931C53.7398 67.3464 53.7794 67.4043 53.8296 67.4302C53.9271 67.482 54.0917 67.4653 54.142 67.348C54.3095 66.9549 54.4802 66.5588 54.5944 66.1475C54.6264 66.0317 54.5548 65.8931 54.4345 65.8657C54.3141 65.8382 54.1877 65.9022 54.1526 66.0256L54.1541 66.0241Z" fill="#040000"/>
<path id="Vector_22" d="M118.356 66.2592C118.301 66.509 118.197 66.7497 118.098 66.9858C118.087 67.0102 118.11 66.9569 118.094 66.9965C118.086 67.0148 118.078 67.0331 118.069 67.0529C118.055 67.0833 118.043 67.1138 118.03 67.1443C118.002 67.2083 117.973 67.2722 117.944 67.3362C117.897 67.4398 117.85 67.5434 117.803 67.647C117.752 67.7552 117.767 67.8984 117.885 67.9593C117.985 68.0126 118.144 67.9928 118.197 67.877C118.311 67.6287 118.424 67.3774 118.531 67.1245C118.637 66.8716 118.739 66.6354 118.796 66.3795C118.822 66.2637 118.761 66.1266 118.636 66.0977C118.52 66.0718 118.383 66.1327 118.354 66.2576L118.356 66.2592Z" fill="#040000"/>
<path id="Vector_23" d="M101.886 66.1362C101.999 66.546 102.17 66.9391 102.336 67.3291C102.375 67.4235 102.521 67.4509 102.602 67.3992C102.7 67.3367 102.715 67.2331 102.672 67.1326C102.639 67.0533 102.599 66.9604 102.56 66.8629C102.52 66.7654 102.482 66.6725 102.445 66.575C102.377 66.3967 102.313 66.217 102.263 66.0326C102.235 65.9351 102.122 65.8635 102.023 65.897C101.924 65.9306 101.859 66.0311 101.888 66.1362H101.886Z" fill="#040000"/>
</g>
<g id="&#233;&#138;&#157;&#239;&#147;&#131;&#231;&#142;&#168;&#233;&#138;&#157;&#232;&#140;&#129;Boy_Butt">
<path id="Vector_24" d="M45.6549 113.858C43.2479 113.855 40.6961 113.832 37.6279 113.843C32.7255 113.858 33.0728 108.745 33.2998 106.465C33.5284 104.166 33.5009 102.569 34.4409 101.745C34.8355 101.733 40.4128 101.673 45.6549 101.645M45.6549 113.858C48.0619 113.855 50.6137 113.832 53.6819 113.843C58.5661 113.858 58.237 108.745 58.01 106.465C57.7815 104.166 57.7495 102.569 56.808 101.745C56.4134 101.733 50.8955 101.673 45.6534 101.645" fill="#49B8BC"/>
</g>
<g id="&#233;&#138;&#157;&#239;&#147;&#131;&#231;&#142;&#168;&#233;&#138;&#157;&#232;&#140;&#129;Boy_Vest">
<path id="Vector_25" d="M45.7203 101.762C40.9336 101.762 35.2908 101.745 34.4408 101.745C34.2001 99.3793 34.6114 88.3907 34.4408 86.913C34.3265 85.9121 33.4947 78.8753 33.6059 77.7632C34.2077 76.6953 40.6747 74.858 42.9796 74.4238C44.1481 74.8809 45.2358 75.0469 46.1758 75.0606M45.7203 101.762C50.5069 101.762 55.9593 101.745 56.8094 101.745C57.0501 99.3793 56.8292 88.3907 56.9983 86.913C57.1126 85.9121 55.8405 76.2428 54.5288 75.1398C53.275 75.3044 51.6784 74.858 49.3735 74.4238C48.205 74.8809 47.1173 75.0469 46.1773 75.0606" fill="#2A2F7F"/>
</g>
<g id="&#233;&#138;&#157;&#239;&#147;&#131;&#231;&#142;&#168;&#233;&#138;&#157;&#232;&#140;&#129;Boy_Sock">
<path id="Vector_26" d="M34.5918 134.984V137.192H39.642V134.984" fill="#E4E8F5"/>
<path id="Vector_27" d="M51.7207 134.984V137.192H56.7709V134.984" fill="#E4E8F5"/>
</g>
<g id="&#233;&#138;&#157;&#239;&#147;&#131;&#231;&#142;&#168;&#233;&#138;&#157;&#232;&#140;&#129;Boy_Shoes">
<path id="Vector_28" d="M35.0109 140.015H39.1363C39.7929 140.015 40.6948 140.088 40.6171 139.08C40.541 138.071 40.4236 137.139 39.7914 137.008C39.7914 137.008 39.147 136.834 37.1071 136.834C35.5349 136.834 34.7565 137.008 34.7565 137.008C34.0999 137.19 33.8866 138.383 33.818 139.019C33.7479 139.654 34.3558 140.015 35.0124 140.015H35.0109Z" fill="#28317C"/>
<path id="Vector_29" d="M51.8349 140.015H55.9603C56.6169 140.015 57.5188 140.088 57.4411 139.08C57.365 138.071 57.2477 137.139 56.6154 137.008C56.6154 137.008 55.971 136.834 53.9311 136.834C52.3589 136.834 51.5805 137.008 51.5805 137.008C50.9239 137.19 50.7106 138.383 50.642 139.019C50.5735 139.654 51.1798 140.015 51.8364 140.015H51.8349Z" fill="#28317C"/>
</g>
<g id="&#233;&#138;&#157;&#239;&#147;&#131;&#231;&#142;&#168;&#233;&#138;&#157;&#232;&#140;&#129;Boy_Pants">
<path id="Vector_30" d="M34.6035 117.223V135.496H40.3271V117.223" fill="#49B8BC"/>
<path id="Vector_31" d="M51.123 117.223V135.496H56.8466V117.223" fill="#49B8BC"/>
</g>
<g id="&#233;&#138;&#157;&#239;&#147;&#131;&#231;&#142;&#168;&#233;&#138;&#157;&#232;&#140;&#129;Girl_Arm">
<g id="Group_7">
<path id="Vector_32" d="M98.5093 73.7273C96.1678 73.348 91.7955 71.5397 90.2051 69.3352C87.9367 66.1909 87.3105 64.4892 86.8367 62.5895C86.3325 60.4932 86.7987 60.1322 86.3386 58.5798C85.8785 57.0289 84.7877 56.3571 84.4937 58.336C84.2576 57.7617 83.7823 55.0317 81.293 55.9793C78.336 57.4174 81.3036 68.7457 86.1421 74.1067C88.2749 76.4695 92.2815 78.5459 93.907 79.003C95.8006 78.552 96.1069 74.5622 98.5078 73.7273H98.5093Z" fill="#F9DAB4"/>
<path id="Vector_33" d="M98.5689 73.5065C96.9205 73.2354 95.3011 72.5971 93.8219 71.8323C93.019 71.4179 92.2344 70.9457 91.5337 70.3728C91.2229 70.1199 90.9273 69.8457 90.6638 69.5441C90.3271 69.1602 90.0468 68.726 89.7604 68.304C88.7976 66.8887 87.9338 65.3973 87.4036 63.7626C87.1568 62.9994 86.939 62.2072 86.8491 61.4089C86.7683 60.696 86.8354 59.9754 86.7272 59.2655C86.619 58.5555 86.3662 57.6354 85.7842 57.1311C85.5801 56.9544 85.315 56.8295 85.0408 56.9072C84.7315 56.9955 84.5548 57.2972 84.4451 57.5775C84.3567 57.8014 84.308 58.0376 84.2714 58.2752H84.7117C84.5609 57.9005 84.4664 57.5059 84.3034 57.1342C84.0825 56.633 83.7672 56.1515 83.2995 55.8499C82.7236 55.4782 82.0122 55.4949 81.3815 55.7052C80.9732 55.8408 80.6594 56.1226 80.4339 56.4852C79.9205 57.3124 79.8641 58.394 79.887 59.3401C79.9205 60.7417 80.1856 62.1417 80.5375 63.496C80.9473 65.0758 81.4988 66.6191 82.1584 68.1121C82.8181 69.605 83.6057 71.0797 84.5411 72.4356C84.9829 73.0754 85.4582 73.6924 85.9792 74.2698C86.5992 74.9553 87.3092 75.554 88.048 76.1071C89.4496 77.1552 90.9883 78.0601 92.5955 78.7578C92.8926 78.8873 93.1927 79.0092 93.4989 79.1158C93.6101 79.1539 93.7305 79.2057 93.8462 79.2255C94.0001 79.2514 94.1814 79.1631 94.317 79.0991C94.841 78.8508 95.2143 78.3602 95.5159 77.8819C96.2441 76.7286 96.6966 75.3194 97.766 74.416C98.0022 74.2165 98.2764 74.055 98.5674 73.9514C98.8431 73.8539 98.7243 73.4121 98.4455 73.5111C97.1247 73.9819 96.4163 75.2661 95.7978 76.4361C95.5053 76.9906 95.2234 77.568 94.8365 78.0632C94.678 78.2658 94.4952 78.4592 94.2774 78.5994C94.1799 78.6619 94.0763 78.7167 93.9666 78.7517C93.9361 78.7609 93.9056 78.7685 93.8767 78.7792C93.9574 78.7502 93.9498 78.7898 93.8858 78.7639C93.831 78.7411 93.7685 78.7274 93.7122 78.7091C92.2817 78.2368 90.9212 77.469 89.6553 76.6631C88.1897 75.7308 86.8384 74.6491 85.7446 73.2948C84.7665 72.0837 83.953 70.7385 83.2492 69.3537C82.5454 67.9689 81.9101 66.4287 81.4196 64.8991C80.9793 63.528 80.6228 62.1158 80.4476 60.6853C80.3181 59.6311 80.245 58.4992 80.5238 57.4632C80.6182 57.1113 80.769 56.7548 80.9884 56.5065C81.1118 56.3679 81.1895 56.2993 81.3373 56.2201C81.613 56.0723 81.9771 56.0114 82.2879 56.016C83.3635 56.0327 83.8494 57.0991 84.1343 57.9827C84.18 58.1229 84.2196 58.2661 84.2745 58.4032C84.3476 58.5845 84.6767 58.653 84.7147 58.4032C84.7635 58.0924 84.8214 57.5988 85.0987 57.3901C85.1581 57.3459 85.2114 57.3414 85.2586 57.3505C85.35 57.3688 85.4369 57.4328 85.513 57.5059C85.7674 57.7496 85.9289 58.0924 86.0462 58.4199C86.1788 58.7932 86.2748 59.1878 86.3128 59.5808C86.3829 60.2938 86.3326 61.0067 86.4347 61.7197C86.5444 62.4875 86.7531 63.2477 86.9969 63.9851C87.5255 65.5801 88.3573 67.0426 89.2927 68.4305C89.8091 69.1952 90.3225 69.9387 91.0248 70.545C91.7271 71.1513 92.4371 71.6038 93.2079 72.0273C94.6917 72.8423 96.3142 73.502 97.9717 73.8615C98.1301 73.8965 98.2901 73.927 98.4516 73.9529C98.7395 74.0001 98.8629 73.5599 98.5735 73.5126L98.5689 73.5065Z" fill="#040000"/>
</g>
</g>
<g id="&#233;&#138;&#157;&#239;&#147;&#131;&#231;&#142;&#168;&#233;&#138;&#157;&#232;&#140;&#129;Girl_Feet">
<g id="Group_8">
<path id="Vector_34" d="M105.104 129.824V137.192H99.7617V129.824" fill="#F9DAB4"/>
<path id="Vector_35" d="M104.876 129.824C104.876 130.653 104.876 131.483 104.876 132.312C104.876 133.634 104.876 134.957 104.876 136.279C104.876 136.584 104.876 136.887 104.876 137.191L105.104 136.963C103.544 136.963 101.986 136.963 100.426 136.963H99.7617C99.8379 137.039 99.9141 137.115 99.9902 137.191C99.9902 136.363 99.9902 135.532 99.9902 134.704C99.9902 133.381 99.9902 132.059 99.9902 130.737C99.9902 130.432 99.9902 130.129 99.9902 129.824C99.9902 129.519 99.5332 129.53 99.5332 129.824C99.5332 130.653 99.5332 131.483 99.5332 132.312C99.5332 133.634 99.5332 134.957 99.5332 136.279C99.5332 136.584 99.5332 136.887 99.5332 137.191C99.5332 137.315 99.6383 137.42 99.7617 137.42C101.322 137.42 102.88 137.42 104.44 137.42H105.104C105.228 137.42 105.333 137.315 105.333 137.191C105.333 136.363 105.333 135.532 105.333 134.704C105.333 133.381 105.333 132.059 105.333 130.737C105.333 130.432 105.333 130.129 105.333 129.824C105.333 129.519 104.876 129.53 104.876 129.824Z" fill="#040000"/>
</g>
<g id="Group_9">
<path id="Vector_36" d="M117.283 129.824V137.192H122.624V129.824" fill="#F9DAB4"/>
<path id="Vector_37" d="M117.055 129.824C117.055 130.653 117.055 131.483 117.055 132.312C117.055 133.634 117.055 134.957 117.055 136.279C117.055 136.584 117.055 136.887 117.055 137.191C117.055 137.315 117.16 137.42 117.283 137.42C118.843 137.42 120.402 137.42 121.962 137.42C122.183 137.42 122.405 137.42 122.626 137.42C122.749 137.42 122.854 137.315 122.854 137.191C122.854 136.363 122.854 135.532 122.854 134.704C122.854 133.381 122.854 132.059 122.854 130.737C122.854 130.432 122.854 130.129 122.854 129.824C122.854 129.519 122.397 129.53 122.397 129.824C122.397 130.653 122.397 131.483 122.397 132.312C122.397 133.634 122.397 134.957 122.397 136.279C122.397 136.584 122.397 136.887 122.397 137.191L122.626 136.963C121.066 136.963 119.507 136.963 117.947 136.963C117.727 136.963 117.504 136.963 117.283 136.963L117.512 137.191C117.512 136.363 117.512 135.532 117.512 134.704C117.512 133.381 117.512 132.059 117.512 130.737C117.512 130.432 117.512 130.129 117.512 129.824C117.512 129.519 117.055 129.53 117.055 129.824Z" fill="#040000"/>
</g>
</g>
<g id="&#233;&#138;&#157;&#239;&#147;&#131;&#231;&#142;&#168;&#233;&#138;&#157;&#232;&#140;&#129;Girl_Pant">
<path id="Vector_38" d="M105.325 117.223V129.773H99.6016V117.223" fill="#28317C"/>
<path id="Vector_39" d="M117.062 117.223V129.773H122.786V117.223" fill="#28317C"/>
</g>
<g id="&#233;&#138;&#157;&#239;&#147;&#131;&#231;&#142;&#168;&#233;&#138;&#157;&#232;&#140;&#129;Girl_TopCloth">
<path id="Vector_40" d="M108.275 85.5632C104.474 85.8633 97.1616 81.5474 93.2266 79.0018C94.1147 78.2796 96.4745 75.1155 96.7183 73.0527C99.1527 73.9607 102.221 73.4168 102.647 73.0741C102.523 73.5113 104.716 78.0831 108.277 85.5617L108.275 85.5632Z" fill="#2A2F7F"/>
<path id="Vector_41" d="M122.334 78.3496C127.291 81.852 126.787 94.4447 126.733 95.467C126.001 96.5059 120.338 96.8624 119.823 96.5395C119.308 96.2165 121.386 78.6452 122.334 78.3496Z" fill="#28317C"/>
</g>
<g id="&#233;&#138;&#157;&#239;&#147;&#131;&#231;&#142;&#168;&#233;&#138;&#157;&#232;&#140;&#129;Girl_Dress">
<path id="Vector_42" d="M101.908 75.3017C101.908 75.3017 99.9706 99.9037 99.6369 101.744C99.3871 103.123 97.5041 111.267 100.481 112.83C103.458 114.392 119.987 114.532 121.843 112.83C122.863 111.895 123.006 107.362 122.015 101.645C120.977 95.6609 119.819 76.2066 119.819 76.2066L117.588 75.4784L117.709 80.5865H104.407L104.294 75.1387L101.908 75.3032V75.3017Z" fill="#49B8BC"/>
</g>
<g id="&#233;&#138;&#157;&#239;&#147;&#131;&#231;&#142;&#168;&#233;&#138;&#157;&#232;&#140;&#129;Girl_Hair">
<path id="Vector_43" d="M119.405 64.2308C119.694 75.2118 126.65 86.8737 126.557 92.5165C124.881 96.4211 113.521 97.3778 110.005 97.3778C106.489 97.3778 95.2841 96.4211 93.6083 92.5165C93.5154 86.8737 100.962 75.2636 101.251 64.2826C100.928 56.3547 103.276 50.9632 109.961 50.8764C117.714 50.7743 119.729 56.3029 119.406 64.2324L119.405 64.2308Z" fill="#EAB419"/>
</g>
<g id="&#233;&#138;&#157;&#239;&#147;&#131;&#231;&#142;&#168;&#233;&#138;&#157;&#232;&#140;&#129;Girl_Shoes">
<path id="Vector_44" d="M105.105 140.015H100.638C99.9812 140.015 99.0793 140.087 99.157 139.078C99.2347 138.07 99.3505 137.899 99.8472 133.311H100.388H105.338V137.009C105.962 137.445 106.23 138.385 106.3 139.02C106.371 139.656 105.763 140.017 105.106 140.017L105.105 140.015Z" fill="#CD2328"/>
<path id="Vector_45" d="M117.283 140.015H121.75C122.407 140.015 123.309 140.087 123.231 139.078C123.155 138.07 123.037 137.899 122.541 133.311H122H117.05V137.009C116.426 137.445 116.158 138.385 116.088 139.02C116.017 139.656 116.625 140.017 117.282 140.017L117.283 140.015Z" fill="#CD2328"/>
</g>
<g id="&#233;&#138;&#157;&#239;&#147;&#131;&#231;&#142;&#168;&#233;&#138;&#157;&#232;&#140;&#129;Girl_Band">
<path id="Vector_46" d="M101.727 57.908C101.954 57.0716 102.369 50.9626 110.31 50.8758C118.302 50.789 118.97 57.6856 119.205 59.1054C118.009 56.2094 116.307 52.0702 110.316 52.1205C104.272 52.0443 102.176 57.2362 101.727 57.908Z" fill="#CD2329"/>
</g>
<g id="&#233;&#138;&#157;&#239;&#147;&#131;&#231;&#142;&#168;&#233;&#138;&#157;&#232;&#140;&#129;Chair">
<path id="Vector_47" d="M30.4219 83.6543H60.6453L60.2828 94.5941H31.5568L30.4219 83.6543Z" fill="#F3F3F3"/>
<path id="Vector_48" d="M60.6951 113.381H30.3711V117.223H60.6951V113.381Z" fill="#F3F3F3"/>
<path id="Vector_49" d="M36.5835 115.623H32.0254V143.182H36.5835V115.623Z" fill="#F3F3F3"/>
<path id="Vector_50" d="M59.2769 115.623H54.7188V143.182H59.2769V115.623Z" fill="#F3F3F3"/>
<path id="Vector_51" d="M40.0916 94.2871H35.8184V114.392H40.0916V94.2871Z" fill="#F3F3F3"/>
<path id="Vector_52" d="M54.5896 94.2871H50.3164V114.392H54.5896V94.2871Z" fill="#F3F3F3"/>
<path id="Vector_53" d="M126.026 83.6543H95.8008L96.1634 94.5941H124.889L126.026 83.6543Z" fill="#F3F3F3"/>
<path id="Vector_54" d="M95.7521 117.223H126.076V113.381H95.7521V117.223Z" fill="#F3F3F3"/>
<path id="Vector_55" d="M124.421 115.623H119.863V143.182H124.421V115.623Z" fill="#F3F3F3"/>
<path id="Vector_56" d="M101.728 115.623H97.1699V143.182H101.728V115.623Z" fill="#F3F3F3"/>
<path id="Vector_57" d="M120.629 94.2871H116.355V114.392H120.629V94.2871Z" fill="#F3F3F3"/>
<path id="Vector_58" d="M106.131 94.2871H101.857V114.392H106.131V94.2871Z" fill="#F3F3F3"/>
</g>
<g id="&#233;&#138;&#157;&#239;&#147;&#131;&#231;&#142;&#168;&#233;&#138;&#157;&#232;&#140;&#129;Things">
<path id="Vector_59" d="M27.1924 43.7305L24.6406 46.59L30.4388 49.2027L27.1924 43.7305Z" fill="#49B8BC"/>
<path id="Vector_60" d="M52.756 36.8882C52.4041 36.2255 52.0522 35.5628 51.7003 34.8986C50.8563 33.3066 50.0108 31.7161 49.1668 30.1241L46.1215 24.3854C45.2394 22.7218 44.3558 21.0582 43.4737 19.3946C43.0472 18.5902 42.6511 17.7584 42.1895 16.9738C42.1834 16.9632 42.1773 16.9525 42.1727 16.9403C42.0722 16.7514 41.7858 16.919 41.8863 17.1079C42.2382 17.7706 42.5901 18.4333 42.9421 19.0975C43.786 20.6895 44.6315 22.28 45.4755 23.872C46.4901 25.7854 47.5063 27.6988 48.5209 29.6107C49.403 31.2743 50.2865 32.9379 51.1686 34.6015C51.5952 35.4059 51.9913 36.2377 52.4529 37.0223C52.459 37.0329 52.4651 37.0436 52.4696 37.0558C52.5702 37.2447 52.8566 37.0771 52.756 36.8882Z" fill="#D83D3B"/>
<g id="Group_10">
<path id="Vector_61" d="M70.4282 14.8176C70.4648 15.3066 70.4998 15.7956 70.5364 16.2847C70.6232 17.4653 70.7101 18.6475 70.7969 19.8282C70.902 21.2511 71.0071 22.6755 71.1123 24.0984C71.2037 25.3293 71.2936 26.5602 71.385 27.7912C71.4291 28.3899 71.4459 28.9993 71.5175 29.5949C71.5175 29.6026 71.5175 29.6117 71.519 29.6193C71.5343 29.8311 71.8664 29.8326 71.8511 29.6193C71.8146 29.1303 71.7795 28.6413 71.743 28.1522C71.6561 26.9716 71.5693 25.7894 71.4825 24.6087C71.3773 23.1858 71.2722 21.7614 71.1671 20.3385C71.0757 19.1076 70.9858 17.8767 70.8944 16.6457C70.8502 16.047 70.8335 15.4376 70.7619 14.842C70.7619 14.8344 70.7619 14.8252 70.7604 14.8176C70.7451 14.6058 70.413 14.6043 70.4282 14.8176Z" fill="#EAB419"/>
</g>
<path id="Vector_62" d="M62.7778 41.1338C63.6259 41.1338 64.3134 40.4462 64.3134 39.5981C64.3134 38.75 63.6259 38.0625 62.7778 38.0625C61.9297 38.0625 61.2422 38.75 61.2422 39.5981C61.2422 40.4462 61.9297 41.1338 62.7778 41.1338Z" fill="#28317C"/>
<g id="Group_11">
<g id="Group_12">
<path id="Vector_63" d="M115.11 21.1573C116.001 20.0772 116.893 18.9986 117.784 17.9185L118.163 17.4584C118.343 17.2406 118.032 16.9252 117.849 17.1446C116.958 18.2247 116.067 19.3033 115.176 20.3834L114.796 20.8435C114.617 21.0614 114.927 21.3767 115.11 21.1573Z" fill="#49B8BC"/>
</g>
<g id="Group_13">
<path id="Vector_64" d="M111.632 25.3709C112.433 24.4005 113.233 23.4316 114.034 22.4611C114.148 22.324 114.261 22.1854 114.375 22.0483C114.555 21.8304 114.244 21.5151 114.061 21.7344C113.26 22.7049 112.46 23.6738 111.659 24.6442C111.545 24.7813 111.432 24.92 111.318 25.0571C111.138 25.2749 111.449 25.5903 111.632 25.3709Z" fill="#49B8BC"/>
</g>
<g id="Group_14">
<path id="Vector_65" d="M108.374 29.3177C109.067 28.4768 109.762 27.6374 110.455 26.7964C110.554 26.6776 110.652 26.5573 110.751 26.4384C110.827 26.3455 110.841 26.216 110.751 26.1246C110.673 26.0454 110.513 26.0332 110.437 26.1246C109.744 26.9656 109.049 27.805 108.356 28.6459C108.257 28.7647 108.159 28.8851 108.06 29.0039C107.984 29.0968 107.971 29.2263 108.06 29.3177C108.138 29.397 108.298 29.4091 108.374 29.3177Z" fill="#49B8BC"/>
</g>
<g id="Group_15">
<path id="Vector_66" d="M105.292 33.0501C105.924 32.2838 106.557 31.5191 107.189 30.7528C107.279 30.6446 107.369 30.5349 107.459 30.4268C107.535 30.3338 107.548 30.2043 107.459 30.1129C107.381 30.0352 107.222 30.02 107.145 30.1129C106.512 30.8792 105.88 31.644 105.248 32.4103C105.158 32.5184 105.068 32.6281 104.978 32.7363C104.902 32.8292 104.889 32.9587 104.978 33.0501C105.056 33.1278 105.215 33.1431 105.292 33.0501Z" fill="#49B8BC"/>
</g>
</g>
<path id="Vector_67" d="M114.223 40.2508L115.577 35.0254L118.298 36.6341L114.223 40.2508Z" fill="#EAB419"/>
<path id="Vector_68" d="M86.4801 25.7008C86.5319 26.6271 90.2551 19.2567 88.6936 18.2192C86.6537 17.0431 86.2835 22.1436 86.4801 25.7008Z" fill="#2A2F7F"/>
<path id="Vector_69" d="M28.8341 27.3539C28.8493 27.7012 28.8128 28.0516 28.8021 28.3974C28.7884 28.859 28.7975 29.3252 28.8798 29.7823C28.9544 30.1921 29.1022 30.6201 29.4084 30.9157C29.7527 31.2493 30.2311 31.3346 30.6942 31.2767C31.0309 31.2356 31.3554 31.1351 31.6692 31.0071C31.9236 30.9035 32.2237 30.8563 32.4858 30.969C32.8971 31.1442 33.022 31.6637 33.0967 32.0598C33.2627 32.9312 33.115 34.0966 34.0016 34.6131C34.4464 34.8705 34.9218 34.7365 35.4016 34.7898C36.1542 34.8751 36.4528 35.7557 36.6463 36.3711C36.7103 36.5737 37.0317 36.4869 36.9662 36.2828C36.7697 35.6597 36.4878 34.8629 35.8419 34.5704C35.4412 34.3891 35.0193 34.4836 34.5973 34.4516C34.2134 34.4226 33.8401 34.1652 33.7091 33.8026C33.5476 33.3532 33.5415 32.8489 33.4791 32.3812C33.4166 31.9135 33.3328 31.3712 33.022 30.9812C32.7112 30.5912 32.1064 30.4693 31.6387 30.6643C31.136 30.8746 30.487 31.0985 29.9493 30.8806C29.5897 30.7359 29.3886 30.3901 29.282 30.0351C29.0169 29.1531 29.2089 28.2512 29.1677 27.3539C29.1586 27.1406 28.825 27.1391 28.8356 27.3539H28.8341Z" fill="#2A2F7F"/>
<path id="Vector_70" d="M132.157 33.8429C131.792 35.3572 131.374 37.5266 129.54 37.8435L129.668 37.8602C129.619 37.8328 129.605 37.8099 129.602 37.7825C129.599 37.7551 129.618 37.6881 129.644 37.6378C129.733 37.4611 129.884 37.3164 130.041 37.193C130.198 37.0696 130.37 36.9614 130.547 36.9065C130.577 36.8974 130.641 36.8806 130.652 36.8791C130.644 36.8791 130.762 36.8791 130.721 36.8746C130.775 36.8791 130.751 36.8806 130.777 36.8928C130.766 36.8883 130.789 36.9096 130.791 36.9126C130.809 36.9522 130.807 37.0467 130.792 37.1305C130.763 37.2965 130.699 37.458 130.631 37.6119C130.544 37.8054 130.445 37.9928 130.338 38.1756C129.989 38.7804 129.61 39.3684 129.2 39.9321C128.615 40.7365 127.937 41.6033 127.051 42.0923C126.863 42.1959 127.031 42.4823 127.218 42.3787C127.808 42.0527 128.298 41.5576 128.736 41.0518C129.173 40.546 129.593 39.9702 129.974 39.3943C130.219 39.0241 130.454 38.6448 130.673 38.2594C130.873 37.9059 131.086 37.5098 131.13 37.1015C131.164 36.7908 130.998 36.5242 130.661 36.5455C130.325 36.5668 130.037 36.7679 129.794 36.9644C129.567 37.1488 129.298 37.4184 129.272 37.7277C129.261 37.8648 129.307 37.9912 129.41 38.0842C129.625 38.2761 130.038 38.0705 130.264 37.9684C131.757 37.2905 132.13 35.3572 132.476 33.9298C132.526 33.7226 132.206 33.6327 132.156 33.8414L132.157 33.8429Z" fill="#D83D3B"/>
</g>
</g>
</g>
</svg>
