<svg width="156" height="156" viewBox="0 0 156 156" fill="none" xmlns="http://www.w3.org/2000/svg">
<g id="Leave class (Student)">
<g id="Group 19527">
<g id="&#233;&#138;&#157;&#239;&#149;&#160;&#231;&#142;&#168;_Door_In">
<path id="Vector" d="M79.1228 19.2148H16.3008V120.784H79.1228V19.2148Z" fill="#28317C"/>
</g>
<g id="&#233;&#138;&#157;&#239;&#149;&#160;&#231;&#142;&#168;_Arm">
<g id="Group">
<path id="Vector_2" d="M60.7645 58.4487C62.422 58.5081 69.6811 59.0977 81.3476 54.7559C81.3476 54.7559 86.5639 64.611 86.9691 65.3392C85.3269 66.2273 69.7771 70.4229 60.7629 70.947C60.7294 66.2289 60.7629 58.4487 60.7629 58.4487H60.7645Z" fill="#EAC293"/>
<path id="Vector_3" d="M60.7654 58.6775C62.2492 58.7323 63.7239 58.7551 65.2077 58.6637C68.2972 58.4733 71.3639 57.9401 74.3636 57.1845C76.7523 56.5827 79.1015 55.8347 81.4095 54.977L81.152 54.8719C81.7492 56.0008 82.3464 57.1281 82.9436 58.2555C83.9338 60.1232 84.924 61.9924 85.9173 63.8587C86.2007 64.3919 86.4795 64.9266 86.7735 65.4537L86.8558 65.1414C86.8085 65.1673 86.7598 65.1901 86.711 65.213C86.6821 65.2267 86.6531 65.2389 86.6242 65.2511C86.5876 65.2663 86.6684 65.2328 86.6211 65.2511C86.6013 65.2602 86.58 65.2678 86.5602 65.277C86.3865 65.3471 86.2098 65.411 86.0331 65.4735C85.5258 65.6517 85.0124 65.8132 84.4975 65.9701C82.9573 66.4378 81.4019 66.8568 79.8434 67.2574C77.8522 67.7678 75.852 68.2401 73.8441 68.6773C71.7067 69.1404 69.5602 69.5639 67.403 69.9204C65.4271 70.248 63.4375 70.5252 61.4387 70.6745C61.2148 70.6913 60.9908 70.7065 60.7669 70.7187L60.9954 70.9472C60.9802 68.851 60.9786 66.7547 60.9802 64.6585C60.9802 62.9263 60.9847 61.1942 60.9908 59.462C60.9908 59.1238 60.9939 58.7871 60.9954 58.4489C60.9954 58.1549 60.5399 58.1549 60.5384 58.4489C60.5338 59.4224 60.5308 60.3944 60.5292 61.3678C60.5247 63.4138 60.5216 65.4598 60.5247 67.5058C60.5262 68.6529 60.5308 69.8001 60.5384 70.9457C60.5384 71.0645 60.642 71.1818 60.7669 71.1742C62.7474 71.0584 64.7187 70.801 66.6778 70.4948C68.8502 70.155 71.0105 69.7422 73.1616 69.2882C75.3127 68.8342 77.2551 68.3802 79.2888 67.8683C80.9235 67.457 82.5536 67.0228 84.1715 66.5445C85.1008 66.2687 86.0605 66.0082 86.9441 65.6076C86.9929 65.5847 87.0416 65.5619 87.0888 65.536C87.1985 65.4766 87.229 65.3288 87.1711 65.2237C86.4536 63.9364 85.7802 62.6216 85.0886 61.3191C84.1227 59.5001 83.1599 57.6811 82.1956 55.8621C81.9792 55.4554 81.7644 55.0471 81.5481 54.6403C81.5039 54.5581 81.3805 54.5017 81.2906 54.5352C77.5399 55.9292 73.6735 57.0382 69.7217 57.6887C67.3862 58.0742 65.0173 58.2951 62.6499 58.2768C62.0222 58.2722 61.3961 58.2417 60.7684 58.2189C60.4744 58.2082 60.4744 58.6653 60.7684 58.6759L60.7654 58.6775Z" fill="#040000"/>
</g>
</g>
<g id="&#233;&#138;&#157;&#239;&#149;&#160;&#231;&#142;&#168;_Pen">
<path id="Vector_4" d="M87.9746 37.6679V40.3278L90.0587 45.4786L92.6577 44.1836L90.5797 39.1578L88.555 37.3708C88.3128 37.1956 87.9746 37.3693 87.9746 37.6679Z" fill="#EAB419"/>
<path id="Vector_5" d="M88.0605 40.5192L90.6336 39.2715" stroke="#231815" stroke-width="3" stroke-miterlimit="10"/>
<path id="Vector_6" d="M88.8242 42.4279L91.4369 41.2305" stroke="#231815" stroke-width="3" stroke-miterlimit="10"/>
</g>
<g id="&#233;&#138;&#157;&#239;&#149;&#160;&#231;&#142;&#168;_Book_in">
<path id="Vector_7" d="M82.728 46.8496L78.7168 49.7639L88.4805 70.9489L92.9823 68.5312L82.728 46.8496Z" fill="#E4E8F5"/>
</g>
<g id="&#233;&#138;&#157;&#239;&#149;&#160;&#231;&#142;&#168;_Book">
<path id="Vector_8" d="M82.666 46.8923L92.9812 68.5297L103.424 63.3455L94.3432 42.1758L82.666 46.8923Z" fill="#CD2328"/>
</g>
<g id="&#233;&#138;&#157;&#239;&#149;&#160;&#231;&#142;&#168;_Hand">
<g id="Group_2">
<path id="Vector_9" d="M102.346 56.2014C103.734 56.9647 103.647 58.5399 102.646 59.3595C101.76 60.0847 99.307 59.6916 99.4776 58.0128C98.239 58.1575 91.702 55.9668 93.5118 49.3566C95.9432 42.6261 100.506 47.7037 101.562 49.7649C102.617 51.8261 103.458 55.164 102.346 56.2014Z" fill="#EAC293"/>
<path id="Vector_10" d="M102.231 56.3995C102.719 56.6737 103.109 57.1201 103.159 57.696C103.204 58.2124 102.99 58.7167 102.623 59.0762C102.039 59.646 100.971 59.5789 100.31 59.1859C99.8773 58.93 99.661 58.5141 99.7067 58.0144C99.7173 57.9001 99.5939 57.7737 99.4782 57.7859C99.3959 57.795 99.3136 57.7935 99.2314 57.7889C99.1857 57.7858 99.1384 57.7813 99.0927 57.7752C99.0257 57.7676 99.1217 57.7813 99.0531 57.7691C99.0196 57.7645 98.9876 57.7584 98.9556 57.7523C98.6707 57.7021 98.3904 57.6244 98.1177 57.533C97.4032 57.2938 96.7238 56.9449 96.0992 56.5107C95.3725 56.0034 94.7311 55.3605 94.2665 54.6034C93.718 53.7107 93.4423 52.6854 93.4301 51.6388C93.4225 50.9974 93.5063 50.3621 93.6541 49.7391C93.8247 49.02 94.1629 48.3131 94.5635 47.6931C95.0587 46.9283 95.793 46.2412 96.7497 46.2138C97.5815 46.1894 98.3615 46.6099 99.0074 47.0989C99.6534 47.588 100.272 48.2446 100.767 48.9255C101.373 49.7573 101.788 50.7003 102.109 51.6753C102.332 52.3518 102.513 53.0495 102.597 53.7579C102.665 54.3383 102.696 54.9644 102.504 55.5266C102.437 55.7216 102.335 55.8983 102.187 56.0415C101.974 56.2457 102.298 56.5686 102.51 56.3645C102.914 55.9775 103.049 55.4047 103.09 54.8654C103.142 54.1753 103.038 53.473 102.892 52.8012C102.726 52.0455 102.487 51.3036 102.191 50.5891C101.992 50.1077 101.774 49.6324 101.497 49.1906C101.029 48.4472 100.452 47.7571 99.7996 47.169C99.1476 46.581 98.3203 46.0036 97.4139 45.8223C96.4557 45.6288 95.5401 45.9396 94.8454 46.6191C94.3807 47.073 94.0273 47.6398 93.7439 48.2217C93.5596 48.5995 93.3707 49.0002 93.2641 49.4069C93.1711 49.7634 93.098 50.1245 93.0477 50.4901C92.8847 51.6799 92.9837 52.9002 93.4514 54.0153C93.8369 54.934 94.4508 55.7429 95.2049 56.3934C95.8737 56.9708 96.6369 57.4309 97.452 57.7706C98.0141 58.0052 98.6205 58.2078 99.2329 58.2459C99.3151 58.2505 99.3989 58.252 99.4797 58.2429L99.2512 58.0144C99.1415 59.2423 100.319 59.9126 101.407 59.9369C101.899 59.9476 102.421 59.841 102.81 59.5241C103.3 59.1234 103.614 58.5049 103.625 57.8696C103.637 57.0653 103.147 56.3919 102.464 56.008C102.208 55.8633 101.977 56.2578 102.234 56.4026L102.231 56.3995Z" fill="#040000"/>
</g>
</g>
<g id="&#233;&#138;&#157;&#239;&#149;&#160;&#231;&#142;&#168;_Top">
<path id="Vector_11" d="M65.854 70.6253C65.3163 70.8035 61.954 71.093 60.2722 71.1935C60.2386 66.3261 60.2569 58.1895 60.2569 58.1895C60.8297 58.2397 62.0348 58.3433 63.8416 58.2656C63.8416 58.2656 66.2501 65.3603 65.8525 70.6253H65.854Z" fill="#E4E8F5"/>
</g>
<g id="&#233;&#138;&#157;&#239;&#149;&#160;&#231;&#142;&#168;_Shoes">
<path id="Vector_12" d="M96.2422 109.775L90.4395 111.829L93.2654 122.501L100.075 120.1L96.2422 109.775Z" fill="#E4E8F5"/>
<path id="Vector_13" d="M96.2612 121.442C96.6284 121.826 96.1668 121.948 99.075 125.92C101.983 129.891 104.424 127.973 104.262 127.55C104.101 127.126 98.3514 109.043 98.3514 109.043L93.5449 110.711C93.5449 110.711 96.0814 114.262 95.0516 116.439C94.1101 118.468 95.5543 121.218 96.2612 121.442Z" fill="#28317C"/>
</g>
<g id="&#233;&#138;&#157;&#239;&#149;&#160;&#231;&#142;&#168;_Pants">
<path id="Vector_14" d="M60.6898 109.819C60.9914 110.31 65.6379 115.619 67.2314 116.861C67.7494 117.264 68.2765 118.209 70.5997 117.668C73.0845 117.089 90.8873 111.718 90.8873 111.718C90.8873 111.718 92.5129 115.61 94.0013 125.893C92.1366 126.792 72.1064 131.443 71.0888 131.729C70.0711 132.016 66.3981 133.008 63.5904 131.341C60.542 129.531 58.7108 127.581 58.7108 127.581L58.3711 107.164L60.6882 109.821L60.6898 109.819Z" fill="#49B8BC"/>
</g>
<g id="&#233;&#138;&#157;&#239;&#149;&#160;&#231;&#142;&#168;_Door">
<path id="Vector_15" d="M16.3066 18.9395L59.6743 44.3306V144.675L16.3066 121.01V18.9395Z" fill="#E4E8F5"/>
</g>
<g id="&#233;&#138;&#157;&#239;&#149;&#160;&#231;&#142;&#168;_Door_Side">
<path id="Vector_16" d="M16.3066 18.9395H17.856L60.2578 43.8842V144.675H59.6743V44.3306L16.3066 18.9395Z" fill="white"/>
</g>
<g id="&#233;&#138;&#157;&#239;&#149;&#160;&#231;&#142;&#168;_Handle-2">
<path id="Vector_17" d="M54.5371 93.6738H55.7132C55.7132 93.6738 56.7629 94.6808 55.8823 96.3734H54.7397" fill="#28317C"/>
<path id="Vector_18" d="M54.0801 93.6738H54.9957C54.9957 93.6738 55.7589 94.9535 55.1267 96.3734H54.2385" fill="white"/>
</g>
<g id="&#233;&#138;&#157;&#239;&#149;&#160;&#231;&#142;&#168;_Handle">
<path id="Vector_19" d="M52.8443 97.8291C54.0785 97.8291 55.0791 96.658 55.0791 95.2134C55.0791 93.7688 54.0785 92.5977 52.8443 92.5977C51.61 92.5977 50.6094 93.7688 50.6094 95.2134C50.6094 96.658 51.61 97.8291 52.8443 97.8291Z" fill="#28317C"/>
</g>
<g id="&#233;&#138;&#157;&#239;&#149;&#160;&#231;&#142;&#168;_Bag">
<path id="Vector_20" d="M114.455 85.7491C113.852 86.3127 109.114 90.7444 108.253 91.5488C107.392 92.3547 106.166 94.3336 106.797 96.8123C107.213 100.191 115.765 107.946 119.894 112.36C120.465 112.958 121.346 113.849 121.981 114.032C122.538 114.186 123.769 114.53 125.704 112.801C127.639 111.072 135.867 103.378 136.903 102.329C137.939 101.279 138.673 99.3 137.265 97.7096C135.858 96.1191 126.717 86.2579 125.826 85.4779C124.935 84.6964 123.599 82.8332 120.208 82.5773C118.087 82.4173 116.921 83.4441 116.308 84.0184C115.875 84.4237 114.455 85.7506 114.455 85.7506V85.7491Z" fill="#EAB419"/>
<path id="Vector_21" d="M108.383 83.2181C107.562 83.8945 107.028 84.9563 107.018 86.1705C106.998 88.6308 109.342 90.8505 109.748 91.2984L110.951 90.2045C109.934 88.9767 107.248 86.5315 109.519 84.4338C111.731 82.2735 114.022 85.1528 115.18 86.2512L116.353 85.1239C115.934 84.6882 113.876 82.1989 111.42 82.0542C110.208 81.9826 109.112 82.4442 108.383 83.2165V83.2181Z" fill="#EAB419"/>
<path id="Vector_22" d="M113.864 104.709C113.493 105.03 112.557 105.912 112.249 106.356C111.978 106.746 111.579 108.106 112.377 108.959C113.546 110.209 117.479 114.415 117.479 114.415C117.479 114.415 118.351 115.404 119.244 114.488C120.136 113.572 121.253 112.608 121.253 112.608" fill="#EAB419"/>
<path id="Vector_23" d="M130.127 90.3701C130.482 90.0303 131.451 89.1864 131.922 88.9213C132.336 88.6882 133.728 88.4231 134.501 89.3006C135.631 90.5834 139.44 94.9053 139.44 94.9053C139.44 94.9053 140.34 95.8682 139.342 96.668C138.344 97.4678 137.278 98.4869 137.278 98.4869" fill="#EAB419"/>
</g>
<g id="&#233;&#138;&#157;&#239;&#149;&#160;&#231;&#142;&#168;_Bag_Line">
<path id="Vector_24" d="M129.297 104.504C129.667 104.158 130.036 103.813 130.406 103.467C130.458 103.418 130.51 103.371 130.56 103.322C130.635 103.252 130.632 103.124 130.56 103.052C130.485 102.978 130.367 102.982 130.29 103.052C129.92 103.398 129.552 103.744 129.181 104.09C129.13 104.139 129.078 104.186 129.028 104.235C128.953 104.305 128.956 104.433 129.028 104.504C129.102 104.579 129.221 104.574 129.297 104.504Z" fill="#040000"/>
<path id="Vector_25" d="M126.526 107.097C126.842 106.803 127.157 106.507 127.472 106.213C127.516 106.172 127.561 106.131 127.603 106.09C127.676 106.021 127.678 105.888 127.603 105.82C127.526 105.748 127.411 105.747 127.334 105.82C127.018 106.114 126.703 106.409 126.388 106.703C126.343 106.745 126.299 106.786 126.257 106.827C126.183 106.895 126.182 107.028 126.257 107.097C126.334 107.168 126.449 107.17 126.526 107.097Z" fill="#040000"/>
<path id="Vector_26" d="M124.019 108.122C124.196 108.311 124.373 108.5 124.549 108.689C124.621 108.766 124.746 108.757 124.819 108.689C124.988 108.53 125.157 108.372 125.328 108.213C125.401 108.145 125.402 108.012 125.328 107.944C125.25 107.872 125.136 107.871 125.058 107.944C124.889 108.102 124.72 108.261 124.549 108.419H124.819C124.642 108.23 124.465 108.041 124.289 107.852C124.22 107.779 124.088 107.778 124.019 107.852C123.948 107.93 123.946 108.044 124.019 108.122Z" fill="#040000"/>
<path id="Vector_27" d="M121.662 105.6C121.925 105.882 122.187 106.163 122.451 106.444C122.487 106.484 122.524 106.522 122.561 106.562C122.629 106.635 122.762 106.636 122.83 106.562C122.902 106.484 122.903 106.37 122.83 106.292C122.567 106.01 122.305 105.73 122.041 105.448C122.004 105.408 121.968 105.37 121.931 105.331C121.863 105.258 121.73 105.256 121.662 105.331C121.59 105.409 121.589 105.523 121.662 105.6Z" fill="#040000"/>
<path id="Vector_28" d="M119.566 103.36C119.83 103.642 120.093 103.924 120.357 104.207C120.393 104.247 120.43 104.286 120.466 104.325C120.535 104.398 120.667 104.399 120.736 104.325C120.808 104.247 120.809 104.133 120.736 104.055C120.472 103.773 120.209 103.491 119.945 103.208C119.909 103.168 119.872 103.129 119.836 103.091C119.767 103.017 119.635 103.016 119.566 103.091C119.494 103.168 119.493 103.283 119.566 103.36Z" fill="#040000"/>
<path id="Vector_29" d="M113.098 105.412L120.665 113.13" stroke="#040000" stroke-width="3" stroke-miterlimit="10"/>
<path id="Vector_30" d="M130.371 90.1543L137.67 98.1264" stroke="#040000" stroke-width="3" stroke-miterlimit="10"/>
<path id="Vector_31" d="M109.172 90.6846L110.381 89.5527" stroke="#040000" stroke-width="2" stroke-miterlimit="10"/>
<path id="Vector_32" d="M114.566 85.6413L115.779 84.5078" stroke="#040000" stroke-width="2" stroke-miterlimit="10"/>
<path id="Vector_33" d="M123.03 94.9076C123.281 95.1773 123.534 95.447 123.785 95.7151C123.892 95.8293 123.997 95.9451 124.105 96.0563C124.348 96.3062 124.713 96.3762 125.027 96.2209C125.201 96.134 125.347 95.9634 125.487 95.8309C125.627 95.6983 125.763 95.5795 125.894 95.45C126.162 95.1849 126.22 94.7538 125.994 94.443C125.909 94.3257 125.801 94.2236 125.702 94.117C125.414 93.8092 125.126 93.5015 124.838 93.1938C124.637 92.979 124.314 93.3019 124.515 93.5167C124.739 93.7559 124.963 93.9966 125.187 94.2358L125.55 94.6243C125.664 94.7462 125.729 94.9 125.63 95.0585C125.551 95.1834 125.402 95.287 125.294 95.386C125.161 95.5109 125.032 95.6404 124.895 95.7593C124.59 96.0243 124.328 95.6282 124.139 95.4256C123.877 95.1453 123.613 94.8635 123.351 94.5832C123.15 94.3684 122.827 94.6913 123.028 94.9061L123.03 94.9076Z" fill="#231815"/>
<path id="Vector_34" d="M124.919 86.1105C126.026 87.2896 127.986 89.1391 126.732 90.8591C126.684 90.9246 126.697 90.9063 126.659 90.955C126.616 91.0099 126.572 91.0632 126.526 91.1165C126.426 91.2369 126.323 91.3542 126.218 91.47C125.959 91.7594 125.691 92.0428 125.422 92.3246C124.774 92.998 124.113 93.6576 123.447 94.3127C122.554 95.1902 121.648 96.054 120.745 96.9208C119.687 97.9339 118.63 98.9455 117.532 99.9159C116.677 100.672 115.807 101.426 114.867 102.073C114.499 102.327 114.118 102.586 113.664 102.649C113.184 102.716 112.698 102.573 112.273 102.352C111.424 101.912 110.754 101.208 110.111 100.516C110.014 100.411 109.918 100.306 109.814 100.207C109.602 100.003 109.279 100.326 109.491 100.53C109.751 100.783 109.988 101.06 110.242 101.321C110.603 101.691 110.985 102.041 111.403 102.347C112.274 102.984 113.373 103.383 114.409 102.891C114.806 102.702 115.172 102.423 115.525 102.161C115.996 101.811 116.453 101.441 116.901 101.063C118.074 100.076 119.201 99.0338 120.309 97.975C121.324 97.0061 122.34 96.0357 123.344 95.0561C124.038 94.3767 124.73 93.6942 125.408 92.998C125.941 92.451 126.483 91.9011 126.962 91.3039C127.222 90.9794 127.439 90.6275 127.53 90.2146C127.647 89.6891 127.57 89.1421 127.378 88.644C127.003 87.6751 126.299 86.8707 125.583 86.1364C125.47 86.0206 125.355 85.9048 125.243 85.7875C125.042 85.5727 124.719 85.8957 124.92 86.1105H124.919Z" fill="#231815"/>
<path id="Vector_35" d="M128.627 96.6819C128.363 96.4 128.1 96.1182 127.836 95.8348C127.799 95.7952 127.763 95.7556 127.726 95.7175C127.658 95.6444 127.525 95.6429 127.457 95.7175C127.385 95.7952 127.383 95.9095 127.457 95.9872C127.72 96.269 127.984 96.5508 128.247 96.8342C128.284 96.8738 128.32 96.9134 128.357 96.9515C128.426 97.0246 128.558 97.0262 128.627 96.9515C128.698 96.8738 128.7 96.7596 128.627 96.6819Z" fill="#040000"/>
<path id="Vector_36" d="M130.717 98.919C130.453 98.6372 130.191 98.3569 129.928 98.0751C129.891 98.0355 129.855 97.9974 129.818 97.9578C129.75 97.8846 129.617 97.8831 129.548 97.9578C129.477 98.0355 129.475 98.1497 129.548 98.2274C129.812 98.5092 130.074 98.7896 130.338 99.0714C130.374 99.111 130.411 99.1491 130.447 99.1887C130.516 99.2618 130.648 99.2633 130.717 99.1887C130.788 99.111 130.79 98.9967 130.717 98.919Z" fill="#040000"/>
<path id="Vector_37" d="M131.992 101.984C132.23 101.762 132.468 101.539 132.705 101.317C132.783 101.245 132.774 101.12 132.705 101.047C132.529 100.858 132.352 100.67 132.175 100.481C132.105 100.406 131.977 100.409 131.906 100.481C131.831 100.555 131.836 100.674 131.906 100.75C132.082 100.939 132.259 101.128 132.436 101.317V101.047C132.198 101.27 131.96 101.492 131.723 101.715C131.648 101.785 131.651 101.913 131.723 101.984C131.797 102.059 131.916 102.054 131.992 101.984Z" fill="#040000"/>
<path id="Vector_38" d="M120.206 94.5543C120.282 94.638 120.338 94.7218 120.392 94.8331C120.404 94.8605 120.401 94.8498 120.413 94.8849C120.424 94.9123 120.433 94.9412 120.44 94.9702C120.448 94.9945 120.454 95.0189 120.459 95.0433C120.46 95.0524 120.475 95.1316 120.472 95.1073C120.48 95.1652 120.483 95.2246 120.481 95.2825C120.481 95.3068 120.481 95.3327 120.478 95.3571C120.478 95.3739 120.475 95.3906 120.474 95.4074C120.477 95.383 120.474 95.4135 120.471 95.4211C120.451 95.5323 120.416 95.6466 120.375 95.7258C120.27 95.933 120.116 96.0899 119.912 96.1965C119.729 96.2925 119.503 96.3306 119.296 96.3032C119.089 96.2757 118.883 96.1813 118.729 96.0396C118.557 95.8796 118.455 95.6984 118.407 95.4729C118.394 95.415 118.393 95.412 118.388 95.3464C118.384 95.2809 118.385 95.22 118.39 95.1575C118.393 95.1195 118.397 95.0905 118.411 95.0326C118.425 94.9747 118.445 94.9107 118.467 94.8513C118.493 94.7873 118.57 94.6594 118.621 94.5984C118.701 94.5055 118.783 94.4324 118.877 94.3745C119.092 94.242 119.318 94.1917 119.577 94.2222C119.551 94.2191 119.627 94.2313 119.641 94.2343C119.674 94.242 119.706 94.2496 119.738 94.2587C119.807 94.2785 119.848 94.2953 119.896 94.3197C120.024 94.3852 120.107 94.4491 120.206 94.5512C120.41 94.7645 120.733 94.4415 120.529 94.2283C120.098 93.7758 119.423 93.6341 118.847 93.8779C118.271 94.1216 117.892 94.7188 117.933 95.3449C117.974 95.9711 118.408 96.5332 119.022 96.7084C119.636 96.8836 120.291 96.6414 120.663 96.1295C121.083 95.5521 121.004 94.7447 120.529 94.2267C120.329 94.0089 120.008 94.3334 120.206 94.5497V94.5543Z" fill="#231815"/>
</g>
<g id="&#233;&#138;&#157;&#239;&#149;&#160;&#231;&#142;&#168;_Line">
<path id="Vector (Stroke)" fill-rule="evenodd" clip-rule="evenodd" d="M23.2305 32.9102L35.5993 40.8196V82.4065L23.2305 74.4971V32.9102ZM23.6875 33.7449V74.2469L35.1422 81.5718V41.0698L23.6875 33.7449Z" fill="#28317C"/>
<path id="Vector (Stroke)_2" fill-rule="evenodd" clip-rule="evenodd" d="M37.7617 41.6816L50.3438 49.5859V91.7597L37.7617 83.8554V41.6816ZM38.2188 42.5085V83.6028L49.8868 90.9329V49.8386L38.2188 42.5085Z" fill="#28317C"/>
<path id="Vector (Stroke)_3" fill-rule="evenodd" clip-rule="evenodd" d="M22.6406 83.0547L50.1996 99.3205V132.403L22.6406 116.137V83.0547ZM23.0977 83.8551V115.876L49.7426 131.602V99.5815L23.0977 83.8551Z" fill="#28317C"/>
<path id="Vector_39" d="M80.2043 50.5658C80.4923 51.1553 80.7802 51.7434 81.0681 52.3329C81.7567 53.7406 82.4453 55.1498 83.1354 56.5574C83.9688 58.2606 84.8021 59.9623 85.6339 61.6655C86.356 63.1417 87.0781 64.6179 87.8002 66.0942C88.0363 66.5771 88.2725 67.06 88.5086 67.5429C88.6198 67.7699 88.7173 68.0152 88.8468 68.2331C88.8529 68.2422 88.8575 68.2544 88.862 68.2651C88.9489 68.4418 89.2109 68.2864 89.1256 68.1112C88.8377 67.5216 88.5497 66.9336 88.2618 66.344C87.5732 64.9363 86.8846 63.5272 86.1945 62.1195C85.3612 60.4163 84.5279 58.7146 83.6961 57.0114C82.974 55.5352 82.2518 54.059 81.5297 52.5828C81.2936 52.0999 81.0575 51.6169 80.8213 51.134C80.7101 50.907 80.6126 50.6617 80.4831 50.4439C80.477 50.4347 80.4725 50.4226 80.4679 50.4119C80.3811 50.2352 80.119 50.3906 80.2043 50.5658Z" fill="#28317C"/>
<path id="Vector_40" d="M81.2062 49.7474C81.4134 50.174 81.6191 50.6005 81.8263 51.0271C82.3229 52.0508 82.8195 53.0746 83.3162 54.0999C83.9134 55.3323 84.5121 56.5648 85.1093 57.7988C85.6288 58.8697 86.1483 59.9407 86.6662 61.0117L87.1796 62.0705C87.2588 62.235 87.3274 62.4163 87.4234 62.5732C87.4279 62.5793 87.431 62.5885 87.434 62.5945C87.5194 62.7713 87.7829 62.6159 87.6976 62.4407C87.4904 62.0141 87.2847 61.5876 87.0776 61.161C86.5809 60.1372 86.0843 59.1135 85.5876 58.0882C84.9904 56.8558 84.3917 55.6233 83.7946 54.3893C83.2751 53.3183 82.7556 52.2474 82.2376 51.1764L81.7242 50.1176C81.645 49.9531 81.5764 49.7718 81.4805 49.6149C81.4759 49.6088 81.4728 49.5996 81.4698 49.5935C81.3845 49.4168 81.1209 49.5722 81.2062 49.7474Z" fill="#28317C"/>
<path id="Vector_41" d="M82.0949 49.0404C82.7119 50.314 83.3304 51.5891 83.9474 52.8627C84.9239 54.8782 85.9004 56.8922 86.877 58.9077C87.1009 59.3693 87.3233 59.8294 87.5473 60.291C87.6326 60.4677 87.8961 60.3123 87.8108 60.1371C87.1938 58.8635 86.5753 57.5884 85.9583 56.3148C84.9818 54.2993 84.0053 52.2853 83.0288 50.2698C82.8048 49.8082 82.5824 49.3481 82.3585 48.8865C82.2731 48.7098 82.0096 48.8652 82.0949 49.0404Z" fill="#28317C"/>
</g>
<g id="&#233;&#138;&#157;&#239;&#149;&#160;&#231;&#142;&#168;_Things">
<path id="Vector_42" d="M96.6159 14.6341C97.5439 14.6341 98.2962 13.8818 98.2962 12.9538C98.2962 12.0258 97.5439 11.2734 96.6159 11.2734C95.6879 11.2734 94.9355 12.0258 94.9355 12.9538C94.9355 13.8818 95.6879 14.6341 96.6159 14.6341Z" fill="#CD2328"/>
<path id="Vector_43" d="M98.0155 87.9015C97.4549 87.091 96.8927 86.2791 96.3321 85.4686C96.2331 85.3269 96.0335 85.3178 95.9375 85.4686C95.4317 86.2608 94.926 87.053 94.4202 87.8452H94.8148C94.2099 86.9783 93.6036 86.113 92.9988 85.2462C92.9105 85.1197 92.6819 85.0771 92.6042 85.2462C92.2371 86.0368 91.8684 86.8275 91.5013 87.6166H91.8958C91.4632 87.0408 91.0305 86.4664 90.5964 85.8906C90.4897 85.7474 90.3084 85.7413 90.2018 85.8906C89.8133 86.436 89.4248 86.9814 89.0379 87.5268C88.8673 87.7675 89.2633 87.996 89.4324 87.7568C89.8209 87.2114 90.2094 86.666 90.5964 86.1206H90.2018C90.6344 86.6965 91.0671 87.2708 91.5013 87.8467C91.5927 87.9686 91.8151 88.0188 91.8958 87.8467C92.263 87.056 92.6317 86.2653 92.9988 85.4762H92.6042C93.209 86.343 93.8154 87.2084 94.4202 88.0752C94.5192 88.2169 94.7173 88.2275 94.8148 88.0752C95.3205 87.283 95.8263 86.4908 96.3321 85.6986H95.9375C96.4981 86.5091 97.0603 87.3211 97.6209 88.1316C97.787 88.3723 98.1831 88.1437 98.0155 87.9015Z" fill="#7DC4BF"/>
<path id="Vector_44" d="M127.605 39.3438L124.695 41.8589L128.254 41.958L127.605 39.3438Z" fill="#EAB419"/>
<path id="Vector_45" d="M86.0478 34.2983C86.4317 33.6813 87.0715 33.1831 87.6809 32.7657C88.5264 32.1883 89.4405 31.7115 90.3774 31.3002C91.3143 30.8888 92.3716 30.5171 93.4075 30.2566C94.3292 30.0266 95.2844 29.8605 96.238 29.8894C96.9068 29.9108 97.6594 30.0387 98.1302 30.4897C98.3175 30.6694 98.5049 30.936 98.5232 31.2027C98.5476 31.5393 98.2779 31.8288 97.9961 32.0131C97.6168 32.263 97.1643 32.4092 96.7164 32.4656C96.3386 32.5128 95.8907 32.5143 95.551 32.3209C95.4306 32.2523 95.3148 32.1487 95.2722 32.0268C95.2371 31.9263 95.2493 31.7998 95.2783 31.681C95.3651 31.3337 95.5952 31.0137 95.8359 30.738C96.5702 29.891 97.5436 29.2466 98.5369 28.7423C99.6353 28.1847 100.863 27.7734 102.103 27.746C102.387 27.7399 102.672 27.7536 102.952 27.7962C103.232 27.8389 103.363 27.4001 103.074 27.356C101.744 27.1503 100.383 27.455 99.1524 27.9608C97.9214 28.4666 96.8368 29.1201 95.909 30.0022C95.5647 30.3297 95.2311 30.6999 95.0102 31.125C94.8487 31.4342 94.7192 31.8273 94.8411 32.1731C95.1777 33.1252 96.5976 33.0171 97.3578 32.7946C98.118 32.5722 99.2682 31.8897 98.9208 30.9025C98.6679 30.185 98.0372 29.7584 97.3243 29.5726C96.4072 29.3349 95.423 29.4141 94.4998 29.5619C93.3831 29.7402 92.2878 30.0616 91.2305 30.4592C90.1732 30.8568 89.1236 31.3413 88.1455 31.9248C87.361 32.3925 86.5642 32.9333 85.9701 33.6356C85.8558 33.7712 85.7477 33.9128 85.6547 34.0637C85.4993 34.3135 85.8939 34.5435 86.0493 34.2937L86.0478 34.2983Z" fill="#47B8BF"/>
<path id="Vector_46" d="M138.586 71.0248L136.928 70.7825L137.015 68.959L135.923 70.1671L134.21 69.9584L135.005 71.1009L133.01 71.7911L135.22 72.114L134.603 73.6466L136.338 72.2344L137.317 73.3587L137.466 71.7575L138.586 71.0248Z" fill="#28317C"/>
</g>
</g>
</g>
</svg>
