<svg width="156" height="156" viewBox="0 0 156 156" fill="none" xmlns="http://www.w3.org/2000/svg">
<g id="Wait for class (Student)" clip-path="url(#clip0_2281_9641)">
<g id="Group 19525">
<g id="&#232;&#157;&#145;&#239;&#144;&#163;?&#233;&#138;&#157;&#239;&#147;&#131;&#231;&#142;&#168;_Sock">
<path id="Vector" d="M86.7526 124.953L86.2285 119.728L95.4971 118.029L95.7744 124.313L86.7526 124.953Z" fill="#E4E8F5"/>
<path id="Vector_2" d="M105.883 114.643L103.516 109.954L111.556 105.039L114.34 110.537L105.883 114.643Z" fill="#E4E8F5"/>
</g>
<g id="&#232;&#157;&#145;&#239;&#144;&#163;?&#233;&#138;&#157;&#239;&#147;&#131;&#231;&#142;&#168;_Ear">
<g id="Group">
<path id="Vector_3" d="M52.6965 44.0129C52.014 43.4644 51.6788 43.114 51.3467 43.5086C50.9613 43.8788 50.4113 46.461 53.0819 47.4695C53.1413 45.5698 52.6965 44.0129 52.6965 44.0129Z" fill="#EAC293"/>
<path id="Vector_4" d="M52.8375 43.872C52.4566 43.5643 51.7939 42.83 51.2759 43.2946C51.0703 43.479 50.9682 43.7456 50.9042 44.0091C50.7031 44.844 50.8646 45.7794 51.3765 46.4756C51.7924 47.0408 52.3804 47.414 53.0294 47.6639C53.1559 47.7126 53.2793 47.5892 53.2823 47.4704C53.3143 46.3065 53.2092 45.0847 52.8893 43.9604C52.8192 43.7121 52.4322 43.8187 52.5023 44.067C52.8131 45.1609 52.9121 46.34 52.8816 47.4704L53.1345 47.2769C52.2464 46.9341 51.509 46.2821 51.2881 45.3315C51.1678 44.8089 51.1906 44.1402 51.4466 43.7029C51.4633 43.674 51.4755 43.6603 51.4588 43.6816C51.4755 43.6603 51.4953 43.6389 51.5151 43.6191C51.5776 43.5582 51.6263 43.5293 51.7132 43.5521C51.8411 43.5841 51.9615 43.6846 52.0636 43.7623C52.2311 43.8888 52.3896 44.0244 52.5526 44.1569C52.7506 44.3169 53.037 44.035 52.8359 43.8736L52.8375 43.872Z" fill="#040000"/>
</g>
</g>
<g id="&#232;&#157;&#145;&#239;&#144;&#163;?&#233;&#138;&#157;&#239;&#147;&#131;&#231;&#142;&#168;_Face">
<g id="Group_2">
<path id="Vector_5" d="M52.2221 43.1482C52.2221 43.5336 51.8778 51.2681 56.6111 52.5142C57.6059 52.7671 59.1553 52.9301 59.9718 52.8631C59.9749 53.5822 59.949 55.2153 59.9718 55.4149C59.9947 55.6144 62.8801 57.4776 62.8801 57.4776C62.8801 57.4776 65.6375 55.4591 65.6466 55.3341C65.6634 55.1269 65.639 53.1648 65.6466 52.6742C66.0138 52.6376 68.235 52.4883 69.6167 49.1398C70.1286 49.7111 71.3458 50.2748 73.014 46.9583C74.3424 43.5092 71.6414 42.8861 69.7279 45.2749C68.0841 42.7688 62.1976 34.3396 56.8351 36.6994C51.4711 39.0592 52.2236 43.1497 52.2236 43.1497L52.2221 43.1482Z" fill="#EAC293"/>
<path id="Vector_6" d="M52.0232 43.1489C52.0202 44.4652 52.0857 45.7677 52.3416 47.0641C52.7347 49.0507 53.5893 51.2094 55.4418 52.256C56.0557 52.6034 56.7276 52.7694 57.4177 52.8837C58.2525 53.0208 59.1255 53.129 59.9725 53.065L59.7729 52.8654C59.776 53.4717 59.7668 54.078 59.7638 54.6844C59.7638 54.9053 59.7562 55.1262 59.7684 55.3471C59.7745 55.4766 59.808 55.5573 59.9009 55.6487C60.1629 55.9107 60.4996 56.1195 60.8028 56.3312C61.2111 56.6161 61.6254 56.8949 62.0413 57.1691C62.2866 57.3321 62.5334 57.4936 62.7802 57.6536C62.835 57.6886 62.928 57.6932 62.9828 57.6536C63.6227 57.1859 64.2595 56.7121 64.8886 56.2291C65.1766 56.0082 65.5041 55.7934 65.754 55.5268C65.8469 55.4263 65.8515 55.3288 65.8545 55.1993C65.8575 54.9662 65.856 54.7347 65.8545 54.5016C65.8515 53.8937 65.8408 53.2843 65.8484 52.6765L65.6488 52.8761C66.93 52.7481 68.0071 52.0321 68.7856 51.022C69.2152 50.4645 69.5412 49.8429 69.8109 49.1939L69.4757 49.2823C69.7728 49.6113 70.1933 49.82 70.6442 49.7667C71.4501 49.6707 72.0457 48.9243 72.4708 48.3027C73.1289 47.3384 73.7246 46.1379 73.5387 44.9329C73.4275 44.2077 72.9019 43.6669 72.1509 43.644C71.1225 43.6136 70.1963 44.3829 69.5884 45.1339L69.9023 45.1751C69.0354 43.8558 68.1 42.5791 67.0763 41.3756C65.7585 39.8248 64.2762 38.3425 62.5273 37.2806C60.9399 36.3178 59.0249 35.7313 57.1999 36.3452C56.0847 36.72 55.0015 37.3781 54.1256 38.1612C53.4568 38.7584 52.8885 39.482 52.5138 40.3001C52.2441 40.8881 52.072 41.5112 52.011 42.1556C51.9806 42.4801 51.9607 42.8351 52.0247 43.158C52.0278 43.1733 52.0293 43.1885 52.0323 43.2038C52.0781 43.4566 52.465 43.35 52.4193 43.0971C52.4163 43.0834 52.4147 43.0682 52.4132 43.0545C52.4239 43.1352 52.4086 43.0072 52.4056 42.9676C52.3919 42.8107 52.3888 42.6507 52.3934 42.4938C52.4086 41.9561 52.5122 41.4381 52.6935 40.9232C53.3562 39.0478 55.0061 37.759 56.7611 36.9546C57.5838 36.5768 58.4597 36.4214 59.3616 36.5204C60.2635 36.6195 61.1059 36.9485 61.8875 37.3736C63.6196 38.315 65.0836 39.7166 66.3831 41.1822C67.4617 42.3994 68.4413 43.7034 69.3462 45.0547C69.4178 45.1629 69.4894 45.2695 69.561 45.3777C69.625 45.4752 69.7895 45.5239 69.8749 45.4188C70.3776 44.7973 71.0692 44.1742 71.8934 44.0584C72.4708 43.9777 72.9598 44.2595 73.1137 44.8323C73.2173 45.2193 73.1777 45.6367 73.0954 46.0236C72.9629 46.6467 72.6963 47.1906 72.3657 47.7314C72 48.3316 71.4882 49.1299 70.763 49.3386C70.3669 49.4529 70.0333 49.3005 69.7636 49.0004C69.6509 48.877 69.4818 48.9608 69.4285 49.0888C68.813 50.568 67.7283 52.0412 66.0815 52.4099C66.0297 52.4221 65.9764 52.4327 65.9246 52.4419C65.9002 52.4464 65.7768 52.4647 65.8301 52.4571C65.7707 52.4647 65.7113 52.4708 65.6519 52.4769C65.5422 52.4876 65.4538 52.5592 65.4523 52.6765C65.4447 53.1838 65.4538 53.6926 65.4569 54.1999C65.4569 54.4604 65.4599 54.7225 65.4584 54.983C65.4584 55.0683 65.4584 55.1536 65.4569 55.2389C65.4569 55.2557 65.4477 55.2998 65.4538 55.3151C65.4508 55.309 65.4813 55.2298 65.4889 55.2267C65.4645 55.2343 65.4203 55.2938 65.402 55.3105C65.3426 55.3638 65.2817 55.4141 65.2207 55.4644C65.0654 55.5908 64.9069 55.7157 64.7485 55.8376C64.3448 56.1484 63.938 56.4531 63.5297 56.7578C63.2829 56.9406 63.0361 57.1249 62.7878 57.3062H62.9904C62.4085 56.9299 61.8296 56.5475 61.2583 56.1545C60.9338 55.9321 60.6032 55.7112 60.3 55.4598C60.2574 55.4248 60.2178 55.3867 60.1766 55.3501C60.134 55.3105 60.1721 55.3242 60.1675 55.344C60.1782 55.2953 60.1629 55.4491 60.1782 55.3867C60.1919 55.3303 60.1736 55.245 60.1721 55.1886C60.1721 55.0698 60.1721 54.951 60.1721 54.8322C60.1721 54.1755 60.1843 53.5205 60.1812 52.8639C60.1812 52.7618 60.0898 52.6552 59.9816 52.6643C59.2474 52.7207 58.4932 52.6414 57.7666 52.5348C57.145 52.4434 56.5128 52.3291 55.94 52.0595C55.0274 51.6299 54.3236 50.8895 53.8209 50.0257C52.884 48.4154 52.5534 46.4791 52.4543 44.6419C52.4269 44.1437 52.4315 43.6486 52.4315 43.1504C52.4315 42.893 52.0308 42.893 52.0308 43.1504L52.0232 43.1489Z" fill="#040000"/>
</g>
<g id="Group_3">
<path id="Vector_7" d="M64.4473 52.7371C64.7474 52.7477 65.8747 52.6624 65.9905 52.6289L64.4473 52.7371Z" fill="#EAC293"/>
<path id="Vector_8" d="M64.4476 52.9363C64.7295 52.9454 65.0159 52.9195 65.2977 52.8982C65.4485 52.8875 65.5993 52.8753 65.7502 52.8601C65.8461 52.851 65.9497 52.8464 66.0442 52.8205C66.2925 52.7535 66.1874 52.3665 65.9375 52.4335C65.9269 52.4366 65.9147 52.4381 65.904 52.4412C65.8949 52.4412 65.8873 52.4442 65.8781 52.4457C65.837 52.4534 65.9299 52.4396 65.8918 52.4442C65.84 52.4503 65.7882 52.4564 65.7364 52.461C65.5841 52.4762 65.4318 52.4884 65.2794 52.4991C65.0037 52.5189 64.7234 52.5448 64.4476 52.5356C64.3395 52.5326 64.248 52.6301 64.248 52.7352C64.248 52.8464 64.3395 52.9317 64.4476 52.9348V52.9363Z" fill="#040000"/>
</g>
</g>
<g id="&#232;&#157;&#145;&#239;&#144;&#163;?&#233;&#138;&#157;&#239;&#147;&#131;&#231;&#142;&#168;_Hair">
<path id="Vector_9" d="M61.2566 30.3179C62.1768 29.5759 67.7541 26.9785 73.3695 34.1752C78.9133 41.282 73.3253 46.7816 73.2293 46.9706C73.2339 46.7816 74.0763 45.0145 73.0998 44.0303C71.6952 42.7872 69.7726 45.08 69.7285 45.3329C69.6843 45.5858 60.0287 44.1309 56.6878 36.9646C55.239 39.7693 53.7659 42.6623 52.0551 43.5063C47.9189 41.7254 51.9621 27.8849 61.2581 30.3179H61.2566Z" fill="#D83D3B"/>
</g>
<g id="&#232;&#157;&#145;&#239;&#144;&#163;?&#233;&#138;&#157;&#239;&#147;&#131;&#231;&#142;&#168;_Hair_Line">
<g id="Group_4">
<path id="Vector_10" d="M70.9103 40.0137C71.0443 40.1813 73.1132 41.627 73.3249 41.7275C73.5367 41.8281 72.4748 43.4841 69.7266 45.2756" fill="#D83D3B"/>
<path id="Vector_11" d="M70.7692 40.1543C70.8636 40.2639 71.0007 40.3493 71.115 40.4361C71.3252 40.5945 71.54 40.7499 71.7548 40.9023C72.1768 41.2039 72.6019 41.504 73.0376 41.7859C73.0894 41.8194 73.1412 41.8575 73.196 41.8849C73.2402 41.9062 73.2158 41.9154 73.196 41.8788C73.1838 41.8544 73.132 41.7691 73.1503 41.7935C73.132 41.7691 73.1655 41.7523 73.1457 41.8011C73.1412 41.8118 73.1168 41.8788 73.1366 41.8316C73.1076 41.9001 73.0711 41.9641 73.0315 42.0266C72.7649 42.4653 72.3962 42.8492 72.0306 43.2057C71.2993 43.9202 70.4797 44.5402 69.6251 45.1009C69.4103 45.241 69.6113 45.5884 69.8277 45.4467C70.6473 44.9089 71.4364 44.3178 72.1509 43.6445C72.5836 43.2377 73.0086 42.7974 73.3331 42.2993C73.4656 42.0951 73.6942 41.7356 73.4184 41.5497C73.0421 41.2968 72.6613 41.0531 72.2895 40.7926C72.0138 40.5991 71.7381 40.4041 71.4669 40.203C71.3298 40.1025 71.1622 40.0019 71.051 39.8709C70.8834 39.6744 70.6016 39.9593 70.7676 40.1543H70.7692Z" fill="#040000"/>
</g>
</g>
<g id="&#232;&#157;&#145;&#239;&#144;&#163;?&#233;&#138;&#157;&#239;&#147;&#131;&#231;&#142;&#168;_Pants">
<path id="Vector_12" d="M91.1089 93.3179C94.0934 102.433 95.4827 112.599 96.0799 118.57C94.1254 118.974 88.0712 120.042 84.0661 120.606C83.0652 108.091 80.3535 97.0275 80.3535 97.0275C79.9376 97.3535 66.2952 106.916 62.4455 104.157C53.4404 97.7481 50.3311 89.1346 50.2031 88.0834C52.3557 86.8646 62.1347 80.7968 70.672 78.9199C70.672 78.9199 76.7917 83.5268 77.0004 83.6746C77.2091 83.8223 89.2564 79.4607 89.6708 79.313C90.0852 79.1652 93.5876 77.6067 96.6299 82.3248C99.3157 86.0039 105.027 92.8746 112.046 105.114C111.63 105.693 102.075 111.345 101.674 111.657C101.273 111.969 91.8372 95.0105 91.8372 95.0105L91.1105 93.3195L91.1089 93.3179Z" fill="#49B8BC"/>
</g>
<g id="&#232;&#157;&#145;&#239;&#144;&#163;?&#233;&#138;&#157;&#239;&#147;&#131;&#231;&#142;&#168;_Clock_Pointer">
<path id="Vector_13" d="M76.5099 77.9769C78.1735 77.2518 129.008 54.2981 129.699 53.9401C131.003 53.2622 131.949 54.5404 130.569 55.2701C130.296 55.1162 77.2442 79.4943 77.2442 79.4943C77.2442 79.4943 87.3552 86.5569 87.8991 87.1663C88.1809 87.4816 88.2739 87.9676 87.7711 88.3942C87.2516 88.7613 86.4427 88.4475 86.0055 88.088C85.5286 87.6964 75.2317 80.1783 74.9941 79.735C74.7214 78.9245 75.3962 78.4644 76.5114 77.9784L76.5099 77.9769Z" fill="#EAB419"/>
<path id="Vector (Stroke)" fill-rule="evenodd" clip-rule="evenodd" d="M130.493 54.368C130.387 54.3528 130.212 54.3665 129.983 54.4858L129.982 54.4863C129.311 54.8334 84.3927 75.1181 77.5771 78.1742L77.5846 78.1817L76.7574 78.5422C76.1986 78.7857 75.8519 78.9832 75.6695 79.1676C75.5885 79.2495 75.5634 79.3063 75.5546 79.3407C75.5498 79.3593 75.5454 79.3876 75.5505 79.4308C75.5543 79.4343 75.5583 79.4378 75.5624 79.4415C75.6403 79.5114 75.7546 79.608 75.9044 79.7301C76.2028 79.9733 76.6208 80.3006 77.1226 80.6862C78.1249 81.4565 79.4462 82.4478 80.7775 83.4394C81.9387 84.3043 83.1148 85.1747 84.0902 85.8966C85.3356 86.8183 86.2537 87.4978 86.3957 87.6144L86.3961 87.6147C86.5494 87.7408 86.7781 87.8637 87.0019 87.9176C87.2101 87.9678 87.3337 87.9419 87.3994 87.9051C87.4572 87.852 87.4854 87.8101 87.4991 87.7839C87.5137 87.7557 87.516 87.7378 87.5162 87.7269C87.5167 87.7033 87.5058 87.6477 87.442 87.5763L87.4417 87.576C87.4422 87.5765 87.4415 87.5759 87.4396 87.5741C87.4303 87.5655 87.3911 87.5291 87.3013 87.4554C87.2049 87.3764 87.0745 87.274 86.9127 87.1501C86.5896 86.9029 86.1544 86.5802 85.6435 86.2072C84.6225 85.4619 83.3103 84.5238 82.0131 83.6034C80.7163 82.6832 79.4363 81.782 78.4804 81.1107C78.0024 80.775 77.6056 80.4969 77.3283 80.3028C77.1896 80.2057 77.0808 80.1296 77.0067 80.0778L76.8937 79.9988L76.8934 79.9986C76.8933 79.9985 76.8933 79.9985 77.2449 79.4952C76.9885 78.9373 76.9887 78.9372 76.9891 78.937L77.5845 78.6635C77.9731 78.485 78.5432 78.2232 79.2688 77.89C80.72 77.2237 82.7935 76.272 85.2826 75.1305C90.2606 72.8473 96.901 69.8048 103.55 66.767C110.199 63.7292 116.857 60.696 121.87 58.4316C124.376 57.2995 126.473 56.359 127.952 55.706C128.691 55.3798 129.279 55.1241 129.687 54.9519C129.891 54.8662 130.055 54.7991 130.173 54.7538C130.23 54.7317 130.286 54.7113 130.333 54.6963C130.338 54.6949 130.343 54.6933 130.348 54.6916C130.556 54.5692 130.616 54.465 130.63 54.4313C130.631 54.4282 130.632 54.4256 130.633 54.4234C130.62 54.4109 130.581 54.3805 130.493 54.368ZM77.2449 79.4952L76.9885 78.9373L76.0147 79.3848L76.8934 79.9986L77.2449 79.4952ZM78.474 79.6062C78.6823 79.7522 78.9218 79.9202 79.186 80.1058C80.1429 80.7778 81.4247 81.6803 82.7236 82.602C84.0222 83.5234 85.3397 84.4652 86.3675 85.2155C86.881 85.5904 87.3249 85.9194 87.6589 86.175C87.8256 86.3026 87.9682 86.4144 88.0797 86.5058C88.1791 86.5873 88.2869 86.6791 88.3575 86.7581M129.7 53.941L129.417 53.3963C130.241 52.9676 131.184 53.0644 131.645 53.7273C131.878 54.062 131.93 54.4871 131.769 54.8887C131.614 55.2754 131.286 55.5867 130.857 55.8137L130.56 55.9705L130.508 55.9413C130.418 55.9774 130.304 56.0248 130.164 56.0834C129.766 56.2515 129.186 56.5038 128.448 56.8294C126.974 57.4801 124.881 58.4189 122.375 59.5506C117.365 61.8139 110.709 64.8462 104.06 67.8838C97.412 70.9213 90.7722 73.9636 85.7945 76.2466C83.3056 77.388 81.2323 78.3397 79.7811 79.0059C79.2629 79.2439 78.8241 79.4454 78.474 79.6062M75.4766 79.3594C75.4768 79.3595 75.4792 79.362 75.4831 79.3667C75.4783 79.3617 75.4764 79.3593 75.4766 79.3594Z" fill="#EAB419"/>
</g>
<g id="&#232;&#157;&#145;&#239;&#144;&#163;?&#233;&#138;&#157;&#239;&#147;&#131;&#231;&#142;&#168;_Emotion">
<path id="Vector_14" d="M54.573 44.9547C55.019 44.9547 55.3805 44.5932 55.3805 44.1473C55.3805 43.7013 55.019 43.3398 54.573 43.3398C54.1271 43.3398 53.7656 43.7013 53.7656 44.1473C53.7656 44.5932 54.1271 44.9547 54.573 44.9547Z" fill="#040000"/>
<path id="Vector_15" d="M60.3934 44.7984C60.8393 44.7984 61.2008 44.4369 61.2008 43.991C61.2008 43.5451 60.8393 43.1836 60.3934 43.1836C59.9474 43.1836 59.5859 43.5451 59.5859 43.991C59.5859 44.4369 59.9474 44.7984 60.3934 44.7984Z" fill="#040000"/>
<path id="Vector_16" d="M55.9059 45.5867C55.8967 45.6004 55.947 45.538 55.915 45.5745C55.9028 45.5883 55.8921 45.602 55.88 45.6157C55.851 45.6492 55.8221 45.6827 55.7931 45.7178C55.7109 45.8183 55.6316 45.9249 55.5707 46.0407C55.4183 46.3363 55.397 46.676 55.6088 46.9502C55.7748 47.1665 56.0155 47.293 56.2623 47.3951C56.3629 47.4362 56.4832 47.3509 56.5091 47.2549C56.5411 47.1391 56.4695 47.0508 56.369 47.0081C56.2684 46.9654 56.1785 46.9182 56.0917 46.8603C56.0719 46.8481 56.0536 46.8344 56.0353 46.8207C56.0597 46.839 56.0262 46.8116 56.0186 46.8055C55.9866 46.7781 55.9576 46.7476 55.9302 46.7171C55.8982 46.6806 55.9363 46.7324 55.9196 46.7034C55.9119 46.6882 55.9013 46.676 55.8921 46.6608C55.883 46.6455 55.8769 46.6318 55.8693 46.6181C55.8586 46.5907 55.8662 46.612 55.8693 46.6181C55.88 46.6486 55.8678 46.612 55.8662 46.6059C55.8586 46.577 55.8525 46.5495 55.8464 46.5206C55.8525 46.548 55.8495 46.5541 55.848 46.5252C55.848 46.5084 55.848 46.4932 55.848 46.4764C55.848 46.4642 55.8525 46.446 55.851 46.4338C55.8464 46.4094 55.8403 46.4749 55.848 46.4505C55.8495 46.4444 55.8495 46.4383 55.851 46.4322C55.8571 46.4033 55.8632 46.3728 55.8723 46.3439C55.8769 46.3302 55.8815 46.318 55.886 46.3043C55.8891 46.2967 55.8921 46.289 55.8952 46.2814C55.8952 46.2814 55.8769 46.321 55.886 46.3012C55.8998 46.2753 55.9119 46.2464 55.9257 46.2205C55.9516 46.1733 55.9805 46.126 56.0125 46.0819C56.0277 46.0605 56.043 46.0407 56.0582 46.0194C56.0216 46.0681 56.0673 46.0087 56.081 45.992C56.1374 45.9234 56.1999 45.861 56.2501 45.7894C56.3126 45.701 56.2669 45.5669 56.1785 45.5151C56.0795 45.4572 55.9668 45.4984 55.9043 45.5867H55.9059Z" fill="#040000"/>
<path id="Vector_17" d="M56.8865 49.8738C58.2698 50.2211 59.8435 50.3979 60.983 49.3482C61.1734 49.173 60.8886 48.8897 60.6997 49.0648C59.6759 50.0079 58.2256 49.7976 56.9931 49.4884C56.7433 49.4259 56.6367 49.8113 56.8865 49.8753V49.8738Z" fill="#040000"/>
</g>
<g id="&#232;&#157;&#145;&#239;&#144;&#163;?&#233;&#138;&#157;&#239;&#147;&#131;&#231;&#142;&#168;_Shoes">
<path id="Vector_18" d="M95.7673 120.725C96.1969 120.869 96.1238 120.468 100.248 121.269C104.372 122.071 103.779 124.653 103.394 124.682C103.008 124.711 86.9542 126.848 86.9542 126.848L86.4941 122.531C86.4941 122.531 90.1595 123.198 91.4651 121.611C92.6884 120.145 95.3377 120.261 95.7673 120.725Z" fill="#28317C"/>
<path id="Vector_19" d="M112.777 107.457C113.23 107.438 113.018 107.09 117.154 106.356C121.292 105.622 121.665 108.245 121.316 108.411C120.967 108.577 106.752 116.338 106.752 116.338L104.771 112.474C104.771 112.474 108.431 111.781 109.08 109.829C109.695 108.023 112.209 107.179 112.777 107.457Z" fill="#28317C"/>
</g>
<g id="&#232;&#157;&#145;&#239;&#144;&#163;?&#233;&#138;&#157;&#239;&#147;&#131;&#231;&#142;&#168;_Clock_Circle">
<path id="Vector (Stroke)_2" fill-rule="evenodd" clip-rule="evenodd" d="M5.45486 102.038C2.6808 106.05 1.79737 109.453 2.90138 112.051C4.00539 114.65 7.06813 116.376 11.8819 117.164C16.6736 117.949 23.0816 117.782 30.6694 116.71C45.8394 114.568 65.6364 108.823 86.4573 99.9763C107.278 91.1298 125.156 80.8674 137.228 71.4349C143.267 66.7168 147.835 62.2202 150.597 58.2263C153.371 54.214 154.254 50.8111 153.15 48.2127C152.046 45.6144 148.983 43.8881 144.17 43.0998C139.378 42.3151 132.97 42.4822 125.382 43.5538C110.212 45.6963 90.4151 51.4413 69.5942 60.2878C48.7733 69.1344 30.8957 79.3968 18.8232 88.8293C12.7846 93.5474 8.2162 98.044 5.45486 102.038ZM18.3504 88.2243C30.4895 78.7398 48.4297 68.4461 69.294 59.5812C90.1582 50.7162 110.021 44.9478 125.275 42.7935C132.899 41.7168 139.393 41.5396 144.294 42.3421C149.172 43.141 152.591 44.9334 153.857 47.9125C155.123 50.8915 154.04 54.5968 151.228 58.6629C148.404 62.7475 143.768 67.2995 137.701 72.0399C125.562 81.5244 107.622 91.8181 86.7576 100.683C65.8933 109.548 46.0303 115.316 30.7768 117.471C23.1529 118.547 16.6583 118.725 11.7578 117.922C6.8794 117.123 3.46047 115.331 2.19471 112.352C0.928953 109.373 2.01199 105.667 4.8233 101.601C7.64731 97.5167 12.2832 92.9647 18.3504 88.2243Z" fill="#EAB419"/>
</g>
<g id="&#232;&#157;&#145;&#239;&#144;&#163;?&#233;&#138;&#157;&#239;&#147;&#131;&#231;&#142;&#168;_Clock_Dash">
<path id="Vector_20" d="M138.306 52.7571C139.349 52.3138 140.393 51.8689 141.436 51.4256C143.099 50.7187 144.761 50.0118 146.423 49.3034C146.802 49.142 147.181 48.9805 147.562 48.819C147.678 48.7702 147.701 48.6027 147.644 48.5036C147.577 48.3848 147.443 48.3726 147.329 48.4214C146.286 48.8647 145.242 49.3095 144.198 49.7529C142.536 50.4597 140.874 51.1666 139.212 51.875C138.833 52.0365 138.454 52.198 138.073 52.3595C137.957 52.4082 137.934 52.5758 137.99 52.6748C138.057 52.7936 138.192 52.8058 138.306 52.7571Z" fill="#EAB419"/>
<path id="Vector_21" d="M137.738 64.4427C139.574 64.039 141.41 63.6368 143.247 63.2331C143.507 63.1752 143.768 63.1188 144.03 63.0609C144.319 62.997 144.196 62.5536 143.908 62.6176C142.072 63.0213 140.237 63.4235 138.399 63.8272C138.139 63.8851 137.878 63.9415 137.616 63.9994C137.327 64.0634 137.45 64.5067 137.738 64.4427Z" fill="#EAB419"/>
<path id="Vector_22" d="M108.014 83.6287C109.842 83.7536 111.672 83.8785 113.5 84.005C113.764 84.0232 114.026 84.0415 114.289 84.0583C114.585 84.0781 114.583 83.618 114.289 83.5982C112.461 83.4733 110.631 83.3484 108.803 83.2219C108.54 83.2036 108.278 83.1853 108.014 83.1686C107.719 83.1488 107.72 83.6089 108.014 83.6287Z" fill="#EAB419"/>
<path id="Vector_23" d="M83.7912 93.7325C84.4326 94.9253 85.0739 96.1182 85.7153 97.311C85.8067 97.4817 85.8996 97.6523 85.991 97.8229C86.1312 98.0834 86.5288 97.8519 86.3887 97.5914C85.7473 96.3985 85.1059 95.2057 84.4645 94.0128C84.3731 93.8422 84.2802 93.6715 84.1888 93.5009C84.0487 93.2404 83.651 93.472 83.7912 93.7325Z" fill="#EAB419"/>
<path id="Vector_24" d="M61.9333 102.158C60.908 103.759 59.8827 105.359 58.8575 106.96C58.7143 107.184 58.5711 107.408 58.4278 107.63C58.2679 107.88 58.6655 108.112 58.8255 107.862C59.8507 106.261 60.876 104.661 61.9013 103.06C62.0445 102.836 62.1877 102.612 62.3309 102.39C62.4909 102.14 62.0932 101.908 61.9333 102.158Z" fill="#EAB419"/>
<path id="Vector_25" d="M31.7479 109.386C31.1294 109.808 30.5124 110.23 29.8939 110.65L26.9552 112.655C26.7282 112.809 26.5027 112.965 26.2757 113.118C26.032 113.284 26.262 113.684 26.5073 113.516C27.1258 113.094 27.7428 112.672 28.3613 112.252L31.3 110.247C31.527 110.093 31.7525 109.937 31.9795 109.784C32.2232 109.618 31.9932 109.218 31.7479 109.386Z" fill="#EAB419"/>
<path id="Vector_26" d="M7.32791 110.601C8.0683 110.267 8.81021 109.935 9.55061 109.602C10.7374 109.069 11.9256 108.534 13.1124 108.001C13.3836 107.879 13.6547 107.757 13.9244 107.635C14.194 107.513 13.961 107.117 13.6928 107.237C12.9524 107.571 12.2105 107.903 11.4701 108.237C10.2834 108.77 9.0951 109.305 7.90834 109.838C7.63717 109.96 7.366 110.082 7.09635 110.203C6.8267 110.325 7.05979 110.721 7.32791 110.601Z" fill="#EAB419"/>
<path id="Vector_27" d="M15.7633 93.9513C16.5494 93.8187 17.3355 93.6877 18.1216 93.5552L21.9043 92.9199C22.1922 92.8711 22.4816 92.8224 22.7696 92.7752C23.0575 92.7279 22.9372 92.2831 22.6477 92.3319C21.8616 92.4644 21.0755 92.5954 20.2894 92.7279L16.5067 93.3632C16.2188 93.412 15.9293 93.4607 15.6414 93.5079C15.3535 93.5552 15.4738 94 15.7633 93.9513Z" fill="#EAB419"/>
<path id="Vector_28" d="M38.6137 77.9001C39.5978 77.961 40.5804 78.0204 41.5646 78.0813C41.7062 78.0905 41.8479 78.0981 41.9896 78.1073C42.2852 78.1255 42.2836 77.6655 41.9896 77.6472C41.0055 77.5862 40.0228 77.5268 39.0387 77.4659C38.897 77.4567 38.7553 77.4491 38.6137 77.44C38.3181 77.4217 38.3196 77.8818 38.6137 77.9001Z" fill="#EAB419"/>
<path id="Vector_29" d="M96.1056 51.7207C95.2982 52.8892 94.4908 54.0592 93.6818 55.2277C93.5691 55.3907 93.4564 55.5537 93.3436 55.7182C93.1745 55.962 93.5737 56.1935 93.7413 55.9498C94.5487 54.7813 95.3561 53.6113 96.165 52.4428C96.2778 52.2798 96.3905 52.1168 96.5032 51.9523C96.6724 51.7085 96.2732 51.477 96.1056 51.7207Z" fill="#EAB419"/>
<path id="Vector_30" d="M132.346 44.0345C131.528 44.5692 130.709 45.1039 129.891 45.6386C128.587 46.4902 127.283 47.3434 125.979 48.195C125.68 48.39 125.383 48.585 125.084 48.78C124.837 48.9415 125.068 49.3406 125.316 49.1776C126.134 48.6429 126.954 48.1081 127.772 47.5734C129.076 46.7218 130.38 45.8687 131.684 45.0171C131.982 44.8221 132.279 44.6271 132.578 44.4321C132.825 44.2706 132.595 43.8715 132.346 44.0345Z" fill="#EAB419"/>
</g>
<g id="&#232;&#157;&#145;&#239;&#144;&#163;?&#233;&#138;&#157;&#239;&#147;&#131;&#231;&#142;&#168;_Arm">
<g id="Group_5">
<path id="Vector_31" d="M38.3467 45.2143C38.6438 44.8289 46.7439 38.3588 50.3651 38.5371C53.8812 38.8494 54.9491 39.8731 55.5433 40.155C56.1222 40.4216 56.7788 40.4368 57.1901 39.8884C57.1901 39.8884 57.7782 39.0124 56.7148 38.3604C56.2471 38.0724 56.1999 38.042 56.1999 38.042C56.1999 38.042 58.2504 38.3375 59.2087 38.4198C60.1623 38.5005 62.3546 38.2339 61.6644 35.2739C60.9743 32.3138 51.8489 30.3776 45.3957 32.9598C38.9409 35.542 30.047 40.6821 28.3545 42.8484C25.6169 46.9358 37.0823 58.878 38.3284 60.0648C40.7096 60.5889 45.9395 57.4841 44.4603 51.9433C41.6709 48.7837 39.0155 46.5793 38.3467 45.2143Z" fill="#EAC293"/>
<path id="Vector_32" d="M38.4884 45.3568C38.6743 45.1222 38.9592 44.9348 39.1907 44.7489C39.7041 44.3346 40.2297 43.9339 40.7614 43.5424C42.2665 42.4348 43.8235 41.3852 45.4551 40.4727C46.2473 40.0293 47.0608 39.6134 47.9078 39.2813C48.5797 39.0178 49.2957 38.7816 50.0208 38.742C50.5754 38.7116 51.1467 38.8152 51.6921 38.9081C52.2374 39.001 52.792 39.1275 53.3237 39.3011C53.9498 39.5053 54.5287 39.7902 55.0908 40.1299C55.3422 40.2822 55.5905 40.4178 55.88 40.4864C56.4239 40.6143 57.0363 40.4788 57.3623 39.9897C57.507 39.7719 57.571 39.4748 57.5451 39.2173C57.4857 38.6125 56.9921 38.2987 56.5183 38.0062C56.4452 37.9605 56.3721 37.9163 56.2989 37.8706L56.1451 38.2363C56.7194 38.3185 57.2953 38.3962 57.8711 38.4709C58.4774 38.5486 59.1066 38.6659 59.7206 38.6263C60.2279 38.5927 60.7489 38.4602 61.1633 38.154C61.6949 37.7609 61.9478 37.1546 61.9874 36.5056C62.0271 35.8566 61.925 35.1117 61.5609 34.5572C61.2562 34.0925 60.8174 33.7299 60.3543 33.4313C59.0731 32.6026 57.5283 32.173 56.0399 31.8988C54.1631 31.5545 52.2329 31.4691 50.3331 31.6337C49.3399 31.7205 48.3496 31.8759 47.3807 32.1136C46.4118 32.3512 45.548 32.6727 44.6599 33.0429C42.8104 33.8122 40.9975 34.6729 39.2136 35.5839C37.4296 36.495 35.6701 37.4639 33.9501 38.4952C32.5516 39.3347 31.1653 40.2091 29.8688 41.1993C29.4164 41.5452 28.9685 41.9032 28.5647 42.3084C28.257 42.6177 28.0194 42.9437 27.8807 43.3611C27.5806 44.2675 27.7589 45.2837 28.0315 46.1734C28.4017 47.3784 28.9913 48.5149 29.6312 49.5965C30.3639 50.8336 31.1896 52.0142 32.0549 53.1614C32.9203 54.3085 33.7901 55.3749 34.7073 56.4413C35.4431 57.2975 36.1972 58.1384 36.9711 58.9611C37.2285 59.2353 37.489 59.508 37.7526 59.7761C37.911 59.9376 38.1152 60.224 38.3437 60.2713C39.4314 60.4967 40.6426 60.0427 41.5688 59.5019C42.7937 58.7859 43.8189 57.6936 44.3872 56.388C44.7071 55.6537 44.8838 54.8691 44.9112 54.0678C44.9265 53.6184 44.893 53.169 44.8244 52.7257C44.7863 52.4819 44.7376 52.2397 44.6766 51.999C44.6065 51.7187 44.3369 51.5069 44.1465 51.2982C42.687 49.6864 41.092 48.2041 39.6295 46.5954C39.2166 46.1414 38.7901 45.6676 38.5143 45.113C38.4001 44.8815 38.0542 45.0841 38.1685 45.3157C38.4473 45.8778 38.8815 46.3653 39.3004 46.8284C39.9128 47.5064 40.5633 48.1508 41.2047 48.8013C42.0198 49.627 42.8317 50.4557 43.6163 51.3104C43.8205 51.5328 44.0657 51.7522 44.2394 52.0005C44.3582 52.1711 44.3765 52.4682 44.4131 52.6754C44.4877 53.1035 44.5228 53.5392 44.5136 53.9734C44.4832 55.4648 43.8844 56.8831 42.8637 57.9678C42.0197 58.8636 40.9046 59.5629 39.695 59.831C39.4558 59.8843 39.2151 59.9178 38.9698 59.9239C38.8571 59.927 38.7459 59.9239 38.6331 59.9148C38.5798 59.9102 38.5448 59.9056 38.496 59.898C38.4778 59.895 38.4412 59.8797 38.4229 59.8843C38.3772 59.8965 38.4534 59.9209 38.4488 59.9117C38.4168 59.8432 38.3026 59.7685 38.2492 59.7152C38.1517 59.6177 38.0558 59.5202 37.9583 59.4212C37.3382 58.7859 36.7349 58.1354 36.1423 57.4757C35.2983 56.5373 34.4757 55.5791 33.6805 54.5995C32.7953 53.5087 31.9422 52.3905 31.1485 51.2312C30.3548 50.0718 29.6845 48.9917 29.104 47.7897C28.6485 46.8467 28.2326 45.8199 28.1428 44.7657C28.1062 44.3437 28.123 43.937 28.2433 43.5378C28.356 43.1615 28.5449 42.898 28.8268 42.6146C29.7119 41.7204 30.7844 40.9982 31.828 40.3051C33.3301 39.3072 34.884 38.3886 36.4577 37.5111C38.1959 36.5422 39.9662 35.6266 41.7653 34.7735C42.6246 34.3652 43.4914 33.9722 44.3674 33.5989C45.2433 33.2257 46.0934 32.8844 46.9953 32.6315C48.8493 32.1151 50.7871 31.917 52.7082 31.9627C54.448 32.0039 56.2014 32.2385 57.865 32.7595C59.0061 33.116 60.3025 33.6248 61.0795 34.5815C61.4588 35.0477 61.5715 35.6342 61.5868 36.2284C61.602 36.8225 61.4421 37.4395 60.9469 37.8143C60.0603 38.4861 58.7943 38.1905 57.7919 38.0611C57.2755 37.9955 56.7605 37.9255 56.2456 37.8508C56.0293 37.8204 55.8876 38.087 56.0917 38.2164C56.4101 38.4206 56.8062 38.5836 57.018 38.9096C57.184 39.1655 57.178 39.5129 57.0302 39.7536C56.7621 40.1908 56.1984 40.1908 55.7688 40.037C55.5646 39.9638 55.3833 39.842 55.1975 39.7307C54.611 39.3773 53.9924 39.0939 53.3389 38.8883C52.8133 38.7222 52.274 38.6019 51.7301 38.5105C51.1863 38.4191 50.6104 38.3124 50.0544 38.3368C49.3399 38.3688 48.636 38.576 47.9703 38.8243C47.1431 39.1336 46.3463 39.522 45.5709 39.944C43.9393 40.8291 42.3869 41.8605 40.8863 42.9498C40.3074 43.3687 39.7361 43.7998 39.1755 44.2432C38.8678 44.4869 38.5509 44.7276 38.2675 45.0003C38.2431 45.0232 38.2188 45.046 38.1974 45.0734C38.039 45.273 38.3208 45.5594 38.4808 45.3568H38.4884Z" fill="#040000"/>
</g>
<g id="Group_6">
<path id="Vector_33" d="M85.9746 63.2574C87.0212 63.8637 101.767 72.1512 105.12 73.0059C108.328 73.6823 108.835 73.0714 110.912 73.0409C112.987 73.0104 114.125 74.4333 111.916 75.2072C112.709 75.2758 115.43 75.5622 115.223 78.9716C114.425 82.8549 111.392 82.2729 108.805 82.212C106.218 82.1511 88.7289 75.8745 81.7988 71.3027C82.9719 70.9477 85.871 66.516 85.9746 63.2559V63.2574Z" fill="#EAC293"/>
<path id="Vector_34" d="M85.8716 63.4345C86.9197 64.0408 87.9831 64.6228 89.0419 65.2093C91.0695 66.3305 93.1049 67.4366 95.1524 68.5197C97.1999 69.6029 99.3479 70.7211 101.488 71.7342C102.294 72.1166 103.108 72.4883 103.937 72.8173C104.227 72.9331 104.522 73.0428 104.822 73.1357C105.475 73.3353 106.181 73.4252 106.858 73.4876C107.457 73.5425 108.056 73.5394 108.655 73.4709C109.186 73.4115 109.713 73.3185 110.248 73.2759C110.935 73.221 111.674 73.1997 112.312 73.5029C112.692 73.6826 113.127 74.0589 112.771 74.4779C112.542 74.746 112.181 74.8968 111.86 75.0111C111.641 75.0903 111.683 75.3904 111.915 75.4117C112.29 75.4437 112.644 75.5001 113.028 75.6235C113.542 75.7896 114.014 76.0714 114.366 76.4843C115.431 77.735 115.141 79.8221 114.095 80.9891C113.14 82.0539 111.636 82.1057 110.306 82.0661C109.747 82.0494 109.176 82.0524 108.62 81.9976C108.591 81.9945 108.56 81.9915 108.531 81.9869C108.508 81.9839 108.493 81.9823 108.527 81.9869C108.507 81.9839 108.487 81.9808 108.466 81.9778C108.394 81.9671 108.322 81.9549 108.252 81.9427C108.08 81.9123 107.91 81.8757 107.739 81.8376C106.74 81.6121 105.755 81.3151 104.777 81.0104C103.411 80.5838 102.057 80.1207 100.708 79.6393C99.1285 79.0756 97.5579 78.4845 95.9963 77.8691C94.3556 77.2231 92.7255 76.5513 91.1092 75.8459C89.4928 75.1406 88.0364 74.4703 86.5282 73.7207C85.2195 73.0702 83.9231 72.3847 82.6754 71.6214C82.4134 71.4615 82.1544 71.2969 81.8985 71.1278L81.8497 71.4996C82.2123 71.3853 82.5124 71.0989 82.7714 70.8323C83.1751 70.4149 83.527 69.9441 83.85 69.4612C84.6528 68.2668 85.3079 66.9491 85.7421 65.5764C85.9797 64.8254 86.1473 64.0454 86.1763 63.2562C86.1854 62.9942 85.7787 62.9942 85.7695 63.2562C85.7208 64.6304 85.2424 65.9832 84.6574 67.2141C84.1272 68.3293 83.4813 69.4368 82.6556 70.36C82.4956 70.5383 82.3265 70.7119 82.1407 70.8643C82.0188 70.9633 81.8512 71.0715 81.7431 71.105C81.5724 71.1598 81.5465 71.3807 81.6943 71.4767C82.8811 72.2582 84.1272 72.9453 85.3887 73.5958C86.9029 74.3773 88.4447 75.101 90.0001 75.7957C91.6485 76.5315 93.3136 77.2292 94.9894 77.901C96.6651 78.5729 98.2373 79.1731 99.8765 79.7673C101.298 80.2837 102.727 80.7788 104.168 81.2404C105.228 81.5801 106.295 81.9077 107.378 82.1682C107.716 82.2489 108.059 82.3251 108.403 82.3739C108.889 82.4424 109.386 82.4333 109.876 82.4546C111.266 82.5125 112.829 82.5506 113.984 81.6472C114.634 81.1383 115.036 80.3919 115.271 79.6134C115.346 79.3666 115.422 79.1107 115.432 78.8532C115.443 78.6094 115.438 78.3657 115.414 78.1235C115.373 77.7091 115.282 77.3054 115.112 76.923C114.634 75.8368 113.566 75.2426 112.433 75.0644C112.261 75.037 112.087 75.0172 111.915 75.0019L111.97 75.4026C112.513 75.2076 113.327 74.8389 113.319 74.1442C113.315 73.573 112.74 73.218 112.265 73.0428C111.06 72.598 109.742 72.9544 108.511 73.0763C107.872 73.1403 107.23 73.1235 106.592 73.0489C105.954 72.9742 105.369 72.8844 104.787 72.6939C104.064 72.4563 103.365 72.147 102.674 71.8347C100.564 70.8795 98.5009 69.8162 96.4503 68.7406C94.2886 67.6087 92.1436 66.4478 90.0062 65.2718C88.7417 64.5755 87.4788 63.8793 86.225 63.1633C86.1763 63.1359 86.126 63.1069 86.0772 63.0795C85.8503 62.9485 85.6446 63.3004 85.8716 63.4314V63.4345Z" fill="#040000"/>
</g>
</g>
<g id="&#232;&#157;&#145;&#239;&#144;&#163;?&#233;&#138;&#157;&#239;&#147;&#131;&#231;&#142;&#168;_Pants_Line">
<path id="Vector_35" d="M64.0535 90.1117C66.7362 89.3561 69.3885 88.5014 72.0363 87.6269C74.2666 86.8911 76.4938 86.1386 78.7577 85.5109C80.7016 84.9731 82.6836 84.5237 84.6991 84.3714C85.508 84.3104 86.4419 84.2556 87.1838 84.6486C87.8206 84.9853 88.174 85.6389 88.4269 86.2863C88.8002 87.2385 89.0881 88.2318 89.4034 89.2037C89.7615 90.3067 90.1134 91.4112 90.4622 92.5172C90.5338 92.7457 90.6054 92.9742 90.677 93.2027C90.7532 93.448 91.1402 93.3429 91.064 93.0961C90.4028 90.9785 89.7127 88.8716 89.0211 86.7632C88.7712 86.0014 88.4635 85.1712 87.8465 84.6258C87.2295 84.0804 86.4815 83.9585 85.7198 83.9387C84.7189 83.9128 83.7043 84.0499 82.7186 84.2084C81.7329 84.3668 80.6818 84.5953 79.6778 84.8512C77.4125 85.4286 75.1898 86.1645 72.9717 86.8957C70.33 87.7671 67.6899 88.64 65.0193 89.4185C64.6628 89.5221 64.3063 89.6242 63.9483 89.7247C63.7 89.7948 63.8051 90.1818 64.055 90.1117H64.0535Z" fill="#040000"/>
<path id="Vector_36" d="M74.842 84.8415C75.5809 84.5916 76.3183 84.3418 77.0526 84.0797C77.1546 84.0432 77.2232 83.9426 77.1927 83.833C77.1653 83.7339 77.048 83.6562 76.9459 83.6928C76.2116 83.9548 75.4728 84.2047 74.7354 84.4545C74.4932 84.5368 74.5968 84.9237 74.842 84.8415Z" fill="#040000"/>
<g id="Group_7">
<path id="Vector_37" d="M69.7896 47.9492C69.7988 48.1046 69.718 48.8618 69.6602 49.0507L69.7896 47.9492Z" fill="#EAC293"/>
<path id="Vector_38" d="M69.5902 47.9498C69.5993 48.125 69.5719 48.3078 69.5521 48.4815C69.546 48.5364 69.5399 48.5927 69.5323 48.6476C69.5277 48.678 69.5277 48.6735 69.5323 48.646C69.5293 48.6613 69.5277 48.675 69.5262 48.6902C69.5232 48.7161 69.5186 48.742 69.514 48.7679C69.5018 48.8456 69.4912 48.9233 69.4683 48.998C69.4379 49.0985 69.5049 49.2204 69.6085 49.2448C69.7121 49.2691 69.8233 49.2128 69.8553 49.1046C69.9132 48.9096 69.9284 48.6963 69.9513 48.4952C69.9711 48.317 70 48.1296 69.9909 47.9498C69.9848 47.8447 69.9025 47.7442 69.7913 47.7503C69.6877 47.7548 69.5856 47.8386 69.5917 47.9498H69.5902Z" fill="#040000"/>
</g>
</g>
<g id="&#232;&#157;&#145;&#239;&#144;&#163;?&#233;&#138;&#157;&#239;&#147;&#131;&#231;&#142;&#168;_TopCloth">
<path id="Vector_39" d="M37.8281 59.8777C38.3583 60.4825 46.9078 67.9002 49.0452 68.9468C52.5613 70.0589 56.0058 62.0136 51.8879 56.5612C51.504 56.5993 51.309 56.6755 51.0257 56.6313C46.6046 53.56 44.6607 51.8629 44.2936 51.4531C44.3332 52.5348 42.758 59.5989 37.8281 59.8762V59.8777Z" fill="#E4E8F5"/>
<path id="Vector_40" d="M72.8471 55.8516C73.1472 56.3528 74.7499 59.1559 72.6582 66.1653C76.153 68.2798 80.117 70.2907 81.7866 71.3358C83.5386 71.5491 87.2436 64.9709 86.0858 63.0788C84.3049 61.5203 75.6548 56.3772 75.0058 56.0725C74.2715 55.7282 73.2371 55.8287 72.8471 55.8516Z" fill="#E4E8F5"/>
<path id="Vector_41" d="M59.8016 54.9785C58.787 55.1385 57.2285 55.3944 56.4043 55.498C56.4043 55.987 58.2705 59.0918 59.8275 59.8337C61.2016 58.7429 62.9216 57.0626 63.0998 56.6619C62.5544 56.6391 59.8762 55.2009 59.8016 54.9785Z" fill="#E4E8F5"/>
<path id="Vector_42" d="M66.4039 54.4473C66.7939 54.5478 68.4408 55.404 68.7302 55.4268C69.0197 55.4497 68.485 58.2757 66.7391 59.8341C65.6712 59.3893 63.2123 56.8513 63.0996 56.6075C65.4137 55.4832 66.2409 54.5966 66.4039 54.4488V54.4473Z" fill="#E4E8F5"/>
</g>
<g id="&#232;&#157;&#145;&#239;&#144;&#163;?&#233;&#138;&#157;&#239;&#147;&#131;&#231;&#142;&#168;_Vest">
<path id="Vector_43" d="M51.8871 56.561C52.3822 56.462 55.9364 55.6149 56.4407 55.5555C56.5747 56.0384 58.8218 59.3245 59.7511 59.7252C60.624 59.1691 62.833 56.9388 63.0767 56.7042C63.4378 56.9495 65.9515 59.62 66.7376 59.8318C67.5237 59.0868 69.0227 56.3568 68.8033 55.4961C69.3746 55.5707 72.5388 55.5845 72.8816 55.9089C73.1528 56.1664 74.728 58.5308 72.6576 66.1647C70.2034 75.217 70.729 77.1365 70.6696 78.9174C68.8597 79.3623 62.1155 80.8979 50.2007 88.0809C46.9451 82.2995 47.5148 69.2695 47.8789 68.2061C48.4959 68.8643 51.3006 70.0145 52.6442 66.835C55.0985 61.3568 52.7448 57.2648 51.8886 56.561H51.8871Z" fill="#2A2F7F"/>
</g>
</g>
</g>
<defs>
<clipPath id="clip0_2281_9641">
<rect width="156" height="156" fill="white"/>
</clipPath>
</defs>
</svg>
