<svg width="266" height="229" viewBox="0 0 266 229" fill="none" xmlns="http://www.w3.org/2000/svg">
<mask id="mask0_813_21421" style="mask-type:luminance" maskUnits="userSpaceOnUse" x="-5" y="0" width="271" height="244">
<path d="M-4.02681 -6.85959e-05L265.48 1.0791L264.507 243.073L-5.00068 241.994L-4.02681 -6.85959e-05Z" fill="white"/>
</mask>
<g mask="url(#mask0_813_21421)">
<path d="M117.32 124.858C117.32 124.858 129.687 125.568 131.214 126.842C132.953 128.287 132.558 131.046 133.045 133.844C134.349 141.266 127.29 138.1 126.394 137.68C118.031 133.712 127.211 140.228 126.025 142.514C124.893 144.721 114.62 135.801 114.62 135.801L86.0019 125.541L64.3242 97.2048L79.7857 92.1733L93.1005 112.299L117.32 124.871V124.858Z" fill="#FCE4BC" stroke="#050000" stroke-width="0.5" stroke-miterlimit="10"/>
<path d="M13.4367 54.654C12.6465 29.0631 28.266 7.92575 46.6249 6.17853C66.9329 4.24739 86.3454 26.462 85.4235 54.943C61.4279 54.851 37.4323 54.7459 13.4235 54.654H13.4367Z" fill="#262E7D"/>
<path d="M49.2545 80.101C42.7884 80.0751 37.5589 76.9898 37.5741 73.2098C37.5893 69.4298 42.8435 66.3865 49.3096 66.4123C55.7757 66.4382 61.0052 69.5235 60.99 73.3035C60.9748 77.0835 55.7207 80.1269 49.2545 80.101Z" fill="#262E7D"/>
<path d="M90.5446 171.652L108.113 176.302L88.3189 249.331L104.426 258.697L92.046 267.867L65.9037 262.862L69.5912 249.515L69.4727 249.475L90.5446 171.652Z" fill="#FCE4BC" stroke="#050000" stroke-width="0.5" stroke-miterlimit="10"/>
<path d="M37.7342 164.729L55.9087 165.267L53.1562 257.528L70.9883 262.98L61.0186 274.725L34.4285 275.789L34.9554 261.955H34.8368L37.7342 164.729Z" fill="#FCE4BC" stroke="#050000" stroke-width="0.5" stroke-miterlimit="10"/>
<path d="M26.6721 34.0026C27.8442 27.4604 31.163 21.7721 35.7725 17.8704C39.9079 13.6534 45.3075 11.118 51.2077 11.1442C60.5452 11.1837 68.5656 17.6339 72.3059 26.9218C74.0443 30.6395 75.0189 34.8696 75.0057 39.3493C74.9662 50.2267 69.0793 59.5671 60.6637 63.7972C59.3862 64.4672 58.0297 65.0058 56.6468 65.4131L56.5283 95.2077L41.3434 95.1421L41.4619 64.2439C34.7452 61.2487 29.5168 55.0349 27.3306 47.3498C23.7484 47.179 20.9168 44.2363 20.93 40.6236C20.9432 37.2606 23.4454 34.4886 26.6852 34.0157L26.6721 34.0026Z" fill="#FCE4BC" stroke="#050000" stroke-width="0.5" stroke-miterlimit="10"/>
<path d="M54.5786 44.197L54.5918 38.6138" stroke="#272521" stroke-width="0.53" stroke-linecap="round" stroke-linejoin="round"/>
<path d="M60.9129 38.6005C61.4002 39.8354 62.8094 40.4397 64.0473 39.9536C65.2853 39.4675 65.8911 38.0619 65.4038 36.827C64.9166 35.5921 63.5074 34.9878 62.2694 35.4739C61.0314 35.96 60.4256 37.3656 60.9129 38.6005Z" fill="#272521"/>
<path d="M41.1316 38.5216C41.6189 39.7565 43.0281 40.3608 44.2661 39.8748C45.5041 39.3887 46.1099 37.983 45.6226 36.7482C45.1353 35.5133 43.7261 34.909 42.4881 35.3951C41.2502 35.8811 40.6444 37.2868 41.1316 38.5216Z" fill="#272521"/>
<path d="M28.7141 38.5085C28.7141 38.5085 24.4997 35.9337 24.9606 31.6905C25.4216 27.4472 28.9116 15.4663 36.076 11.0654C41.0806 8.00449 49.404 7.15059 52.6438 7.16372C60.875 7.19 65.985 11.6172 67.9341 13.233C72.807 17.2661 75.4805 26.1204 75.4805 26.1204L42.6742 16.2151C42.6742 16.2151 30.334 22.5208 28.7141 38.5085Z" fill="#262E7D"/>
<path d="M37.3001 46.2123C35.2999 46.2043 33.6828 45.1098 33.6882 43.7675C33.6936 42.4253 35.3195 41.3437 37.3197 41.3517C39.3199 41.3597 40.937 42.4543 40.9316 43.7965C40.9262 45.1388 39.3004 46.2204 37.3001 46.2123Z" fill="#D83D3B"/>
<path d="M69.1576 46.3271C67.1574 46.3191 65.5402 45.2245 65.5456 43.8823C65.551 42.54 67.1769 41.4584 69.1771 41.4665C71.1773 41.4745 72.7944 42.569 72.789 43.9113C72.7836 45.2535 71.1578 46.3351 69.1576 46.3271Z" fill="#D83D3B"/>
<path d="M44.2664 29.1027L77.0332 29.234C73.4642 19.8674 64.6008 13.2201 54.2097 13.1807C52.0367 13.1807 49.9427 13.4565 47.9408 13.982L44.2796 29.1027H44.2664Z" fill="#262E7D"/>
<path d="M47.9277 13.9951C40.3287 16.0182 34.1388 21.6671 31.2546 29.0501L39.8414 29.0895L47.9277 13.9951Z" fill="#262E7D"/>
<path d="M60.6907 71.745C60.8883 72.2442 60.9936 72.7566 60.9936 73.2952C60.9805 77.0786 55.7257 80.1133 49.2592 80.087C42.7928 80.0607 37.5643 76.9736 37.5775 73.2032C37.5775 72.6646 37.6829 72.1523 37.8936 71.6531C27.2128 73.1376 18.9684 82.2546 18.9289 93.3159L18.6918 151.828L79.2472 152.064L79.4842 93.5524C79.5237 82.4911 71.3584 73.2952 60.6907 71.7319V71.745Z" fill="#E4E7F3"/>
<path d="M49.2578 80.087C49.2578 80.087 44.7932 86.2877 39.3277 84.7112C33.8622 83.1348 34.3363 76.5532 37.8922 71.6531" stroke="#272521" stroke-width="0.53" stroke-linecap="round" stroke-linejoin="round"/>
<path d="M49.2593 80.1266C49.2593 80.1266 53.6712 86.3667 59.1499 84.8297C64.6286 83.2927 64.2072 76.711 60.6908 71.7847" stroke="#272521" stroke-width="0.53" stroke-linecap="round" stroke-linejoin="round"/>
<path d="M96.8926 111.616L79.1658 123.321L58.0281 91.4768L74.3061 79.0361L96.8926 111.616Z" fill="#E4E7F3"/>
<path d="M38.5245 116.818C30.8069 120.142 21.2061 114.887 14.7528 111.235C21.588 104.456 11.9871 93.3686 5.87627 101.553C-15.8673 119.8 32.5586 139.873 43.9901 127.301C45.9524 122.48 36.47 120.746 34.534 121.85C34.534 121.85 43.8715 117.278 38.5377 116.818H38.5245Z" fill="#FCE4BC" stroke="#050000" stroke-width="0.5" stroke-miterlimit="10"/>
<path d="M5.71801 99.2278L21.5483 113.389L36.5488 96.6924L21.8644 82.4519L5.71801 99.2278Z" fill="#E4E7F3"/>
<path d="M79.2456 152.078C79.2456 152.078 112.513 172.269 113.343 177.077C114.172 181.885 106.665 217.29 104.097 224.279C101.516 231.267 100.936 235.235 100.936 235.235C100.936 235.235 75.7424 235.261 73.3982 233.343L71.0408 231.425L77.336 189.085C77.336 189.085 64.7719 178.864 63.9948 179.994C63.2178 181.124 63.9948 233.698 63.7709 235.09C63.5602 236.483 47.4534 240.371 41.0528 240.345C34.6522 240.319 31.07 237.573 31.07 237.573C31.07 237.573 31.4783 182.976 29.7925 181.268C28.1068 179.56 18.2425 176.565 15.8192 173.662C13.4091 170.758 13.6857 153.799 18.6771 151.841C23.6817 149.897 79.2324 152.078 79.2324 152.078H79.2456Z" fill="#262E7D"/>
<path d="M52.6836 53.6558C52.6836 53.6558 51.4325 54.0367 49.9574 53.3273C48.4956 52.6179 47.9161 51.5933 47.9161 51.5933" stroke="#272521" stroke-width="0.53" stroke-linecap="round" stroke-linejoin="round"/>
<path d="M124.31 131.356L130.582 141.957C130.686 142.132 130.627 142.357 130.452 142.461L130.202 142.608C130.027 142.711 129.801 142.653 129.697 142.478L123.425 131.877C123.322 131.702 123.38 131.477 123.555 131.373L123.805 131.226C123.98 131.123 124.206 131.181 124.31 131.356Z" fill="#AA182C"/>
<path d="M118.716 120.299L118.11 120.628L117.623 120.956L117.557 121.206C117.557 121.206 120.534 126.999 121.35 128.352C122.167 129.705 123.563 132.346 124.01 132.99C124.458 133.633 128.449 140.57 128.449 140.57C128.449 140.57 130.055 143.21 130.332 143.723C130.595 144.235 131.056 145.549 131.135 145.641C131.214 145.733 134.033 147.834 134.033 147.834L134.586 147.559L134.02 143.959C134.02 143.959 132.782 142.475 132.373 141.805C131.965 141.135 127.395 133.568 127.395 133.568C127.395 133.568 125.077 129.85 124.577 129.075C124.09 128.313 120.968 123.413 120.573 122.808C120.178 122.204 119.072 120.575 118.94 120.457C118.808 120.339 118.716 120.299 118.716 120.299Z" fill="#050000"/>
<path d="M117.624 120.956C117.624 120.956 117.057 119.84 117.505 119.551C117.953 119.262 118.717 120.299 118.717 120.299L117.624 120.956Z" fill="#050000"/>
<path d="M124.319 131.36L126.93 135.772C127.033 135.947 126.975 136.173 126.8 136.276L126.55 136.423C126.375 136.526 126.149 136.468 126.045 136.293L123.434 131.881C123.331 131.706 123.389 131.48 123.565 131.377L123.814 131.23C123.989 131.127 124.216 131.185 124.319 131.36Z" fill="#AA182C"/>
<path d="M124.34 131.885L126.724 135.913C126.797 136.038 126.756 136.199 126.631 136.273L126.438 136.386C126.312 136.46 126.151 136.418 126.077 136.293L123.694 132.266C123.62 132.141 123.662 131.98 123.787 131.906L123.98 131.793C124.105 131.719 124.266 131.76 124.34 131.885Z" fill="#EBEBEA"/>
<path d="M127.819 137.752L130.202 141.779C130.276 141.904 130.234 142.065 130.109 142.139L129.916 142.253C129.791 142.326 129.63 142.285 129.556 142.16L127.172 138.132C127.099 138.007 127.14 137.846 127.265 137.773L127.458 137.659C127.583 137.585 127.745 137.627 127.819 137.752Z" fill="#AA182C"/>
<path d="M131.135 145.654C131.135 145.654 131.886 145.352 132.505 144.997C133.124 144.642 133.861 144.077 133.861 144.077" stroke="#AA182C" stroke-width="0.53" stroke-miterlimit="10"/>
<path d="M134.033 147.861C134.033 147.861 134.402 148.255 134.547 148.189C134.691 148.123 134.586 147.585 134.586 147.585L134.033 147.861Z" fill="#AA182C"/>
<path d="M122.851 131.006C122.851 131.006 123.233 130.507 123.667 130.257C124.102 130.008 124.826 129.745 124.826 129.745" stroke="#AA182C" stroke-width="0.53" stroke-miterlimit="10"/>
<path d="M125.235 129.075C125.235 129.075 121.126 134.803 125.196 137.588C127.764 139.348 130.806 139.519 132.123 138.126" fill="#FCE4BC"/>
<path d="M125.235 129.075C125.235 129.075 121.126 134.803 125.196 137.588C127.764 139.348 130.806 139.519 132.123 138.126" stroke="#050000" stroke-width="0.5" stroke-miterlimit="10"/>
<path d="M218.426 151.066L242.633 289.569" stroke="white" stroke-width="0.53" stroke-miterlimit="10"/>
<path d="M-81.6828 142.266L243.217 143.567L243.18 152.749L-81.7197 151.448L-81.6828 142.266Z" fill="white" stroke="#272521" stroke-width="0.53" stroke-miterlimit="10"/>
<path d="M131.952 26.1863L248.098 30.8236L247.782 108.778L131.61 109.632L131.952 26.1863Z" fill="#696968"/>
<path d="M131.951 26.1863L128.211 26.8694L127.868 108.923L131.609 109.632L131.951 26.1863Z" fill="#403F3F"/>
<path d="M224.093 144.757L155.004 144.481L155.029 138.346L224.117 138.622L224.093 144.757Z" fill="#403F3F"/>
<path d="M247.873 85.2633C247.873 85.2633 224.523 89.2964 197.564 89.0731C170.605 88.8497 131.727 83.792 131.727 83.792L131.622 109.646L247.781 108.792L247.873 85.2765V85.2633Z" fill="#403F3F"/>
<path d="M207.233 61.2488C206.265 61.2488 205.481 60.4666 205.481 59.5016C205.481 58.5367 206.265 57.7544 207.233 57.7544C208.2 57.7544 208.984 58.5367 208.984 59.5016C208.984 60.4666 208.2 61.2488 207.233 61.2488Z" fill="#403F3F"/>
<path d="M187.016 60.4605C186.049 60.4605 185.264 59.6782 185.264 58.7133C185.264 57.7483 186.049 56.9661 187.016 56.9661C187.983 56.9661 188.768 57.7483 188.768 58.7133C188.768 59.6782 187.983 60.4605 187.016 60.4605Z" fill="#403F3F"/>
<path d="M186.95 78.5633C185.982 78.5633 185.198 77.781 185.198 76.8161C185.198 75.8511 185.982 75.0688 186.95 75.0688C187.917 75.0688 188.701 75.8511 188.701 76.8161C188.701 77.781 187.917 78.5633 186.95 78.5633Z" fill="#403F3F"/>
<path d="M207.164 78.6421C206.197 78.6421 205.413 77.8599 205.413 76.8949C205.413 75.93 206.197 75.1477 207.164 75.1477C208.132 75.1477 208.916 75.93 208.916 76.8949C208.916 77.8599 208.132 78.6421 207.164 78.6421Z" fill="#403F3F"/>
<path d="M204.666 94.4775L186.531 94.4049L186.465 110.747C186.451 114.281 189.311 117.156 192.853 117.171L198.161 117.192C201.703 117.206 204.586 114.354 204.6 110.82L204.666 94.4775Z" fill="#696968"/>
<path d="M191.837 94.4389L201.662 94.4783L201.466 143.321L191.641 143.282L191.837 94.4389Z" fill="#403F3F"/>
<path d="M248.031 44.4861C248.031 44.4861 243.83 48.2302 235.889 49.3862C221.336 51.5013 153.945 48.9396 145.227 46.5487C136.508 44.1577 131.899 39.481 131.899 39.481L248.031 44.4861Z" fill="#403F3F"/>
</g>
</svg>
