<svg xmlns="http://www.w3.org/2000/svg" xmlns:xlink="http://www.w3.org/1999/xlink" width="240" height="240" viewBox="0 0 240 240">
  <defs>
    <clipPath id="clip-path">
      <rect id="Rectangle_3349" data-name="Rectangle 3349" width="130.653" height="203.524" fill="none"/>
    </clipPath>
  </defs>
  <g id="RandomPicker_Picture" data-name="RandomPicker Picture" transform="translate(-673.95 -224.95)">
    <rect id="Rectangle_3350" data-name="Rectangle 3350" width="240" height="240" transform="translate(673.95 224.95)" fill="rgba(255,255,255,0)"/>
    <g id="Group_17401" data-name="Group 17401" transform="translate(819.714 226.801) rotate(45)">
      <g id="Group_17400" data-name="Group 17400" transform="translate(0 0)" clip-path="url(#clip-path)">
        <path id="Path_11737" data-name="Path 11737" d="M32.758,9.728A197.365,197.365,0,0,0,62.365,7.494L65.506.017A189.592,189.592,0,0,1,32.758,2.843,188.562,188.562,0,0,1,0,0L3.139,7.471A194.927,194.927,0,0,0,32.758,9.728Z" transform="translate(32.309 134.72)" fill="#737575"/>
        <path id="Path_11738" data-name="Path 11738" d="M34.841,7.158,37.849,0c-6.179.611-12.5.936-18.925.936S6.177.611,0,0L3.009,7.158c5.224.422,10.528.663,15.915.663s10.692-.241,15.917-.663" transform="translate(46.141 167.64)" fill="#737575"/>
        <path id="Path_11739" data-name="Path 11739" d="M77.176,34.732,88.4,8.031A5.788,5.788,0,0,0,83.059,0H5.795A5.789,5.789,0,0,0,.458,8.031L11.673,34.718a188.724,188.724,0,0,0,32.755,2.84,189.61,189.61,0,0,0,32.749-2.826" transform="translate(20.638 100.004)" fill="#ffd753"/>
        <path id="Path_11740" data-name="Path 11740" d="M15.919.663C10.53.663,5.227.422,0,0L10.581,25.18a5.787,5.787,0,0,0,10.671,0L31.834,0C26.608.422,21.3.663,15.919.663" transform="translate(49.148 174.798)" fill="#ffd753"/>
        <path id="Path_11741" data-name="Path 11741" d="M48.546,25.457,59.229.031A197.365,197.365,0,0,1,29.622,2.265,194.981,194.981,0,0,1,0,0L10.7,25.457c6.179.613,12.5.938,18.925.938s12.745-.325,18.924-.938" transform="translate(35.445 142.181)" fill="#ffd753"/>
        <path id="Path_11742" data-name="Path 11742" d="M89.644,11.859c0,6.549-20.068,11.858-44.823,11.858S0,18.407,0,11.859,20.068,0,44.821,0,89.644,5.31,89.644,11.859" transform="translate(20.244 92.395)" fill="#e5984b"/>
        <path id="Path_11743" data-name="Path 11743" d="M5.017,50.432A60.541,60.541,0,0,1,7.685,39.808c.967-2.738,2.064-6.592,5.279-7.344,3.057-.714,6.409.447,9.489.551a26.343,26.343,0,0,0,9.179-1.353A27.015,27.015,0,0,0,49.6,1.869c-.473-3.275-5.449-1.883-4.977,1.373A21.768,21.768,0,0,1,23.781,27.858c-5.895.138-12.53-2.611-17.11,2.613-1.955,2.229-2.99,5.212-3.965,7.964A60.237,60.237,0,0,0,.038,49.059c-.52,3.251,4.456,4.65,4.979,1.373" transform="translate(80.758 58.697)" fill="#ff4248"/>
        <path id="Path_11744" data-name="Path 11744" d="M.285,3.926c2.669,5.5,9.5,6.42,14.669,8.265,5.723,2.043,13.5,4.675,16.249,10.59,1.33,2.867,1.862,6.094,2.7,9.124a88.635,88.635,0,0,0,3.062,9.23A52.1,52.1,0,0,0,47.323,57.949c2.293,2.415,5.94-1.239,3.652-3.65A47.505,47.505,0,0,1,41.17,37.744c-1.115-3.043-2.033-6.156-2.845-9.294a40.3,40.3,0,0,0-2.971-8.891c-3.07-5.81-9.63-8.571-15.4-10.95C17,7.394,13.99,6.451,10.958,5.484,8.486,4.7,5.942,3.79,4.743,1.32,3.293-1.669-1.161.947.285,3.926" transform="translate(0.001 52.32)" fill="#0a8cf0"/>
        <path id="Path_11745" data-name="Path 11745" d="M18.1.438C8.83,6.6,7.563,18.543,6.482,28.694a94.134,94.134,0,0,0-.32,20.412c.63,5.635,1.8,12.132,7.088,15.3a9.147,9.147,0,0,0,12.993-3.449A17.411,17.411,0,0,0,28,52.574c.022-2.676-.308-5.63-3.432-6.275-2.322-.48-4.549.888-6.461,2.014a56.546,56.546,0,0,0-7.874,5.625C5.715,57.774,1.861,62.45.593,68.377c-3.06,14.3,6.728,26.849,6.7,40.868-.005,3.322,5.158,3.327,5.163,0,.017-10.189-4.878-19.237-6.723-29.071-.831-4.435-.978-9.241.756-13.49s5.344-7.552,8.891-10.311a50.154,50.154,0,0,1,5.984-3.979c.709-.4,1.5-.663,2.194-1.034l-.735-.33c.007.386.012.773.012,1.16,0,.773,0,1.547-.065,2.318-.162,2.019-.733,4.5-2.577,5.688-1.745,1.122-3.891.317-5.306-.969-3.4-3.088-3.592-9.208-3.852-13.438a99.234,99.234,0,0,1,.477-15.845c.826-8.337,1.447-19.9,9.192-25.047,2.756-1.83.172-6.3-2.606-4.458" transform="translate(55.559 -0.001)" fill="#62f576"/>
        <path id="Path_11746" data-name="Path 11746" d="M8.6,0l2.656,5.382,5.94.862-4.3,4.189,1.014,5.914L8.6,13.556,3.284,16.347,4.3,10.433,0,6.244l5.94-.862Z" transform="translate(86.918 59.57)" fill="#ffd753"/>
        <path id="Path_11747" data-name="Path 11747" d="M8.6,0l2.656,5.382,5.94.862-4.3,4.189,1.014,5.914L8.6,13.556,3.284,16.347,4.3,10.433,0,6.244l5.94-.862Z" transform="translate(26.849 42.349)" fill="#ffd753"/>
        <path id="Path_11748" data-name="Path 11748" d="M8.6,0l2.656,5.382,5.94.862-4.3,4.189,1.014,5.914L8.6,13.556,3.284,16.347,4.3,10.433,0,6.244l5.94-.862Z" transform="translate(3.449 73.517)" fill="#ffd753"/>
        <path id="Path_11749" data-name="Path 11749" d="M8.6,0l2.656,5.382,5.94.862-4.3,4.189,1.014,5.914L8.6,13.556,3.284,16.347,4.3,10.433,0,6.244l5.94-.862Z" transform="translate(78.323 18.627)" fill="#ffd753"/>
        <path id="Path_11750" data-name="Path 11750" d="M8.6,0l2.656,5.382,5.94.862-4.3,4.189,1.014,5.914L8.6,13.556,3.284,16.347,4.3,10.433,0,6.244l5.94-.862Z" transform="translate(109.492 42.349)" fill="#ffd753"/>
      </g>
    </g>
  </g>
</svg>
