<svg width="32" height="32" viewBox="0 0 32 32" fill="none" xmlns="http://www.w3.org/2000/svg">
<path d="M26.5301 14.1499C26.0651 11.4549 24.5751 9.10487 22.3401 7.52487C20.1051 5.94987 17.3901 5.33487 14.6951 5.80487C11.8551 6.29487 9.38008 7.94988 7.83008 10.3649L6.70508 9.56988C6.06008 9.11488 5.17507 9.60987 5.23507 10.3999L5.39508 12.5249L5.61508 15.4799C5.66008 16.0699 6.23008 16.4749 6.80008 16.3149L9.65509 15.5299L11.7101 14.9649C12.4701 14.7549 12.6401 13.7549 11.9951 13.2999L9.3501 11.4349L9.2301 11.3499C10.5201 9.30488 12.5951 7.89487 14.9901 7.47987C17.2351 7.08987 19.5001 7.59987 21.3651 8.91487C23.2301 10.2299 24.4701 12.1899 24.8601 14.4399C25.2501 16.6899 24.7401 18.9549 23.4251 20.8149C22.1101 22.6799 20.1501 23.9199 17.9001 24.3099C14.6501 24.8699 11.4301 23.5599 9.50509 20.8749C9.23009 20.4949 8.7001 20.4099 8.3201 20.6799C7.9401 20.9549 7.85009 21.4849 8.12509 21.8649C10.0601 24.5549 13.2101 26.1299 16.4701 26.1299C17.0451 26.1299 17.6201 26.0799 18.1901 25.9799C20.8851 25.5149 23.2351 24.0249 24.8151 21.7899C26.3851 19.5599 27.0001 16.8449 26.5301 14.1499Z" fill="currentColor"/>
</svg>
