<svg width="32" height="32" viewBox="0 0 32 32" fill="none" xmlns="http://www.w3.org/2000/svg">
<path d="M26 14.95H8.75496L14.4149 9.9C14.8499 9.515 14.885 8.85 14.5 8.42C14.115 7.985 13.45 7.95001 13.015 8.33501L5.29996 15.22C5.29496 15.225 5.28996 15.235 5.28496 15.24C5.24996 15.27 5.21996 15.305 5.18996 15.345C5.17496 15.365 5.15496 15.38 5.14496 15.4C5.11496 15.44 5.09496 15.485 5.06996 15.53C5.05996 15.55 5.04995 15.565 5.03995 15.585C5.01995 15.635 5.00496 15.685 4.98996 15.74C4.98496 15.755 4.97996 15.77 4.97496 15.79C4.96496 15.85 4.95996 15.91 4.95496 15.97C4.95496 15.98 4.94995 15.995 4.94995 16.005C4.94995 16.025 4.95496 16.04 4.95496 16.06C4.95996 16.115 4.95996 16.17 4.96996 16.22C4.97496 16.245 4.98496 16.265 4.98996 16.29C5.00496 16.335 5.01496 16.38 5.03496 16.42C5.04496 16.445 5.06495 16.47 5.07495 16.5C5.09495 16.535 5.11495 16.57 5.13495 16.605C5.15495 16.63 5.17495 16.655 5.19995 16.68C5.22495 16.71 5.24995 16.735 5.27495 16.765C5.28495 16.775 5.28995 16.78 5.29495 16.79L13.0099 23.67C13.2099 23.85 13.46 23.935 13.71 23.935C14 23.935 14.2849 23.815 14.4949 23.585C14.8799 23.15 14.845 22.49 14.41 22.105L8.74995 17.055H26C26.58 17.055 27.05 16.585 27.05 16.005C27.05 15.425 26.58 14.95 26 14.95Z" fill="currentColor"/>
</svg>
