<svg width="32" height="32" viewBox="0 0 32 32" fill="none" xmlns="http://www.w3.org/2000/svg">
<path d="M26.8 16.6701C26.82 16.6451 26.84 16.6251 26.8549 16.6001C26.8799 16.5651 26.9 16.5251 26.92 16.4851C26.93 16.4601 26.945 16.4401 26.96 16.4151C26.98 16.3701 26.995 16.3201 27.005 16.2751C27.01 16.2551 27.0199 16.2351 27.0249 16.2151C27.0349 16.1601 27.04 16.1001 27.045 16.0451C27.045 16.0301 27.05 16.0151 27.05 16.0001C27.05 15.9851 27.045 15.9701 27.045 15.9551C27.04 15.8951 27.0399 15.8401 27.0249 15.7851C27.0199 15.7651 27.01 15.7451 27.005 15.7251C26.99 15.6751 26.98 15.6251 26.96 15.5801C26.95 15.5601 26.935 15.5351 26.925 15.5151C26.905 15.4751 26.8799 15.4351 26.8549 15.3951C26.84 15.3751 26.8199 15.3551 26.8049 15.3301C26.7749 15.2951 26.75 15.2651 26.715 15.2351C26.71 15.2301 26.705 15.2201 26.695 15.2151L18.9799 8.33013C18.5499 7.94513 17.8849 7.98012 17.4949 8.41512C17.1099 8.85012 17.145 9.51013 17.58 9.89513L23.24 14.9451H5.99995C5.41995 14.9451 4.94995 15.4151 4.94995 15.9951C4.94995 16.5751 5.41995 17.0451 5.99995 17.0451H23.2449L17.585 22.0951C17.15 22.4801 17.115 23.1451 17.5 23.5751C17.71 23.8051 17.995 23.9251 18.285 23.9251C18.535 23.9251 18.785 23.8351 18.985 23.6601L26.7 16.7801C26.71 16.7751 26.715 16.7651 26.72 16.7601C26.75 16.7351 26.775 16.7051 26.8 16.6701Z" fill="currentColor"/>
</svg>
