<svg width="24" height="24" viewBox="0 0 24 24" fill="currentColor" xmlns="http://www.w3.org/2000/svg">
<g >
<path d="M18.1879 7.4083C18.8013 7.8018 18.8013 8.6982 18.1879 9.0917L15.9774 10.5097C15.3119 10.9367 14.4375 10.4588 14.4375 9.66802L14.4375 6.83198C14.4375 6.04125 15.3119 5.56333 15.9775 5.99028L18.1879 7.4083Z" fill="currentColor"/>
<path d="M5.81208 16.5917C5.19868 16.1982 5.19868 15.3018 5.81208 14.9083L8.02255 13.4903C8.68811 13.0633 9.5625 13.5412 9.5625 14.332L9.5625 17.168C9.5625 17.9588 8.68811 18.4367 8.02255 18.0097L5.81208 16.5917Z" fill="currentColor"/>
<rect x="15.75" y="7.5" width="1.5" height="10.5" rx="0.75" transform="rotate(90 15.75 7.5)" fill="currentColor"/>
<rect x="9" y="16.5" width="1.5" height="9.75" rx="0.749999" transform="rotate(-90 9 16.5)" fill="currentColor"/>
</g>
</svg>
