<svg width="32" height="32" viewBox="0 0 32 32" fill="none" xmlns="http://www.w3.org/2000/svg">
<g clip-path="url(#clip0_3007_181)">
<path d="M17.0523 23.8414H7.53715C6.70937 23.8446 5.91413 23.521 5.32598 22.9416C4.73783 22.3622 4.40481 21.5744 4.40002 20.7511V10.0903C4.40481 9.26701 4.73783 8.47919 5.32598 7.89981C5.91413 7.32044 6.70937 6.99683 7.53715 7.00002H22.3202C23.148 6.99683 23.9432 7.32044 24.5314 7.89981C25.1196 8.47919 25.4526 9.26701 25.4574 10.0903V14.0052C25.4574 14.1828 25.3864 14.3531 25.2602 14.4787C25.1339 14.6043 24.9626 14.6748 24.7841 14.6748C24.6055 14.6748 24.4343 14.6043 24.308 14.4787C24.1817 14.3531 24.1108 14.1828 24.1108 14.0052V10.0903C24.107 9.62138 23.9163 9.17306 23.5807 8.84369C23.245 8.51433 22.7917 8.3308 22.3202 8.33336H7.53715C7.06564 8.3308 6.61237 8.51433 6.27671 8.84369C5.94105 9.17306 5.7504 9.62138 5.74657 10.0903V20.7523C5.75135 21.2206 5.94242 21.668 6.27797 21.9966C6.61353 22.3252 7.06627 22.5082 7.53715 22.5056H17.0523C17.1427 22.5018 17.2329 22.5162 17.3176 22.548C17.4023 22.5798 17.4796 22.6283 17.5449 22.6906C17.6103 22.7529 17.6622 22.8276 17.6978 22.9104C17.7333 22.9932 17.7516 23.0823 17.7516 23.1723C17.7516 23.2623 17.7333 23.3514 17.6978 23.4342C17.6622 23.517 17.6103 23.5918 17.5449 23.654C17.4796 23.7163 17.4023 23.7648 17.3176 23.7966C17.2329 23.8284 17.1427 23.8428 17.0523 23.839V23.8414Z" fill="currentColor" stroke="currentColor" stroke-width="0.5" stroke-linecap="round"/>
<path d="M21.0389 15.4141V25.2323C21.0515 25.4843 21.1609 25.7218 21.3446 25.8957C21.5284 26.0696 21.7723 26.1666 22.0259 26.1666C22.2796 26.1666 22.5235 26.0696 22.7072 25.8957C22.8909 25.7218 23.0004 25.4843 23.0129 25.2323V15.4141C23.0004 15.1621 22.8909 14.9246 22.7072 14.7507C22.5235 14.5767 22.2796 14.4797 22.0259 14.4797C21.7723 14.4797 21.5284 14.5767 21.3446 14.7507C21.1609 14.9246 21.0515 15.1621 21.0389 15.4141Z" fill="currentColor"/>
<path d="M17.0895 21.3101H26.9606C27.2139 21.2976 27.4527 21.1888 27.6276 21.006C27.8024 20.8233 27.9 20.5807 27.9 20.3284C27.9 20.0761 27.8024 19.8335 27.6276 19.6508C27.4527 19.468 27.2139 19.3591 26.9606 19.3467H17.0895C16.8362 19.3591 16.5974 19.468 16.4225 19.6508C16.2477 19.8335 16.1501 20.0761 16.1501 20.3284C16.1501 20.5807 16.2477 20.8233 16.4225 21.006C16.5974 21.1888 16.8362 21.2976 17.0895 21.3101Z" fill="currentColor"/>
</g>
<defs>
<clipPath id="clip0_3007_181">
<rect width="32" height="32" fill="white"/>
</clipPath>
</defs>
</svg>
