<svg width="32" height="32" viewBox="0 0 32 32" fill="none" xmlns="http://www.w3.org/2000/svg">
<path fill-rule="evenodd" clip-rule="evenodd" d="M25.9305 8.8879C26.5447 9.4018 26.626 10.3163 26.1121 10.9305L15.8621 23.1805C15.3482 23.7946 14.4337 23.8759 13.8195 23.362C13.2053 22.8481 13.124 21.9336 13.6379 21.3195L23.8879 9.06946C24.4018 8.45529 25.3163 8.374 25.9305 8.8879Z" fill="currentColor"/>
<path fill-rule="evenodd" clip-rule="evenodd" d="M6.97468 14.4746C7.54094 13.9084 8.45903 13.9084 9.02529 14.4746L15.7753 21.2246C16.3416 21.7909 16.3416 22.709 15.7753 23.2752C15.209 23.8415 14.2909 23.8415 13.7247 23.2752L6.97468 16.5252C6.40842 15.959 6.40842 15.0409 6.97468 14.4746Z" fill="currentColor"/>
</svg>
