<svg width="32" height="32" viewBox="0 0 32 32" fill="none" xmlns="http://www.w3.org/2000/svg">
<path d="M25.0418 12.8294L20.6978 8.47383C20.4558 8.23067 20.1681 8.03784 19.8512 7.90648C19.5344 7.77512 19.1946 7.70783 18.8516 7.7085H12.3858C11.6956 7.70944 11.0339 7.98405 10.5458 8.4721C10.0578 8.96016 9.78317 9.62184 9.78223 10.3121V24.7441C9.78175 25.4332 10.0547 26.0943 10.5411 26.5824C11.0276 27.0705 11.6878 27.3457 12.3769 27.3476H23.208C23.8986 27.3474 24.5609 27.0731 25.0494 26.5849C25.5379 26.0967 25.8126 25.4347 25.8133 24.7441V14.6703C25.8133 14.3277 25.7452 13.9886 25.6131 13.6726C25.481 13.3566 25.2874 13.07 25.0436 12.8294M23.9147 13.9636L23.9227 13.9707C23.9396 13.9867 23.9511 14.0063 23.9662 14.0232H19.7484C19.6832 14.0216 19.6211 13.9947 19.5752 13.9483C19.5293 13.9019 19.5031 13.8395 19.5022 13.7743V9.55206C19.5244 9.57072 19.5484 9.58672 19.5698 9.60717L23.9147 13.9636ZM23.2098 25.7476H12.3769C12.1121 25.746 11.8588 25.6394 11.6725 25.4513C11.4863 25.2631 11.3822 25.0088 11.3831 24.7441V10.3147C11.3834 10.0486 11.4892 9.79351 11.6773 9.60536C11.8655 9.41721 12.1206 9.3114 12.3867 9.31117H17.8978V13.7743C17.8985 14.2644 18.0935 14.7343 18.4401 15.0809C18.7867 15.4274 19.2565 15.6225 19.7467 15.6232H24.2133V24.7441C24.2129 25.0101 24.107 25.2651 23.9189 25.4532C23.7308 25.6413 23.4758 25.7471 23.2098 25.7476Z" fill="currentColor"/>
<path d="M20.5004 5.44893C20.5004 5.23675 20.4161 5.03327 20.2661 4.88324C20.1161 4.73321 19.9126 4.64893 19.7004 4.64893H8.78663C8.09673 4.64963 7.43527 4.92394 6.94736 5.41169C6.45944 5.89944 6.1849 6.5608 6.18396 7.2507V19.9591C6.18396 20.1713 6.26825 20.3748 6.41827 20.5248C6.5683 20.6749 6.77179 20.7591 6.98396 20.7591C7.19613 20.7591 7.39962 20.6749 7.54965 20.5248C7.69967 20.3748 7.78396 20.1713 7.78396 19.9591V7.25426C7.78373 7.1224 7.80948 6.99178 7.85976 6.86987C7.91003 6.74797 7.98383 6.63717 8.07695 6.5438C8.17007 6.45044 8.28067 6.37634 8.40244 6.32574C8.52421 6.27515 8.65476 6.24904 8.78663 6.24893H19.7004C19.9126 6.24893 20.1161 6.16464 20.2661 6.01461C20.4161 5.86458 20.5004 5.6611 20.5004 5.44893Z" fill="currentColor"/>
</svg>
