<svg width="32" height="32" viewBox="0 0 32 32" fill="none" xmlns="http://www.w3.org/2000/svg">
<g clip-path="url(#clip0_3007_834)">
<path fill-rule="evenodd" clip-rule="evenodd" d="M16 25.8C21.4124 25.8 25.8 21.4124 25.8 16C25.8 10.5876 21.4124 6.2 16 6.2C10.5876 6.2 6.2 10.5876 6.2 16C6.2 21.4124 10.5876 25.8 16 25.8ZM16 27C22.0751 27 27 22.0751 27 16C27 9.92487 22.0751 5 16 5C9.92487 5 5 9.92487 5 16C5 22.0751 9.92487 27 16 27Z" fill="currentColor"/>
<path fill-rule="evenodd" clip-rule="evenodd" d="M26 13.5999H6V12.3999H26V13.5999Z" fill="currentColor"/>
<path fill-rule="evenodd" clip-rule="evenodd" d="M26 19.5999H6V18.3999H26V19.5999Z" fill="currentColor"/>
<path fill-rule="evenodd" clip-rule="evenodd" d="M16.6 6L16.6 26L15.4 26L15.4 6L16.6 6Z" fill="currentColor"/>
<path fill-rule="evenodd" clip-rule="evenodd" d="M11.7649 9.31303C13.0601 7.53345 14.6138 6.19654 15.6693 5.49927L16.3307 6.50053C15.3863 7.12442 13.94 8.36376 12.7351 10.0192C11.5303 11.6747 10.6 13.6997 10.6 15.9086C10.6 18.1188 11.5313 20.1757 12.7388 21.8715C13.9456 23.5664 15.3943 24.852 16.3411 25.5063L15.6589 26.4935C14.6058 25.7657 13.0545 24.3838 11.7613 22.5675C10.4687 20.7522 9.40002 18.4545 9.40002 15.9086C9.40002 13.3613 10.4698 11.0925 11.7649 9.31303Z" fill="currentColor"/>
<path fill-rule="evenodd" clip-rule="evenodd" d="M20.2351 9.31303C18.9399 7.53345 17.3862 6.19654 16.3307 5.49927L15.6693 6.50053C16.6137 7.12442 18.06 8.36376 19.2649 10.0192C20.4697 11.6747 21.4 13.6997 21.4 15.9086C21.4 18.1188 20.4687 20.1757 19.2612 21.8715C18.0544 23.5664 16.6057 24.852 15.6589 25.5063L16.3411 26.4935C17.3942 25.7657 18.9455 24.3838 20.2387 22.5675C21.5313 20.7522 22.6 18.4545 22.6 15.9086C22.6 13.3613 21.5302 11.0925 20.2351 9.31303Z" fill="currentColor"/>
</g>
<defs>
<clipPath id="clip0_3007_834">
<rect width="32" height="32" fill="white"/>
</clipPath>
</defs>
</svg>
