<svg width="32" height="32" viewBox="0 0 32 32" fill="none" xmlns="http://www.w3.org/2000/svg">
<g clip-path="url(#clip0_3007_125)">
<path d="M6.54622 6.53479C6.75184 6.53504 6.95535 6.57616 7.14493 6.65577L26.0523 14.5755C26.3321 14.6947 26.5707 14.8935 26.7384 15.1472C26.9061 15.4009 26.9955 15.6983 26.9955 16.0025C26.9955 16.3066 26.9061 16.604 26.7384 16.8577C26.5707 17.1114 26.3321 17.3102 26.0523 17.4294L7.14493 25.3476C6.90972 25.4451 6.65412 25.4832 6.40069 25.4586C6.14725 25.4339 5.90379 25.3472 5.69179 25.2062C5.47978 25.0652 5.30576 24.8741 5.18508 24.6499C5.0644 24.4257 5.00077 24.1752 4.99982 23.9206V23.7655L8.28651 15.9947L4.99982 8.23165V8.07654C5.00227 7.6676 5.16613 7.27616 5.45574 6.98743C5.74535 6.69869 6.13727 6.53601 6.54622 6.53479ZM6.54622 24.0059C6.55748 24.0082 6.56908 24.0082 6.58035 24.0059L25.4877 16.0753C25.5032 16.0691 25.5163 16.0583 25.5256 16.0445C25.5349 16.0307 25.5399 16.0144 25.5399 15.9978C25.5399 15.9812 25.5349 15.9649 25.5256 15.9511C25.5163 15.9373 25.5032 15.9265 25.4877 15.9202L6.58035 8.00985C6.56958 8.00779 6.55853 8.00779 6.54777 8.00985C6.52993 8.01065 6.5127 8.01658 6.49814 8.02691L9.87634 16.0133L6.49659 23.9857C6.5108 23.9972 6.52806 24.0042 6.54622 24.0059Z" fill="currentColor"/>
<path d="M26.2679 16.7308H9.07756C8.88366 16.7308 8.69768 16.6539 8.56043 16.517C8.42318 16.38 8.34587 16.1942 8.34546 16.0003C8.34546 15.8061 8.42259 15.6199 8.55989 15.4826C8.69718 15.3453 8.88339 15.2682 9.07756 15.2682H26.2679C26.4621 15.2682 26.6483 15.3453 26.7856 15.4826C26.9229 15.6199 27 15.8061 27 16.0003C26.9996 16.1942 26.9223 16.38 26.7851 16.517C26.6478 16.6539 26.4618 16.7308 26.2679 16.7308Z" fill="currentColor"/>
</g>
<defs>
<clipPath id="clip0_3007_125">
<rect width="32" height="32" fill="white"/>
</clipPath>
</defs>
</svg>
