<svg width="32" height="32" viewBox="0 0 32 32" fill="none" xmlns="http://www.w3.org/2000/svg">
<path d="M17.52 25.985C17.3126 25.9854 17.1072 25.9447 16.9157 25.8652C16.7241 25.7857 16.5502 25.6691 16.404 25.522L16.282 25.4L13.457 18.4351L6.49198 15.61L6.36998 15.488C6.18576 15.3038 6.04993 15.0769 5.97457 14.8275C5.89921 14.5781 5.88665 14.3139 5.93801 14.0585C5.98937 13.8031 6.10306 13.5643 6.26897 13.3634C6.43488 13.1625 6.64786 13.0058 6.88898 12.9071L23.884 5.94505C24.1724 5.82676 24.4893 5.79636 24.7949 5.85766C25.1005 5.91896 25.3812 6.06923 25.6016 6.28958C25.8221 6.50993 25.9725 6.79052 26.0339 7.0961C26.0954 7.40168 26.0651 7.71861 25.947 8.00705L18.985 25.007C18.8658 25.2973 18.6627 25.5454 18.4018 25.7197C18.1408 25.8939 17.8338 25.9863 17.52 25.985ZM7.87998 14.339L14.765 17.132L17.556 24.014L24.265 7.62905L7.87998 14.339Z" fill="currentColor"/>
<path d="M14.11 18.635C13.9985 18.635 13.8881 18.613 13.7852 18.5703C13.6822 18.5275 13.5887 18.4649 13.51 18.386C13.3512 18.2266 13.2621 18.0109 13.2621 17.786C13.2621 17.561 13.3512 17.3453 13.51 17.186L24.4 6.29296C24.5593 6.13419 24.7751 6.04504 25 6.04504C25.2249 6.04504 25.4407 6.13419 25.6 6.29296C25.7588 6.45228 25.8479 6.66804 25.8479 6.89296C25.8479 7.11789 25.7588 7.33364 25.6 7.49296L14.711 18.386C14.6322 18.465 14.5385 18.5277 14.4354 18.5705C14.3322 18.6132 14.2216 18.6351 14.11 18.635Z" fill="currentColor"/>
</svg>
