<svg width="32" height="32" viewBox="0 0 32 32" fill="none" xmlns="http://www.w3.org/2000/svg">
<g clip-path="url(#clip0_3017_2738)">
<path d="M16.2657 10.6016L6 20.8672V26L11.1329 26L21.3986 15.7344M16.2657 10.6016L19.9468 6.92057L19.949 6.91838C20.4557 6.41167 20.7095 6.15787 21.0021 6.0628C21.2598 5.97907 21.5375 5.97907 21.7952 6.0628C22.0876 6.1578 22.3411 6.41132 22.8471 6.91731L25.0796 9.14982C25.5878 9.65798 25.842 9.91218 25.9372 10.2052C26.0209 10.4629 26.0209 10.7405 25.9372 10.9982C25.842 11.291 25.5882 11.5448 25.0808 12.0523L25.0797 12.0534L21.3986 15.7344M16.2657 10.6016L21.3986 15.7344" stroke="currentColor" stroke-width="2" stroke-linecap="round" stroke-linejoin="round"/>
</g>
<defs>
<clipPath id="clip0_3017_2738">
<rect width="32" height="32" fill="white"/>
</clipPath>
</defs>
</svg>
