<svg width="32" height="32" viewBox="0 0 32 32" fill="none" xmlns="http://www.w3.org/2000/svg">
<g clip-path="url(#clip0_3007_1366)">
<path d="M7.00005 22.0001C7 21.9355 7 21.8689 7 21.8002V10.2002C7 9.08009 7 8.51962 7.21799 8.0918C7.40973 7.71547 7.71547 7.40973 8.0918 7.21799C8.51962 7 9.08009 7 10.2002 7H21.8002C22.9203 7 23.4801 7 23.9079 7.21799C24.2842 7.40973 24.5905 7.71547 24.7822 8.0918C25 8.5192 25 9.07899 25 10.1969V21.8031C25 22.2881 25 22.6679 24.9822 22.9774M7.00005 22.0001C7.00082 22.9884 7.01337 23.5058 7.21799 23.9074C7.40973 24.2837 7.71547 24.5905 8.0918 24.7822C8.5192 25 9.07899 25 10.1969 25H21.8036C22.9215 25 23.4805 25 23.9079 24.7822C24.2842 24.5905 24.5905 24.2837 24.7822 23.9074C24.9055 23.6654 24.959 23.3813 24.9822 22.9774M7.00005 22.0001L11.768 16.4375L11.7694 16.436C12.1923 15.9426 12.4041 15.6955 12.6553 15.6064C12.8759 15.5282 13.1169 15.53 13.3364 15.6113C13.5866 15.704 13.7951 15.9539 14.2119 16.4541L16.8831 19.6595C17.269 20.1226 17.463 20.3554 17.6986 20.4489C17.9065 20.5313 18.1357 20.5406 18.3501 20.4773C18.5942 20.4053 18.8091 20.1904 19.2388 19.7607L19.7358 19.2637C20.1733 18.8262 20.3921 18.6076 20.6397 18.5361C20.8571 18.4734 21.0896 18.4869 21.2988 18.5732C21.537 18.6716 21.7302 18.9124 22.1167 19.3955L24.9822 22.9774M24.9822 22.9774L25 22.9996M19 13C18.4477 13 18 12.5523 18 12C18 11.4477 18.4477 11 19 11C19.5523 11 20 11.4477 20 12C20 12.5523 19.5523 13 19 13Z" stroke="currentColor" stroke-width="1.6" stroke-linecap="round" stroke-linejoin="round"/>
</g>
<defs>
<clipPath id="clip0_3007_1366">
<rect width="32" height="32" fill="white"/>
</clipPath>
</defs>
</svg>
