<svg width="32" height="32" viewBox="0 0 32 32" fill="none" xmlns="http://www.w3.org/2000/svg">
<g clip-path="url(#clip0_3007_1315)">
<path d="M20 28H17.3333V25.3333H20V28ZM17.3333 18.6667H14.6667V25.3333H17.3333V18.6667ZM28 16H25.3333V21.3333H28V16ZM25.3333 13.3333H22.6667V16H25.3333V13.3333ZM9.33333 16H6.66667V18.6667H9.33333V16ZM6.66667 13.3333H4V16H6.66667V13.3333ZM16 6.66667H18.6667V4H16V6.66667ZM6 6V10H10V6H6ZM10.6667 12H5.33333C4.6 12 4 11.4 4 10.6667V5.33333C4 4.6 4.6 4 5.33333 4H10.6667C11.4 4 12 4.6 12 5.33333V10.6667C12 11.4 11.4 12 10.6667 12ZM6 22V26H10V22H6ZM10.6667 28H5.33333C4.6 28 4 27.4 4 26.6667V21.3333C4 20.6 4.6 20 5.33333 20H10.6667C11.4 20 12 20.6 12 21.3333V26.6667C12 27.4 11.4 28 10.6667 28ZM22 6V10H26V6H22ZM26.6667 12H21.3333C20.6 12 20 11.4 20 10.6667V5.33333C20 4.6 20.6 4 21.3333 4H26.6667C27.4 4 28 4.6 28 5.33333V10.6667C28 11.4 27.4 12 26.6667 12ZM25.3333 25.3333V21.3333H20V24H22.6667V28H28V25.3333H25.3333ZM22.6667 16H17.3333V18.6667H22.6667V16ZM17.3333 13.3333H9.33333V16H12V18.6667H14.6667V16H17.3333V13.3333ZM18.6667 12V9.33333H16V6.66667H13.3333V12H18.6667ZM9 7H7V9H9V7ZM9 23H7V25H9V23ZM25 7H23V9H25V7Z" fill="currentColor"/>
</g>
<defs>
<clipPath id="clip0_3007_1315">
<rect width="32" height="32" fill="white"/>
</clipPath>
</defs>
</svg>
