<svg width="32" height="32" viewBox="0 0 32 32" fill="none" xmlns="http://www.w3.org/2000/svg">
<g clip-path="url(#clip0_3017_2764)">
<path d="M17.6 9.62438C16.9506 9.31905 16.2376 9.17357 15.5205 9.2001C14.8034 9.22663 14.103 9.42442 13.478 9.77691C12.8818 10.1018 12.3529 10.5372 11.9195 11.0599C11.7777 11.2353 11.7114 11.4598 11.7352 11.684C11.759 11.9083 11.8709 12.1139 12.0462 12.2556C12.2216 12.3974 12.4461 12.4637 12.6704 12.4399C12.8946 12.4161 13.1002 12.3043 13.242 12.1289C13.5375 11.7757 13.8976 11.482 14.303 11.2634C14.6931 11.0396 15.1316 10.9139 15.581 10.897C16.0304 10.8801 16.4772 10.9725 16.883 11.1664C17.1765 11.2802 17.435 11.4692 17.6323 11.7145C17.8296 11.9598 17.9588 12.2528 18.007 12.5639C18.119 13.3334 17.3735 14.2109 16.013 14.9109C15.6795 15.0791 15.3991 15.3363 15.2027 15.654C15.0063 15.9716 14.9015 16.3374 14.9 16.7109V18.1974C14.9 18.4228 14.9895 18.639 15.1489 18.7984C15.3083 18.9578 15.5245 19.0474 15.75 19.0474C15.9754 19.0474 16.1916 18.9578 16.351 18.7984C16.5104 18.639 16.6 18.4228 16.6 18.1974V16.7109C16.6021 16.6497 16.621 16.5903 16.6546 16.5392C16.6882 16.4881 16.7352 16.4471 16.7905 16.4209C19.726 14.9104 19.7955 13.0479 19.6905 12.3174C19.6016 11.7271 19.3627 11.1696 18.9967 10.6981C18.6307 10.2265 18.1498 9.85684 17.6 9.62438Z" fill="currentColor"/>
<path d="M15.7261 20.0364C15.4871 20.0364 15.2534 20.1073 15.0547 20.2401C14.8559 20.3729 14.701 20.5616 14.6096 20.7825C14.5181 21.0033 14.4942 21.2463 14.5408 21.4807C14.5874 21.7151 14.7025 21.9304 14.8715 22.0995C15.0405 22.2685 15.2559 22.3836 15.4903 22.4302C15.7247 22.4768 15.9677 22.4529 16.1885 22.3615C16.4094 22.27 16.5981 22.1151 16.7309 21.9164C16.8637 21.7176 16.9346 21.484 16.9346 21.2449C16.9346 20.9244 16.8073 20.617 16.5806 20.3904C16.354 20.1637 16.0466 20.0364 15.7261 20.0364Z" fill="currentColor"/>
<path fill-rule="evenodd" clip-rule="evenodd" d="M9.41689 6.14697C11.3656 4.84488 13.6567 4.1499 16.0004 4.1499C19.1421 4.15348 22.1541 5.4031 24.3757 7.62463C26.5972 9.84617 27.8468 12.8582 27.8504 15.9999C27.8504 18.3436 27.1554 20.6347 25.8533 22.5834C24.5512 24.5321 22.7005 26.051 20.5352 26.9479C18.3699 27.8448 15.9873 28.0794 13.6886 27.6222C11.3899 27.165 9.27843 26.0364 7.62118 24.3791C5.96393 22.7219 4.83532 20.6104 4.37809 18.3117C3.92085 16.0131 4.15553 13.6304 5.05243 11.4651C5.94932 9.29978 7.46817 7.44907 9.41689 6.14697ZM10.3614 24.4393C12.0305 25.5546 13.9929 26.1499 16.0004 26.1499C18.6914 26.1469 21.2713 25.0765 23.1742 23.1737C25.077 21.2708 26.1474 18.6909 26.1504 15.9999C26.1504 13.9924 25.5551 12.03 24.4398 10.3609C23.3245 8.69171 21.7393 7.39076 19.8846 6.62253C18.03 5.8543 15.9891 5.65328 14.0202 6.04492C12.0513 6.43656 10.2428 7.40325 8.82326 8.82275C7.40376 10.2423 6.43707 12.0508 6.04543 14.0197C5.65379 15.9887 5.85479 18.0295 6.62302 19.8841C7.39125 21.7388 8.6922 23.324 10.3614 24.4393Z" fill="currentColor"/>
</g>
<defs>
<clipPath id="clip0_3017_2764">
<rect width="32" height="32" fill="white"/>
</clipPath>
</defs>
</svg>
