<svg viewBox="0 0 32 32" fill="none" xmlns="http://www.w3.org/2000/svg">
<path d="M17.8929 27.0766H14.0973C13.1293 27.0766 12.3119 26.3511 12.1963 25.3886L11.9618 23.5181C11.8083 23.4351 11.6583 23.3476 11.5104 23.2551L9.76689 23.9931C8.88127 24.3781 7.84441 24.0306 7.36198 23.1816L5.46233 19.9006C4.9799 19.0516 5.19835 17.9826 5.9658 17.4066L7.47234 16.2651C7.46941 16.1781 7.46843 16.0896 7.46843 16.0001C7.46843 15.9141 7.46941 15.8291 7.47179 15.7446L5.96233 14.6006C5.18834 14.0016 4.9799 12.9591 5.45872 12.1156L7.36479 8.81358C7.84441 7.96909 8.88084 7.62257 9.77537 8.01059L11.5099 8.74509C11.6589 8.65208 11.8088 8.56458 11.9618 8.48207L12.1968 6.60759C12.3119 5.64958 13.1332 4.92358 14.1077 4.92358H17.9033C18.8713 4.92358 19.6888 5.64958 19.8044 6.61159L20.0388 8.48207C20.1929 8.56508 20.3429 8.65257 20.4909 8.74509L22.2338 8.0071C23.1189 7.62057 24.1564 7.96909 24.6388 8.81808L26.5384 12.0991C27.0208 12.9481 26.8023 14.0176 26.0348 14.5931L24.5283 15.7351C24.5314 15.8226 24.5322 15.9106 24.5322 16.0001C24.5322 16.0916 24.5314 16.1821 24.5278 16.2726L26.0283 17.4096C26.8023 18.0091 27.0108 19.0521 26.5314 19.8946L24.6253 23.1876C24.1468 24.0296 23.1094 24.3771 22.2158 23.9901L20.4802 23.2551C20.3323 23.3476 20.1824 23.4351 20.0289 23.5181L19.7938 25.3936C19.6788 26.3511 18.8614 27.0766 17.8929 27.0766ZM11.5159 21.4406C11.8323 21.4406 12.1498 21.5301 12.4284 21.7066C12.5674 21.7946 12.7087 21.8766 12.8528 21.9536C13.3403 22.2146 13.6719 22.6901 13.7389 23.2246L13.9827 25.1696C13.9898 25.2291 14.0434 25.2766 14.0973 25.2766H17.8929C17.9483 25.2766 18.0003 25.2296 18.0067 25.1736L18.2517 23.2246C18.3183 22.6906 18.6498 22.2151 19.1378 21.9536C19.2822 21.8766 19.4234 21.7941 19.5619 21.7066C20.0339 21.4086 20.6159 21.3581 21.1179 21.5706L22.9248 22.3361C22.9799 22.3586 23.0373 22.3391 23.0638 22.2921L24.9703 18.9991C25.0003 18.9461 24.987 18.8796 24.9333 18.8381L23.3849 17.6646C22.9453 17.3316 22.6993 16.8101 22.7263 16.2696C22.7309 16.1811 22.7327 16.0911 22.7327 16.0001C22.7327 15.9071 22.7309 15.8166 22.7273 15.7251C22.7059 15.1881 22.9523 14.6711 23.3868 14.3421L24.9513 13.1556C24.9983 13.1206 25.0078 13.0496 24.9768 12.9951L23.0778 9.71408C23.0469 9.65956 22.9909 9.64008 22.9433 9.66109L21.1278 10.4296C20.6258 10.6426 20.0444 10.5911 19.5724 10.2936C19.4349 10.2071 19.2927 10.1241 19.1484 10.0461C18.6609 9.78659 18.3288 9.31107 18.2618 8.77509L18.0179 6.83109C18.0108 6.77159 17.9573 6.72359 17.9033 6.72359H14.1077C14.0447 6.72359 13.9903 6.76907 13.9833 6.82658L13.7389 8.77509C13.6719 9.31107 13.3398 9.78659 12.8513 10.0466C12.7083 10.1236 12.5664 10.2071 12.4267 10.2946C11.9563 10.5921 11.3747 10.6421 10.8728 10.4296L9.06529 9.66458C9.01042 9.64209 8.95384 9.66109 8.92674 9.70807L7.0208 13.0101C6.99034 13.0636 7.00389 13.1306 7.05687 13.1716L8.61424 14.3521C9.04839 14.6821 9.29436 15.1986 9.27342 15.7341C9.26927 15.8216 9.26787 15.9101 9.26787 16.0001C9.26787 16.0931 9.26976 16.1841 9.27342 16.2746C9.29466 16.8111 9.04839 17.3276 8.61534 17.6571L7.04948 18.8441C7.00224 18.8796 6.9929 18.9501 7.02385 19.0046L8.92284 22.2856C8.95335 22.3386 9.00932 22.3586 9.05772 22.3386L10.8728 21.5706C11.0784 21.4836 11.2969 21.4406 11.5159 21.4406ZM16.0478 20.4606C14.8689 20.4606 13.7353 20.0021 12.8874 19.1536C11.7995 18.0661 11.3523 16.5086 11.6918 14.9881C12.0619 13.3311 13.3718 12.0211 15.0294 11.6506C16.5498 11.3126 18.1069 11.7586 19.1949 12.8461C20.2828 13.9341 20.7294 15.4911 20.3903 17.0121C20.0198 18.6691 18.7104 19.9791 17.0528 20.3491C16.7179 20.4236 16.3808 20.4606 16.0478 20.4606ZM16.0463 13.3376C15.8408 13.3376 15.6313 13.3606 15.4219 13.4076C14.4568 13.6231 13.6638 14.4161 13.4489 15.3806C13.2413 16.3101 13.5003 17.2211 14.1598 17.8806C14.8192 18.5406 15.7299 18.8001 16.6609 18.5921C17.6253 18.3771 18.4177 17.5841 18.6332 16.6196C18.8408 15.6901 18.5813 14.7781 17.9219 14.1186C17.4114 13.6086 16.7497 13.3376 16.0463 13.3376Z" fill="currentColor"/>
</svg>
