<svg width="32" height="32" viewBox="0 0 32 32" fill="none" xmlns="http://www.w3.org/2000/svg">
<g clip-path="url(#clip0_3049_238)">
<path d="M26.9496 15.0418L24.6006 13.0102C24.34 12.7848 23.935 12.9698 23.935 13.3145V14.6798H19.9193C19.5513 14.6798 19.2526 14.9785 19.2526 15.3465C19.2526 15.7148 19.5513 16.0132 19.9193 16.0132H23.935V17.3782C23.935 17.7228 24.34 17.9078 24.6006 17.6825L26.9496 15.6508C27.1353 15.4902 27.1353 15.2025 26.9496 15.0418Z" fill="currentColor"/>
<path d="M21.6266 17.5825C21.2586 17.5825 20.96 17.8812 20.96 18.2492V22.1678C20.96 22.5568 20.6433 22.8735 20.2543 22.8735H17.186V10.8315C17.186 10.2022 16.81 9.64117 16.2276 9.40151L12.378 7.81917H20.2543C20.6433 7.81917 20.96 8.13584 20.96 8.52484V12.4462C20.96 12.8142 21.2586 13.1128 21.6266 13.1128C21.9946 13.1128 22.2933 12.8142 22.2933 12.4462V8.52484C22.2933 7.40051 21.3786 6.48584 20.2543 6.48584H9.3813C8.94996 6.48584 8.5613 6.66617 8.2823 6.95384C7.8943 7.24517 7.66296 7.69917 7.66296 8.18784V23.0752C7.66296 23.7042 8.03897 24.2655 8.62096 24.5052L15.052 27.1485C15.242 27.2265 15.4416 27.2652 15.6406 27.2652C15.9423 27.2652 16.242 27.1762 16.5006 27.0032C16.9296 26.7152 17.186 26.2352 17.186 25.7185V24.2068H20.2543C21.3786 24.2068 22.2933 23.2922 22.2933 22.1678V18.2492C22.2933 17.8812 21.9946 17.5825 21.6266 17.5825Z" fill="currentColor"/>
</g>
<defs>
<clipPath id="clip0_3049_238">
<rect width="32" height="32" fill="white"/>
</clipPath>
</defs>
</svg>
