<svg width="32" height="32" viewBox="0 0 32 32" fill="none" xmlns="http://www.w3.org/2000/svg">
<g clip-path="url(#clip0_3007_830)">
<path d="M26.9504 15.6722L25.5168 14.4322L24.4208 13.485C24.358 13.4298 24.2807 13.3939 24.1981 13.3817C24.1154 13.3694 24.031 13.3812 23.955 13.4158C23.8789 13.4504 23.8145 13.5062 23.7694 13.5765C23.7243 13.6468 23.7004 13.7287 23.7008 13.8122V15.1002H14.1592C13.9205 15.1002 13.6915 15.195 13.5228 15.3638C13.354 15.5326 13.2592 15.7615 13.2592 16.0002C13.2592 16.2389 13.354 16.4678 13.5228 16.6366C13.6915 16.8054 13.9205 16.9002 14.1592 16.9002H23.704V18.1874C23.7035 18.271 23.7272 18.353 23.7722 18.4234C23.8173 18.4939 23.8817 18.5498 23.9578 18.5844C24.0339 18.6191 24.1184 18.631 24.2011 18.6188C24.2838 18.6065 24.3612 18.5706 24.424 18.5154L25.52 17.5674L26.9536 16.3274C27.0006 16.2868 27.0384 16.2365 27.0642 16.18C27.0901 16.1234 27.1035 16.062 27.1035 15.9998C27.1035 15.9376 27.0901 15.8762 27.0642 15.8197C27.0384 15.7631 27.0006 15.7128 26.9536 15.6722" fill="currentColor"/>
<path d="M21.2182 20.2638C20.9795 20.2638 20.7506 20.3586 20.5818 20.5274C20.4131 20.6962 20.3182 20.9251 20.3182 21.1638V23.3446C20.318 23.4977 20.2571 23.6445 20.1488 23.7528C20.0405 23.8611 19.8938 23.922 19.7406 23.9222H8.80143C8.58926 23.9222 8.38577 23.8379 8.23574 23.6879C8.08571 23.5379 8.00143 23.3344 8.00143 23.1222V8.88221C8.00143 8.67004 8.08571 8.46656 8.23574 8.31653C8.38577 8.1665 8.58926 8.08221 8.80143 8.08221H19.7406C19.8938 8.08242 20.0405 8.14335 20.1488 8.25162C20.2571 8.3599 20.318 8.50669 20.3182 8.65981V10.843C20.3182 11.0817 20.4131 11.3106 20.5818 11.4794C20.7506 11.6482 20.9795 11.743 21.2182 11.743C21.4569 11.743 21.6858 11.6482 21.8546 11.4794C22.0234 11.3106 22.1182 11.0817 22.1182 10.843V8.65421C22.1176 8.02369 21.8668 7.41919 21.4209 6.97341C20.9749 6.52764 20.3704 6.27703 19.7398 6.27661H8.80143C8.11178 6.27725 7.45054 6.55144 6.9628 7.03902C6.47507 7.52661 6.20068 8.18776 6.19983 8.87741V23.1174C6.20068 23.8071 6.47507 24.4682 6.9628 24.9558C7.45054 25.4434 8.11178 25.7176 8.80143 25.7182H19.7406C20.3705 25.7178 20.9746 25.4678 21.4205 25.0229C21.8665 24.578 22.1179 23.9745 22.1198 23.3446V21.1638C22.1198 20.9251 22.025 20.6962 21.8562 20.5274C21.6874 20.3586 21.4585 20.2638 21.2198 20.2638" fill="currentColor"/>
</g>
<defs>
<clipPath id="clip0_3007_830">
<rect width="32" height="32" fill="white"/>
</clipPath>
</defs>
</svg>
