<svg width="32" height="32" viewBox="0 0 32 32" fill="none" xmlns="http://www.w3.org/2000/svg">
<path fill-rule="evenodd" clip-rule="evenodd" d="M26.0147 8.74009H24.1747H21.4547L19.9647 5.91508L19.8997 5.81009C19.4497 5.20509 18.6797 4.84009 17.8497 4.84009H14.1797C13.3447 4.84009 12.5797 5.20009 12.1297 5.81009L10.5797 8.74009H7.85971H6.01971C5.57971 8.74009 5.21973 9.10008 5.21973 9.54008C5.21973 9.98008 5.57971 10.3401 6.01971 10.3401H7.85971V24.2351C7.85971 25.8501 9.17473 27.1601 10.7847 27.1601H21.2497C22.8647 27.1601 24.1747 25.8451 24.1747 24.2351V10.3401H26.0147C26.4547 10.3401 26.8147 9.98008 26.8147 9.54008C26.8147 9.10008 26.4547 8.74009 26.0147 8.74009ZM13.4447 6.72509C13.5997 6.55009 13.8847 6.44009 14.1797 6.44009H17.8497C18.1497 6.44009 18.4297 6.55009 18.5847 6.72509L19.6447 8.73508H12.3797L13.4447 6.72509ZM22.5747 24.2351C22.5747 24.9651 21.9797 25.5601 21.2497 25.5601H10.7847C10.0547 25.5601 9.45972 24.9651 9.45972 24.2351V10.3401H9.73471H22.3047H22.5797V24.2351H22.5747ZM13.485 12.6899C13.045 12.6899 12.6851 13.0499 12.6851 13.4899V22.4149C12.6851 22.8549 13.045 23.2149 13.485 23.2149C13.925 23.2149 14.2851 22.8549 14.2851 22.4149V13.4899C14.2851 13.0449 13.93 12.6899 13.485 12.6899ZM17.7402 13.4899C17.7402 13.0499 18.1003 12.6899 18.5403 12.6899C18.9853 12.6899 19.3402 13.0449 19.3402 13.4899V22.4149C19.3402 22.8549 18.9803 23.2149 18.5403 23.2149C18.1003 23.2149 17.7402 22.8549 17.7402 22.4149V13.4899Z" fill="currentColor"/>
</svg>
