<svg width="32" height="32" viewBox="0 0 32 32" fill="none" xmlns="http://www.w3.org/2000/svg">
<path fill-rule="evenodd" clip-rule="evenodd" d="M13.9168 7.64557C14.1267 7.27821 14.43 6.97287 14.7959 6.7605C15.1619 6.54813 15.5775 6.43628 16.0006 6.43628C16.4237 6.43628 16.8393 6.54813 17.2052 6.7605C17.5712 6.97287 17.8745 7.27821 18.0844 7.64557L25.948 21.4084C26.1564 21.7733 26.2654 22.1866 26.264 22.6069C26.2626 23.0272 26.1508 23.4397 25.9399 23.8032C25.729 24.1668 25.4263 24.4685 25.0621 24.6783C24.698 24.8881 24.2851 24.9986 23.8648 24.9988H8.13519C7.7149 24.9986 7.30202 24.8881 6.93786 24.6783C6.57369 24.4685 6.271 24.1668 6.06008 23.8032C5.84916 23.4397 5.7374 23.0272 5.73598 22.6069C5.73456 22.1866 5.84353 21.7733 6.05199 21.4084L13.9168 7.64557ZM15.91 11.4124H15.9088C15.2812 11.4124 14.7724 11.9211 14.7724 12.5488V17.0968C14.7724 17.7244 15.2812 18.2332 15.9088 18.2332H15.91C16.5376 18.2332 17.0464 17.7244 17.0464 17.0968V12.5488C17.0464 11.9211 16.5376 11.4124 15.91 11.4124ZM15.9088 19.3696H15.91C16.5376 19.3696 17.0464 19.8784 17.0464 20.506V20.5072C17.0464 21.1348 16.5376 21.6436 15.91 21.6436H15.9088C15.2812 21.6436 14.7724 21.1348 14.7724 20.5072V20.506C14.7724 19.8784 15.2812 19.3696 15.9088 19.3696Z" fill="currentColor"/>
</svg>
