<svg width="32" height="32" viewBox="0 0 32 32" fill="none" xmlns="http://www.w3.org/2000/svg">
<path fill-rule="evenodd" clip-rule="evenodd" d="M18 10.8C16.2326 10.8 14.8 12.2326 14.8 14C14.8 15.7673 16.2326 17.2 18 17.2C19.7673 17.2 21.2 15.7673 21.2 14C21.2 12.2326 19.7673 10.8 18 10.8ZM13.2 14C13.2 11.349 15.349 9.19995 18 9.19995C20.6509 9.19995 22.8 11.349 22.8 14C22.8 16.6509 20.6509 18.8 18 18.8C15.349 18.8 13.2 16.6509 13.2 14Z" fill="currentColor"/>
<path fill-rule="evenodd" clip-rule="evenodd" d="M10.2681 23.878C11.1786 20.0639 14.4994 17.2 18.4985 17.2H18.5028C22.5021 17.2 25.8231 20.0642 26.7334 23.8786L26.734 23.8807C27.0696 25.3046 26.0685 26.8 24.5239 26.8H12.4774C10.9366 26.8 9.92515 25.3077 10.2681 23.878ZM18.4985 18.8C15.2982 18.8 12.5766 21.0975 11.8242 24.25L11.824 24.251C11.6959 24.7846 12.0814 25.2 12.4774 25.2H24.5239C24.9162 25.2 25.3033 24.7879 25.1769 24.2488C24.4241 21.097 21.7028 18.8 18.5028 18.8H18.4985Z" fill="currentColor"/>
<path d="M5.1217 6.68741L6.26076 5.50567L7.13158 4.60297C7.18142 4.55039 7.24286 4.51619 7.30852 4.50449C7.37418 4.49279 7.44125 4.50409 7.50168 4.53703C7.56211 4.56996 7.61332 4.62314 7.64915 4.69016C7.68498 4.75718 7.70391 4.83519 7.70366 4.9148V6.14228H15.2849C15.4746 6.14228 15.6564 6.23265 15.7906 6.3935C15.9247 6.55436 16 6.77252 16 7C16 7.22748 15.9247 7.44564 15.7906 7.60649C15.6564 7.76735 15.4746 7.85771 15.2849 7.85771H7.70112V9.08443C7.70149 9.16411 7.68265 9.24223 7.64687 9.30936C7.61109 9.37649 7.55989 9.42978 7.49943 9.46282C7.43898 9.49585 7.37185 9.50722 7.30613 9.49554C7.24042 9.48387 7.17892 9.44966 7.12904 9.39702L6.25822 8.49356L5.11916 7.31183C5.08176 7.2731 5.05177 7.22518 5.0312 7.1713C5.01064 7.11743 5 7.05887 5 6.99962C5 6.94037 5.01064 6.88181 5.0312 6.82793C5.05177 6.77406 5.08176 6.72613 5.11916 6.68741" fill="currentColor"/>
</svg>
