<svg width="32" height="32" viewBox="0 0 32 32" fill="none" xmlns="http://www.w3.org/2000/svg">
<g clip-path="url(#clip0_3007_828)">
<path fill-rule="evenodd" clip-rule="evenodd" d="M15.8 8.6C14.0327 8.6 12.6 10.0327 12.6 11.8C12.6 13.5673 14.0327 15 15.8 15C17.5673 15 19 13.5673 19 11.8C19 10.0327 17.5673 8.6 15.8 8.6ZM11 11.8C11 9.14903 13.149 7 15.8 7C18.451 7 20.6 9.14903 20.6 11.8C20.6 14.451 18.451 16.6 15.8 16.6C13.149 16.6 11 14.451 11 11.8Z" fill="currentColor"/>
<path fill-rule="evenodd" clip-rule="evenodd" d="M7.06441 22.704C8.01452 18.3508 11.505 15 15.7952 15H15.7998C20.0902 15 23.5807 18.3511 24.5307 22.7045L24.5311 22.7065C24.8531 24.2004 23.9078 25.9333 22.2223 25.9333H9.37269C7.6903 25.9333 6.73556 24.2035 7.06441 22.704ZM15.7952 16.6C12.406 16.6 9.45118 19.271 8.62752 23.0456L8.62731 23.0466C8.45365 23.8376 8.9891 24.3333 9.37269 24.3333H22.2223C22.6029 24.3333 23.1383 23.8407 22.9672 23.0445C22.1432 19.2705 19.1887 16.6 15.7998 16.6H15.7952Z" fill="currentColor"/>
</g>
<defs>
<clipPath id="clip0_3007_828">
<rect width="32" height="32" fill="white"/>
</clipPath>
</defs>
</svg>
