<svg width="97" height="96" viewBox="0 0 97 96" fill="none" xmlns="http://www.w3.org/2000/svg">
<mask id="mask0_5890_13929" style="mask-type:alpha" maskUnits="userSpaceOnUse" x="0" y="0" width="97" height="96">
<circle cx="48.5" cy="48" r="47.5" fill="#BDBDBD" stroke="#C3C7C7"/>
</mask>
<g mask="url(#mask0_5890_13929)">
<path d="M66.1799 79.9879L72.3142 70.8003L61.1306 63.3333L54.9963 72.5209L66.1799 79.9879Z" fill="#262E7D"/>
<path d="M73.6598 39.8297C73.3907 37.1825 71.158 35.117 68.438 35.117C68.3725 35.117 68.3071 35.1243 68.2416 35.1243C68.0816 34.0843 67.8343 33.0806 67.4998 32.1134C65.2453 25.5825 59.1871 20.8188 51.9725 20.4915C51.7034 20.477 51.4343 20.4697 51.1653 20.4697H46.1325C45.8634 20.4697 45.5943 20.4697 45.3253 20.4915C38.1107 20.8261 32.0453 25.5825 29.798 32.1134C29.4634 33.0806 29.2162 34.0915 29.0562 35.1243C28.9907 35.1243 28.9253 35.117 28.8598 35.117C26.1398 35.117 23.9071 37.1825 23.638 39.8297C23.6234 40.0043 23.6089 40.1861 23.6089 40.3679C23.6089 40.5497 23.6162 40.7316 23.638 40.9061C23.9071 43.5534 26.1398 45.6188 28.8598 45.6188C28.9253 45.6188 28.9907 45.6115 29.0562 45.6115C30.0816 52.3679 34.358 57.8297 40.758 59.6261C41.0125 59.8006 40.8889 68.9715 40.8889 68.9715H55.8634C55.8634 68.9715 56.2853 59.8006 56.5398 59.6261C62.9325 57.8225 67.2162 52.3606 68.2416 45.6115C68.3071 45.6115 68.3725 45.6188 68.438 45.6188C71.158 45.6188 73.3907 43.5534 73.6598 40.9061C73.6743 40.7316 73.6889 40.5497 73.6889 40.3679C73.6889 40.1861 73.6816 40.0043 73.6598 39.8297Z" fill="#FCE4BC"/>
<path d="M55.8629 69.5168H40.8884C40.7357 69.5168 40.5975 69.4586 40.4884 69.3496C40.3866 69.2405 40.3284 69.095 40.3284 68.9496C40.3793 65.2768 40.372 61.1677 40.2775 60.055C34.212 58.2077 29.7757 52.935 28.5829 46.1568C25.7175 46.0259 23.3757 43.8296 23.0848 40.9496C23.0629 40.7532 23.0557 40.5568 23.0557 40.3532C23.0557 40.1496 23.0629 39.9532 23.0848 39.7568C23.3757 36.8768 25.7175 34.6805 28.5829 34.5496C28.7429 33.655 28.9757 32.775 29.2666 31.9168C31.6666 24.9641 37.9575 20.2514 45.3029 19.9168C45.5793 19.9023 45.8557 19.895 46.132 19.895H51.1648C51.4411 19.895 51.7175 19.895 51.9938 19.9168C59.3393 20.2514 65.6302 24.9641 68.0302 31.9168C68.3284 32.775 68.5538 33.655 68.7138 34.5496C71.5793 34.6805 73.9211 36.8768 74.212 39.7568C74.2338 39.9532 74.2411 40.1496 74.2411 40.3532C74.2411 40.5568 74.2338 40.7532 74.212 40.9496C73.9211 43.8296 71.5793 46.0259 68.7138 46.1568C67.5211 52.9423 63.0775 58.215 56.9975 60.055C56.8375 61.1314 56.5902 65.2696 56.4157 68.9714C56.4011 69.2696 56.1538 69.5096 55.8557 69.5096L55.8629 69.5168ZM41.4557 68.3968H55.332C55.7466 59.4805 55.9502 59.3423 56.2266 59.1532C56.2775 59.1168 56.3357 59.095 56.3938 59.0732C62.4375 57.3714 66.6557 52.3023 67.6957 45.5096C67.7393 45.2259 67.9866 45.015 68.2702 45.0368C68.3066 45.0368 68.3357 45.0368 68.372 45.0368C68.4011 45.0368 68.4229 45.0368 68.452 45.0368C70.8666 45.0368 72.8738 43.2259 73.1138 40.8332C73.1284 40.6732 73.1357 40.5132 73.1357 40.3532C73.1357 40.1932 73.1284 40.0332 73.1138 39.8732C72.8738 37.4732 70.8666 35.6623 68.452 35.6623C68.4229 35.6623 68.4011 35.6623 68.372 35.6623C68.3357 35.6623 68.3066 35.6623 68.2702 35.6623C67.9938 35.6623 67.7393 35.4659 67.6957 35.1896C67.5429 34.2005 67.3029 33.2187 66.9757 32.2732C64.7284 25.7568 58.8302 21.3423 51.9502 21.0296C51.6884 21.015 51.4338 21.015 51.172 21.015H46.1393C45.8775 21.015 45.6157 21.015 45.3611 21.0296C38.4811 21.3423 32.5829 25.7568 30.3357 32.2732C30.0084 33.2187 29.7684 34.2005 29.6157 35.1896C29.572 35.4732 29.3175 35.6696 29.0411 35.6623C29.0048 35.6623 28.9757 35.6623 28.9393 35.6623C28.9102 35.6623 28.8884 35.6623 28.8593 35.6623C26.4448 35.6623 24.4375 37.4732 24.1975 39.8659C24.1829 40.0259 24.1757 40.1859 24.1757 40.3459C24.1757 40.5059 24.1829 40.6659 24.1975 40.8259C24.4448 43.2259 26.4448 45.0368 28.8593 45.0368C28.8884 45.0368 28.9102 45.0368 28.9393 45.0368C28.9757 45.0368 29.0048 45.0368 29.0411 45.0368C29.3175 45.0223 29.572 45.2332 29.6157 45.5096C30.6484 52.3023 34.8738 57.3714 40.9175 59.0732C40.9757 59.0877 41.0338 59.1168 41.0848 59.1532C41.3829 59.3568 41.5793 59.495 41.4702 68.3968H41.4557Z" fill="#212121"/>
<path d="M42.6107 72.4943L36.3188 63.0708L25.1352 70.5378L31.4271 79.9613L42.6107 72.4943Z" fill="#262E7D"/>
<path d="M55.6071 38.5424C55.978 39.4733 57.0325 39.9242 57.9562 39.5533C58.8798 39.1824 59.338 38.1279 58.9671 37.2042C58.5962 36.2806 57.5416 35.8224 56.618 36.1933C55.6943 36.5642 55.2362 37.6188 55.6143 38.5424H55.6071Z" fill="#212121"/>
<path d="M38.0206 38.5424C38.3915 39.4733 39.4461 39.9242 40.3697 39.5533C41.2933 39.1824 41.7515 38.1279 41.3806 37.2042C41.0097 36.2806 39.9552 35.8224 39.0315 36.1933C38.1006 36.5642 37.6497 37.6188 38.0279 38.5424H38.0206Z" fill="#212121"/>
<path d="M48.3858 49.6038C45.8913 49.6038 44.3567 48.3238 44.2913 48.2657C44.0586 48.062 44.0295 47.7129 44.2258 47.4729C44.4295 47.2402 44.7786 47.2111 45.0113 47.4075C45.0404 47.4293 46.4367 48.5638 48.6622 48.4693C50.9458 48.3675 52.284 47.3929 52.2986 47.3857C52.5458 47.2038 52.8949 47.2548 53.084 47.502C53.2658 47.7493 53.2149 48.0984 52.9749 48.2875C52.9095 48.3384 51.3604 49.4729 48.7131 49.5966C48.604 49.5966 48.4877 49.6038 48.3786 49.6038H48.3858Z" fill="#212121"/>
<path d="M31.2384 17.9023C31.2384 17.9023 31.8857 24.9059 38.882 25.9968C45.8784 27.0877 54.1911 23.0877 57.6893 23.255C61.1875 23.4223 64.5911 30.1423 65.2675 32.1786C65.8275 33.8659 66.0093 37.575 66.0093 37.575L68.6202 35.1314C68.6202 35.1314 72.1475 15.415 49.0275 15.3132C25.9075 15.2113 29.3911 8.94953 31.2384 17.9095V17.9023Z" fill="#262E7D"/>
<path d="M39.5209 23.2476C36.0228 23.4149 33.3609 29.2331 32.3137 32.1713C31.7173 33.844 31.2009 37.5676 31.2009 37.5676L28.59 35.124C28.59 35.124 26.6046 25.4949 35.3682 20.6367C38.2918 19.0149 43.0118 23.0876 39.5209 23.2476Z" fill="#262E7D"/>
<path d="M56.814 62.0189C56.8067 62.0771 56.814 62.1353 56.8067 62.1935C56.5958 65.6189 52.4431 68.1789 49.0031 68.1789C45.5631 68.1789 40.4722 65.3935 40.4722 61.9607C40.4722 61.9026 40.4722 61.8516 40.4794 61.7935C34.3194 62.2953 31.7812 67.4516 31.7812 73.7426V86.0189C31.7812 92.6444 37.1485 98.0116 43.774 98.0116H54.2394C60.8649 98.0116 66.2322 92.6444 66.2322 86.0189V73.7426C66.2322 67.4516 62.9885 62.528 56.8212 62.0262L56.814 62.0189Z" fill="#262E7D"/>
<path d="M31.7812 82.3818V108.098H46.2467C46.2467 106.571 47.4831 105.335 49.0103 105.335C50.5376 105.335 51.774 106.571 51.774 108.098H66.2322V82.3818H31.7812Z" fill="#D83D3B"/>
<path d="M48.381 77.1172H38.1992V79.7426H48.381V77.1172Z" fill="#72BAB6"/>
<path d="M51.2888 67.2259C51.5361 61.5241 47.7252 61.1095 47.6961 66.5204H38.2997C38.147 61.1095 34.3943 61.5095 34.707 67.3786V74.7677C34.707 76.0695 35.7615 77.1168 37.0561 77.1168H48.9543C50.2561 77.1168 51.3033 76.0623 51.3033 74.7677V67.3786C51.3033 67.3277 51.2888 67.2768 51.2888 67.2259Z" fill="#E4E7F3"/>
<path d="M64.7896 83.3422C64.7896 81.3567 63.1751 79.7422 61.1896 79.7422H38.9496C36.9642 79.7422 35.3496 81.3567 35.3496 83.3422V83.5676C35.3496 84.564 35.7496 85.4585 36.4042 86.1131V92.4622C36.4042 93.2331 37.0296 93.8513 37.7932 93.8513C38.5569 93.8513 39.1823 93.2331 39.1823 92.4622V87.1676H40.9642V92.4622C40.9642 93.2331 41.5896 93.8513 42.3532 93.8513C43.1169 93.8513 43.7423 93.2331 43.7423 92.4622V87.1676H56.5642V92.4622C56.5642 93.2331 57.1896 93.8513 57.9532 93.8513C58.7169 93.8513 59.3423 93.2331 59.3423 92.4622V87.1676H61.1242V92.4622C61.1242 93.2331 61.7496 93.8513 62.5132 93.8513C63.2769 93.8513 63.9023 93.2331 63.9023 92.4622V85.9167C64.4478 85.284 64.7896 84.4695 64.7896 83.5676V83.3422Z" fill="#E4E7F3"/>
<path d="M63.334 78.4697C64.6213 76.6879 65.3631 74.717 65.7922 72.877C68.3085 74.5351 68.3813 79.517 63.334 78.4697Z" fill="#E4E7F3"/>
<path d="M39.4142 70.6583C39.4142 71.0728 39.0797 71.4074 38.6651 71.4074C38.2506 71.4074 37.916 71.0728 37.916 70.6583C37.916 70.2437 38.2506 69.9092 38.6651 69.9092C39.0797 69.9092 39.4142 70.2437 39.4142 70.6583Z" fill="#212121"/>
<path d="M47.507 70.6583C47.507 71.0728 47.1724 71.4074 46.7579 71.4074C46.3433 71.4074 46.0088 71.0728 46.0088 70.6583C46.0088 70.2437 46.3433 69.9092 46.7579 69.9092C47.1724 69.9092 47.507 70.2437 47.507 70.6583Z" fill="#212121"/>
<path d="M41.5364 71.8078C40.8891 71.1387 41.4201 70.5933 42.7073 70.5933C43.9946 70.5933 44.5255 71.1387 43.8782 71.8078C43.2382 72.4769 42.1837 72.4769 41.5364 71.8078Z" fill="#212121"/>
<path d="M25.8829 72.084C15.9702 79.2985 33.1774 90.724 40.0138 91.2767C42.9738 91.9967 51.1338 87.5894 43.4538 85.2476C35.8902 85.5167 48.0938 83.9749 43.912 82.2949C39.2502 83.4658 34.5011 80.7603 31.0683 77.9531" fill="#FCE4BC"/>
<path d="M40.7572 91.9094C40.459 91.9094 40.1826 91.8803 39.9281 91.8222C34.6044 91.364 24.3354 85.1967 22.5754 78.9712C22.0226 77.0076 22.0881 74.1421 25.5499 71.6258C25.7972 71.444 26.1535 71.5021 26.3354 71.7494C26.5172 71.9967 26.459 72.3531 26.2117 72.5349C23.8554 74.2512 22.9899 76.3167 23.659 78.6731C25.2517 84.3312 35.0554 90.3094 40.059 90.7167C40.0881 90.7167 40.1172 90.7167 40.1463 90.7312C41.819 91.1385 45.6299 89.5676 46.059 87.9894C46.3499 86.9203 44.5463 86.1785 43.3754 85.8076C41.0044 85.8876 40.4808 85.844 40.3717 85.2476C40.2626 84.6585 40.779 84.4767 41.9063 84.084C42.5026 83.8731 43.8408 83.4076 44.1972 83.0658C44.139 83.0221 44.0372 82.9567 43.8626 82.8767C38.939 84.0112 34.0008 81.0658 30.7135 78.3822C30.4735 78.1858 30.4372 77.8367 30.6335 77.5967C30.8299 77.3567 31.179 77.3203 31.419 77.5167C34.5535 80.0767 39.2372 82.884 43.7754 81.7494C43.8917 81.7203 44.0081 81.7276 44.1172 81.7712C44.4299 81.8949 45.3826 82.2803 45.3681 83.0658C45.3535 83.764 44.6263 84.2221 43.499 84.6803C43.5354 84.6803 43.5717 84.6876 43.6081 84.7021C47.0481 85.7494 47.419 87.2258 47.1354 88.2803C46.6045 90.2149 43.1063 91.9094 40.7499 91.9094H40.7572Z" fill="#212121"/>
<path d="M71.695 72.084C81.6077 79.2985 64.4004 90.724 57.5641 91.2767C54.6041 91.9967 46.4441 87.5894 54.1241 85.2476C61.6877 85.5167 49.4841 83.9749 53.6659 82.2949C58.3277 83.4658 63.0768 80.7603 66.5095 77.9531" fill="#FCE4BC"/>
<path d="M56.8176 91.9094C54.4612 91.9094 50.963 90.2149 50.4321 88.2803C50.1412 87.2258 50.5194 85.7494 53.9594 84.7021C53.9958 84.6876 54.0321 84.6803 54.0685 84.6803C52.9412 84.2221 52.214 83.7567 52.1994 83.0658C52.1849 82.2731 53.1376 81.8949 53.4503 81.7712C53.5594 81.7276 53.683 81.7203 53.7921 81.7494C58.323 82.884 63.014 80.0767 66.1485 77.5167C66.3885 77.3203 66.7449 77.3567 66.934 77.5967C67.1303 77.8367 67.094 78.1931 66.854 78.3822C63.5594 81.0731 58.6285 84.0112 53.7049 82.8767C53.5376 82.9567 53.4358 83.0149 53.3703 83.0658C53.7194 83.4003 55.0576 83.8731 55.654 84.084C56.7885 84.484 57.3049 84.6658 57.1885 85.2476C57.0721 85.844 56.5485 85.8876 54.1849 85.8076C53.014 86.1712 51.2103 86.9203 51.5012 87.9894C51.9303 89.5676 55.7485 91.1385 57.414 90.7312C57.443 90.7312 57.4721 90.7167 57.5012 90.7167C62.5121 90.3167 72.3085 84.3312 73.9012 78.6731C74.563 76.3167 73.7049 74.2512 71.3485 72.5349C71.1012 72.3531 71.043 72.004 71.2249 71.7494C71.4067 71.5021 71.7558 71.444 72.0103 71.6258C75.4721 74.1421 75.5376 77.0076 74.9849 78.9712C73.2321 85.1967 62.9558 91.364 57.6321 91.8222C57.3776 91.8803 57.1012 91.9094 56.803 91.9094H56.8176Z" fill="#212121"/>
<path d="M38.2689 45.2766C34.7271 45.2766 31.8398 42.3894 31.8398 38.8476C31.8398 35.3057 34.7271 32.4185 38.2689 32.4185C41.8108 32.4185 44.698 35.3057 44.698 38.8476C44.698 42.3894 41.8108 45.2766 38.2689 45.2766ZM38.2689 33.5385C35.3453 33.5385 32.9598 35.9166 32.9598 38.8476C32.9598 41.7785 35.338 44.1566 38.2689 44.1566C41.1998 44.1566 43.578 41.7712 43.578 38.8476C43.578 35.9239 41.1998 33.5385 38.2689 33.5385Z" fill="#212121"/>
<path d="M58.4794 45.2766C54.9376 45.2766 52.0503 42.3894 52.0503 38.8476C52.0503 35.3057 54.9376 32.4185 58.4794 32.4185C62.0212 32.4185 64.9085 35.3057 64.9085 38.8476C64.9085 42.3894 62.0212 45.2766 58.4794 45.2766ZM58.4794 33.5385C55.5557 33.5385 53.1703 35.9166 53.1703 38.8476C53.1703 41.7785 55.5485 44.1566 58.4794 44.1566C61.4103 44.1566 63.7885 41.7712 63.7885 38.8476C63.7885 35.9239 61.4103 33.5385 58.4794 33.5385Z" fill="#212121"/>
<path d="M52.6104 39.4081H44.1376C43.8249 39.4081 43.5776 39.1608 43.5776 38.8481C43.5776 38.5354 43.8249 38.2881 44.1376 38.2881H52.6104C52.9231 38.2881 53.1704 38.5354 53.1704 38.8481C53.1704 39.1608 52.9231 39.4081 52.6104 39.4081Z" fill="#212121"/>
</g>
</svg>
