<svg width="96" height="96" viewBox="0 0 96 96" fill="none" xmlns="http://www.w3.org/2000/svg">
<g id="Mask group">
<mask id="mask0_1483_21967" style="mask-type:alpha" maskUnits="userSpaceOnUse" x="0" y="0" width="96" height="96">
<circle id="Ellipse 7092" cx="48" cy="48" r="48" fill="#D9D9D9"/>
</mask>
<g mask="url(#mask0_1483_21967)">
<g id="Group">
<path id="Vector" d="M41.873 18.9465C47.1825 8.20817 59.757 13.9751 66.0542 22.3668C72.3513 30.752 65.9149 40.105 76.9449 40.9667C84.1701 41.5301 89.3669 47.0915 89.3669 52.3679L65.504 63.5702L41.873 18.9465Z" fill="#EDAB16"/>
<path id="Vector_2" d="M72.6502 57.9025C72.4249 57.9025 72.2194 57.75 72.1597 57.5246C71.0063 53.2227 68.8653 52.8449 66.5983 52.4538C64.7954 52.1422 62.9327 51.8174 61.7263 49.5504C61.5937 49.2986 61.6865 48.9936 61.9384 48.8611C62.1903 48.7285 62.4952 48.8213 62.6278 49.0732C63.6022 50.9027 65.0737 51.1546 66.7773 51.4529C69.1437 51.8638 71.8283 52.3278 73.154 57.2661C73.2269 57.5379 73.0678 57.8163 72.7961 57.8892C72.7497 57.9025 72.7099 57.9091 72.6635 57.9091L72.6502 57.9025Z" fill="#040000"/>
<path id="Vector_3" d="M82.7108 54.9596C82.4854 54.9596 82.2799 54.8072 82.2203 54.5818C81.0669 50.2798 78.9259 49.902 76.6589 49.5109C74.8559 49.1994 72.9933 48.8746 71.7869 46.6076C71.6543 46.3557 71.7471 46.0508 71.999 45.9182C72.2509 45.7856 72.5558 45.8784 72.6883 46.1303C73.6627 47.9598 75.1343 48.2117 76.8379 48.51C79.2043 48.921 81.8888 49.385 83.2146 54.3233C83.2875 54.595 83.1284 54.8734 82.8566 54.9463C82.8102 54.9596 82.7704 54.9662 82.724 54.9662L82.7108 54.9596Z" fill="#040000"/>
<path id="Vector_4" d="M68.7801 40.0452C68.5348 37.6324 66.4998 35.7499 64.0207 35.7499C63.9611 35.7499 63.9014 35.7565 63.8418 35.7565C63.696 34.8086 63.4706 33.8939 63.1657 33.0123C61.1108 27.0598 55.5892 22.7181 49.0136 22.4198C48.7684 22.4065 48.5231 22.3999 48.2778 22.3999H43.6909C43.4456 22.3999 43.2003 22.3999 42.9551 22.4198C36.3795 22.7247 30.8513 27.0598 28.803 33.0123C28.4981 33.8939 28.2728 34.8153 28.1269 35.7565C28.0673 35.7565 28.0076 35.7499 27.948 35.7499C25.4689 35.7499 23.4339 37.6324 23.1886 40.0452C23.1754 40.2043 23.1621 40.37 23.1621 40.5357C23.1621 40.7014 23.1687 40.8672 23.1886 41.0262C23.4339 43.439 25.4689 45.3216 27.948 45.3216C28.0076 45.3216 28.0673 45.3149 28.1269 45.3149C29.0616 51.4729 32.9592 56.451 38.7923 58.0882C39.0243 58.2473 40.8339 58.3335 40.8339 58.3335V62.5559L40.5357 73.4401H51.1414V58.3335C51.1414 58.3335 52.951 58.2473 53.183 58.0882C59.0095 56.4444 62.9138 51.4663 63.8484 45.3149C63.9081 45.3149 63.9677 45.3216 64.0274 45.3216C66.5065 45.3216 68.5415 43.439 68.7867 41.0262C68.8 40.8672 68.8132 40.7014 68.8132 40.5357C68.8132 40.37 68.8066 40.2043 68.7867 40.0452H68.7801Z" fill="#EAC293"/>
<path id="Vector_5" d="M51.1315 73.944H40.5258C40.3866 73.944 40.254 73.891 40.1612 73.7915C40.0684 73.6921 40.0154 73.5595 40.0154 73.4203L40.3136 62.5362V58.8109C39.1404 58.738 38.7493 58.6319 38.5902 58.559C32.936 56.9417 28.7931 52.0895 27.6862 45.8255C25.0745 45.7062 22.9401 43.7043 22.675 41.0794C22.6551 40.9005 22.6484 40.7215 22.6484 40.5359C22.6484 40.3503 22.6551 40.1713 22.675 39.9923C22.9401 37.3674 25.0745 35.3656 27.6862 35.2463C27.832 34.4309 28.0441 33.6289 28.3093 32.8467C30.4967 26.5098 36.2304 22.2144 42.9253 21.9095C43.1772 21.8963 43.4291 21.8896 43.681 21.8896H48.2679C48.5198 21.8896 48.7717 21.8896 49.0236 21.9095C55.7185 22.2144 61.4522 26.5098 63.6397 32.8467C63.9114 33.6289 64.1169 34.4309 64.2627 35.2463C66.8744 35.3656 69.0088 37.3674 69.274 39.9923C69.2938 40.1713 69.3005 40.3503 69.3005 40.5359C69.3005 40.7215 69.2938 40.9005 69.274 41.0794C69.0088 43.7043 66.8744 45.7062 64.2627 45.8255C63.1558 52.0895 59.0129 56.9483 53.3587 58.559C53.1996 58.6319 52.8085 58.738 51.6353 58.8109V73.4336C51.6353 73.7186 51.4099 73.944 51.1249 73.944H51.1315ZM41.0494 72.9232H50.6211V58.327C50.6211 58.0553 50.8332 57.8299 51.105 57.8166C51.8275 57.7835 52.7157 57.6973 52.9212 57.631C52.9544 57.6111 52.9941 57.5979 53.0273 57.5846C58.5356 56.0335 62.3802 51.4134 63.3281 45.2223C63.3679 44.9638 63.5933 44.7716 63.8518 44.7914C63.8783 44.7914 63.9114 44.7914 63.9379 44.7914C63.9645 44.7914 63.9843 44.7914 64.0109 44.7914C66.2115 44.7914 68.041 43.1409 68.2598 40.9601C68.273 40.8143 68.2797 40.6685 68.2797 40.5226C68.2797 40.3768 68.273 40.231 68.2598 40.0851C68.0344 37.8977 66.2115 36.2472 64.0109 36.2472C63.9843 36.2472 63.9645 36.2472 63.9379 36.2472C63.9048 36.2472 63.8783 36.2472 63.8451 36.2472C63.5933 36.2604 63.3613 36.0682 63.3215 35.8163C63.1823 34.9148 62.9635 34.02 62.6653 33.1583C60.617 27.219 55.2412 23.1955 48.9706 22.9105C48.7319 22.8972 48.5 22.8972 48.2613 22.8972H43.6743C43.4357 22.8972 43.1971 22.8972 42.9651 22.9105C36.6944 23.1955 31.3186 27.219 29.2704 33.1583C28.9721 34.02 28.7534 34.9148 28.6142 35.8163C28.5744 36.0748 28.349 36.2538 28.0905 36.2472C28.0574 36.2472 28.0309 36.2472 27.9977 36.2472C27.9712 36.2472 27.9513 36.2472 27.9248 36.2472C25.7241 36.2472 23.8946 37.8977 23.6759 40.0785C23.6626 40.2243 23.656 40.3702 23.656 40.516C23.656 40.6618 23.6626 40.8076 23.6759 40.9535C23.8946 43.1409 25.7241 44.7914 27.9248 44.7914C27.9513 44.7914 27.9712 44.7914 27.9977 44.7914C28.0242 44.7914 28.0574 44.7914 28.0839 44.7914C28.3424 44.7782 28.5678 44.9704 28.6075 45.2223C29.5488 51.4134 33.4 56.0335 38.9084 57.5846C38.9482 57.5979 38.9813 57.6111 39.0144 57.631C39.2266 57.6973 40.1148 57.7835 40.8307 57.8166C41.1024 57.8299 41.3146 58.0553 41.3146 58.327V62.5494L41.0295 72.9232H41.0494Z" fill="#040000"/>
<path id="Vector_6" d="M45.9831 42.8096C45.698 42.8096 45.4727 42.5842 45.4727 42.2992V36.8903C45.4727 36.6053 45.698 36.3799 45.9831 36.3799C46.2681 36.3799 46.4935 36.6053 46.4935 36.8903V42.2992C46.4935 42.5842 46.2681 42.8096 45.9831 42.8096Z" fill="#040000"/>
<path id="Vector_7" d="M52.0529 40.2973C51.7944 39.303 52.3844 38.2888 53.3787 38.0237C54.3729 37.7585 55.3871 38.3551 55.6523 39.3494" fill="#040000"/>
<path id="Vector_8" d="M40.4075 38.441C40.0694 37.5926 39.1083 37.1816 38.2665 37.5263C38.0676 37.6058 37.8953 37.7185 37.7494 37.8577C37.2125 37.6522 36.7949 37.2346 36.7949 37.2346C36.8811 38.0168 37.1065 38.4344 37.2854 38.6465C37.1993 38.9713 37.2125 39.3293 37.3517 39.6673C37.6898 40.5158 38.6509 40.9268 39.4928 40.5887C40.3412 40.2506 40.7522 39.2895 40.4141 38.4477L40.4075 38.441Z" fill="#040000"/>
<path id="Vector_9" d="M44.9691 47.3833C44.3461 47.3833 43.5241 47.2706 42.6491 46.8464C40.8528 45.978 40.117 44.7252 40.0839 44.6722C39.9447 44.4269 40.0242 44.1154 40.2695 43.9762C40.5147 43.837 40.8263 43.9166 40.9655 44.1618C40.9655 44.1684 41.5952 45.2025 43.0866 45.925C44.5648 46.6409 45.8043 46.2631 45.8176 46.2631C46.0894 46.1835 46.3744 46.3294 46.4539 46.6011C46.5401 46.8729 46.3877 47.1579 46.1159 47.2375C46.0827 47.2507 45.6386 47.3833 44.9559 47.3833H44.9691Z" fill="#040000"/>
<path id="Vector_10" d="M57.3895 44.1484C57.2702 44.1484 57.1509 44.1087 57.0515 44.0225L55.3081 42.5045C55.096 42.3189 55.0761 41.9941 55.2617 41.782C55.4473 41.5699 55.7721 41.55 55.9843 41.7356L57.7276 43.2536C57.9397 43.4392 57.9596 43.764 57.774 43.9761C57.6745 44.0888 57.5287 44.1484 57.3895 44.1484Z" fill="#040000"/>
<path id="Vector_11" d="M59.8016 44.1484C59.6823 44.1484 59.563 44.1087 59.4636 44.0225L57.7203 42.5045C57.5081 42.3189 57.4883 41.9941 57.6739 41.782C57.8595 41.5699 58.1843 41.55 58.3964 41.7356L60.1397 43.2536C60.3518 43.4392 60.3717 43.764 60.1861 43.9761C60.0867 44.0888 59.9408 44.1484 59.8016 44.1484Z" fill="#040000"/>
<path id="Vector_12" d="M57.0803 27.5638C57.0803 27.4975 57.0803 27.4312 57.0736 27.3649C57.067 27.1727 57.0537 26.9804 57.0405 26.7882C57.0405 26.7418 57.0405 26.6888 57.0339 26.6424C57.014 26.417 56.9941 26.1916 56.9742 25.9729C56.9742 25.9199 56.9609 25.8735 56.9543 25.8204C56.9344 25.6481 56.9079 25.4758 56.888 25.31C56.8814 25.257 56.8748 25.1974 56.8615 25.1443C56.8284 24.9388 56.7952 24.7334 56.7555 24.5411C56.7555 24.5212 56.7488 24.5014 56.7422 24.4815C56.7091 24.3025 56.6693 24.1302 56.6295 23.9578C56.6163 23.9048 56.603 23.8517 56.5897 23.7987C56.55 23.6396 56.5102 23.4872 56.4704 23.3347C56.4638 23.3082 56.4572 23.2751 56.4439 23.2485C56.3975 23.0696 56.3445 22.8972 56.2848 22.7315C56.2716 22.6851 56.2583 22.6453 56.2451 22.6056C56.1987 22.473 56.1589 22.3404 56.1125 22.2145C56.0992 22.1747 56.086 22.1349 56.0661 22.0952C56.0064 21.9361 55.9468 21.7836 55.8871 21.6378C55.8739 21.6113 55.8672 21.5914 55.854 21.5649C55.8009 21.4389 55.7479 21.313 55.6883 21.1937C55.6684 21.1539 55.6485 21.1141 55.6352 21.0744C55.6087 21.0147 55.5822 20.9617 55.5557 20.9087C54.2631 18.3036 51.5719 16.6929 48.6619 16.6929H43.4452C40.5353 16.6929 37.8375 18.3102 36.5515 20.9087C36.525 20.9617 36.4985 21.0213 36.472 21.0744C36.4521 21.1141 36.4322 21.1539 36.4189 21.1937C36.3659 21.313 36.3062 21.4389 36.2532 21.5649C36.24 21.5914 36.2333 21.6113 36.2201 21.6378C36.1604 21.7903 36.1008 21.9427 36.0411 22.0952C36.0278 22.1349 36.0146 22.1747 35.9947 22.2145C35.9483 22.3404 35.9019 22.473 35.8621 22.6056C35.8489 22.6453 35.8356 22.6917 35.8224 22.7315C35.7693 22.8972 35.7163 23.0696 35.6633 23.2485C35.6566 23.2751 35.65 23.3082 35.6368 23.3347C35.597 23.4872 35.5572 23.6396 35.5174 23.7987C35.5042 23.8517 35.4909 23.9048 35.4777 23.9578C35.4379 24.1302 35.3981 24.3025 35.365 24.4815C35.365 24.5014 35.3584 24.5212 35.3517 24.5411C35.312 24.74 35.2788 24.9388 35.2457 25.1443C35.239 25.1974 35.2258 25.257 35.2192 25.31C35.1926 25.4758 35.1728 25.6481 35.1529 25.8204C35.1529 25.8735 35.1396 25.9199 35.133 25.9729C35.1065 26.1916 35.0866 26.4104 35.0733 26.6424C35.0733 26.6888 35.0733 26.7352 35.0667 26.7816C35.0534 26.9672 35.0402 27.1594 35.0336 27.3583C35.0336 27.4246 35.0336 27.4908 35.0269 27.5571C35.0203 27.8024 35.0137 28.0476 35.0137 28.2995H57.1068C57.1068 28.0476 57.1068 27.8024 57.0935 27.5571L57.0803 27.5638Z" fill="#EDAB16"/>
<path id="Vector_13" d="M46.0489 17.793C29.3117 17.793 27.5684 35.1798 27.5684 35.1798L29.948 37.407C29.948 37.407 30.412 34.0131 30.9622 32.4886C31.7444 30.3078 33.501 26.3704 35.8541 24.9187L56.3365 25.0712C58.5703 26.6355 60.2473 30.3807 60.9963 32.4886C61.5399 34.0131 62.0105 37.407 62.0105 37.407L64.3902 35.1798C64.3902 35.1798 62.1696 17.793 46.0489 17.793Z" fill="#EDAB16"/>
<g id="Group_2">
<path id="Vector_14" d="M36.5424 28.8165H35.0045C34.7195 28.8165 34.4941 28.5911 34.4941 28.3061C34.4941 28.021 34.7195 27.7957 35.0045 27.7957H36.5424C36.8274 27.7957 37.0528 28.021 37.0528 28.3061C37.0528 28.5911 36.8274 28.8165 36.5424 28.8165Z" fill="#040000"/>
<path id="Vector_15" d="M39.3945 28.8165H38.1549C37.8699 28.8165 37.6445 28.5911 37.6445 28.3061C37.6445 28.021 37.8699 27.7957 38.1549 27.7957H39.3945C39.6795 27.7957 39.9049 28.021 39.9049 28.3061C39.9049 28.5911 39.6795 28.8165 39.3945 28.8165Z" fill="#040000"/>
<path id="Vector_16" d="M56.8154 28.8163H45.7721C45.4871 28.8163 45.2617 28.591 45.2617 28.3059C45.2617 28.0209 45.4871 27.7955 45.7721 27.7955H56.2983C56.2983 27.7226 56.2983 27.6563 56.2983 27.5834V27.3912C56.2851 27.199 56.2718 27.0134 56.2586 26.8278V26.6886C56.232 26.4698 56.2122 26.2511 56.1856 26.039L56.1658 25.8865C56.1459 25.7208 56.126 25.5551 56.0995 25.3894L56.073 25.2236C56.0398 25.0248 56.0067 24.8259 55.9735 24.6337L55.9603 24.574C55.9271 24.4017 55.8874 24.236 55.8542 24.0703L55.8211 23.9178C55.7813 23.7653 55.7481 23.6129 55.7084 23.4671L55.6819 23.3809C55.6355 23.2152 55.5824 23.0495 55.5294 22.8837L55.4896 22.7578C55.4499 22.6319 55.4035 22.5059 55.3571 22.38L55.3173 22.2607C55.2576 22.1082 55.2046 21.9624 55.1449 21.8165L55.1118 21.7436C55.0588 21.6243 55.0057 21.505 54.9527 21.3857L54.8201 21.1139C53.6336 18.7276 51.1081 17.1832 48.3838 17.1832C48.0988 17.1832 47.8734 16.9578 47.8734 16.6728C47.8734 16.3877 48.0988 16.1624 48.3838 16.1624C51.4926 16.1624 54.3827 17.9322 55.7349 20.6632L55.8807 20.9615C55.9404 21.0874 55.9934 21.2133 56.0531 21.3459L56.0862 21.4188C56.1525 21.5779 56.2122 21.737 56.2718 21.8961L56.3182 22.022C56.3646 22.1546 56.411 22.2872 56.4574 22.4264L56.5038 22.5589C56.5635 22.7379 56.6165 22.9103 56.6629 23.0959L56.6894 23.1887C56.7358 23.3477 56.7756 23.5068 56.8154 23.6659L56.8551 23.825C56.8949 24.004 56.9347 24.1829 56.9744 24.3686L56.9877 24.4348C57.0275 24.6337 57.0606 24.8458 57.0938 25.0579L57.1203 25.217C57.1468 25.4026 57.1733 25.5816 57.1932 25.7539L57.2131 25.913C57.2396 26.1384 57.2595 26.3638 57.2794 26.6024V26.7482C57.2992 26.9404 57.3125 27.1393 57.3191 27.3382V27.5436C57.3324 27.7889 57.339 28.0408 57.339 28.2993C57.339 28.5843 57.1136 28.8097 56.8286 28.8097L56.8154 28.8163Z" fill="#040000"/>
</g>
<path id="Vector_17" d="M71.2055 57.697C74.3939 61.2897 73.2604 67.441 72.4318 71.5971C67.52 69.1048 63.2114 76.31 68.7662 78.1528C82.5802 86.6639 84.814 56.7888 75.9317 52.8581C72.9621 52.6592 73.7178 58.1146 74.6657 58.963C74.6657 58.963 70.5029 54.7207 71.2122 57.697H71.2055Z" fill="#EAC293"/>
<path id="Vector_18" d="M73.3572 80.1749C72.0315 80.1749 70.4274 79.7705 68.5449 78.6172C66.9142 78.0604 65.9 76.9932 65.6879 75.6078C65.4559 74.1097 66.2116 72.4857 67.6102 71.4715C68.9293 70.517 70.5202 70.3049 72.058 70.875C72.8004 67.1033 73.7616 61.343 70.8251 58.0354C70.7721 57.9691 70.7323 57.8962 70.7124 57.8166C70.6395 57.5117 70.4207 56.5837 71.0637 56.2324C71.5542 55.9606 72.343 56.2655 73.4235 57.1339C73.2379 56.007 73.2777 54.7211 73.6555 53.8196C74.0864 52.7988 74.9083 52.2818 75.9623 52.3547C76.0219 52.3547 76.0816 52.3746 76.1346 52.3944C79.2434 53.7732 81.3182 58.1282 81.6827 64.0475C82.0407 69.8807 80.5691 76.8672 76.4594 79.3331C75.6905 79.7971 74.6564 80.1815 73.3638 80.1815L73.3572 80.1749ZM70.3545 71.5908C69.5922 71.5908 68.8564 71.8295 68.2002 72.3001C67.1263 73.0823 66.5165 74.3483 66.6889 75.4553C66.8479 76.4695 67.6169 77.2384 68.9161 77.6693C68.9558 77.6825 68.989 77.6958 69.0221 77.7223C71.6802 79.3596 74.0002 79.6048 75.9225 78.4514C79.6411 76.2176 80.9801 69.4498 80.6553 64.1072C80.3239 58.7115 78.4679 54.615 75.8032 53.3622C75.2265 53.3423 74.842 53.6207 74.5968 54.2107C74.0002 55.6226 74.5305 58.0287 74.9613 58.5391C74.9812 58.559 75.0077 58.5856 75.0276 58.6054C75.2198 58.8043 75.2265 59.1158 75.0276 59.3147C74.8354 59.5136 74.5239 59.5268 74.3184 59.3412C74.2918 59.3147 74.2587 59.2882 74.2322 59.255C73.2379 58.2541 72.1243 57.3659 71.6338 57.1803C71.6338 57.2466 71.647 57.3328 71.6736 57.4587C75.0011 61.3431 73.7085 67.8126 72.9264 71.6969C72.8932 71.856 72.7938 71.9886 72.648 72.0549C72.5021 72.1278 72.3364 72.1211 72.1906 72.0549C71.5808 71.7499 70.9577 71.5975 70.3478 71.5975L70.3545 71.5908Z" fill="#040000"/>
<path id="Vector_19" d="M55.8902 62.8804L51.7676 72.3708L68.1221 79.4752L72.2447 69.9847L55.8902 62.8804Z" fill="#E4E7F3"/>
<path id="Vector_20" d="M61.8518 111.488L61.6728 72.466C61.6728 66.7322 57.2582 62.0326 51.6371 61.5752C51.6371 61.6282 51.6437 61.6746 51.6437 61.7277C51.6437 64.8564 49.105 65.1679 45.9763 65.1679C42.8476 65.1679 40.3088 64.8564 40.3088 61.7277C40.3088 61.6746 40.3088 61.6282 40.3155 61.5752C34.7011 62.0326 30.2798 66.7322 30.2798 72.466L29.6103 88.6663L29.2855 114.352C28.9077 116.46 30.936 118.714 33.8526 118.674C37.3061 118.627 37.6176 113.364 37.6176 113.364C37.6176 113.364 37.3061 118.071 46.5 119.211L53.6655 119.125C58.8225 118.661 62.4881 115.247 61.8584 111.488H61.8518Z" fill="#E4E7F3"/>
<g id="Group_3">
<g id="Group_4">
<path id="Vector_21" d="M44.844 67.2622L30.4533 79.9692L34.9475 85.0533L28.4382 90.8003C28.0471 91.145 28.0073 91.7482 28.352 92.1393C28.6967 92.5304 29.2999 92.5702 29.691 92.2255L36.2003 86.4785L40.6945 91.5626L55.0851 78.8556L44.844 67.2622Z" fill="white"/>
<path id="Vector_22" d="M29.0698 92.9813C28.6654 92.9813 28.2611 92.8156 27.9761 92.4908C27.4458 91.8876 27.4988 90.9596 28.102 90.4293L34.2268 85.0203L30.0707 80.3207C29.9779 80.2212 29.9381 80.0887 29.9448 79.9495C29.9514 79.8103 30.0177 79.6909 30.1171 79.5981L44.5078 66.8911C44.7199 66.7055 45.0447 66.7254 45.2303 66.9375L55.4715 78.5309C55.5643 78.6304 55.604 78.7629 55.5974 78.9021C55.5908 79.0413 55.5245 79.1607 55.4251 79.2535L41.0344 91.9605C40.935 92.0533 40.8024 92.0997 40.6632 92.0864C40.5306 92.0798 40.4047 92.0135 40.3119 91.9141L36.1624 87.2144L30.0376 92.6233C29.7592 92.8686 29.4145 92.9879 29.0698 92.9879V92.9813ZM31.1843 80.0158L35.3404 84.7154C35.4332 84.8149 35.473 84.9474 35.4664 85.0866C35.4597 85.2192 35.3935 85.3451 35.294 85.4379L28.7847 91.1849C28.6058 91.344 28.5859 91.6224 28.745 91.8014C28.9041 91.9804 29.1825 92.0002 29.3614 91.8412L35.8707 86.0942C35.9701 86.0014 36.1093 85.955 36.2419 85.9682C36.3745 85.9749 36.5004 86.0411 36.5932 86.1406L40.7427 90.8402L54.3645 78.8093L44.7994 67.9848L31.1777 80.0158H31.1843Z" fill="#040000"/>
</g>
<path id="Vector_23" d="M52.9074 78.9543L44.4941 69.4314L32.6713 79.8767L41.0846 89.3995L52.9074 78.9543Z" fill="#72BAB6"/>
<path id="Vector_24" d="M47.815 77.4237H47.8018L40.3645 77.2116C40.0794 77.205 39.8607 76.9664 39.8673 76.688C39.874 76.4029 40.1258 76.1842 40.391 76.1908L47.8283 76.4029C48.1133 76.4096 48.332 76.6482 48.3254 76.9266C48.3188 77.205 48.0934 77.4237 47.815 77.4237Z" fill="#040000"/>
<path id="Vector_25" d="M47.6412 80.1811H47.6279L40.1907 79.9689C39.9056 79.9623 39.6869 79.7237 39.6935 79.4453C39.7001 79.1603 39.952 78.9415 40.2172 78.9481L47.6545 79.1603C47.9395 79.1669 48.1582 79.4055 48.1516 79.6839C48.145 79.9623 47.9196 80.1811 47.6412 80.1811Z" fill="#040000"/>
</g>
<path id="Vector_26" d="M33.4809 84.8677C28.7348 84.1187 25.7055 78.6501 23.7037 74.9116C29.0795 73.7184 27.8333 65.4128 22.3713 67.5207C6.29699 69.7214 23.5446 94.214 32.9042 91.6156C35.3236 89.8856 31.2802 86.147 30.0075 86.094C30.0075 86.094 35.9202 86.7303 33.4809 84.8743V84.8677Z" fill="#EAC293"/>
<path id="Vector_27" d="M31.433 92.3118C28.4104 92.3118 24.7713 90.2835 21.3642 86.6178C17.3804 82.3424 14.086 76.0055 15.6901 71.4914C16.3 69.7812 17.9306 67.6203 22.2524 67.0105C23.8632 66.4073 25.3281 66.5862 26.3688 67.5142C27.5023 68.5218 27.9464 70.2585 27.5089 71.9289C27.0979 73.5065 25.9976 74.6798 24.4531 75.2167C26.2694 78.5973 29.1926 83.6615 33.5542 84.3509C33.6404 84.3641 33.7199 84.3973 33.7862 84.4503C34.0381 84.6425 34.7937 85.2126 34.5219 85.8953C34.3165 86.4124 33.5144 86.6775 32.1224 86.6974C32.9775 87.4531 33.7729 88.4672 34.0513 89.4085C34.3629 90.4691 34.0646 91.3904 33.2029 92.0069C33.1565 92.04 33.0968 92.0666 33.0438 92.0864C32.5334 92.2256 31.9898 92.2986 31.433 92.2986V92.3118ZM24.0488 67.6866C23.5914 67.6866 23.0943 67.786 22.564 67.9915C22.5242 68.0048 22.4911 68.018 22.4513 68.018C19.3557 68.4422 17.4069 69.7282 16.6579 71.8361C15.1996 75.9193 18.4675 81.9977 22.1132 85.9219C25.7987 89.8791 29.8355 91.8677 32.6858 91.1386C33.1366 90.7806 33.2625 90.3299 33.0769 89.7134C32.6394 88.2419 30.6973 86.7173 30.0477 86.6046C30.0211 86.6046 29.988 86.6046 29.9615 86.598C29.6963 86.5714 29.4909 86.3461 29.4975 86.0809C29.4975 85.8423 29.6765 85.6435 29.9018 85.5904C29.9416 85.5838 29.988 85.5772 30.0344 85.5772C30.0742 85.5772 30.1139 85.5772 30.1537 85.5904C31.5855 85.7363 32.9908 85.7097 33.4746 85.544C33.4282 85.4976 33.3619 85.4313 33.2691 85.3518C28.2314 84.4636 25.1226 78.6437 23.26 75.1504C23.1871 75.0112 23.1804 74.8388 23.2467 74.693C23.313 74.5472 23.4456 74.4411 23.598 74.408C25.0895 74.0766 26.1567 73.0823 26.5212 71.677C26.8593 70.3911 26.5212 69.0256 25.686 68.2832C25.2353 67.8855 24.6851 67.68 24.0422 67.68L24.0488 67.6866Z" fill="#040000"/>
<path id="Vector_28" d="M24.8101 75.6938L22.2051 66.5729L37.822 62.1118L36.5427 72.7308L24.8101 75.6938Z" fill="#E4E7F3"/>
</g>
</g>
</g>
</svg>
