<svg width="96" height="96" viewBox="0 0 96 96" fill="none" xmlns="http://www.w3.org/2000/svg">
<mask id="mask0_1484_7372" style="mask-type:alpha" maskUnits="userSpaceOnUse" x="0" y="0" width="96" height="96">
<circle cx="48" cy="48" r="47.5" fill="#BDBDBD" stroke="#C3C7C7"/>
</mask>
<g mask="url(#mask0_1484_7372)">
<path d="M65.6801 79.9874L71.8145 70.7998L60.6308 63.3328L54.4965 72.5204L65.6801 79.9874Z" fill="#262E7D"/>
<path d="M73.1603 39.8292C72.8912 37.182 70.6585 35.1165 67.9385 35.1165C67.873 35.1165 67.8076 35.1238 67.7421 35.1238C67.5821 34.0838 67.3348 33.0801 67.0003 32.1129C64.7457 25.582 58.6876 20.8183 51.473 20.4911C51.2039 20.4765 50.9348 20.4692 50.6657 20.4692H45.633C45.3639 20.4692 45.0948 20.4692 44.8257 20.4911C37.6112 20.8256 31.5457 25.582 29.2985 32.1129C28.9639 33.0801 28.7166 34.0911 28.5566 35.1238C28.4912 35.1238 28.4257 35.1165 28.3603 35.1165C25.6403 35.1165 23.4076 37.182 23.1385 39.8292C23.1239 40.0038 23.1094 40.1856 23.1094 40.3674C23.1094 40.5492 23.1166 40.7311 23.1385 40.9056C23.4076 43.5529 25.6403 45.6183 28.3603 45.6183C28.4257 45.6183 28.4912 45.6111 28.5566 45.6111C29.5821 52.3674 33.8585 57.8292 40.2585 59.6256C40.513 59.8001 40.3894 68.9711 40.3894 68.9711H55.3639C55.3639 68.9711 55.7857 59.8001 56.0403 59.6256C62.433 57.822 66.7166 52.3601 67.7421 45.6111C67.8076 45.6111 67.873 45.6183 67.9385 45.6183C70.6585 45.6183 72.8912 43.5529 73.1603 40.9056C73.1748 40.7311 73.1894 40.5492 73.1894 40.3674C73.1894 40.1856 73.1821 40.0038 73.1603 39.8292Z" fill="#FCE4BC"/>
<path d="M55.3639 69.5166H40.3894C40.2366 69.5166 40.0985 69.4584 39.9894 69.3493C39.8876 69.2402 39.8294 69.0948 39.8294 68.9493C39.8803 65.2766 39.873 61.1675 39.7785 60.0548C33.713 58.2075 29.2766 52.9348 28.0839 46.1566C25.2185 46.0257 22.8766 43.8293 22.5857 40.9493C22.5639 40.753 22.5566 40.5566 22.5566 40.353C22.5566 40.1493 22.5639 39.953 22.5857 39.7566C22.8766 36.8766 25.2185 34.6802 28.0839 34.5493C28.2439 33.6548 28.4766 32.7748 28.7675 31.9166C31.1676 24.9639 37.4585 20.2511 44.8039 19.9166C45.0803 19.902 45.3566 19.8948 45.633 19.8948H50.6657C50.9421 19.8948 51.2185 19.8948 51.4948 19.9166C58.8403 20.2511 65.1312 24.9639 67.5312 31.9166C67.8294 32.7748 68.0548 33.6548 68.2148 34.5493C71.0803 34.6802 73.4221 36.8766 73.713 39.7566C73.7348 39.953 73.7421 40.1493 73.7421 40.353C73.7421 40.5566 73.7348 40.753 73.713 40.9493C73.4221 43.8293 71.0803 46.0257 68.2148 46.1566C67.0221 52.942 62.5785 58.2148 56.4985 60.0548C56.3385 61.1311 56.0912 65.2693 55.9166 68.9711C55.9021 69.2693 55.6548 69.5093 55.3566 69.5093L55.3639 69.5166ZM40.9566 68.3966H54.833C55.2476 59.4802 55.4512 59.342 55.7276 59.153C55.7785 59.1166 55.8366 59.0948 55.8948 59.073C61.9385 57.3711 66.1566 52.302 67.1966 45.5093C67.2403 45.2257 67.4876 45.0148 67.7712 45.0366C67.8076 45.0366 67.8366 45.0366 67.873 45.0366C67.9021 45.0366 67.9239 45.0366 67.953 45.0366C70.3676 45.0366 72.3748 43.2257 72.6148 40.833C72.6294 40.673 72.6366 40.513 72.6366 40.353C72.6366 40.193 72.6294 40.033 72.6148 39.873C72.3748 37.473 70.3676 35.662 67.953 35.662C67.9239 35.662 67.9021 35.662 67.873 35.662C67.8366 35.662 67.8076 35.662 67.7712 35.662C67.4948 35.662 67.2403 35.4657 67.1966 35.1893C67.0439 34.2002 66.8039 33.2184 66.4766 32.273C64.2294 25.7566 58.3312 21.342 51.4512 21.0293C51.1894 21.0148 50.9348 21.0148 50.673 21.0148H45.6403C45.3785 21.0148 45.1166 21.0148 44.8621 21.0293C37.9821 21.342 32.0839 25.7566 29.8366 32.273C29.5094 33.2184 29.2694 34.2002 29.1166 35.1893C29.073 35.473 28.8185 35.6693 28.5421 35.662C28.5057 35.662 28.4766 35.662 28.4403 35.662C28.4112 35.662 28.3894 35.662 28.3603 35.662C25.9457 35.662 23.9385 37.473 23.6985 39.8657C23.6839 40.0257 23.6766 40.1857 23.6766 40.3457C23.6766 40.5057 23.6839 40.6657 23.6985 40.8257C23.9457 43.2257 25.9457 45.0366 28.3603 45.0366C28.3894 45.0366 28.4112 45.0366 28.4403 45.0366C28.4766 45.0366 28.5057 45.0366 28.5421 45.0366C28.8185 45.022 29.073 45.233 29.1166 45.5093C30.1494 52.302 34.3748 57.3711 40.4185 59.073C40.4766 59.0875 40.5348 59.1166 40.5857 59.153C40.8839 59.3566 41.0803 59.4948 40.9712 68.3966H40.9566Z" fill="#040000"/>
<path d="M42.1121 72.4941L35.8203 63.0706L24.6367 70.5376L30.9285 79.9611L42.1121 72.4941Z" fill="#262E7D"/>
<path d="M55.108 38.5419C55.479 39.4728 56.5335 39.9237 57.4571 39.5528C58.3808 39.1819 58.839 38.1274 58.468 37.2037C58.0971 36.2801 57.0426 35.8219 56.119 36.1928C55.1953 36.5637 54.7371 37.6183 55.1153 38.5419H55.108Z" fill="#040000"/>
<path d="M37.5211 38.5419C37.892 39.4728 38.9466 39.9237 39.8702 39.5528C40.7938 39.1819 41.252 38.1274 40.8811 37.2037C40.5102 36.2801 39.4557 35.8219 38.532 36.1928C37.6011 36.5637 37.1502 37.6183 37.5284 38.5419H37.5211Z" fill="#040000"/>
<path d="M47.8858 49.6038C45.3913 49.6038 43.8567 48.3238 43.7913 48.2657C43.5586 48.062 43.5295 47.7129 43.7258 47.4729C43.9295 47.2402 44.2786 47.2111 44.5113 47.4075C44.5404 47.4293 45.9367 48.5638 48.1622 48.4693C50.4458 48.3675 51.784 47.3929 51.7986 47.3857C52.0458 47.2038 52.3949 47.2548 52.584 47.502C52.7658 47.7493 52.7149 48.0984 52.4749 48.2875C52.4095 48.3384 50.8604 49.4729 48.2131 49.5966C48.104 49.5966 47.9877 49.6038 47.8786 49.6038H47.8858Z" fill="#040000"/>
<path d="M30.7394 17.902C30.7394 17.902 31.3867 24.9057 38.383 25.9966C45.3794 27.0875 53.6921 23.0875 57.1903 23.2547C60.6885 23.422 64.0921 30.142 64.7685 32.1784C65.3285 33.8657 65.5103 37.5747 65.5103 37.5747L68.1212 35.1311C68.1212 35.1311 71.6485 15.4147 48.5285 15.3129C25.4085 15.2111 28.8921 8.94928 30.7394 17.9093V17.902Z" fill="#262E7D"/>
<path d="M39.0224 23.2474C35.5242 23.4147 32.8624 29.2328 31.8151 32.171C31.2188 33.8437 30.7024 37.5674 30.7024 37.5674L28.0915 35.1237C28.0915 35.1237 26.106 25.4947 34.8697 20.6365C37.7933 19.0147 42.5133 23.0874 39.0224 23.2474Z" fill="#262E7D"/>
<path d="M56.3159 62.0187C56.3087 62.0769 56.3159 62.135 56.3087 62.1932C56.0977 65.6187 51.945 68.1787 48.505 68.1787C45.065 68.1787 39.9741 65.3932 39.9741 61.9605C39.9741 61.9023 39.9741 61.8514 39.9814 61.7932C33.8214 62.295 31.2832 67.4514 31.2832 73.7423V86.0187C31.2832 92.6441 36.6505 98.0114 43.2759 98.0114H53.7414C60.3668 98.0114 65.7341 92.6441 65.7341 86.0187V73.7423C65.7341 67.4514 62.4905 62.5278 56.3232 62.0259L56.3159 62.0187Z" fill="#262E7D"/>
<path d="M31.2832 82.3818V108.098H45.7487C45.7487 106.571 46.985 105.335 48.5123 105.335C50.0396 105.335 51.2759 106.571 51.2759 108.098H65.7341V82.3818H31.2832Z" fill="#D83D3B"/>
<path d="M47.883 77.1165H37.7012V79.7419H47.883V77.1165Z" fill="#72BAB6"/>
<path d="M50.7898 67.2254C51.037 61.5236 47.2261 61.109 47.197 66.5199H37.8007C37.648 61.109 33.8952 61.509 34.208 67.3781V74.7672C34.208 76.069 35.2625 77.1163 36.557 77.1163H48.4552C49.757 77.1163 50.8043 76.0618 50.8043 74.7672V67.3781C50.8043 67.3272 50.7898 67.2763 50.7898 67.2254Z" fill="#E4E7F3"/>
<path d="M64.2896 83.3417C64.2896 81.3562 62.6751 79.7417 60.6896 79.7417H38.4496C36.4642 79.7417 34.8496 81.3562 34.8496 83.3417V83.5671C34.8496 84.5635 35.2496 85.4581 35.9042 86.1126V92.4617C35.9042 93.2326 36.5296 93.8508 37.2932 93.8508C38.0569 93.8508 38.6823 93.2326 38.6823 92.4617V87.1671H40.4642V92.4617C40.4642 93.2326 41.0896 93.8508 41.8532 93.8508C42.6169 93.8508 43.2423 93.2326 43.2423 92.4617V87.1671H56.0642V92.4617C56.0642 93.2326 56.6896 93.8508 57.4532 93.8508C58.2169 93.8508 58.8423 93.2326 58.8423 92.4617V87.1671H60.6242V92.4617C60.6242 93.2326 61.2496 93.8508 62.0132 93.8508C62.7769 93.8508 63.4023 93.2326 63.4023 92.4617V85.9162C63.9478 85.2835 64.2896 84.469 64.2896 83.5671V83.3417Z" fill="#E4E7F3"/>
<path d="M62.834 78.4692C64.1213 76.6874 64.8631 74.7165 65.2922 72.8765C67.8085 74.5346 67.8813 79.5165 62.834 78.4692Z" fill="#E4E7F3"/>
<path d="M38.9142 70.658C38.9142 71.0726 38.5797 71.4071 38.1651 71.4071C37.7506 71.4071 37.416 71.0726 37.416 70.658C37.416 70.2435 37.7506 69.9089 38.1651 69.9089C38.5797 69.9089 38.9142 70.2435 38.9142 70.658Z" fill="#040000"/>
<path d="M47.0079 70.658C47.0079 71.0726 46.6734 71.4071 46.2589 71.4071C45.8443 71.4071 45.5098 71.0726 45.5098 70.658C45.5098 70.2435 45.8443 69.9089 46.2589 69.9089C46.6734 69.9089 47.0079 70.2435 47.0079 70.658Z" fill="#040000"/>
<path d="M41.0379 71.8076C40.3906 71.1385 40.9215 70.593 42.2088 70.593C43.4961 70.593 44.027 71.1385 43.3797 71.8076C42.7397 72.4767 41.6852 72.4767 41.0379 71.8076Z" fill="#040000"/>
<path d="M25.3844 72.084C15.4716 79.2985 32.6789 90.724 39.5153 91.2767C42.4753 91.9967 50.6353 87.5894 42.9553 85.2476C35.3916 85.5167 47.5953 83.9749 43.4135 82.2949C38.7516 83.4658 34.0025 80.7603 30.5698 77.9531" fill="#FCE4BC"/>
<path d="M40.2582 91.9092C39.96 91.9092 39.6836 91.8801 39.4291 91.8219C34.1054 91.3637 23.8363 85.1965 22.0763 78.971C21.5236 77.0074 21.5891 74.1419 25.0509 71.6255C25.2982 71.4437 25.6545 71.5019 25.8363 71.7492C26.0182 71.9964 25.96 72.3528 25.7127 72.5346C23.3563 74.251 22.4909 76.3165 23.16 78.6728C24.7527 84.331 34.5563 90.3092 39.56 90.7164C39.5891 90.7164 39.6182 90.7165 39.6472 90.731C41.32 91.1383 45.1309 89.5674 45.56 87.9892C45.8509 86.9201 44.0472 86.1783 42.8763 85.8074C40.5054 85.8874 39.9818 85.8437 39.8727 85.2474C39.7636 84.6583 40.28 84.4765 41.4072 84.0837C42.0036 83.8728 43.3418 83.4074 43.6982 83.0655C43.64 83.0219 43.5382 82.9565 43.3636 82.8765C38.44 84.011 33.5018 81.0655 30.2145 78.3819C29.9745 78.1855 29.9382 77.8365 30.1345 77.5965C30.3309 77.3565 30.68 77.3201 30.92 77.5165C34.0545 80.0765 38.7382 82.8837 43.2763 81.7492C43.3927 81.7201 43.5091 81.7274 43.6182 81.771C43.9309 81.8946 44.8836 82.2801 44.8691 83.0655C44.8545 83.7637 44.1272 84.2219 43 84.6801C43.0363 84.6801 43.0727 84.6874 43.1091 84.7019C46.5491 85.7492 46.92 87.2255 46.6363 88.2801C46.1054 90.2146 42.6072 91.9092 40.2509 91.9092H40.2582Z" fill="#040000"/>
<path d="M71.1964 72.084C81.1092 79.2985 63.9019 90.724 57.0655 91.2767C54.1055 91.9967 45.9455 87.5894 53.6255 85.2476C61.1892 85.5167 48.9855 83.9749 53.1674 82.2949C57.8292 83.4658 62.5783 80.7603 66.011 77.9531" fill="#FCE4BC"/>
<path d="M56.3176 91.9092C53.9612 91.9092 50.463 90.2146 49.9321 88.2801C49.6412 87.2255 50.0194 85.7492 53.4594 84.7019C53.4958 84.6874 53.5321 84.6801 53.5685 84.6801C52.4412 84.2219 51.714 83.7564 51.6994 83.0655C51.6849 82.2728 52.6376 81.8946 52.9503 81.771C53.0594 81.7274 53.183 81.7201 53.2921 81.7492C57.823 82.8837 62.514 80.0765 65.6485 77.5165C65.8885 77.3201 66.2449 77.3565 66.434 77.5965C66.6303 77.8365 66.594 78.1928 66.354 78.3819C63.0594 81.0728 58.1285 84.011 53.2049 82.8765C53.0376 82.9565 52.9358 83.0146 52.8703 83.0655C53.2194 83.4001 54.5576 83.8728 55.154 84.0837C56.2885 84.4837 56.8049 84.6655 56.6885 85.2474C56.5721 85.8437 56.0485 85.8874 53.6849 85.8074C52.514 86.171 50.7103 86.9201 51.0012 87.9892C51.4303 89.5674 55.2485 91.1383 56.914 90.731C56.943 90.731 56.9721 90.7164 57.0012 90.7164C62.0121 90.3165 71.8085 84.331 73.4012 78.6728C74.063 76.3165 73.2049 74.251 70.8485 72.5346C70.6012 72.3528 70.543 72.0037 70.7249 71.7492C70.9067 71.5019 71.2558 71.4437 71.5103 71.6255C74.9721 74.1419 75.0376 77.0074 74.4849 78.971C72.7321 85.1965 62.4558 91.3637 57.1321 91.8219C56.8776 91.8801 56.6012 91.9092 56.303 91.9092H56.3176Z" fill="#040000"/>
<path d="M37.7709 45.2764C34.2291 45.2764 31.3418 42.3891 31.3418 38.8473C31.3418 35.3055 34.2291 32.4182 37.7709 32.4182C41.3127 32.4182 44.2 35.3055 44.2 38.8473C44.2 42.3891 41.3127 45.2764 37.7709 45.2764ZM37.7709 33.5382C34.8473 33.5382 32.4618 35.9164 32.4618 38.8473C32.4618 41.7782 34.84 44.1564 37.7709 44.1564C40.7018 44.1564 43.08 41.7709 43.08 38.8473C43.08 35.9237 40.7018 33.5382 37.7709 33.5382Z" fill="#040000"/>
<path d="M57.9799 45.2764C54.4381 45.2764 51.5508 42.3891 51.5508 38.8473C51.5508 35.3055 54.4381 32.4182 57.9799 32.4182C61.5217 32.4182 64.409 35.3055 64.409 38.8473C64.409 42.3891 61.5217 45.2764 57.9799 45.2764ZM57.9799 33.5382C55.0562 33.5382 52.6708 35.9164 52.6708 38.8473C52.6708 41.7782 55.049 44.1564 57.9799 44.1564C60.9108 44.1564 63.289 41.7709 63.289 38.8473C63.289 35.9237 60.9108 33.5382 57.9799 33.5382Z" fill="#040000"/>
<path d="M52.1109 39.4076H43.6381C43.3254 39.4076 43.0781 39.1603 43.0781 38.8476C43.0781 38.5349 43.3254 38.2876 43.6381 38.2876H52.1109C52.4236 38.2876 52.6709 38.5349 52.6709 38.8476C52.6709 39.1603 52.4236 39.4076 52.1109 39.4076Z" fill="#040000"/>
</g>
</svg>
