<svg width="32" height="32" viewBox="0 0 32 32" fill="none" xmlns="http://www.w3.org/2000/svg">
<path fill-rule="evenodd" clip-rule="evenodd" d="M4.7998 16C4.7998 22.175 9.82482 27.2 15.9998 27.2C22.1748 27.2 27.1998 22.175 27.1998 16C27.1998 9.82505 22.1748 4.80005 15.9998 4.80005C9.82482 4.80005 4.7998 9.82505 4.7998 16ZM6.19983 16C6.19983 10.595 10.5948 6.20004 15.9998 6.20004C21.4048 6.20004 25.7998 10.595 25.7998 16C25.7998 21.405 21.4048 25.8 15.9998 25.8C10.5948 25.8 6.19983 21.405 6.19983 16ZM14.8398 21.3099C14.8398 22.0149 15.4098 22.5899 16.1198 22.5899C16.4598 22.5949 16.7898 22.4549 17.0248 22.2149C17.2648 21.9749 17.3998 21.6499 17.3998 21.3099C17.3998 20.6049 16.8248 20.0299 16.1198 20.0299C15.4148 20.0299 14.8398 20.5999 14.8398 21.3099ZM14.8398 16.9149C14.8398 17.6199 15.4148 18.1949 16.1198 18.1949C16.8298 18.1949 17.3998 17.6249 17.3998 16.9149V10.6899C17.3998 9.98491 16.8248 9.40991 16.1198 9.40991C15.4148 9.40991 14.8398 9.97991 14.8398 10.6899V16.9149Z" fill="currentColor"/>
</svg>
