<svg width="24" height="24" viewBox="0 0 24 24" fill="none" xmlns="http://www.w3.org/2000/svg">
<g clip-path="url(#clip0_6444_13665)">
<path d="M11.6442 15.1715H11.694C12.5504 15.1927 13.3806 14.8752 14.0043 14.2881C14.628 13.7009 14.9948 12.8913 15.0252 12.0353V6.89745C14.9773 6.04528 14.6044 5.24394 13.9834 4.65842C13.3624 4.0729 12.5405 3.74778 11.687 3.75001C10.8335 3.75224 10.0133 4.08165 9.39536 4.6704C8.77741 5.25916 8.40873 6.06244 8.36523 6.91485V12.0017C8.38738 12.8544 8.74346 13.6644 9.35684 14.2572C9.97021 14.85 10.7912 15.1783 11.6442 15.1715ZM11.6394 5.00805C12.1718 4.98396 12.6922 5.17058 13.088 5.52748C13.4838 5.88438 13.723 6.38283 13.7538 6.91485V11.9897C13.7346 12.5135 13.5084 13.0084 13.1249 13.3657C12.7413 13.723 12.2317 13.9137 11.7078 13.8959H11.682C11.1603 13.9092 10.6542 13.7172 10.2727 13.3612C9.89114 13.0051 9.66467 12.5134 9.64203 11.9921V6.93285C9.66638 6.41722 9.88713 5.93045 10.259 5.57242C10.6309 5.21439 11.1256 5.01224 11.6418 5.00745" fill="CurrentColor"/>
<path d="M18.1456 12.1253C18.1528 11.9593 18.0949 11.797 17.9843 11.6731C17.8736 11.5491 17.7189 11.4732 17.5532 11.4615C17.3874 11.4499 17.2236 11.5034 17.0967 11.6107C16.9698 11.718 16.8898 11.8705 16.8736 12.0359C16.7811 13.3457 16.1956 14.5717 15.235 15.4668C14.2744 16.3619 13.0102 16.8597 11.6971 16.8597C10.3841 16.8597 9.11993 16.3619 8.15933 15.4668C7.19874 14.5717 6.61317 13.3457 6.52064 12.0359C6.50453 11.8705 6.42451 11.718 6.29759 11.6107C6.17068 11.5034 6.0069 11.4499 5.84113 11.4615C5.67536 11.4732 5.52068 11.5491 5.41002 11.6731C5.29936 11.797 5.24146 11.9593 5.24864 12.1253C5.36063 13.6459 6.00431 15.0785 7.06684 16.172C8.12937 17.2654 9.54292 17.95 11.0596 18.1055V19.9829C11.0647 20.1486 11.1341 20.3058 11.2531 20.4212C11.3721 20.5366 11.5314 20.6012 11.6971 20.6012C11.8629 20.6012 12.0222 20.5366 12.1412 20.4212C12.2602 20.3058 12.3296 20.1486 12.3346 19.9829V18.1055C13.8514 17.9501 15.265 17.2656 16.3276 16.1721C17.3901 15.0786 18.0338 13.6459 18.1456 12.1253Z" fill="CurrentColor"/>
</g>
<defs>
<clipPath id="clip0_6444_13665">
<rect width="24" height="24" fill="white"/>
</clipPath>
</defs>
</svg>
