<svg width="32" height="32" viewBox="0 0 32 32" fill="none" xmlns="http://www.w3.org/2000/svg">
<path d="M16 27.5C22.3513 27.5 27.5 22.3513 27.5 16C27.5 9.64873 22.3513 4.5 16 4.5C9.64873 4.5 4.5 9.64873 4.5 16C4.5 22.3513 9.64873 27.5 16 27.5Z" fill="currentColor"/>
<path d="M14.125 21.705C13.845 21.705 13.58 21.59 13.39 21.38L9.76499 17.445C9.38999 17.04 9.41499 16.405 9.82499 16.03C10.23 15.655 10.865 15.68 11.24 16.09L14.13 19.225L20.77 12.02C21.145 11.615 21.775 11.59 22.185 11.96C22.59 12.335 22.615 12.965 22.245 13.375L14.87 21.38C14.67 21.585 14.405 21.705 14.125 21.705Z" fill="white"/>
</svg>
