<svg xmlns="http://www.w3.org/2000/svg" width="32" height="32" viewBox="0 0 32 32" fill="none">
  <path fill-rule="evenodd" clip-rule="evenodd" d="M25.9313 8.88778C26.5455 9.40168 26.6268 10.3162 26.1129 10.9303L15.8629 23.1803C15.349 23.7945 14.4345 23.8758 13.8203 23.3619C13.2061 22.848 13.1249 21.9335 13.6388 21.3193L23.8888 9.06934C24.4027 8.45517 25.3171 8.37388 25.9313 8.88778Z" fill="currentColor"/>
  <path fill-rule="evenodd" clip-rule="evenodd" d="M6.97548 14.4745C7.54174 13.9082 8.45983 13.9082 9.02609 14.4745L15.7761 21.2245C16.3423 21.7908 16.3423 22.7088 15.7761 23.2751C15.2098 23.8414 14.2917 23.8414 13.7255 23.2751L6.97548 16.5251C6.40922 15.9588 6.40922 15.0408 6.97548 14.4745Z" fill="currentColor"/>
</svg>