<svg width="32" height="32" viewBox="0 0 32 32" fill="none" xmlns="http://www.w3.org/2000/svg">
<g clip-path="url(#clip0_3007_172)">
<path d="M18.0319 16.2502L26.1479 8.13416C26.3823 7.89971 26.514 7.58173 26.514 7.25016C26.514 6.9186 26.3823 6.60062 26.1479 6.36617C25.9134 6.13171 25.5954 6 25.2639 6C24.9323 6 24.6143 6.13171 24.3799 6.36617L16.2649 14.4832L8.14886 6.36716C7.91305 6.13953 7.59726 6.01363 7.26951 6.01657C6.94177 6.01951 6.62829 6.15106 6.39659 6.38289C6.1649 6.61471 6.03352 6.92826 6.03077 7.25601C6.02801 7.58376 6.1541 7.89948 6.38186 8.13517L14.4979 16.2512L6.38186 24.3672C6.26244 24.4824 6.16718 24.6203 6.10162 24.7728C6.03607 24.9253 6.00154 25.0893 6.00005 25.2553C5.99856 25.4213 6.03014 25.5859 6.09295 25.7395C6.15576 25.8932 6.24853 26.0328 6.36587 26.1502C6.4832 26.2675 6.62274 26.3604 6.77634 26.4233C6.92994 26.4862 7.09453 26.5179 7.26051 26.5165C7.42648 26.5151 7.59052 26.4806 7.74304 26.4152C7.89556 26.3497 8.03352 26.2545 8.14886 26.1352L16.2649 18.0192L24.3809 26.1352C24.6153 26.3696 24.9333 26.5013 25.2649 26.5013C25.5964 26.5013 25.9144 26.3696 26.1489 26.1352C26.3833 25.9007 26.515 25.5827 26.515 25.2512C26.515 24.9196 26.3833 24.6016 26.1489 24.3672L18.0319 16.2502Z" fill="currentColor"/>
</g>
<defs>
<clipPath id="clip0_3007_172">
<rect width="32" height="32" fill="white"/>
</clipPath>
</defs>
</svg>
