<svg width="20" height="20" viewBox="0 0 20 20" fill="none" xmlns="http://www.w3.org/2000/svg">
<path d="M20 10C20 4.47715 15.5228 0 10 0C4.47715 0 0 4.47715 0 10C0 15.5228 4.47715 20 10 20C15.5228 20 20 15.5228 20 10Z" fill="currentColor"/>
<path fill-rule="evenodd" clip-rule="evenodd" d="M13.9658 6.59325C14.0657 6.49141 14.1846 6.41023 14.3159 6.35436C14.4471 6.2985 14.5881 6.26902 14.7307 6.26763C14.8733 6.26624 15.0149 6.29295 15.1472 6.34625C15.2795 6.39954 15.4 6.47838 15.5018 6.57825C15.6037 6.67812 15.6848 6.79707 15.7407 6.92831C15.7966 7.05955 15.826 7.20051 15.8274 7.34314C15.8288 7.48577 15.8021 7.62728 15.7488 7.75958C15.6955 7.89189 15.6167 8.01241 15.5168 8.11425L9.73782 15.3382C9.63849 15.4451 9.51863 15.5309 9.38542 15.5904C9.25221 15.65 9.10836 15.682 8.96248 15.6847C8.81659 15.6874 8.67166 15.6607 8.53633 15.6062C8.401 15.5516 8.27805 15.4704 8.17482 15.3672L4.34482 11.5372C4.23585 11.4384 4.14809 11.3185 4.08686 11.1848C4.02563 11.0511 3.9922 10.9063 3.98861 10.7593C3.98501 10.6122 4.01132 10.466 4.06594 10.3294C4.12056 10.1928 4.20236 10.0688 4.30636 9.96479C4.41037 9.86079 4.53442 9.77899 4.67098 9.72437C4.80755 9.66975 4.95379 9.64344 5.10083 9.64703C5.24787 9.65063 5.39265 9.68406 5.52639 9.74529C5.66012 9.80652 5.78002 9.89428 5.87882 10.0032L8.91082 13.0332L13.9378 6.62725C13.9471 6.61526 13.9571 6.6039 13.9678 6.59325H13.9658Z" fill="white"/>
</svg>
