<svg xmlns="http://www.w3.org/2000/svg" width="33" height="32" viewBox="0 0 33 32" fill="none">
  <g clip-path="url(#clip0_6991_14878)">
    <path d="M16.2505 10.8171C17.6249 10.8171 18.6585 10.3155 18.6585 9.64993C18.6585 8.98433 17.6233 8.48193 16.2505 8.48193C14.8777 8.48193 13.8433 8.98353 13.8433 9.64993C13.8433 10.3163 14.8761 10.8155 16.2505 10.8155" fill="currentColor"/>
    <path d="M24.0214 12.4921C23.4726 12.4121 22.9542 13.0481 22.8262 13.9321C22.6982 14.8161 23.023 15.5737 23.5654 15.6529C23.5961 15.6573 23.6271 15.6594 23.6582 15.6593C23.7991 15.6502 23.9359 15.6079 24.0575 15.5361C24.1792 15.4642 24.2821 15.3648 24.3582 15.2457C24.5749 14.9393 24.7124 14.5839 24.7582 14.2113C24.887 13.3249 24.5614 12.5689 24.019 12.4905" fill="currentColor"/>
    <path d="M19.1209 19.8549C18.5729 19.7749 18.0537 20.4149 17.9257 21.2949C17.8647 21.6654 17.8965 22.0453 18.0185 22.4005C18.0594 22.5522 18.1413 22.6898 18.2552 22.7981C18.369 22.9065 18.5105 22.9815 18.6641 23.0149C18.6943 23.0193 18.7247 23.0214 18.7553 23.0213C19.2641 23.0213 19.7393 22.4101 19.8601 21.5733C19.9889 20.6869 19.6633 19.9309 19.1209 19.8525" fill="currentColor"/>
    <path d="M21.5711 16.1737C21.0223 16.0937 20.5015 16.7337 20.3759 17.6137C20.3148 17.9843 20.3467 18.3642 20.4687 18.7193C20.5096 18.8711 20.5915 19.0086 20.7054 19.117C20.8192 19.2253 20.9607 19.3003 21.1143 19.3337C21.145 19.3381 21.176 19.3402 21.2071 19.3401C21.348 19.331 21.4848 19.2887 21.6064 19.2169C21.728 19.145 21.831 19.0456 21.9071 18.9265C22.1238 18.6201 22.2612 18.2647 22.3071 17.8921C22.4359 17.0057 22.1103 16.2505 21.5679 16.1713" fill="currentColor"/>
    <path d="M10.7097 15.3243C10.5809 14.4379 10.0601 13.8043 9.51452 13.8843C8.96892 13.9643 8.64812 14.7187 8.77532 15.6051C8.82126 15.9776 8.95868 16.3329 9.17532 16.6395C9.25137 16.7583 9.35426 16.8576 9.4757 16.9295C9.59714 17.0013 9.73374 17.0436 9.87452 17.0531C9.90585 17.0529 9.93714 17.0505 9.96812 17.0459C10.1218 17.0131 10.2635 16.9387 10.3777 16.8308C10.4919 16.7228 10.5741 16.5855 10.6153 16.4339C10.7373 16.0784 10.7692 15.6982 10.7081 15.3275L10.7097 15.3243Z" fill="currentColor"/>
    <path d="M13.5248 19.7122C13.479 19.3397 13.3416 18.9843 13.1248 18.6778C13.0426 18.5437 12.9251 18.4348 12.7851 18.3631C12.6451 18.2914 12.488 18.2597 12.3312 18.2714C11.7896 18.3514 11.4648 19.105 11.592 19.9922C11.7136 20.829 12.188 21.4394 12.6968 21.4394C12.727 21.4395 12.7573 21.4374 12.7872 21.433C12.9409 21.3997 13.0825 21.3248 13.1965 21.2164C13.3105 21.1081 13.3926 20.9705 13.4336 20.8186C13.5555 20.4634 13.5873 20.0836 13.5264 19.713" fill="currentColor"/>
    <path d="M25.372 8.75557L17.3448 5.22917C16.9996 5.07803 16.6268 5 16.25 5C15.8732 5 15.5004 5.07803 15.1552 5.22917L7.1272 8.75557C6.64336 8.9684 6.23189 9.31741 5.94296 9.76004C5.65403 10.2027 5.50012 10.7198 5.5 11.2484V20.1596C5.50098 20.6785 5.64981 21.1864 5.92907 21.6238C6.20834 22.0612 6.60646 22.4099 7.0768 22.6292L15.1 26.3516C15.4588 26.5181 15.8496 26.6044 16.2452 26.6044C16.6408 26.6044 17.0316 26.5181 17.3904 26.3516L25.42 22.6292C25.8904 22.41 26.2887 22.0612 26.5681 21.6239C26.8475 21.1865 26.9965 20.6786 26.9976 20.1596V11.2484C26.9979 10.7196 26.8441 10.2022 26.555 9.75945C26.2658 9.31672 25.8539 8.96786 25.3696 8.75557M15.7584 6.60277C15.9134 6.5349 16.0808 6.49986 16.25 6.49986C16.4192 6.49986 16.5866 6.5349 16.7416 6.60277L24.2328 9.89317L16.2504 13.3572L8.268 9.89317L15.7584 6.60277ZM7.708 21.2692C7.49679 21.1706 7.31804 21.0138 7.19266 20.8173C7.06727 20.6208 7.00045 20.3927 7 20.1596V11.2484C7.00344 11.1627 7.01605 11.0777 7.0376 10.9948L15.5 14.6676V24.8812L7.708 21.2692ZM25.5 20.1596C25.4995 20.3927 25.4326 20.6208 25.307 20.8172C25.1815 21.0136 25.0026 21.1701 24.7912 21.2684L16.9968 24.8812V14.6676L25.4592 10.9948C25.4808 11.0777 25.4934 11.1627 25.4968 11.2484L25.5 20.1596Z" fill="currentColor"/>
  </g>
  <defs>
    <clipPath id="clip0_6991_14878">
      <rect width="32" height="32" fill="white" transform="translate(0.5)"/>
    </clipPath>
  </defs>
</svg>