<svg xmlns="http://www.w3.org/2000/svg" width="24" height="24" viewBox="0 0 24 24" fill="none">
  <path d="M15.6742 13.5C16.6466 12.5471 17.25 11.219 17.25 9.75C17.25 6.85051 14.8995 4.5 12 4.5C9.10051 4.5 6.75 6.85051 6.75 9.75C6.75 11.219 7.35335 12.5471 8.32576 13.5H8.25V15.3633C6.44102 14.1524 5.25 12.0903 5.25 9.75C5.25 6.02208 8.27208 3 12 3C15.7279 3 18.75 6.02208 18.75 9.75C18.75 12.0903 17.559 14.1524 15.75 15.3633V13.5H15.6742Z" fill="currentColor"/>
  <path fill-rule="evenodd" clip-rule="evenodd" d="M9.20067 20.25C9.07305 20.0294 9 19.7732 9 19.5V18.75H15V19.5C15 19.7732 14.927 20.0294 14.7993 20.25C14.54 20.6984 14.0552 21 13.5 21H10.5C9.94479 21 9.46003 20.6984 9.20067 20.25Z" fill="currentColor"/>
  <path d="M9.75 13.5H8.25V16.7143C8.25 17.4244 8.92157 18 9.75 18H14.25C15.0784 18 15.75 17.4244 15.75 16.7143V13.5H14.25V15.7143C14.25 16.2666 13.8023 16.7143 13.25 16.7143H10.75C10.1977 16.7143 9.75 16.2666 9.75 15.7143L9.75 13.5Z" fill="currentColor"/>
</svg>