<svg width="40" height="40" viewBox="0 0 40 40" fill="none" xmlns="http://www.w3.org/2000/svg">
<g id="Icon-push-and-respond">
<path id="Path 11810" d="M34.935 18.1685L14.2117 7.6818C13.9514 7.54854 13.661 7.48509 13.3689 7.49765C13.0768 7.51022 12.7929 7.59836 12.545 7.75346C12.2525 7.94395 12.0132 8.20561 11.8496 8.51389C11.6859 8.82217 11.6032 9.16697 11.6092 9.51596V9.6743L15.2284 20.0018L11.6142 30.326V30.4851C11.6075 30.8348 11.6898 31.1805 11.8535 31.4895C12.0173 31.7986 12.2569 32.0609 12.55 32.2518C12.7981 32.4064 13.0819 32.4942 13.3739 32.5067C13.666 32.5193 13.9563 32.4562 14.2167 32.3235L34.935 21.8351C35.258 21.6502 35.5264 21.3833 35.713 21.0614C35.8997 20.7395 35.998 20.3739 35.998 20.0018C35.998 19.6297 35.8997 19.2641 35.713 18.9422C35.5264 18.6203 35.258 18.3533 34.935 18.1685ZM13.5184 9.43096L32.5567 19.0643H16.8867L13.5184 9.43096ZM13.5184 30.5735L16.8867 20.9376H32.5534L13.5184 30.5735Z" fill="CurrentColor"/>
<path id="Path 11811" d="M11.5334 14.8501C11.5334 14.6015 11.4347 14.363 11.2588 14.1872C11.083 14.0114 10.8446 13.9126 10.5959 13.9126H3.81177C3.56313 13.9126 3.32467 14.0114 3.14886 14.1872C2.97304 14.363 2.87427 14.6015 2.87427 14.8501C2.87427 15.0987 2.97304 15.3372 3.14886 15.513C3.32467 15.6888 3.56313 15.7876 3.81177 15.7876H10.5959C10.8446 15.7876 11.083 15.6888 11.2588 15.513C11.4347 15.3372 11.5334 15.0987 11.5334 14.8501Z" fill="CurrentColor"/>
<path id="Path 11812" d="M11.6833 20C11.6833 19.7514 11.5845 19.5129 11.4087 19.3371C11.2329 19.1613 10.9945 19.0625 10.7458 19.0625H5.50415C5.25551 19.0625 5.01705 19.1613 4.84124 19.3371C4.66542 19.5129 4.56665 19.7514 4.56665 20C4.56665 20.2486 4.66542 20.4871 4.84124 20.6629C5.01705 20.8387 5.25551 20.9375 5.50415 20.9375H10.7458C10.9945 20.9375 11.2329 20.8387 11.4087 20.6629C11.5845 20.4871 11.6833 20.2486 11.6833 20Z" fill="CurrentColor"/>
<path id="Path 11813" d="M10.7467 24.2124H7.66333C7.54022 24.2124 7.41831 24.2367 7.30456 24.2838C7.19082 24.3309 7.08747 24.3999 7.00042 24.487C6.91336 24.574 6.84431 24.6774 6.79719 24.7911C6.75008 24.9049 6.72583 25.0268 6.72583 25.1499C6.72583 25.273 6.75008 25.3949 6.79719 25.5087C6.84431 25.6224 6.91336 25.7258 7.00042 25.8128C7.08747 25.8999 7.19082 25.9689 7.30456 26.016C7.41831 26.0632 7.54022 26.0874 7.66333 26.0874H10.7467C10.9953 26.0874 11.2338 25.9886 11.4096 25.8128C11.5854 25.637 11.6842 25.3985 11.6842 25.1499C11.6842 24.9013 11.5854 24.6628 11.4096 24.487C11.2338 24.3112 10.9953 24.2124 10.7467 24.2124Z" fill="CurrentColor"/>
</g>
</svg>
