<svg xmlns="http://www.w3.org/2000/svg" width="40" height="40" viewBox="0 0 40 40" fill="none">
  <path d="M11.147 13.058C11.136 12.9188 11.0977 12.7832 11.0342 12.6588C10.9708 12.5345 10.8834 12.4239 10.7772 12.3333C10.6709 12.2428 10.5478 12.174 10.415 12.1311C10.2822 12.0881 10.1421 12.0718 10.003 12.083C8.69013 12.161 7.4493 12.7094 6.50774 13.6276C5.56617 14.5458 4.9869 15.7725 4.87599 17.083C4.85505 17.364 4.9465 17.6418 5.13026 17.8553C5.31402 18.0689 5.57505 18.2008 5.85599 18.222C5.88299 18.222 5.90999 18.222 5.93699 18.222C6.20479 18.2218 6.46261 18.1203 6.6588 17.938C6.85499 17.7558 6.97507 17.5061 6.99499 17.239C7.07544 16.4364 7.44031 15.6889 8.02369 15.1318C8.60707 14.5746 9.37048 14.2445 10.176 14.201C10.4559 14.1773 10.715 14.0438 10.8968 13.8296C11.0785 13.6155 11.1681 13.338 11.146 13.058" fill="currentColor"/>
  <path d="M29.997 12.0832C29.7161 12.0601 29.4376 12.1495 29.2227 12.3318C29.0078 12.5141 28.8741 12.7743 28.851 13.0552C28.8279 13.336 28.9174 13.6146 29.0996 13.8295C29.2819 14.0444 29.5421 14.1781 29.823 14.2012C30.6291 14.2444 31.3931 14.5747 31.9769 15.1323C32.5607 15.6898 32.9257 16.4379 33.006 17.2412C33.0259 17.5082 33.146 17.7579 33.3422 17.9402C33.5384 18.1225 33.7962 18.2239 34.064 18.2242C34.091 18.2242 34.118 18.2242 34.145 18.2242C34.4259 18.2029 34.687 18.0711 34.8707 17.8575C35.0545 17.6439 35.1459 17.3661 35.125 17.0852C35.0138 15.7746 34.4344 14.5479 33.4926 13.6297C32.5509 12.7114 31.31 12.1631 29.997 12.0852" fill="currentColor"/>
  <path d="M21.25 13.5111V10.8521H23.257C23.6714 10.8521 24.0688 10.6874 24.3618 10.3944C24.6548 10.1014 24.8195 9.70395 24.8195 9.28955C24.8195 8.87515 24.6548 8.47772 24.3618 8.1847C24.0688 7.89167 23.6714 7.72705 23.257 7.72705H16.742C16.3344 7.73736 15.947 7.90651 15.6624 8.19841C15.3778 8.49031 15.2185 8.88186 15.2185 9.28955C15.2185 9.69724 15.3778 10.0888 15.6624 10.3807C15.947 10.6726 16.3344 10.8417 16.742 10.8521H18.75V13.5111C12.603 13.8321 7.94995 16.4981 7.94995 19.8581C7.9502 20.7741 8.00396 21.6893 8.11095 22.5991L8.31095 24.26C8.41374 25.1255 8.83033 25.9232 9.48181 26.502C10.1333 27.0809 10.9744 27.4008 11.846 27.401H13.557V30.0201H10.088C9.84461 30.028 9.61389 30.1303 9.44457 30.3052C9.27524 30.4801 9.18057 30.7141 9.18057 30.9576C9.18057 31.201 9.27524 31.435 9.44457 31.6099C9.61389 31.7848 9.84461 31.8871 10.088 31.8951H29.912C30.1553 31.8871 30.386 31.7848 30.5553 31.6099C30.7247 31.435 30.8193 31.201 30.8193 30.9576C30.8193 30.7141 30.7247 30.4801 30.5553 30.3052C30.386 30.1303 30.1553 30.028 29.912 30.0201H26.443V27.4021H28.1539C29.025 27.4018 29.8658 27.0822 30.5171 26.5037C31.1684 25.9252 31.5849 25.128 31.688 24.2631L31.88 22.6441C31.9898 21.7211 32.0452 20.7925 32.046 19.8631V19.8431C32.046 16.4981 27.3969 13.8321 21.246 13.5121M24.563 30.0221H15.432V27.4021H24.568L24.563 30.0221ZM30.171 19.8631C30.1703 20.7196 30.1192 21.5755 30.018 22.4261L29.826 24.0461C29.7775 24.4555 29.5805 24.8329 29.2723 25.1068C28.9642 25.3807 28.5662 25.532 28.1539 25.5321H11.846C11.4337 25.532 11.0357 25.3807 10.7276 25.1068C10.4194 24.8329 10.2224 24.4555 10.174 24.0461L9.97395 22.385C9.87532 21.5413 9.82623 20.6925 9.82695 19.8431C9.82695 17.733 13.955 15.3861 19.889 15.357C19.926 15.357 19.961 15.368 19.998 15.368C20.035 15.368 20.07 15.3601 20.107 15.357C26.041 15.3861 30.169 17.733 30.169 19.8431L30.171 19.8631Z" fill="currentColor"/>
  <path d="M17.627 16.469C14.576 16.812 11.311 17.953 11.311 20.122C11.319 20.3654 11.4212 20.5961 11.5962 20.7654C11.7711 20.9347 12.0051 21.0294 12.2485 21.0294C12.492 21.0294 12.7259 20.9347 12.9009 20.7654C13.0758 20.5961 13.1781 20.3654 13.186 20.122C13.186 19.748 14.523 18.699 17.832 18.322C18.0791 18.2942 18.305 18.1693 18.46 17.975C18.615 17.7806 18.6864 17.5326 18.6585 17.2855C18.6307 17.0385 18.5058 16.8126 18.3115 16.6576C18.1171 16.5026 17.8691 16.4312 17.622 16.459" fill="currentColor"/>
</svg>