<svg xmlns="http://www.w3.org/2000/svg" width="32" height="32" viewBox="0 0 32 32" fill="none">
  <path d="M5.62932 26.3708C6.24782 26.9902 6.98261 27.4812 7.79148 27.8158C8.60035 28.1503 9.46734 28.3217 10.3427 28.3201C11.2182 28.3216 12.0853 28.1502 12.8944 27.8157C13.7035 27.4812 14.4385 26.9901 15.0573 26.3708L18.828 22.5988L16.9427 20.7134L13.172 24.4854C12.4206 25.2335 11.4036 25.6534 10.3433 25.6534C9.2831 25.6534 8.26603 25.2335 7.51466 24.4854C6.76599 23.7344 6.3456 22.7172 6.3456 21.6568C6.3456 20.5963 6.76599 19.5791 7.51466 18.8281L11.2867 15.0574L9.40132 13.1721L5.62932 16.9428C4.38107 18.1941 3.68005 19.8893 3.68005 21.6568C3.68005 23.4242 4.38107 25.1195 5.62932 26.3708ZM26.3707 15.0574C27.6183 13.8058 28.3188 12.1107 28.3188 10.3434C28.3188 8.57622 27.6183 6.88107 26.3707 5.62945C25.1194 4.38119 23.4241 3.68018 21.6567 3.68018C19.8892 3.68018 18.1939 4.38119 16.9427 5.62945L13.172 9.40145L15.0573 11.2868L18.828 7.51478C19.5794 6.76677 20.5964 6.34682 21.6567 6.34682C22.7169 6.34682 23.734 6.76677 24.4853 7.51478C25.234 8.26581 25.6544 9.283 25.6544 10.3434C25.6544 11.4039 25.234 12.4211 24.4853 13.1721L20.7133 16.9428L22.5987 18.8281L26.3707 15.0574Z" fill="currentColor"/>
  <path d="M11.2853 22.5999L9.39868 20.7146L20.7147 9.3999L22.6 11.2866L11.2853 22.5999Z" fill="currentColor"/>
</svg>