<svg xmlns="http://www.w3.org/2000/svg" width="20" height="20" viewBox="0 0 20 20" fill="none">
  <path d="M20 10C20 4.47715 15.5228 0 10 0C4.47715 0 0 4.47715 0 10C0 15.5228 4.47715 20 10 20C15.5228 20 20 15.5228 20 10Z" fill="currentColor"/>
  <path d="M10.7952 12.2505H8.90846C8.91339 11.7801 8.94792 11.375 9.01205 11.0353C9.0811 10.6903 9.19703 10.3793 9.35981 10.1023C9.52752 9.82522 9.7495 9.5508 10.0257 9.279C10.2576 9.05946 10.4598 8.85039 10.6325 8.65176C10.8051 8.45313 10.9408 8.24928 11.0394 8.0402C11.1381 7.82589 11.1874 7.58806 11.1874 7.32671C11.1874 7.02355 11.143 6.77265 11.0542 6.57403C10.9704 6.37017 10.8421 6.21598 10.6695 6.11144C10.5017 6.0069 10.2896 5.95463 10.0331 5.95463C9.82102 5.95463 9.62371 6.00428 9.4412 6.1036C9.25869 6.19768 9.10824 6.34404 8.98985 6.54266C8.87639 6.74129 8.8172 7.00264 8.81227 7.32671H6.6665C6.6813 6.61062 6.83669 6.01996 7.13265 5.55476C7.43355 5.08433 7.83558 4.73674 8.33872 4.51197C8.84186 4.28199 9.40667 4.16699 10.0331 4.16699C10.7237 4.16699 11.3157 4.28721 11.8089 4.52766C12.3022 4.76287 12.6796 5.11047 12.941 5.57044C13.2025 6.02519 13.3332 6.57925 13.3332 7.23263C13.3332 7.68738 13.2493 8.09247 13.0816 8.44791C12.9139 8.79811 12.6944 9.1248 12.4231 9.42797C12.1518 9.73113 11.8533 10.0448 11.5278 10.3688C11.2466 10.6354 11.0542 10.9151 10.9506 11.2078C10.852 11.5005 10.8002 11.8481 10.7952 12.2505ZM8.68648 14.6733C8.68648 14.3387 8.795 14.0617 9.01205 13.8422C9.22909 13.6174 9.52012 13.505 9.88515 13.505C10.2452 13.505 10.5338 13.6174 10.7509 13.8422C10.9728 14.0617 11.0838 14.3387 11.0838 14.6733C11.0838 14.9973 10.9728 15.2718 10.7509 15.4965C10.5338 15.7213 10.2452 15.8337 9.88515 15.8337C9.52012 15.8337 9.22909 15.7213 9.01205 15.4965C8.795 15.2718 8.68648 14.9973 8.68648 14.6733Z" fill="white"/>
</svg>