<svg width="40" height="40" viewBox="0 0 40 40" fill="none" xmlns="http://www.w3.org/2000/svg">
<g id="Group 19888">
<path id="Vector" fill-rule="evenodd" clip-rule="evenodd" d="M16.9607 32.0319H9.55474C8.76853 32.0311 8.01473 31.7185 7.4587 31.1626C6.90266 30.6068 6.5898 29.8531 6.58875 29.0669V9.45086C6.58954 8.66447 6.90228 7.91052 7.45834 7.35446C8.0144 6.7984 8.76836 6.48566 9.55474 6.48486H26.1107C26.897 6.48592 27.6507 6.79878 28.2065 7.35481C28.7623 7.91085 29.075 8.66465 29.0757 9.45086V18.0779C29.0716 18.7894 28.8598 19.4842 28.4663 20.077C28.0729 20.6698 27.5148 21.1348 26.8607 21.4149C25.2572 22.1118 23.8433 23.1816 22.7366 24.5351C21.6299 25.8886 20.8623 27.4869 20.4977 29.1969C20.3199 30.0018 19.8724 30.7219 19.2293 31.2377C18.5862 31.7535 17.7861 32.034 16.9617 32.0329L16.9607 32.0319ZM9.55474 8.35986C9.26547 8.36013 8.98813 8.47516 8.78358 8.6797C8.57904 8.88425 8.46401 9.16159 8.46375 9.45086V29.0669C8.46427 29.356 8.57942 29.6331 8.78394 29.8374C8.98845 30.0417 9.26565 30.1566 9.55474 30.1569H16.9617C17.3564 30.1592 17.7399 30.0267 18.049 29.7814C18.3582 29.5361 18.5743 29.1927 18.6617 28.8079C19.0886 26.8057 19.9872 24.9343 21.283 23.3495C22.5788 21.7646 24.2343 20.512 26.1117 19.6959C26.4306 19.5614 26.7034 19.3367 26.8965 19.0495C27.0895 18.7623 27.1946 18.4249 27.1987 18.0789V9.45086C27.1987 9.16169 27.0839 8.88434 26.8796 8.67976C26.6752 8.47519 26.3979 8.36013 26.1087 8.35986H9.55474ZM19.7611 13.431H23.7791C24.0278 13.431 24.2672 13.3322 24.443 13.1564C24.6189 12.9806 24.7176 12.7421 24.7176 12.4935C24.7176 12.2448 24.6189 12.0064 24.443 11.8306C24.2672 11.6547 24.0288 11.556 23.7801 11.556H19.7611C19.5178 11.5639 19.2871 11.6662 19.1178 11.8411C18.9484 12.0161 18.8538 12.25 18.8538 12.4935C18.8538 12.7369 18.9484 12.9709 19.1178 13.1458C19.2871 13.3208 19.5178 13.423 19.7611 13.431ZM19.7331 17.744H23.7521C24.0007 17.744 24.2392 17.6452 24.415 17.4694C24.5908 17.2936 24.6896 17.0552 24.6896 16.8065C24.6896 16.5579 24.5908 16.3194 24.415 16.1436C24.2392 15.9678 24.0007 15.869 23.7521 15.869H19.7331C19.4897 15.877 19.259 15.9792 19.0897 16.1542C18.9204 16.3291 18.8257 16.563 18.8257 16.8065C18.8257 17.05 18.9204 17.2839 19.0897 17.4589C19.259 17.6338 19.4897 17.7361 19.7331 17.744ZM11.8621 17.4382C12.4395 17.8233 13.1182 18.0286 13.8123 18.028L13.8093 18.027C14.7396 18.026 15.6315 17.6559 16.2894 16.9981C16.9472 16.3402 17.3172 15.4483 17.3183 14.518C17.3181 13.8239 17.1121 13.1455 16.7262 12.5685C16.3404 11.9915 15.7921 11.5419 15.1507 11.2765C14.5094 11.0112 13.8037 10.942 13.123 11.0778C12.4423 11.2135 11.8172 11.5481 11.3266 12.0392C10.8361 12.5303 10.5023 13.1558 10.3673 13.8366C10.2323 14.5175 10.3023 15.2231 10.5684 15.8642C10.8344 16.5052 11.2847 17.053 11.8621 17.4382ZM12.9015 13.1584C13.1702 12.9788 13.4861 12.883 13.8093 12.883C14.2425 12.8835 14.6578 13.0559 14.9641 13.3622C15.2704 13.6685 15.4428 14.0838 15.4433 14.517C15.4433 14.8402 15.3475 15.1561 15.1679 15.4248C14.9884 15.6935 14.7332 15.903 14.4346 16.0266C14.136 16.1503 13.8075 16.1827 13.4905 16.1196C13.1736 16.0566 12.8824 15.9009 12.6539 15.6724C12.4254 15.4439 12.2697 15.1528 12.2067 14.8358C12.1436 14.5188 12.176 14.1903 12.2997 13.8917C12.4233 13.5931 12.6328 13.3379 12.9015 13.1584ZM15.1148 23.417L16.4758 22.056C16.5629 21.9689 16.6319 21.8656 16.679 21.7518C16.7262 21.6381 16.7504 21.5161 16.7504 21.393C16.7504 21.2699 16.7262 21.1479 16.679 21.0342C16.6319 20.9204 16.5629 20.8171 16.4758 20.73C16.3887 20.6429 16.2854 20.5739 16.1716 20.5268C16.0578 20.4796 15.9359 20.4554 15.8128 20.4554C15.6897 20.4554 15.5677 20.4796 15.454 20.5268C15.3402 20.5739 15.2369 20.6429 15.1498 20.73L13.7888 22.091L12.4278 20.73C12.3424 20.6361 12.2387 20.5605 12.1232 20.5078C12.0077 20.4551 11.8827 20.4264 11.7557 20.4234C11.6288 20.4205 11.5026 20.4433 11.3847 20.4906C11.2669 20.5378 11.1599 20.6085 11.0701 20.6984C10.9804 20.7882 10.9099 20.8954 10.8628 21.0133C10.8157 21.1312 10.793 21.2575 10.7962 21.3844C10.7993 21.5113 10.8282 21.6363 10.8811 21.7518C10.934 21.8672 11.0097 21.9707 11.1038 22.056L12.4648 23.417L11.1038 24.778C10.9361 24.9555 10.8442 25.1914 10.8477 25.4355C10.8511 25.6796 10.9497 25.9128 11.1223 26.0855C11.295 26.2581 11.5281 26.3567 11.7723 26.3601C12.0164 26.3636 12.2523 26.2717 12.4298 26.104L13.7908 24.743L15.1518 26.104C15.2389 26.1911 15.3422 26.2601 15.456 26.3073C15.5697 26.3544 15.6917 26.3786 15.8148 26.3786C15.9379 26.3786 16.0598 26.3544 16.1736 26.3073C16.2874 26.2601 16.3907 26.1911 16.4778 26.104C16.5649 26.0169 16.6339 25.9136 16.681 25.7998C16.7282 25.6861 16.7524 25.5641 16.7524 25.441C16.7524 25.3179 16.7282 25.1959 16.681 25.0822C16.6339 24.9684 16.5649 24.8651 16.4778 24.778L15.1148 23.417ZM22.5778 31.7168L29.8578 24.4368L32.8878 27.4668L25.6078 34.7468C25.5133 34.8417 25.4009 34.9171 25.2772 34.9686C25.1535 35.02 25.0208 35.0466 24.8868 35.0468H23.2978C23.0273 35.0468 22.7679 34.9394 22.5766 34.7481C22.3853 34.5568 22.2778 34.2973 22.2778 34.0268V32.4378C22.278 32.3038 22.3046 32.1712 22.3561 32.0475C22.4076 31.9238 22.4829 31.8114 22.5778 31.7168ZM30.8759 23.4219L31.8879 22.4079C32.0201 22.2752 32.1771 22.17 32.3501 22.0981C32.5231 22.0263 32.7086 21.9893 32.8959 21.9893C33.0831 21.9893 33.2686 22.0263 33.4416 22.0981C33.6146 22.17 33.7717 22.2752 33.9039 22.4079L34.9199 23.4229C35.0524 23.5552 35.1576 23.7123 35.2293 23.8853C35.3011 24.0582 35.338 24.2436 35.338 24.4309C35.338 24.6182 35.3011 24.8036 35.2293 24.9765C35.1576 25.1495 35.0524 25.3066 34.9199 25.4389L33.9039 26.4539L30.8759 23.4219Z" fill="CurrentColor"/>
</g>
</svg>
