<svg width="24" height="26" viewBox="0 0 24 26" fill="none" xmlns="http://www.w3.org/2000/svg">
<g clip-path="url(#clip0_6444_11552)">
<path d="M9.96001 4.0625H4.66621C4.42348 4.06284 4.19077 4.16746 4.01913 4.3534C3.84749 4.53934 3.75093 4.79144 3.75061 5.0544V10.7894C3.75093 11.0523 3.84749 11.3044 4.01913 11.4903C4.19077 11.6763 4.42348 11.7809 4.66621 11.7812H9.96001C10.2028 11.7811 10.4356 11.6765 10.6073 11.4905C10.7789 11.3046 10.8755 11.0524 10.8756 10.7894V5.0544C10.8755 4.79138 10.7789 4.53919 10.6073 4.35321C10.4356 4.16723 10.2028 4.06267 9.96001 4.0625ZM9.74941 6.4727L6.98401 10.0477C6.93823 10.1069 6.88103 10.1544 6.81645 10.1871C6.75187 10.2197 6.68147 10.2366 6.61021 10.2366C6.53895 10.2366 6.46855 10.2197 6.40397 10.1871C6.33939 10.1544 6.2822 10.1069 6.23641 10.0477L4.87741 8.2927C4.79419 8.18539 4.75372 8.04665 4.76492 7.90702C4.77611 7.76738 4.83805 7.63829 4.93711 7.54813C5.03617 7.45796 5.16423 7.41413 5.29312 7.42626C5.42202 7.43839 5.54119 7.50549 5.62441 7.6128L6.60841 8.8881L9.00241 5.7928C9.0435 5.73962 9.09386 5.69573 9.15061 5.66364C9.20735 5.63154 9.26938 5.61187 9.33315 5.60574C9.39691 5.59961 9.46117 5.60715 9.52225 5.62793C9.58332 5.64871 9.64002 5.68231 9.68911 5.72683C9.7382 5.77134 9.77871 5.82589 9.80834 5.88737C9.83797 5.94885 9.85613 6.01604 9.86178 6.08512C9.86744 6.1542 9.86048 6.22381 9.8413 6.28998C9.82212 6.35615 9.7911 6.41757 9.75001 6.47075" fill="CurrentColor"/>
<path d="M9.96001 13.9443H4.66621C4.42348 13.9447 4.19077 14.0493 4.01913 14.2352C3.84749 14.4212 3.75093 14.6733 3.75061 14.9362V20.6712C3.75093 20.9342 3.84749 21.1862 4.01913 21.3722C4.19077 21.5581 4.42348 21.6627 4.66621 21.6631H9.96001C10.2028 21.6629 10.4356 21.5584 10.6073 21.3724C10.7789 21.1864 10.8755 20.9342 10.8756 20.6712V14.9362C10.8755 14.6732 10.7789 14.421 10.6073 14.235C10.4356 14.0491 10.2028 13.9445 9.96001 13.9443ZM9.74941 16.3545L6.98401 19.9295C6.93823 19.9887 6.88103 20.0363 6.81645 20.0689C6.75187 20.1015 6.68147 20.1185 6.61021 20.1185C6.53895 20.1185 6.46855 20.1015 6.40397 20.0689C6.33939 20.0363 6.2822 19.9887 6.23641 19.9295L4.87741 18.1745C4.83632 18.1214 4.8053 18.0599 4.78612 17.9938C4.76695 17.9276 4.75998 17.858 4.76564 17.7889C4.7713 17.7198 4.78945 17.6526 4.81908 17.5912C4.84871 17.5297 4.88922 17.4751 4.93831 17.4306C4.9874 17.3861 5.0441 17.3525 5.10518 17.3317C5.16625 17.3109 5.23051 17.3034 5.29427 17.3095C5.35804 17.3157 5.42007 17.3353 5.47681 17.3674C5.53356 17.3995 5.58392 17.4434 5.62501 17.4966L6.60841 18.7699L9.00061 15.6759C9.0836 15.5685 9.20257 15.5012 9.33135 15.4889C9.46013 15.4765 9.58817 15.5201 9.68731 15.61C9.78645 15.6999 9.84856 15.8287 9.85998 15.9683C9.8714 16.1078 9.8312 16.2465 9.74821 16.3539" fill="CurrentColor"/>
<path d="M19.0792 4.0625H13.786C13.5431 4.06267 13.3103 4.16721 13.1385 4.35317C12.9667 4.53913 12.8701 4.79132 12.8698 5.0544V10.7894C12.8701 11.0524 12.9667 11.3046 13.1385 11.4906C13.3103 11.6765 13.5431 11.7811 13.786 11.7812H19.0792C19.3219 11.7811 19.5547 11.6765 19.7264 11.4905C19.8981 11.3046 19.9946 11.0524 19.9948 10.7894V5.0544C19.9946 4.79138 19.8981 4.53919 19.7264 4.35321C19.5547 4.16723 19.3219 4.06267 19.0792 4.0625ZM18.8686 6.4727L16.1032 10.0477C16.0573 10.1069 16.0001 10.1545 15.9354 10.1871C15.8708 10.2197 15.8004 10.2367 15.7291 10.2367C15.6577 10.2367 15.5873 10.2197 15.5227 10.1871C15.458 10.1545 15.4008 10.1069 15.355 10.0477L13.9966 8.2927C13.9553 8.23952 13.9242 8.17807 13.9049 8.11186C13.8856 8.04564 13.8786 7.97596 13.8841 7.90679C13.8897 7.83762 13.9078 7.77031 13.9374 7.70872C13.967 7.64712 14.0075 7.59244 14.0566 7.5478C14.1056 7.50316 14.1624 7.46943 14.2235 7.44853C14.2846 7.42764 14.3489 7.41999 14.4128 7.42603C14.4766 7.43206 14.5388 7.45166 14.5956 7.48371C14.6525 7.51576 14.7029 7.55962 14.7442 7.6128L15.7294 8.88745L18.1216 5.79345C18.2045 5.68605 18.3235 5.61876 18.4523 5.60639C18.5811 5.59402 18.7091 5.63757 18.8083 5.72747C18.9074 5.81738 18.9695 5.94626 18.9809 6.08577C18.9923 6.22529 18.9521 6.364 18.8692 6.4714" fill="CurrentColor"/>
<path d="M19.0831 21.6636H13.7893C13.5465 21.6634 13.3137 21.5588 13.142 21.3729C12.9703 21.1869 12.8738 20.9347 12.8737 20.6717V14.9367C12.8738 14.6737 12.9703 14.4215 13.142 14.2355C13.3137 14.0496 13.5465 13.945 13.7893 13.9448H19.0837C19.3264 13.945 19.5592 14.0496 19.7309 14.2355C19.9026 14.4215 19.9991 14.6737 19.9993 14.9367V20.6723C19.9991 20.9353 19.9026 21.1875 19.7309 21.3735C19.5592 21.5595 19.3264 21.6641 19.0837 21.6642M13.9993 20.4455H18.8743V15.1636H13.9987L13.9993 20.4455Z" fill="CurrentColor"/>
</g>
<defs>
<clipPath id="clip0_6444_11552">
<rect width="24" height="26" fill="white"/>
</clipPath>
</defs>
</svg>
