<svg width="32" height="32" viewBox="0 0 32 32" fill="none" xmlns="http://www.w3.org/2000/svg">
<g id="Group 19878">
<path id="Rectangle 3186" d="M13.1667 8H11.8333C11.097 8 10.5 8.59695 10.5 9.33333V22.6667C10.5 23.403 11.097 24 11.8333 24H13.1667C13.903 24 14.5 23.403 14.5 22.6667V9.33333C14.5 8.59695 13.903 8 13.1667 8Z" fill="currentColor"/>
<path id="Rectangle 3187" d="M20.1667 8H18.8333C18.097 8 17.5 8.59695 17.5 9.33333V22.6667C17.5 23.403 18.097 24 18.8333 24H20.1667C20.903 24 21.5 23.403 21.5 22.6667V9.33333C21.5 8.59695 20.903 8 20.1667 8Z" fill="currentColor"/>
</g>
</svg>
