<svg width="32" height="32" viewBox="0 0 32 32" fill="none" xmlns="http://www.w3.org/2000/svg">
<g id="Group 19826">
<path id="Polygon 3" d="M23.5164 14.9334C23.6639 15.0197 23.786 15.1418 23.8707 15.2879C23.9555 15.4339 24 15.5988 24 15.7666C24 15.9343 23.9555 16.0993 23.8707 16.2453C23.786 16.3913 23.6639 16.5134 23.5164 16.5997L11.5089 23.6281C11.3577 23.7167 11.1851 23.7646 11.0088 23.7668C10.8324 23.769 10.6586 23.7255 10.5052 23.6407C10.3517 23.5559 10.2241 23.4329 10.1353 23.2842C10.0466 23.1355 9.99986 22.9665 10 22.7945L10 8.73766C10.0001 8.56584 10.047 8.39713 10.1358 8.24873C10.2245 8.10033 10.3521 7.97755 10.5054 7.89291C10.6586 7.80827 10.8322 7.76479 11.0083 7.76692C11.1844 7.76905 11.3568 7.8167 11.5079 7.90501L23.5164 14.9334Z" fill="currentColor"/>
</g>
</svg>
