<svg width="24" height="24" viewBox="0 0 24 24" fill="none" xmlns="http://www.w3.org/2000/svg">
<mask id="path-1-inside-1_6444_10061" fill="white">
<path fill-rule="evenodd" clip-rule="evenodd" d="M5.86938 12.6001C5.2784 12.6001 4.79932 13.0792 4.79932 13.6702V19.5601H4.01961C3.78765 19.5601 3.59961 19.7481 3.59961 19.9801C3.59961 20.212 3.78765 20.4001 4.01961 20.4001L16.6624 20.4001C16.8944 20.4001 17.0824 20.212 17.0824 19.9801C17.0824 19.7481 16.8944 19.5601 16.6624 19.5601H15.5993V13.6702C15.5993 13.0792 15.1202 12.6001 14.5293 12.6001H5.86938Z"/>
</mask>
<path fill-rule="evenodd" clip-rule="evenodd" d="M5.86938 12.6001C5.2784 12.6001 4.79932 13.0792 4.79932 13.6702V19.5601H4.01961C3.78765 19.5601 3.59961 19.7481 3.59961 19.9801C3.59961 20.212 3.78765 20.4001 4.01961 20.4001L16.6624 20.4001C16.8944 20.4001 17.0824 20.212 17.0824 19.9801C17.0824 19.7481 16.8944 19.5601 16.6624 19.5601H15.5993V13.6702C15.5993 13.0792 15.1202 12.6001 14.5293 12.6001H5.86938Z" fill="CurrentColor"/>
<path d="M4.79932 19.5601V20.4161H5.65537V19.5601H4.79932ZM4.01961 20.4001L4.01961 19.544H4.01961V20.4001ZM16.6624 20.4001V21.2561V20.4001ZM15.5993 19.5601H14.7433V20.4161H15.5993V19.5601ZM5.65537 13.6702C5.65537 13.552 5.75119 13.4561 5.86938 13.4561V11.744C4.80562 11.744 3.94326 12.6064 3.94326 13.6702H5.65537ZM5.65537 19.5601V13.6702H3.94326V19.5601H5.65537ZM4.01961 20.4161H4.79932V18.704H4.01961V20.4161ZM4.45566 19.9801C4.45566 20.2209 4.26044 20.4161 4.01961 20.4161V18.704C3.31486 18.704 2.74356 19.2753 2.74356 19.9801H4.45566ZM4.01961 19.544C4.26044 19.544 4.45566 19.7393 4.45566 19.9801H2.74356C2.74356 20.6848 3.31486 21.2561 4.01961 21.2561V19.544ZM16.6624 19.544L4.01961 19.544L4.01961 21.2561L16.6624 21.2561V19.544ZM16.2264 19.9801C16.2264 19.7393 16.4216 19.544 16.6624 19.544V21.2561C17.3672 21.2561 17.9385 20.6848 17.9385 19.9801H16.2264ZM16.6624 20.4161C16.4216 20.4161 16.2264 20.2209 16.2264 19.9801H17.9385C17.9385 19.2753 17.3672 18.704 16.6624 18.704V20.4161ZM15.5993 20.4161H16.6624V18.704H15.5993V20.4161ZM14.7433 13.6702V19.5601H16.4554V13.6702H14.7433ZM14.5293 13.4561C14.6474 13.4561 14.7433 13.552 14.7433 13.6702H16.4554C16.4554 12.6064 15.593 11.744 14.5293 11.744V13.4561ZM5.86938 13.4561H14.5293V11.744H5.86938V13.4561Z" fill="CurrentColor" mask="url(#path-1-inside-1_6444_10061)"/>
<path fill-rule="evenodd" clip-rule="evenodd" d="M15.325 3.64947C15.5901 3.37034 16.0256 3.34278 16.3239 3.58625L20.8461 7.27789C21.0589 7.45156 21.1572 7.72923 21.1012 7.99808L20.7217 9.81994C20.6406 10.2092 20.2649 10.4637 19.8733 10.3946L18.9688 10.235C18.7596 12.7303 17.2157 14.471 15.6865 15.6057C14.8679 16.2132 14.0408 16.6573 13.3958 16.9617C13.0727 17.1141 12.7942 17.232 12.5845 17.3178C12.51 17.3483 12.4431 17.3753 12.3873 17.3977L12.3269 17.422C12.2938 17.4354 12.2677 17.446 12.2475 17.4546C12.2269 17.4633 12.2188 17.4671 12.2179 17.4675L12.2178 17.4675L12.2002 17.4763L12.1818 17.4835C11.4477 17.7679 10.8581 17.7593 10.4095 17.5858C9.97121 17.4162 9.70498 17.1023 9.59781 16.8439C9.1858 15.8504 9.79337 14.8988 10.7281 14.4626C12.2372 13.7583 13.0198 13.2777 13.4052 12.903C13.5899 12.7234 13.6605 12.5894 13.6885 12.4889C13.7157 12.3911 13.7146 12.2826 13.6781 12.1285C13.4131 11.6106 13.095 11.3111 12.778 11.146C12.4583 10.9795 12.1091 10.9339 11.7602 10.9746C11.4087 11.0157 11.0653 11.1438 10.7767 11.3135C10.5001 11.4761 10.2981 11.6622 10.1892 11.8155C10.1877 11.8632 10.1924 11.9036 10.2008 11.9757L10.2008 11.9757C10.2058 12.0184 10.2121 12.0722 10.2192 12.1452C10.2275 12.2307 10.2456 12.3446 10.2652 12.4609L10.2738 12.5121L10.2739 12.5121C10.2891 12.6015 10.3057 12.6994 10.3115 12.7583C10.3349 12.9984 10.1646 13.1273 10.1255 13.1542C10.0707 13.1919 10.0182 13.2097 9.99596 13.2168C9.94431 13.2334 9.89046 13.2425 9.85153 13.2481C9.7667 13.2604 9.65688 13.2692 9.53918 13.2758C9.29981 13.2892 8.98535 13.2956 8.67438 13.2956C8.36336 13.2956 8.04777 13.2892 7.8061 13.2758C7.68704 13.2692 7.57633 13.2605 7.49045 13.2484C7.45033 13.2427 7.39807 13.234 7.34826 13.219C7.32587 13.2122 7.27969 13.1972 7.23037 13.1673C7.20432 13.1514 7.05259 13.0589 7.02458 12.8584L7.02229 12.8474C7.01887 12.8313 7.01405 12.8096 7.00747 12.78L7.00747 12.7799L7.00655 12.7758C6.99282 12.714 6.97376 12.628 6.95279 12.5251C6.91095 12.3201 6.8608 12.0448 6.82758 11.7467C6.7946 11.4507 6.77686 11.1198 6.80507 10.8065C6.83193 10.5081 6.90414 10.1801 7.0858 9.91562C7.32933 9.49857 7.79091 9.02533 8.24338 8.62567C8.70546 8.21751 9.20699 7.84357 9.5622 7.63657C10.4284 7.08025 11.134 6.78108 11.8292 6.5345C12.0557 6.45413 12.2751 6.38118 12.4956 6.30785L12.4957 6.30783C12.8995 6.17354 13.3072 6.03795 13.7703 5.85315C13.6872 5.60383 13.7404 5.31746 13.9348 5.11279L15.325 3.64947ZM15.3209 7.3654C14.9389 7.05142 14.59 6.76574 14.3124 6.53909C13.7279 6.78327 13.206 6.957 12.7259 7.11683C12.513 7.1877 12.3083 7.25584 12.11 7.32618C11.4562 7.55807 10.8105 7.83231 10.0086 8.3482L10.0003 8.35353L9.99179 8.35847C9.70014 8.52732 9.24004 8.86608 8.79948 9.25524C8.35183 9.65064 7.97317 10.0556 7.80505 10.3498L7.7945 10.3683L7.78215 10.3856C7.71771 10.4758 7.66366 10.6377 7.64168 10.8818C7.62042 11.1179 7.63276 11.3875 7.66242 11.6537C7.69184 11.9177 7.73689 12.1663 7.77584 12.3573L7.79167 12.4334L7.85244 12.4371C8.0732 12.4493 8.37213 12.4556 8.67438 12.4556C8.94062 12.4556 9.20318 12.4507 9.41103 12.4412C9.39989 12.3684 9.38964 12.2936 9.3831 12.2262C9.38048 12.1991 9.37695 12.1693 9.37317 12.1374C9.35899 12.0179 9.34121 11.868 9.35389 11.7139C9.36381 11.5935 9.40399 11.4799 9.46852 11.3815C9.66192 11.0867 9.9811 10.8067 10.3511 10.5893C10.7253 10.3693 11.1793 10.1967 11.6628 10.1403C12.1489 10.0836 12.6724 10.1439 13.1661 10.401C13.6615 10.6591 14.0965 11.0996 14.4292 11.7522C14.4554 11.8037 14.4779 11.8619 14.4928 11.9234C14.5509 12.164 14.5769 12.4296 14.4978 12.7141C14.4189 12.9975 14.2481 13.255 13.9908 13.5052C13.4924 13.9898 12.5893 14.521 11.0833 15.2238C10.4024 15.5415 10.1923 16.0846 10.3737 16.5221C10.3937 16.5703 10.4902 16.7163 10.7125 16.8023C10.9228 16.8837 11.2875 16.9262 11.8642 16.7057C11.9162 16.6815 11.9987 16.6481 12.1067 16.6043L12.1067 16.6043C12.6692 16.3763 13.9244 15.8673 15.186 14.9312C16.675 13.8262 18.0624 12.1953 18.1486 9.88567L15.3209 7.3654ZM7.85841 12.7583C7.8578 12.752 7.85702 12.7456 7.85614 12.7392C7.85702 12.7455 7.85778 12.7518 7.85841 12.7583Z" fill="CurrentColor"/>
<path d="M9.7803 7.99525C11.4327 6.93215 12.4632 6.84809 14.0922 6.17559C14.2693 6.10246 14.4725 6.1287 14.6209 6.24991C15.5781 7.03166 17.3201 8.46353 18.3969 9.38015C18.5079 9.47463 18.5732 9.61414 18.571 9.75989C18.4913 14.9029 12.4318 16.8907 12.029 17.0921C10.7101 17.6032 10.1119 16.9899 9.98472 16.6833C9.68799 15.9678 10.0968 15.2204 10.9046 14.8434C13.9069 13.4424 14.2731 12.8252 14.0859 12.0325C14.0779 11.9986 14.0649 11.9646 14.0491 11.9337C12.8579 9.61241 10.4403 10.6948 9.82921 11.5963C9.79476 11.6472 9.77394 11.7059 9.77008 11.7671C9.76148 11.904 9.7838 12.0177 9.8001 12.1859C9.81989 12.3904 9.88245 12.697 9.8924 12.7992C9.90235 12.9014 7.44928 12.9014 7.43933 12.7992C7.42939 12.697 6.92826 10.8572 7.43933 10.1417C7.84816 9.42622 9.13296 8.37003 9.7803 7.99525Z" fill="white" stroke="CurrentColor" stroke-width="1.05"/>
</svg>
