<svg width="24" height="24" viewBox="0 0 24 24" fill="none" xmlns="http://www.w3.org/2000/svg">
<g clip-path="url(#clip0_6444_11248)">
<path d="M20.3978 18.2031C20.1242 17.9231 19.8729 17.6222 19.646 17.3031C20.0831 16.5041 20.3121 15.608 20.312 14.6973C20.282 13.3307 19.766 12.0194 18.8565 10.9989C17.947 9.97835 16.7036 9.3153 15.3494 9.12873C15.3608 8.98533 15.3722 8.84193 15.3722 8.69613C15.3281 7.1434 14.6696 5.67166 13.5413 4.60407C12.4129 3.53648 10.907 2.96032 9.35423 3.00213C7.80125 2.96033 6.29516 3.53665 5.16679 4.60449C4.03842 5.67234 3.38003 7.14439 3.33623 8.69733C3.33843 9.73824 3.63957 10.7566 4.20383 11.6313C3.86624 12.1431 3.48179 12.6224 3.05543 13.0629C3.02851 13.0903 3.01003 13.1248 3.00222 13.1624C2.99442 13.2 2.9976 13.2391 3.0114 13.2749C3.0252 13.3107 3.04902 13.3418 3.08003 13.3644C3.11104 13.3871 3.14791 13.4003 3.18623 13.4025C3.98604 13.4721 4.79151 13.3715 5.54963 13.1073C6.39461 13.756 7.39328 14.1746 8.44823 14.3223C8.43983 14.4471 8.42783 14.5713 8.42783 14.6985C8.46902 16.2348 9.1172 17.6921 10.2305 18.7515C11.3438 19.811 12.8314 20.3861 14.3678 20.3511C15.6144 20.3524 16.8321 19.9758 17.8604 19.2711C18.5301 19.4555 19.2267 19.5212 19.919 19.4655C20.0612 19.4562 20.1976 19.4061 20.312 19.3212C20.4264 19.2364 20.5139 19.1204 20.5642 18.9872C20.6144 18.8539 20.6252 18.709 20.5953 18.5697C20.5654 18.4305 20.496 18.3028 20.3954 18.2019M8.31983 6.79413C8.27959 6.85801 8.22691 6.91314 8.16493 6.95624C8.10294 6.99934 8.03292 7.02953 7.95902 7.04501C7.88513 7.06049 7.80887 7.06095 7.7348 7.04635C7.66073 7.03175 7.59035 7.00239 7.52785 6.96003C7.46536 6.91767 7.41202 6.86317 7.37103 6.79977C7.33003 6.73637 7.30221 6.66537 7.28922 6.591C7.27623 6.51663 7.27834 6.4404 7.29542 6.36686C7.3125 6.29332 7.3442 6.22396 7.38863 6.16293C7.60129 5.87246 7.88083 5.63753 8.20356 5.47804C8.5263 5.31856 8.88272 5.23921 9.24263 5.24673C9.76896 5.21836 10.2863 5.39143 10.6897 5.73078C11.093 6.07013 11.352 6.5503 11.414 7.07373C11.4199 7.48119 11.2953 7.87984 11.0585 8.21146C10.8216 8.54307 10.485 8.79026 10.0976 8.91693C10.0532 8.93229 10.0145 8.96074 9.9865 8.99855C9.95855 9.03635 9.9427 9.08174 9.94103 9.12873V9.54873C9.93627 9.69473 9.87491 9.83316 9.76994 9.93476C9.66498 10.0364 9.52462 10.0932 9.37853 10.0932C9.23245 10.0932 9.09209 10.0364 8.98712 9.93476C8.88216 9.83316 8.8208 9.69473 8.81603 9.54873V9.12873C8.81675 8.85507 8.90054 8.58807 9.05632 8.36308C9.2121 8.13809 9.43253 7.9657 9.68843 7.86873C9.85182 7.82366 9.99723 7.72908 10.1047 7.598C10.2121 7.46692 10.2763 7.30578 10.2884 7.13673C10.2381 6.90263 10.1034 6.69524 9.90998 6.55414C9.71653 6.41304 9.4779 6.3481 9.23963 6.37173C9.06365 6.36443 8.88843 6.39865 8.72812 6.47161C8.56781 6.54458 8.42692 6.65423 8.31683 6.79173M8.66903 11.3001C8.66903 11.1664 8.70869 11.0357 8.78299 10.9245C8.8573 10.8132 8.9629 10.7266 9.08646 10.6754C9.21002 10.6242 9.34598 10.6108 9.47715 10.6369C9.60832 10.663 9.72881 10.7274 9.82338 10.822C9.91795 10.9165 9.98235 11.037 10.0084 11.1682C10.0345 11.2994 10.0211 11.4353 9.96996 11.5589C9.91878 11.6825 9.83211 11.7881 9.72091 11.8624C9.60971 11.9367 9.47897 11.9763 9.34523 11.9763C9.16589 11.9763 8.9939 11.9051 8.86709 11.7783C8.74028 11.6515 8.66903 11.4795 8.66903 11.3001ZM18.509 17.6391C18.6434 17.8383 18.8186 18.0855 19.0202 18.3405C18.6637 18.3201 18.3122 18.2457 17.978 18.1197L17.678 17.9997L17.4224 18.1971C16.545 18.8669 15.4711 19.2284 14.3672 19.2255C13.1292 19.2605 11.9276 18.8037 11.0254 17.9551C10.1232 17.1065 9.59374 15.9352 9.55283 14.6973C9.55283 14.5899 9.56243 14.4849 9.57023 14.3799C10.8162 14.3587 12.0241 13.9473 13.024 13.2037C14.0239 12.4601 14.7654 11.4216 15.1442 10.2345C16.2399 10.3733 17.2497 10.8996 17.9912 11.7181C18.7327 12.5366 19.1568 13.5933 19.187 14.6973C19.1858 15.5225 18.948 16.33 18.5018 17.0241L18.3032 17.3355L18.509 17.6391Z" fill="CurrentColor"/>
<path d="M16.8677 14.0038C16.7304 14.0048 16.5964 14.0466 16.4827 14.1237C16.369 14.2008 16.2807 14.3099 16.229 14.4372C16.1772 14.5644 16.1643 14.7042 16.1919 14.8388C16.2195 14.9734 16.2863 15.0968 16.384 15.1934C16.4816 15.29 16.6057 15.3556 16.7405 15.3818C16.8754 15.408 17.015 15.3936 17.1417 15.3406C17.2685 15.2875 17.3766 15.1981 17.4526 15.0836C17.5285 14.9692 17.5689 14.8347 17.5685 14.6974C17.5682 14.6057 17.5498 14.5149 17.5144 14.4304C17.479 14.3458 17.4273 14.269 17.3622 14.2044C17.2972 14.1398 17.22 14.0887 17.1351 14.054C17.0503 14.0192 16.9594 14.0016 16.8677 14.002" fill="CurrentColor"/>
<path d="M14.5226 14.0038C14.3852 14.0047 14.2512 14.0463 14.1374 14.1234C14.0237 14.2005 13.9353 14.3095 13.8834 14.4368C13.8316 14.564 13.8186 14.7038 13.8461 14.8384C13.8736 14.973 13.9404 15.0965 14.038 15.1932C14.1357 15.2899 14.2597 15.3555 14.3946 15.3817C14.5295 15.408 14.6691 15.3937 14.7959 15.3406C14.9227 15.2876 15.0308 15.1982 15.1068 15.0837C15.1828 14.9692 15.2232 14.8348 15.2228 14.6974C15.2225 14.6057 15.2042 14.515 15.1688 14.4305C15.1334 14.346 15.0818 14.2692 15.0168 14.2046C14.9517 14.1401 14.8746 14.0889 14.7898 14.0542C14.7051 14.0194 14.6143 14.0016 14.5226 14.002" fill="CurrentColor"/>
<path d="M12.1739 14.0038C12.0367 14.0053 11.9029 14.0474 11.7895 14.1249C11.6762 14.2023 11.5883 14.3115 11.5369 14.4388C11.4855 14.5661 11.4729 14.7058 11.5008 14.8402C11.5286 14.9746 11.5957 15.0978 11.6934 15.1942C11.7911 15.2906 11.9152 15.3559 12.05 15.3819C12.1848 15.4079 12.3243 15.3935 12.4509 15.3403C12.5774 15.2872 12.6855 15.1978 12.7613 15.0834C12.8372 14.9689 12.8775 14.8346 12.8771 14.6974C12.8768 14.6057 12.8585 14.515 12.8231 14.4305C12.7877 14.346 12.7361 14.2692 12.671 14.2046C12.606 14.1401 12.5289 14.0889 12.4441 14.0542C12.3594 14.0194 12.2686 14.0016 12.1769 14.002" fill="CurrentColor"/>
</g>
<defs>
<clipPath id="clip0_6444_11248">
<rect width="24" height="24" fill="white"/>
</clipPath>
</defs>
</svg>
