<svg width="24" height="24" viewBox="0 0 24 24" fill="none" xmlns="http://www.w3.org/2000/svg">
<g id="Icon_IRS_TrueFalse_01_Default">
<g id="Group 19825">
<path id="Path 11995" d="M18.9545 5.04384C18.9023 4.99155 18.8403 4.95007 18.772 4.92177C18.7038 4.89347 18.6306 4.87891 18.5567 4.87891C18.4828 4.87891 18.4097 4.89347 18.3414 4.92177C18.2732 4.95007 18.2111 4.99155 18.1589 5.04384L5.04173 18.161C4.93622 18.2665 4.87695 18.4096 4.87695 18.5588C4.87695 18.708 4.93622 18.8511 5.04173 18.9566C5.14723 19.0621 5.29032 19.1214 5.43953 19.1214C5.58873 19.1214 5.73182 19.0621 5.83733 18.9566L18.9545 5.83944C19.0068 5.78722 19.0483 5.72521 19.0766 5.65695C19.1049 5.5887 19.1195 5.51553 19.1195 5.44164C19.1195 5.36774 19.1049 5.29458 19.0766 5.22632C19.0483 5.15806 19.0068 5.09605 18.9545 5.04384Z" fill="CurrentColor"/>
<path id="T" d="M8.02494 10.6436C8.02494 10.8336 8.07352 10.9829 8.17721 11.0844C8.28075 11.1857 8.43286 11.2331 8.62644 11.2331C8.81622 11.2331 8.96544 11.1856 9.06695 11.0841C9.16847 10.9826 9.21594 10.8334 9.21594 10.6436V4.57311H11.3744C11.5362 4.57311 11.6644 4.53264 11.752 4.44513C11.8395 4.35761 11.8799 4.22939 11.8799 4.06761C11.8799 3.90583 11.8395 3.77761 11.752 3.69009C11.6644 3.60258 11.5362 3.56211 11.3744 3.56211H5.86644C5.70466 3.56211 5.57643 3.60258 5.48892 3.69009C5.40141 3.77761 5.36094 3.90583 5.36094 4.06761C5.36094 4.22939 5.40141 4.35761 5.48892 4.44513C5.57643 4.53264 5.70466 4.57311 5.86644 4.57311H8.02494V10.6436Z" fill="CurrentColor" stroke="CurrentColor" stroke-width="0.075"/>
<path id="&#239;&#188;&#166;" d="M14.3609 20.2676C14.3609 20.4574 14.4084 20.6066 14.5099 20.7081C14.6114 20.8096 14.7607 20.8571 14.9504 20.8571C15.1402 20.8571 15.2894 20.8096 15.391 20.7081C15.4925 20.6066 15.5399 20.4574 15.5399 20.2676V17.5211H18.8264C18.9885 17.5211 19.1168 17.4795 19.2043 17.3898C19.2916 17.3002 19.3319 17.1692 19.3319 17.0036C19.3319 16.8418 19.2915 16.7136 19.204 16.6261C19.1164 16.5386 18.9882 16.4981 18.8264 16.4981H15.5399V13.5851H19.7144C19.8765 13.5851 20.0048 13.5435 20.0923 13.4538C20.1796 13.3642 20.2199 13.2332 20.2199 13.0676C20.2199 12.9058 20.1795 12.7776 20.092 12.6901C20.0044 12.6026 19.8762 12.5621 19.7144 12.5621H15.0944C14.8781 12.5621 14.7 12.629 14.5639 12.7651C14.4278 12.9012 14.3609 13.0793 14.3609 13.2956V20.2676Z" fill="CurrentColor" stroke="CurrentColor" stroke-width="0.075"/>
</g>
</g>
</svg>
