<svg width="196" height="32" viewBox="0 0 196 32" fill="none" xmlns="http://www.w3.org/2000/svg">
<path d="M33.8975 10.3723C32.1287 11.5721 29.8974 12.5904 27.0858 13.2238L22.2036 20.2066C22.2036 20.2066 22.1993 20.2174 22.1929 20.2239L18.8267 25.0362C18.7924 25.086 18.7581 25.1292 18.726 25.1811L18.0493 26.1496L13.9551 31.9996H22.2335C27.482 31.9996 32.3985 29.4378 35.4071 25.1357C38.8761 20.1785 37.7134 14.0129 33.8975 10.3744V10.3701V10.3723Z" fill="#DB0025"/>
<path d="M21.7647 6.97203C21.7647 6.97203 21.769 6.96555 21.7712 6.96122C22.7433 5.56898 23.5849 4.36914 24.283 3.37036L26.6406 0H18.3621C13.1137 0 8.19713 2.56182 5.18853 6.86394C1.71954 11.8211 2.8823 17.9868 6.69818 21.6252C8.46694 20.4253 10.6982 19.4071 13.5098 18.7737L21.7626 6.97419L21.7647 6.97203Z" fill="#3AC9CC"/>
<path d="M21.7667 6.97203C20.3941 8.94798 20.377 13.9246 20.377 13.9246C22.9209 13.9246 25.1393 13.6652 27.0858 13.2242C29.8995 12.5886 32.1308 11.5725 33.8974 10.3727C39.9767 6.2478 40.5977 0 40.5977 0H26.6425C26.6425 0 25.8053 1.19551 24.2828 3.37252C23.5847 4.36914 22.7431 5.5733 21.771 6.96338C21.771 6.96771 21.7667 6.96987 21.7645 6.97419L21.7667 6.97203Z" fill="#F4BA00"/>
<path d="M18.8268 25.0347C20.2058 23.063 20.2229 18.0713 20.2229 18.0713C17.679 18.0713 15.4606 18.3307 13.5141 18.7717C10.7003 19.4073 8.46904 20.4234 6.70243 21.6232C0.623133 25.7503 0 31.9981 0 31.9981H13.9552C13.9552 31.9981 15.6961 29.5119 18.7261 25.1795C18.7604 25.132 18.7925 25.0866 18.8268 25.0347Z" fill="#2B3084"/>
<path d="M58.5528 27.4283C52.2487 27.4283 47.5977 22.4192 47.5977 16.0849V16.0222C47.5977 9.78308 52.2165 4.61621 58.6449 4.61621C62.6085 4.61621 64.9811 6.0344 67.1653 8.11412L65.4801 9.9409C63.6385 8.17681 61.5785 6.91644 58.6149 6.91644C53.7776 6.91644 50.1566 10.8856 50.1566 15.9595V16.0222C50.1566 21.1264 53.8076 25.128 58.6149 25.128C61.6107 25.128 63.5764 23.9628 65.6685 21.9458L67.2917 23.552C65.0133 25.8847 62.5165 27.4283 58.5528 27.4283Z" fill="#010101"/>
<path d="M70.7324 27.3379V4.57129H73.0237V27.3379H70.7324Z" fill="#010101"/>
<path d="M193.872 23.2434C192.844 23.2434 192.39 22.7245 192.39 21.6565V14.972H195.953V11.1888H192.39V6.51913H187.795V11.1888H180.574V10.2484C180.574 9.0269 181.178 8.47779 182.236 8.47779C183.022 8.47779 183.658 8.63128 184.322 8.87557V5.02961C183.476 4.75505 182.508 4.57129 181.056 4.57129C179.424 4.57129 178.184 4.99934 177.339 5.85328C176.493 6.70722 176.039 7.71897 176.039 9.82031V11.1585H173.242V14.9742H176.039V27.0634H180.632V14.9742H187.793V22.4219C187.793 26.2051 189.696 27.3358 192.508 27.3358C194.05 27.3358 195.167 26.9704 196.135 26.3889V22.6661C195.472 23.0315 194.716 23.2455 193.868 23.2455L193.872 23.2434Z" fill="#010101"/>
<path fill-rule="evenodd" clip-rule="evenodd" d="M170.389 7.07476C170.389 8.40863 169.318 9.4874 167.999 9.4874C166.68 9.4874 165.607 8.40647 165.607 7.07476C165.607 5.74304 166.678 4.66211 167.999 4.66211C169.321 4.66211 170.389 5.74304 170.389 7.07476ZM170.258 10.817H165.725V27.4093H170.258V10.817Z" fill="#010101"/>
<path d="M143.149 27.1801L138.162 10.7002H142.817L145.417 20.6188L148.471 10.6396H152.43L155.513 20.6491L158.173 10.7002H162.738L157.691 27.1801H153.55L150.436 17.1404L147.263 27.1801H143.151H143.149Z" fill="#010101"/>
<path d="M129.395 27.4027C126.191 27.4027 122.955 26.2742 120.418 23.9848L123.17 20.6577C125.073 22.2445 127.069 23.2519 129.487 23.2519C131.39 23.2519 132.54 22.4888 132.54 21.2371V21.1765C132.54 19.9853 131.814 19.3757 128.279 18.4612C124.018 17.363 121.266 16.1718 121.266 11.9302V11.8697C121.266 7.99346 124.349 5.43164 128.671 5.43164C131.754 5.43164 134.384 6.40881 136.529 8.14695L134.112 11.6859C132.238 10.3737 130.395 9.58027 128.611 9.58027C126.827 9.58027 125.891 10.4039 125.891 11.4416V11.5022C125.891 12.9052 126.799 13.3635 130.457 14.3104C134.748 15.4389 137.168 16.9955 137.168 20.7182V20.7788C137.168 25.0203 133.964 27.4006 129.399 27.4006L129.395 27.4027Z" fill="#010101"/>
<path d="M112.918 27.2601C110.696 27.2601 108.233 26.3802 106.492 24.9556L107.664 23.2888C109.344 24.5621 111.207 25.2907 113.038 25.2907C114.869 25.2907 116.252 24.32 116.252 22.8045V22.744C116.252 21.168 114.422 20.5605 112.379 19.9854C109.946 19.2871 107.244 18.4397 107.244 15.5601V15.4996C107.244 12.8015 109.467 11.0137 112.529 11.0137C114.419 11.0137 116.522 11.6817 118.113 12.741L117.062 14.4986C115.621 13.5582 113.97 12.9831 112.469 12.9831C110.638 12.9831 109.467 13.9538 109.467 15.2574V15.318C109.467 16.8032 111.387 17.3804 113.46 18.016C115.863 18.7445 118.445 19.6828 118.445 22.5018V22.5624C118.445 25.5328 116.013 27.2623 112.921 27.2623L112.918 27.2601Z" fill="#010101"/>
<path d="M98.9926 27.2601C96.7699 27.2601 94.3073 26.3802 92.5664 24.9556L93.7377 23.2888C95.4187 24.5621 97.2817 25.2907 99.1125 25.2907C100.943 25.2907 102.327 24.32 102.327 22.8045V22.744C102.327 21.168 100.496 20.5605 98.453 19.9854C96.0204 19.2871 93.318 18.4397 93.318 15.5601V15.4996C93.318 12.8015 95.5407 11.0137 98.6029 11.0137C100.494 11.0137 102.596 11.6817 104.188 12.741L103.136 14.4986C101.695 13.5582 100.044 12.9831 98.5429 12.9831C96.7121 12.9831 95.5407 13.9538 95.5407 15.2574V15.318C95.5407 16.8032 97.4615 17.3804 99.5344 18.016C101.937 18.7445 104.519 19.6828 104.519 22.5018V22.5624C104.519 25.5328 102.087 27.2623 98.9947 27.2623L98.9926 27.2601Z" fill="#010101"/>
<path d="M82.773 27.2904C79.8908 27.2904 76.9785 25.6236 76.9785 22.4089V22.3484C76.9785 19.045 79.6809 17.2853 83.6146 17.2853C85.5953 17.2853 87.0065 17.5577 88.3898 17.9533V17.4085C88.3898 14.5894 86.6788 13.1345 83.7645 13.1345C81.9336 13.1345 80.4925 13.6187 79.0492 14.2868L78.3575 12.3778C80.0685 11.5887 81.7516 11.0742 84.0022 11.0742C86.2527 11.0742 87.8758 11.6493 89.0172 12.8016C90.0686 13.863 90.6082 15.3785 90.6082 17.3782V26.9575H88.3855V24.5924C87.3041 26.0171 85.5032 27.2904 82.7709 27.2904H82.773ZM83.2227 25.4398C86.075 25.4398 88.4176 23.6822 88.4176 21.1961V19.6806C87.2763 19.3477 85.7452 19.0148 83.8523 19.0148C80.94 19.0148 79.319 20.2881 79.319 22.2576V22.3181C79.319 24.2876 81.1199 25.4398 83.2227 25.4398Z" fill="#010101"/>
</svg>
