<svg width="41" height="32" viewBox="0 0 41 32" fill="none" xmlns="http://www.w3.org/2000/svg">
<g id="Group">
<path id="Vector" d="M33.8975 10.3723C32.1287 11.5721 29.8974 12.5904 27.0858 13.2238L22.2036 20.2066C22.2036 20.2066 22.1993 20.2174 22.1929 20.2239L18.8267 25.0362C18.7924 25.086 18.7581 25.1292 18.726 25.1811L18.0493 26.1496L13.9551 31.9996H22.2335C27.482 31.9996 32.3985 29.4378 35.4071 25.1357C38.8761 20.1785 37.7134 14.0129 33.8975 10.3744V10.3701V10.3723Z" fill="#DB0025"/>
<path id="Vector_2" d="M21.7647 6.97203C21.7647 6.97203 21.769 6.96555 21.7712 6.96122C22.7433 5.56898 23.5849 4.36914 24.283 3.37036L26.6406 0H18.3621C13.1137 0 8.19713 2.56182 5.18853 6.86394C1.71954 11.8211 2.8823 17.9868 6.69818 21.6252C8.46694 20.4253 10.6982 19.4071 13.5098 18.7737L21.7626 6.97419L21.7647 6.97203Z" fill="#3AC9CC"/>
<path id="Vector_3" d="M21.7667 6.97203C20.3941 8.94798 20.377 13.9246 20.377 13.9246C22.9209 13.9246 25.1393 13.6652 27.0858 13.2242C29.8995 12.5886 32.1308 11.5725 33.8974 10.3727C39.9767 6.2478 40.5977 0 40.5977 0H26.6425C26.6425 0 25.8053 1.19551 24.2828 3.37252C23.5847 4.36914 22.7431 5.5733 21.771 6.96338C21.771 6.96771 21.7667 6.96987 21.7645 6.97419L21.7667 6.97203Z" fill="#F4BA00"/>
<path id="Vector_4" d="M18.8268 25.0347C20.2058 23.063 20.2229 18.0713 20.2229 18.0713C17.679 18.0713 15.4606 18.3307 13.5141 18.7717C10.7003 19.4073 8.46904 20.4234 6.70243 21.6232C0.623133 25.7503 0 31.9981 0 31.9981H13.9552C13.9552 31.9981 15.6961 29.5119 18.7261 25.1795C18.7604 25.132 18.7925 25.0866 18.8268 25.0347Z" fill="#2B3084"/>
</g>
</svg>
