<svg width="150" height="152" viewBox="0 0 150 152" fill="none" xmlns="http://www.w3.org/2000/svg">
<g id="Group 19523">
<g id="Empty_bg">
<path id="Vector" d="M146.173 89.8482C152.273 108.84 149.318 137.151 101.979 145.786C60.1382 147.936 49.7851 113.211 44.921 108.428C40.0554 103.645 13.7585 100.503 8.40072 63.2372C4.25697 33.4622 35.6195 -4.57059 61.9757 1.97941C76.8257 3.81222 95.5038 18.4466 101.965 45.32C107.565 68.6122 129.388 55.9044 146.173 89.8482Z" fill="#E4E8F5"/>
</g>
<g id="Empty_Hair_Bottom">
<path id="Vector_2" d="M85.4695 21.6684C85.4695 21.6684 83.5695 16.5559 75.3976 18.5809C77.9289 16.0856 76.518 7.2262 71.3836 7.71527C70.1367 5.99808 64.5852 0.610579 58.6195 5.49183C52.6352 0.0855789 43.4148 3.28558 37.8273 10.1746C34.5945 13.9028 30.6133 21.7278 36.9602 28.2356C33.8508 29.609 30.1758 37.4059 32.893 46.3653C34.7992 52.6496 38.6961 59.984 51.7852 59.2606C52.5086 65.3356 62.1273 69.4575 70.443 64.2512C71.6727 56.7309 72.0336 49.57 72.0336 49.57L98.4289 43.4949C98.4289 43.4949 103.262 41.6106 102.473 31.1621C101.684 20.7153 85.468 21.6684 85.468 21.6684H85.4695Z" fill="#2A307D"/>
</g>
<g id="Empty_Shoes">
<path id="Vector_3" d="M19.9477 127.908L12.4852 128.986L0.114868 130.775L0.591431 134.07L5.96799 133.294C4.06331 135.841 2.08206 137.147 1.72893 140.912C1.68987 141.328 1.70081 141.742 1.76018 142.155L3.14299 151.722L4.84924 151.475C5.21487 151.422 5.50549 151.145 5.57581 150.783C6.00706 148.548 8.90862 142.739 12.2711 141.622C12.4289 141.569 13.243 141.258 14.2321 141.011C16.968 140.328 21.5961 139.316 21.5961 139.316L19.9477 127.911V127.908Z" fill="#2A317B"/>
<path id="Vector_4" d="M32.893 77.5858L28.3384 71.5764L20.7884 61.6155L18.1352 63.6264L21.4165 67.9561C18.2665 67.5217 16.1634 66.4202 12.6993 67.9327C12.318 68.0999 11.9587 68.3092 11.6259 68.5608L3.92273 74.3999L4.96492 75.7749C5.18835 76.0686 5.57117 76.1905 5.92273 76.0764C8.08679 75.3733 14.5743 75.1014 17.179 77.503C17.3009 77.6155 17.968 78.178 18.6634 78.9249C20.5852 80.9905 23.7102 84.5499 23.7102 84.5499L32.893 77.5905V77.5858Z" fill="#2A317B"/>
</g>
<g id="Empty_Sock">
<path id="Vector_5" d="M18.6632 78.9202C20.5851 80.9858 23.7101 84.5452 23.7101 84.5452L32.8929 77.5858L28.3382 71.5764L18.6632 78.9202Z" fill="#CB2428"/>
<path id="Vector_6" d="M14.232 141.008C16.9679 140.325 21.596 139.312 21.596 139.312L19.9476 127.908L12.4851 128.986L14.232 141.006V141.008Z" fill="#CB2428"/>
</g>
<g id="Empty_Pants_color">
<path id="Vector_7" d="M74.0586 88.187C71.093 97.0104 56.9196 112.268 53.9539 114.945C50.9883 117.62 46.8664 118.632 43.6117 116.246C40.8977 114.256 17.9383 86.8854 17.9383 86.8854L34.5711 73.2167C34.5711 73.2167 43.0086 87.8151 46.2133 91.451C46.7149 92.0198 47.5805 92.0651 48.1446 91.5573C52.8274 87.3417 69.8321 64.8885 70.4399 64.2479L91.1414 74.1198C91.1414 74.1198 90.7617 92.3432 71.5617 121.849C67.6211 128.756 21.6992 145.895 20.2524 145.895C18.8414 143.545 16.4914 127.598 17.4321 124.706C19.3852 123.982 42.1258 116.839 43.6117 116.245" fill="#49B8BC"/>
</g>
<g id="Empty_Pants_line">
<path id="Vector_8" d="M73.8321 88.125C72.7743 90.7406 71.3227 93.2016 69.8024 95.5703C68.068 98.275 66.1821 100.884 64.2133 103.423C62.4024 105.758 60.518 108.038 58.5477 110.239C57.2039 111.741 55.8336 113.261 54.2946 114.567C54.1821 114.664 54.0664 114.758 53.9493 114.848C53.9008 114.888 53.9883 114.819 53.9383 114.856C53.9071 114.88 53.8758 114.903 53.8446 114.927C53.7477 115 53.6493 115.072 53.5493 115.142C53.3336 115.297 53.1149 115.444 52.8914 115.586C52.0758 116.106 51.2071 116.548 50.2883 116.856C48.5571 117.439 46.6414 117.533 44.9508 116.761C44.518 116.564 44.1118 116.319 43.7274 116.041C43.4836 115.863 43.2493 116.27 43.4914 116.445C45.0555 117.581 46.9571 117.984 48.8571 117.694C50.7571 117.403 52.5711 116.47 54.1071 115.311C54.7258 114.844 55.293 114.311 55.8461 113.77C56.6305 113.003 57.3868 112.205 58.1289 111.395C60.0961 109.248 61.9696 107.016 63.7758 104.731C65.8071 102.163 67.7555 99.525 69.5633 96.7922C71.1836 94.3422 72.7258 91.8063 73.9149 89.1156C74.043 88.8281 74.1649 88.5375 74.2836 88.2453C74.4024 87.9531 73.943 87.8438 73.8321 88.1203V88.125Z" fill="#040000"/>
</g>
<g id="Empty_Finger">
<g id="Group">
<path id="Vector_9" d="M58.2586 11.4637C58.6773 11.27 61.5008 9.70902 62.5289 11.8996C63.557 14.0903 63.157 16.9809 61.0336 17.8293C58.9101 18.6778 56.957 24.2028 55.1867 24.045C53.4179 23.8871 55.8039 12.6012 58.257 11.4637H58.2586Z" fill="#DFB890"/>
<path id="Vector_10" d="M58.3773 11.6653C59.2008 11.2809 60.1195 10.8481 61.0539 11.0043C61.7336 11.1184 62.1523 11.5856 62.4101 12.2012C62.7101 12.9168 62.8586 13.6996 62.8351 14.4746C62.8148 15.1918 62.6398 15.9153 62.2523 16.5231C62.0758 16.8012 61.8508 17.0528 61.5867 17.2512C61.3226 17.4496 61.0148 17.559 60.7226 17.7153C60.232 17.9762 59.8273 18.3949 59.4711 18.8153C59.0336 19.3324 58.6461 19.8918 58.2695 20.4543C57.893 21.0168 57.5164 21.6028 57.118 22.1621C56.793 22.6199 56.4476 23.0809 56.0211 23.4496C55.8742 23.5762 55.682 23.7059 55.5273 23.7606C55.4508 23.7871 55.357 23.8074 55.3195 23.809C55.2773 23.8121 55.2336 23.8106 55.1914 23.8074C55.2101 23.8074 55.218 23.8262 55.1726 23.7996C55.1242 23.7715 55.2226 23.8184 55.1539 23.7918C55.1351 23.784 55.082 23.7387 55.143 23.7887C55.1273 23.7746 55.1117 23.7621 55.0976 23.7465C55.0883 23.7371 55.0805 23.7278 55.0711 23.7184C55.0445 23.6903 55.1008 23.7653 55.0664 23.7121C55.0367 23.6653 55.0101 23.6184 54.9867 23.5684C54.982 23.5574 54.9695 23.5278 54.9914 23.5793C54.9851 23.5637 54.9789 23.5481 54.9726 23.5324C54.9617 23.4981 54.9492 23.4653 54.9383 23.4309C54.8351 23.0887 54.8211 22.7996 54.8148 22.4293C54.8055 21.9512 54.8383 21.4731 54.8867 20.9981C55.0086 19.8168 55.243 18.6449 55.5351 17.4949C55.8289 16.3418 56.182 15.1949 56.657 14.1028C56.9992 13.3153 57.4023 12.4465 58.0476 11.8824C58.1398 11.8012 58.2351 11.7324 58.3805 11.6637C58.6523 11.5356 58.4148 11.1309 58.1445 11.259C57.8148 11.4153 57.5476 11.6903 57.3242 11.9731C57.0258 12.3512 56.7805 12.7684 56.5648 13.1981C56.0117 14.2934 55.6117 15.4684 55.2773 16.6465C54.9273 17.884 54.6555 19.1465 54.4867 20.4215C54.3617 21.3621 54.2508 22.3621 54.4273 23.3043C54.4789 23.5809 54.5695 23.8856 54.7758 24.0887C55.032 24.3387 55.4133 24.3121 55.7242 24.1856C56.207 23.9918 56.5883 23.5887 56.9148 23.1965C57.3508 22.6762 57.7305 22.109 58.107 21.5449C58.5164 20.9293 58.9195 20.3074 59.3586 19.7121C59.7211 19.2231 60.1164 18.7278 60.6008 18.3528C60.8305 18.1746 61.0773 18.0731 61.3367 17.9496C61.6789 17.7871 61.993 17.5559 62.2539 17.2793C62.7711 16.7324 63.0883 16.0184 63.2211 15.2809C63.368 14.4746 63.3226 13.6403 63.1211 12.8465C62.932 12.1074 62.6289 11.3106 61.9742 10.8637C60.9492 10.1637 59.5586 10.5996 58.5351 11.0699C58.4039 11.1309 58.2758 11.1965 58.1445 11.2574C57.8711 11.3856 58.1086 11.7887 58.3805 11.6621L58.3773 11.6653Z" fill="#231815"/>
</g>
</g>
<g id="Empty_Pen">
<path id="Vector_11" d="M69.4102 20.9218L70.3649 24.6765C70.4258 25.0171 70.1133 25.3062 69.7789 25.2203L66.1071 23.9843L48.0446 4.50307C46.1242 2.43276 49.5383 -0.512551 51.3477 1.44057L69.4102 20.9218Z" fill="#EAB419"/>
<path id="Vector_12" d="M50.4352 7.08433L53.7383 4.02026" stroke="#040000" stroke-width="3" stroke-miterlimit="10"/>
<path id="Vector_13" d="M51.743 8.50459L55.0415 5.44678" stroke="#040000" stroke-width="3.12" stroke-miterlimit="10"/>
<path id="Vector_14" d="M65.9368 23.8187L69.2477 20.7484" stroke="#040000" stroke-width="3" stroke-miterlimit="10"/>
</g>
<g id="Empty_Arm">
<g id="Group_2">
<path id="Vector_15" d="M98.0414 70.6308C98.0414 70.6308 111.248 91.3589 131.21 99.0918C132.376 99.5433 133.66 99.6527 134.868 99.3339C140.659 97.8042 135.043 92.7261 134.427 92.0199C133.648 91.1261 136.29 92.3089 137.157 91.6589C138.205 90.9636 137.94 88.9949 128.379 86.9214C120.162 85.1402 109.205 64.8308 108.69 63.7339C107.04 63.0464 97.9977 70.173 98.0414 70.6308Z" fill="#DFB890"/>
<path id="Vector_16" d="M97.8383 70.7495C98.1008 71.162 98.3805 71.5652 98.6602 71.9667C99.429 73.0699 100.232 74.1495 101.056 75.212C102.274 76.7855 103.545 78.3183 104.862 79.8105C106.504 81.6714 108.216 83.4698 110.004 85.1917C112.012 87.1261 114.112 88.9667 116.31 90.6824C118.673 92.5261 121.145 94.2308 123.737 95.7355C125.059 96.5027 126.412 97.2183 127.793 97.873C128.491 98.2042 129.196 98.5183 129.909 98.8167C130.696 99.1464 131.488 99.4995 132.334 99.6495C133.259 99.8136 134.199 99.7714 135.102 99.512C135.716 99.3355 136.324 99.0839 136.827 98.6808C137.566 98.0855 137.823 97.1964 137.627 96.2839C137.432 95.3714 136.888 94.5308 136.323 93.7948C135.849 93.1792 135.32 92.6136 134.781 92.0542C134.716 91.9886 134.652 91.923 134.591 91.8542C134.557 91.8152 134.557 91.8136 134.532 91.7745C134.507 91.7355 134.507 91.762 134.515 91.7433C134.506 91.7683 134.513 91.837 134.473 91.8824C134.432 91.9277 134.404 91.8933 134.465 91.9027C134.404 91.8933 134.496 91.9027 134.518 91.9027C134.554 91.9027 134.59 91.9058 134.626 91.9074C134.72 91.9136 134.812 91.9261 134.906 91.9402C135.16 91.9777 135.413 92.0183 135.668 92.0495C136.324 92.1308 137.107 92.1589 137.57 91.6011C138.185 90.8605 137.473 90.0495 136.865 89.5995C136.185 89.0949 135.39 88.748 134.607 88.4386C133.26 87.9058 131.862 87.5105 130.459 87.1605C129.298 86.8699 128.091 86.7027 126.995 86.2042C126.162 85.8261 125.385 85.3308 124.652 84.7855C122.884 83.4714 121.338 81.8558 119.904 80.1933C118.327 78.3667 116.879 76.4339 115.502 74.4527C114.232 72.623 113.024 70.7511 111.868 68.8464C111.059 67.512 110.271 66.1636 109.52 64.7949C109.332 64.4542 109.146 64.112 108.97 63.7652C108.891 63.6105 108.82 63.5058 108.631 63.4698C108.373 63.4198 108.101 63.4699 107.851 63.5386C107.09 63.7464 106.374 64.1464 105.695 64.537C104.785 65.0605 103.909 65.6402 103.049 66.2402C101.496 67.323 99.9586 68.4652 98.5493 69.7324C98.3727 69.8902 98.1962 70.0511 98.0368 70.2261C97.9415 70.3308 97.7993 70.473 97.8071 70.6292C97.8211 70.9292 98.2899 70.9308 98.2758 70.6292C98.2743 70.5933 98.2633 70.7089 98.2712 70.6667C98.2555 70.7511 98.2399 70.7058 98.2618 70.6933C98.2743 70.6855 98.343 70.5839 98.2805 70.6605C98.3399 70.587 98.404 70.5199 98.4696 70.4527C98.6805 70.2402 98.9055 70.0402 99.1305 69.8433C99.8399 69.2261 100.579 68.6433 101.326 68.0745C102.24 67.3808 103.171 66.7089 104.126 66.0714C104.985 65.498 105.862 64.9433 106.785 64.4792C107.166 64.287 107.523 64.1214 107.932 64.0042C108.012 63.9808 108.091 63.9605 108.173 63.9449C108.209 63.937 108.246 63.9308 108.284 63.9261C108.218 63.9355 108.324 63.923 108.341 63.9214C108.402 63.9183 108.463 63.9183 108.524 63.9245C108.46 63.9183 108.521 63.923 108.549 63.9324C108.577 63.9417 108.601 63.948 108.627 63.9574L108.487 63.8495C108.771 64.4511 109.11 65.0308 109.434 65.6105C110.131 66.8558 110.852 68.087 111.596 69.3042C112.579 70.9152 113.601 72.5058 114.665 74.0636C115.843 75.7902 117.077 77.4808 118.39 79.1074C119.635 80.6511 120.952 82.1449 122.404 83.4995C123.631 84.6449 124.97 85.7324 126.482 86.4777C127.193 86.8292 127.92 87.0542 128.691 87.2245C130.121 87.5417 131.545 87.898 132.94 88.3449C133.841 88.6339 134.74 88.9558 135.587 89.3808C136.095 89.6355 136.584 89.9152 136.962 90.2917C137.029 90.3574 137.091 90.4277 137.149 90.5011C137.11 90.4511 137.179 90.5449 137.193 90.5667C137.215 90.6011 137.235 90.6355 137.254 90.6698C137.265 90.6917 137.31 90.7995 137.281 90.7198C137.291 90.7511 137.304 90.7808 137.313 90.812C137.323 90.8417 137.327 90.8714 137.335 90.9011C137.348 90.9542 137.332 90.8605 137.335 90.8902C137.335 90.9074 137.338 90.923 137.34 90.9402C137.34 90.9667 137.34 90.9917 137.34 91.0183C137.341 91.0949 137.359 90.9777 137.335 91.0495C137.327 91.073 137.323 91.098 137.316 91.1214C137.313 91.1355 137.307 91.148 137.302 91.1605C137.288 91.2011 137.332 91.1058 137.306 91.1511C137.279 91.1964 137.254 91.2417 137.224 91.2855C137.254 91.2417 137.235 91.2745 137.204 91.3074C137.184 91.3277 137.165 91.3495 137.143 91.3683C137.121 91.387 137.101 91.4042 137.081 91.423C137.12 91.3902 137.087 91.4199 137.048 91.4449C136.915 91.5324 136.782 91.5824 136.623 91.6058C136.204 91.6667 135.76 91.5949 135.346 91.5324C135.031 91.4855 134.635 91.3652 134.318 91.4495C133.913 91.5574 134.068 91.9542 134.262 92.1792C134.588 92.5574 134.957 92.8995 135.29 93.2745C135.812 93.8605 136.301 94.4824 136.685 95.1683C137.026 95.7761 137.335 96.5245 137.204 97.2277C137.046 98.0761 136.285 98.5808 135.529 98.8714C134.829 99.1402 134.09 99.2886 133.338 99.2761C132.545 99.262 131.791 99.0652 131.056 98.7761C129.818 98.2902 128.601 97.7495 127.407 97.1636C125.065 96.0167 122.81 94.6964 120.645 93.2449C118.479 91.7933 116.557 90.3324 114.632 88.7214C112.84 87.2214 111.115 85.6402 109.456 83.9949C107.97 82.5214 106.535 80.9964 105.152 79.4261C104.004 78.123 102.891 76.7886 101.818 75.423C101.041 74.437 100.287 73.4355 99.5571 72.4167C99.1587 71.8589 98.7649 71.2964 98.3868 70.7245C98.3383 70.6527 98.2915 70.5792 98.2446 70.5058C98.0837 70.2527 97.6774 70.487 97.8399 70.7417L97.8383 70.7495Z" fill="#231815"/>
</g>
<g id="Group_3">
<path id="Vector_17" d="M65.218 38.337C64.0446 38.6823 61.0915 39.926 60.7305 39.951C60.468 39.9698 58.9243 17.8573 59.4915 16.7557C59.8258 16.1042 60.5852 16.0792 60.6883 15.1651C60.6618 12.5339 59.143 9.92137 57.4618 9.56512C56.9899 9.48543 54.9415 8.85105 53.2618 11.0323C52.418 12.1276 51.5696 13.5073 51.279 15.1479C50.5977 18.9792 51.5993 19.9526 51.468 21.9729C51.3446 23.8682 48.0243 47.112 52.4165 51.7229C57.5696 54.7057 67.8665 50.8964 68.9321 50.5026C69.9977 50.1089 67.893 37.5526 65.2165 38.3401L65.218 38.337Z" fill="#DFB890"/>
<path id="Vector_18" d="M65.1556 38.1104C64.0071 38.4511 62.8993 38.9307 61.7806 39.3526C61.5493 39.4401 61.3181 39.5261 61.0837 39.6057C61.0056 39.6323 60.929 39.6589 60.8493 39.6807C60.8196 39.6886 60.7899 39.6964 60.7618 39.7057C60.6993 39.7245 60.7181 39.6948 60.7399 39.7136C60.7821 39.7495 60.8696 39.7557 60.9243 39.8245C60.9227 39.8214 60.9212 39.8182 60.9196 39.8167C60.9696 39.8745 60.9353 39.8745 60.9306 39.8339C60.9259 39.7932 60.9118 39.7511 60.904 39.7089C60.8931 39.6448 60.8837 39.5792 60.8743 39.5151C60.8712 39.4979 60.8696 39.4823 60.8681 39.4651C60.879 39.5495 60.8681 39.4651 60.8665 39.4479C60.8602 39.4011 60.8556 39.3557 60.8493 39.3089C60.8212 39.0776 60.7978 38.8479 60.7743 38.6167C60.7056 37.9417 60.6477 37.2667 60.5915 36.5901C60.4352 34.7042 60.2993 32.8167 60.1743 30.9276C60.0321 28.787 59.904 26.6464 59.7978 24.5042C59.7087 22.7261 59.629 20.9464 59.6071 19.1651C59.6009 18.6026 59.5962 18.0401 59.6259 17.4776C59.6306 17.3823 59.6368 17.2854 59.6462 17.1901C59.6493 17.1526 59.654 17.1136 59.6571 17.0761C59.6571 17.0651 59.6665 17.0011 59.6602 17.0495C59.654 17.0979 59.6634 17.0292 59.6649 17.0182C59.6743 16.9682 59.6884 16.9182 59.6977 16.8682C59.7102 16.8026 59.6806 16.8948 59.6962 16.8682C59.7712 16.737 59.854 16.6307 59.9649 16.5292C60.1665 16.3432 60.4056 16.1995 60.5837 15.9886C60.8149 15.7151 60.9321 15.3761 60.9212 15.0198C60.8946 14.1448 60.7165 13.2682 60.4009 12.4511C59.9165 11.1948 59.0134 9.7198 57.6149 9.35574C56.7337 9.12605 55.779 9.09793 54.9227 9.43699C54.1884 9.72918 53.5806 10.2417 53.0962 10.862C52.5743 11.5323 52.1024 12.2479 51.7352 13.0151C51.004 14.5464 50.7462 16.3229 50.8134 18.012C50.854 19.0573 51.1399 20.0636 51.2259 21.1011C51.3102 22.1261 51.1071 23.1807 50.9931 24.1964C50.7946 25.9526 50.6103 27.7089 50.4524 29.4682C50.2509 31.7323 50.0884 33.9995 49.9962 36.2714C49.9009 38.5948 49.8727 40.9245 49.9962 43.2479C50.1009 45.1995 50.2868 47.1901 50.8306 49.0745C51.0352 49.7823 51.2962 50.4886 51.679 51.1214C51.8368 51.3807 52.0196 51.6792 52.2509 51.8807C52.4618 52.0651 52.7868 52.1776 53.0415 52.287C53.3212 52.4073 53.6071 52.512 53.8977 52.5995C56.4009 53.3604 59.1587 53.1292 61.6993 52.6979C63.8431 52.3339 65.954 51.7698 68.0118 51.0682C68.2728 50.9792 68.5321 50.8886 68.7915 50.7948C68.9634 50.7323 69.1337 50.687 69.2384 50.5229C69.4993 50.1198 69.4571 49.4964 69.4478 49.0401C69.4118 47.1682 69.0524 45.2729 68.5962 43.462C68.3556 42.5026 68.0712 41.5495 67.6946 40.6339C67.4056 39.9276 67.0696 39.1995 66.5478 38.6323C66.1915 38.2448 65.6946 37.9511 65.1556 38.1042C64.8665 38.187 64.9884 38.6386 65.2806 38.5557C65.4493 38.5089 65.6306 38.5261 65.7884 38.6151C66.0103 38.7401 66.1868 38.9104 66.3681 39.1417C66.8181 39.7151 67.1462 40.4807 67.4102 41.1839C68.1071 43.0432 68.5384 45.0245 68.804 46.9901C68.9087 47.7636 68.9899 48.5495 68.9806 49.3307C68.9774 49.6042 68.9649 49.8417 68.9196 50.0495C68.9103 50.0932 68.8978 50.1354 68.8853 50.1776C68.8806 50.1964 68.8727 50.2151 68.8649 50.2323C68.8774 50.1995 68.8759 50.2073 68.8571 50.2448C68.8509 50.2573 68.8431 50.2682 68.8352 50.2808C68.8181 50.312 68.8321 50.2526 68.8368 50.2776C68.8478 50.3307 68.7399 50.2245 68.8524 50.2682C68.8431 50.2651 68.7993 50.2839 68.8681 50.2667C68.6821 50.3167 68.5009 50.4011 68.3196 50.4651C67.9993 50.5776 67.6759 50.687 67.3524 50.7932C66.3853 51.1089 65.4087 51.3917 64.4228 51.6401C61.9353 52.2667 59.3446 52.7167 56.7696 52.5917C55.5681 52.5339 54.3431 52.3401 53.2321 51.862C53.0071 51.7651 52.7118 51.6636 52.5321 51.4979C52.4243 51.3979 52.3587 51.2964 52.2868 51.1964C52.0993 50.9354 51.9399 50.6542 51.8024 50.3651C51.0743 48.8464 50.8102 47.0745 50.6306 45.4073C50.3962 43.2151 50.3556 41.0026 50.3884 38.8011C50.4227 36.487 50.5462 34.1761 50.7181 31.8698C50.8665 29.8932 51.0524 27.9198 51.2618 25.9495C51.3899 24.7526 51.5353 23.5589 51.6603 22.362C51.7228 21.7604 51.7118 21.1682 51.6259 20.5698C51.5556 20.087 51.454 19.6104 51.3821 19.1276C51.2931 18.5307 51.2571 17.9261 51.2728 17.3229C51.2946 16.4557 51.3915 15.5682 51.6024 14.7245C51.8134 13.8807 52.1993 13.0354 52.6712 12.2729C53.4337 11.0432 54.4165 9.79949 55.9618 9.65887C56.8306 9.58074 57.7884 9.76355 58.4603 10.3417C59.654 11.3698 60.2852 13.0573 60.4212 14.5932C60.454 14.9636 60.4931 15.3432 60.2462 15.6526C60.079 15.862 59.8399 16.0011 59.6431 16.1792C59.4462 16.3573 59.2665 16.5776 59.2149 16.8432C59.1384 17.2323 59.1399 17.6432 59.1321 18.037C59.1056 19.5573 59.1712 21.0792 59.2337 22.5979C59.3196 24.6479 59.4321 26.6964 59.5587 28.7432C59.6821 30.762 59.8196 32.7792 59.9727 34.7948C60.0806 36.1995 60.1853 37.6073 60.3399 39.0073C60.3743 39.3136 60.3868 39.6432 60.4696 39.9401C60.5243 40.137 60.6634 40.1979 60.8634 40.1542C61.2681 40.0651 61.6634 39.8854 62.0493 39.7401C63.1181 39.3354 64.1774 38.8807 65.2743 38.5542C65.5634 38.4682 65.4399 38.0167 65.1493 38.1026L65.1556 38.1104Z" fill="#231815"/>
</g>
</g>
<g id="Empty_Face">
<g id="Group_4">
<path id="Vector_19" d="M89.4898 25.2853C89.4898 25.2853 88.9226 22.5541 86.5617 23.0337C84.2492 23.6603 83.8023 26.1025 86.5273 28.6431C86.2898 31.9072 87.6898 32.8009 88.1898 33.2447C87.9382 33.7322 87.2554 34.6103 87.2554 34.6103C87.3664 34.6791 94.6914 39.0197 94.6914 39.0197L95.7257 37.2322C95.7257 37.2322 99.4867 38.4978 102.676 32.665C103.59 31.2916 104.094 24.6509 103.332 24.2509C103.087 24.2947 101.405 24.6134 98.0867 18.2322C96.2164 20.2353 92.8632 23.5603 89.1695 24.0478" fill="#DFB890"/>
<path id="Vector_20" d="M89.7148 25.2229C89.5039 24.2166 88.8164 23.1697 87.8054 22.8479C86.9476 22.5744 85.9867 22.8479 85.3008 23.3994C84.6601 23.9135 84.3476 24.7166 84.4304 25.5291C84.5633 26.8307 85.4398 27.9416 86.3617 28.8072L86.2929 28.6416C86.1851 30.1963 86.3992 31.8869 87.5758 33.0166C87.7195 33.1541 87.8742 33.2775 88.0242 33.4088L87.9883 33.1244C87.832 33.4213 87.6367 33.6979 87.4398 33.9697C87.357 34.0854 87.2726 34.1994 87.1883 34.3119C87.157 34.3525 87.1273 34.3932 87.0961 34.4338C87.0633 34.476 87.0805 34.4541 87.0898 34.4432C86.9976 34.5619 86.9961 34.7244 87.1367 34.8119C87.982 35.3291 88.8429 35.8244 89.6945 36.3307C91.0164 37.115 92.3398 37.8994 93.6617 38.6822C93.9648 38.8619 94.268 39.0416 94.5726 39.2213C94.6805 39.2854 94.8305 39.2463 94.893 39.1369C95.2383 38.5416 95.5836 37.9447 95.9273 37.3494L95.6633 37.4572C95.9555 37.5541 96.2851 37.5775 96.5914 37.5807C97.3617 37.59 98.1211 37.3932 98.8164 37.0682C99.9461 36.54 100.884 35.6572 101.643 34.6822C102.357 33.7635 103.03 32.7557 103.332 31.6213C103.61 30.5713 103.748 29.4791 103.845 28.3994C103.935 27.376 103.995 26.3307 103.899 25.3057C103.868 24.9775 103.832 24.6275 103.69 24.326C103.641 24.2229 103.571 24.1197 103.473 24.0604C103.396 24.0135 103.343 24.026 103.26 24.0291C103.235 24.0291 103.173 24.0338 103.28 24.0275C103.243 24.0291 103.205 24.0338 103.168 24.0338C103.145 24.0338 103.121 24.0322 103.099 24.0307C103.087 24.0307 103.074 24.0275 103.063 24.0275C103.016 24.0244 103.132 24.0416 103.063 24.0275C102.995 24.0135 102.929 23.9994 102.863 23.9791C102.824 23.9666 102.787 23.9525 102.749 23.9385C102.69 23.915 102.788 23.9572 102.727 23.9291C102.705 23.9182 102.682 23.9088 102.66 23.8979C102.088 23.6213 101.651 23.176 101.221 22.6885C100.337 21.6854 99.6258 20.5275 98.9711 19.3666C98.7383 18.9541 98.5133 18.5369 98.2945 18.1166C98.2258 17.9854 98.0258 17.9619 97.9258 18.0697C96.0664 20.0588 94.0023 22.0119 91.4851 23.1354C90.7305 23.4729 89.9305 23.7135 89.1117 23.8244C88.9851 23.8416 88.9195 24.0025 88.9476 24.1135C88.9836 24.2494 89.1117 24.2947 89.2367 24.2775C92.1836 23.8775 94.7226 21.8932 96.8008 19.8885C97.3008 19.4072 97.7836 18.9072 98.257 18.401L97.8883 18.3541C98.7804 20.0682 99.7586 21.8307 101.095 23.2479C101.574 23.7572 102.193 24.3416 102.91 24.4775C103.077 24.5088 103.232 24.5104 103.398 24.4807L103.216 24.4572C103.252 24.4775 103.188 24.415 103.229 24.4666C103.249 24.4932 103.238 24.4791 103.224 24.4572C103.234 24.4697 103.243 24.4838 103.251 24.4979C103.259 24.515 103.293 24.5838 103.284 24.5604C103.276 24.5432 103.307 24.6275 103.315 24.6525C103.374 24.8416 103.402 25.0432 103.421 25.2197C103.487 25.8244 103.482 26.4385 103.46 27.0463C103.412 28.4385 103.271 29.851 102.952 31.2088C102.845 31.6729 102.723 32.1307 102.491 32.5244C101.959 33.4322 101.413 34.3135 100.688 35.0869C99.8054 36.0291 98.6992 36.801 97.4117 37.0447C97.068 37.1104 96.6836 37.1338 96.307 37.1025C96.2742 37.0994 96.2398 37.0963 96.207 37.0932C96.1914 37.0916 96.1758 37.09 96.1601 37.0869C96.1054 37.0807 96.1945 37.0916 96.157 37.0869C96.1039 37.0791 96.0523 37.0713 96.0008 37.0604C95.9383 37.0479 95.8773 37.0307 95.8148 37.0166C95.807 37.015 95.7992 37.0119 95.7898 37.0088C95.6929 36.976 95.5758 37.0307 95.5258 37.1166C95.1804 37.7119 94.8351 38.3088 94.4914 38.9041L94.8117 38.8197C93.9851 38.3307 93.1586 37.84 92.332 37.351C91.0023 36.5619 89.6711 35.7744 88.3414 34.9854C88.0195 34.7947 87.6945 34.6072 87.3742 34.4104L87.4211 34.7791C87.7695 34.3307 88.1273 33.8697 88.3929 33.3666C88.4398 33.2791 88.4351 33.1525 88.357 33.0822C88.1523 32.901 87.9383 32.7322 87.7523 32.5307C87.4773 32.2354 87.2586 31.8869 87.1039 31.5119C86.8601 30.9197 86.7617 30.2744 86.7414 29.6369C86.7351 29.4338 86.7351 29.2322 86.7429 29.0291C86.7461 28.926 86.757 28.8213 86.7586 28.7182C86.7617 28.5432 86.7055 28.4932 86.5836 28.376C86.2555 28.0604 85.9476 27.7213 85.682 27.3525C85.0148 26.4197 84.4695 25.0104 85.3383 24.0182C86.0461 23.2119 87.3742 22.915 88.2523 23.6135C88.7836 24.0354 89.1304 24.7088 89.2648 25.3541C89.3273 25.6494 89.7789 25.5244 89.7164 25.2291L89.7148 25.2229Z" fill="#231815"/>
</g>
</g>
<g id="Empty_TopCloth_color">
<path id="Vector_21" d="M64.2196 38.4122L67.8196 51.1231L72.0321 49.5685L70.4415 64.2497L91.143 74.1216L95.9696 65.931C95.9696 65.931 97.2399 70.1622 98.1165 71.206C99.3634 70.0935 108.91 63.6435 108.91 63.6435C108.91 63.6435 102.768 51.2091 102.099 48.8997C101.502 46.8388 99.0618 43.6935 97.2727 42.6622C95.4821 41.631 93.9774 40.8435 93.9774 40.8435L95.0821 38.6794L87.3759 34.1872L85.8884 36.5325C85.8884 36.5325 79.754 32.9528 77.529 33.3325C73.2712 34.0591 67.4227 37.2919 64.2196 38.4106V38.4122Z" fill="#EAB419"/>
</g>
<g id="Empty_TopCloth_Line">
<path id="Vector_22" d="M97.8384 61.5825C97.1712 62.7794 96.504 63.9747 95.8415 65.1747C95.74 65.3591 95.6275 65.5403 95.5368 65.731C95.4087 66.0028 95.8134 66.2403 95.9415 65.9669C96.1759 65.4685 96.4759 64.9935 96.7431 64.5122C97.1493 63.7794 97.5571 63.0466 97.965 62.3153C98.0571 62.1497 98.1493 61.9841 98.2415 61.8185C98.3884 61.5544 97.9837 61.3185 97.8368 61.5825H97.8384Z" fill="#231815"/>
<path id="Vector_23" d="M72.0634 49.6075C73.4165 49.1325 74.7681 48.6575 76.1212 48.181C76.3165 48.1122 76.5118 48.0435 76.7071 47.9747C76.9899 47.8747 76.8681 47.4216 76.5821 47.5232C75.229 47.9982 73.8774 48.4732 72.5243 48.9497C72.329 49.0185 72.1337 49.0872 71.9384 49.156C71.6556 49.256 71.7774 49.7091 72.0634 49.6075Z" fill="#040000"/>
</g>
<g id="Empty_Emotion">
<path id="Vector_24" d="M96.9399 27.7357C97.4249 27.7357 97.818 27.3426 97.818 26.8576C97.818 26.3726 97.4249 25.9795 96.9399 25.9795C96.4549 25.9795 96.0618 26.3726 96.0618 26.8576C96.0618 27.3426 96.4549 27.7357 96.9399 27.7357Z" fill="#231815"/>
<path id="Vector_25" d="M101.87 29.4592C102.317 29.4592 102.679 29.0968 102.679 28.6498C102.679 28.2028 102.317 27.8405 101.87 27.8405C101.423 27.8405 101.06 28.2028 101.06 28.6498C101.06 29.0968 101.423 29.4592 101.87 29.4592Z" fill="#231815"/>
<path id="Vector_26" d="M99.2352 28.5561C99.3367 28.9889 99.5117 29.4482 99.3117 29.8795C99.2164 30.0826 99.0602 30.2279 98.9055 30.3826C98.7821 30.5076 98.6571 30.6326 98.5336 30.7592C98.3211 30.9732 98.6524 31.3061 98.8649 31.0904C99.0524 30.9014 99.2414 30.7139 99.4274 30.5232C99.6727 30.2686 99.8242 29.9514 99.868 29.5998C99.8961 29.3732 99.8586 29.1545 99.8071 28.9342C99.768 28.767 99.7289 28.5982 99.6883 28.4311C99.6196 28.1373 99.168 28.2623 99.2367 28.5561H99.2352Z" fill="#231815"/>
<path id="Vector_27" d="M96.1493 31.656C96.2618 32.0091 96.3915 32.356 96.629 32.6451C96.8665 32.9341 97.2352 33.181 97.5868 33.3341C98.2243 33.6107 99.0352 33.6247 99.6571 33.2857C99.9211 33.1404 99.6852 32.7357 99.4211 32.881C99.4086 32.8872 99.3961 32.8935 99.3836 32.8997C99.3696 32.906 99.3571 32.9122 99.343 32.9185C99.329 32.9247 99.3321 32.9232 99.3555 32.9138C99.3415 32.9201 99.3274 32.9247 99.3133 32.931C99.1946 32.9747 99.0743 33.0107 98.9508 33.0357C98.5586 33.1138 98.1321 33.0716 97.7665 32.906C97.4711 32.7732 97.1633 32.5716 96.9602 32.3154C96.7805 32.0888 96.6868 31.806 96.6008 31.5341C96.5102 31.2482 96.0571 31.3701 96.1493 31.6591V31.656Z" fill="#231815"/>
</g>
<g id="Empty_Hair">
<path id="Vector_28" d="M97.6821 19.6717C97.6821 19.6717 97.9899 23.153 89.5821 24.9155C88.7305 22.6139 86.6899 21.5717 84.6508 23.6905C84.4274 20.3623 88.0399 11.4811 96.9024 16.6295C98.4633 15.6155 103.563 14.628 105.709 21.2326C107.66 28.4358 107.215 31.5623 102.866 32.7842C104.085 29.7889 103.785 25.9233 103.785 25.9233C103.785 25.9233 103.382 25.5155 103.16 25.1248C102.435 25.3842 100.329 26.003 97.6821 19.6717Z" fill="#2A307D"/>
</g>
<g id="Empty_Thing">
<path id="Vector_29" d="M119.632 15.5901L124.179 22.1526L123.434 14.1698L119.632 15.5901Z" fill="#E4E8F5"/>
<path id="Vector_30" d="M130.365 64.6808C131.287 64.6808 132.034 63.9336 132.034 63.012C132.034 62.0904 131.287 61.3433 130.365 61.3433C129.443 61.3433 128.696 62.0904 128.696 63.012C128.696 63.9336 129.443 64.6808 130.365 64.6808Z" fill="#2A307D"/>
<path id="Vector_31" d="M121.227 30.6229C121.326 30.6354 121.188 30.6057 121.157 30.5963C121.132 30.5885 121.109 30.5776 121.085 30.5682C121.143 30.5916 121.043 30.5494 121.024 30.5401C120.862 30.4651 120.706 30.3776 120.552 30.2854C120.104 30.0198 119.674 29.7182 119.265 29.3963C118.201 28.5604 117.21 27.576 116.499 26.4182C116.146 25.8432 115.868 25.2213 115.732 24.5588C115.67 24.2557 115.62 23.9151 115.656 23.6057C115.662 23.5494 115.666 23.6057 115.634 23.5948L115.654 23.5932C115.704 23.6073 115.745 23.6198 115.773 23.6323C116.198 23.8385 116.579 24.3416 116.665 24.8026C116.682 24.8994 116.685 24.9979 116.665 25.0948C116.654 25.1479 116.637 25.1979 116.61 25.2432C116.609 25.2463 116.562 25.2994 116.581 25.2838C116.527 25.3291 116.515 25.3182 116.462 25.3198C116.382 25.3198 116.296 25.2979 116.193 25.2573C115.587 25.0182 115.076 24.4698 114.662 23.9869C114.163 23.4041 113.707 22.7229 113.507 21.976C113.429 21.6854 112.977 21.8088 113.056 22.101C113.26 22.8666 113.709 23.5573 114.204 24.1666C114.652 24.7198 115.196 25.2823 115.84 25.6088C116.298 25.8416 116.882 25.8948 117.088 25.3182C117.306 24.7057 116.915 24.0276 116.498 23.601C116.221 23.3182 115.443 22.7823 115.223 23.426C115.116 23.7354 115.195 24.1479 115.243 24.4619C115.301 24.8369 115.407 25.2041 115.546 25.5573C116.123 27.0073 117.191 28.2323 118.356 29.2479C118.907 29.7291 119.493 30.176 120.113 30.5651C120.446 30.7744 120.832 31.0369 121.231 31.0901C121.357 31.1073 121.463 30.9698 121.465 30.8557C121.465 30.7151 121.356 30.6385 121.231 30.6213L121.227 30.6229Z" fill="#CE2328"/>
<path id="Vector_32" d="M117.179 49.3823V51.487L114.859 52.0808L116.585 52.9433L116.64 55.1026L117.935 53.6995L119.176 55.8589V53.0526L121.227 53.2136L119.123 51.6479L120.363 50.0292L118.312 50.4604L117.179 49.3823Z" fill="#7DC4BF"/>
<path id="Vector_33" d="M149.885 43.7183L148.563 42.4245L149.62 40.6011L148.015 41.1542L146.626 39.8605L146.71 41.537L144.59 40.9886L146.352 42.7152L144.99 43.9027L147.267 43.5448L147.52 45.3199L148.51 43.7667L149.885 43.7183Z" fill="#CB2428"/>
<path id="Vector_34" d="M90.0946 41.0057L87.9462 43.2495L89.3946 43.3385L88.8727 44.7714L91.0196 42.5323L89.5712 42.4448L90.0946 41.0057Z" fill="white"/>
<path id="Vector_35" d="M138.962 51.6886L140.649 56.5323L143.395 54.2699L138.962 51.6886Z" fill="#48B7BC"/>
<path id="Vector_36" d="M139.065 19.4088L137.068 20.276L138.573 21.4635L136.187 22.4323L137.982 23.7463L136.082 24.6698" stroke="#48B7BC" stroke-width="3" stroke-miterlimit="10"/>
</g>
<g id="Empty_Shine">
<path id="Vector_37" d="M131.398 19.6263L114.509 46.7295L129.265 44.567L127.035 60.0951L143.927 33.0373L129.17 35.2013L131.398 19.6263Z" fill="#EAB419"/>
</g>
<g id="Empty_Line">
<path id="Vector_38" d="M71.4242 7.78735C71.4242 7.78735 70.1008 7.89204 69.8008 8.25142" stroke="#040000" stroke-miterlimit="10"/>
<path id="Vector_39" d="M51.7024 59.2607C52.1352 59.2576 52.5633 59.1467 52.9539 58.9654C53.3446 58.7842 53.6977 58.517 53.918 58.1482C54.0727 57.8889 53.668 57.6529 53.5133 57.9123C53.1711 58.4857 52.3492 58.7889 51.7024 58.792C51.4008 58.7935 51.4008 59.2623 51.7024 59.2607Z" fill="#040000"/>
<path id="Vector_40" d="M85.1321 20.692C84.993 20.9795 84.8758 21.2826 84.7758 21.5858C84.6039 22.1076 84.4649 22.6811 84.5258 23.2326C84.5399 23.3576 84.6227 23.467 84.7602 23.467C84.8758 23.467 85.0086 23.3592 84.9946 23.2326C84.9367 22.717 85.068 22.1967 85.2274 21.7108C85.2633 21.6014 85.3024 21.4936 85.343 21.3858C85.3602 21.3389 85.3789 21.292 85.3977 21.2467C85.4055 21.2264 85.4149 21.2045 85.4227 21.1842C85.4258 21.178 85.4508 21.1186 85.4383 21.1451C85.4321 21.1576 85.4633 21.0858 85.4727 21.067C85.4836 21.042 85.4946 21.0186 85.5055 20.9936C85.5149 20.9717 85.5258 20.9498 85.5352 20.9295C85.5899 20.8155 85.5664 20.6764 85.4508 20.6092C85.3477 20.5498 85.1852 20.5795 85.1305 20.6936L85.1321 20.692Z" fill="#040000"/>
<path id="Vector_41" d="M71.4242 7.55298C70.9648 7.58892 70.4742 7.65454 70.0461 7.82954C69.8976 7.89048 69.7414 7.96235 69.6351 8.08579C69.5523 8.1811 69.5414 8.32329 69.6351 8.41704C69.7195 8.50142 69.8836 8.51392 69.9664 8.41704C69.9757 8.4061 69.9867 8.3936 69.9976 8.38423C70.0039 8.37798 70.0101 8.37329 70.0148 8.3686C70.0336 8.35298 70.0273 8.35767 69.9961 8.3811C70.0086 8.35767 70.0648 8.33579 70.0882 8.32329C70.1242 8.30298 70.1601 8.28735 70.1961 8.27017C70.1632 8.28579 70.1711 8.2811 70.1992 8.27017C70.2195 8.26235 70.2414 8.25454 70.2617 8.24673C70.4351 8.18579 70.6148 8.1436 70.7945 8.10923C70.8773 8.0936 70.9617 8.07954 71.0445 8.06704C71.0648 8.06392 71.0851 8.06079 71.1054 8.05767C71.1211 8.0561 71.1929 8.0436 71.1164 8.0561C71.1507 8.04985 71.1851 8.04673 71.2211 8.0436C71.2882 8.03579 71.3554 8.02798 71.4242 8.02329C71.5507 8.01392 71.6586 7.92329 71.6586 7.78892C71.6586 7.67017 71.5507 7.54517 71.4242 7.55454V7.55298Z" fill="#040000"/>
</g>
<g id="Empty_?&#229;&#149;&#163;&#232;&#145;&#134;">
<path id="Vector_42" d="M70.6695 62.1526C70.6695 62.1526 91.6367 72.3385 92.0836 72.526L91.143 74.1213L70.4414 64.2495L70.668 62.1526H70.6695Z" fill="#2C9393"/>
</g>
<g id="Empty_Deco">
<path id="Vector_43" d="M83.3195 68.2905L82.5804 70.0593L85.4711 71.4499L86.1945 69.6874L83.3195 68.2905Z" fill="#E4E8F5"/>
<path id="Vector_44" d="M77.9788 68.053L78.7773 66.0905L77.7101 65.5718L76.8898 67.5452L77.9788 68.053Z" fill="#49B8BC"/>
<path id="Vector_45" d="M89.5867 73.6733L90.6945 71.8624L89.782 71.4233L88.6664 73.2202L89.5867 73.6733Z" fill="#49B8BC"/>
<path id="Vector_46" d="M72.971 65.6452L73.5992 63.5686L72.6445 63.1077L72.0007 65.1827L72.971 65.6452Z" fill="#49B8BC"/>
<path id="Vector_47" d="M64.2195 38.4124C64.1304 38.6109 67.532 51.0546 67.7461 51.1718C67.9601 51.289 70.0507 50.4921 70.1836 50.2952C70.3164 50.0984 66.5351 37.6405 66.3351 37.564C66.1351 37.4874 64.3101 38.214 64.2195 38.4124Z" fill="white"/>
<path id="Vector_48" d="M108.538 62.8843C108.138 62.839 97.1696 68.7296 97.1696 69.3671C97.1696 70.0046 97.9352 71.1577 98.1195 71.2062C98.3039 71.2546 109.51 65.1171 109.615 64.9671C109.72 64.8171 108.941 62.9296 108.54 62.8843H108.538Z" fill="white"/>
<path id="Vector_49" d="M85.7383 36.5093C85.7821 36.6483 85.7899 36.8061 85.8133 36.9499C85.8617 37.2546 85.9164 37.5593 85.9805 37.8624C86.1633 38.7265 86.4211 39.578 86.7946 40.3796C87.2039 41.2561 87.7758 42.0827 88.5758 42.6468C89.5227 43.3124 90.8321 43.4936 91.9305 43.1155C93.0289 42.7374 93.6289 41.8749 94.1133 40.9249C94.2039 40.7468 93.9352 40.5874 93.843 40.7671C93.4383 41.5593 92.9274 42.3233 92.0977 42.7139C91.0883 43.1874 89.7774 43.0577 88.8524 42.4577C87.3524 41.4843 86.6821 39.5858 86.3117 37.9218C86.2383 37.5905 86.1758 37.2561 86.1227 36.9202C86.0961 36.7593 86.0883 36.5843 86.0399 36.428C85.9789 36.2374 85.6774 36.3186 85.7383 36.5108V36.5093Z" fill="white"/>
<path id="Vector_50" d="M10.8054 75.5046C11.1242 74.9687 11.4523 74.4328 11.8164 73.9265C11.8742 73.8468 11.9351 73.7718 11.9976 73.6968C12.0039 73.689 12.0351 73.6671 12.0367 73.6593C12.0336 73.6796 11.9257 73.7046 11.9226 73.6984C11.9242 73.7031 11.9679 73.6984 11.9742 73.7015C11.9851 73.7062 12.0804 73.714 12.0054 73.7046C12.0445 73.7093 12.0851 73.7156 12.1242 73.7234C12.2304 73.7406 12.3367 73.7593 12.4429 73.7796C13.0461 73.8921 13.6445 74.0281 14.2351 74.1921C14.5351 74.2749 14.832 74.3656 15.1226 74.4765C15.2242 74.5156 15.3257 74.5578 15.4242 74.6062C15.4726 74.6296 15.5195 74.6562 15.5664 74.6843C15.5851 74.6953 15.6773 74.7624 15.6476 74.7374C15.7929 74.8609 15.8945 75.0468 16.0023 75.2031C16.1461 75.4109 16.2851 75.6234 16.4117 75.8437C16.432 75.8796 16.4539 75.9156 16.4726 75.9531C16.4914 75.9874 16.5117 76.0281 16.5117 76.0265L16.5179 76.0437C16.5148 76.0234 16.5132 76.0015 16.5164 75.9796C16.5086 75.9874 16.4961 76.0343 16.4898 76.0453C16.3945 76.2249 16.2992 76.4046 16.1961 76.5796C16.0429 76.8406 16.4476 77.0765 16.6007 76.8156C16.6976 76.6531 16.7929 76.489 16.8757 76.3187C16.9414 76.1859 17.0101 76.0499 16.9648 75.8999C16.9164 75.7421 16.8117 75.5937 16.7273 75.4546C16.5851 75.2218 16.432 74.9937 16.2726 74.7718C16.0929 74.5203 15.9382 74.3374 15.6617 74.1999C15.3851 74.0624 15.0789 73.9562 14.7804 73.8624C14.1148 73.6531 13.4304 73.4953 12.7461 73.3593C12.5164 73.314 12.2851 73.2703 12.0523 73.2406C11.8773 73.2187 11.7586 73.2609 11.6382 73.3984C11.3929 73.6765 11.1945 74.0031 10.9945 74.3124C10.7945 74.6218 10.5929 74.9453 10.4023 75.2671C10.2476 75.5265 10.6523 75.7624 10.807 75.5031L10.8054 75.5046Z" fill="#EAB419"/>
<path id="Vector_51" d="M6.58513 147.74C6.21013 147.242 5.83982 146.734 5.51013 146.206C5.44763 146.106 5.39763 146 5.33669 145.898C5.35388 145.925 5.34607 145.906 5.33982 145.905C5.307 145.894 5.37575 145.825 5.33982 145.92C5.33044 145.944 5.29138 146.044 5.33513 145.975C5.42419 145.833 5.50544 145.687 5.59607 145.547C5.92732 145.034 6.27732 144.533 6.65232 144.051C6.95388 143.664 7.31169 143.162 7.72732 142.933C7.73669 142.926 7.79607 142.905 7.73982 142.925C7.78982 142.906 7.8445 142.895 7.89763 142.883C8.02419 142.85 8.15232 142.82 8.28044 142.794C8.52263 142.74 8.76794 142.692 9.01482 142.659C9.08513 142.65 9.16169 142.653 9.232 142.64C9.33825 142.62 9.14138 142.655 9.18982 142.622C9.18357 142.626 9.20232 142.636 9.22732 142.662C9.36013 142.808 9.482 142.962 9.60075 143.119C9.78044 143.356 10.1883 143.123 10.0054 142.883C9.88825 142.728 9.7695 142.572 9.64294 142.425C9.54138 142.308 9.43669 142.184 9.27263 142.173C9.11638 142.162 8.95075 142.198 8.79763 142.223C8.55075 142.261 8.307 142.309 8.06325 142.364C7.73044 142.439 7.482 142.506 7.22107 142.726C6.98982 142.92 6.78982 143.151 6.59763 143.383C6.1445 143.926 5.73044 144.505 5.33825 145.094C5.21013 145.286 5.082 145.478 4.96794 145.678C4.87263 145.844 4.857 145.97 4.94138 146.148C5.0945 146.475 5.32263 146.775 5.52732 147.07C5.732 147.365 5.96013 147.681 6.18513 147.981C6.36482 148.219 6.77107 147.986 6.58982 147.745L6.58513 147.74Z" fill="#EAB419"/>
</g>
</g>
</svg>
