<svg width="257" height="213" viewBox="0 0 257 213" fill="none" xmlns="http://www.w3.org/2000/svg">
<g clip-path="url(#clip0_3722_15870)">
<path fill-rule="evenodd" clip-rule="evenodd" d="M15.9764 144.468C5.64496 115.802 14.9686 81.9595 34.3967 58.4856C51.7399 37.5307 82.4869 40.5329 108.521 32.6512C136.212 24.2678 162.229 1.4111 189.314 11.5853C218.553 22.5689 236.42 53.0751 243.729 83.4418C250.867 113.094 245.078 145.059 227.428 169.933C211.118 192.919 183.236 203.037 155.462 207.838C130.501 212.153 106.592 205.288 83.5289 194.81C56.9496 182.735 25.8747 171.932 15.9764 144.468Z" fill="#EDEDFD"/>
<path d="M178.003 48.7519C178.003 50.0479 176.955 51.1038 175.651 51.1038C174.347 51.1038 173.299 50.0559 173.299 48.7519C173.299 47.4559 174.347 46.3999 175.651 46.3999C176.955 46.3999 178.003 47.4559 178.003 48.7519Z" fill="#241E1B"/>
<path d="M218.412 72.048H132.9V158.208H218.412V72.048Z" fill="#EBEBEB"/>
<path d="M214.9 75.5679V154.704H136.412V75.5679H214.9ZM218.412 72.048H132.9V158.208H218.412V72.048Z" fill="white" stroke="#241E1B" stroke-width="0.8" stroke-miterlimit="10"/>
<path d="M156.34 79.1199H139.7V95.7597H156.34V79.1199Z" fill="white"/>
<path d="M158.74 103H142.1V119.64H158.74V103Z" fill="white"/>
<path d="M199.893 131.08H183.253V147.72H199.893V131.08Z" fill="#F4BA00"/>
<path d="M172.053 125.68H141.141V136.784H172.053V125.68Z" fill="white"/>
<path d="M175.893 140.32H144.981V151.424H175.893V140.32Z" fill="#2B3084"/>
<path d="M208.324 80.5679H191.684V97.2077H208.324V80.5679Z" fill="#F4BA00"/>
<path d="M213.34 102.552H196.7V119.192H213.34V102.552Z" fill="white"/>
<path d="M189.029 83.7358H163.069V122.336H189.029V83.7358Z" fill="white"/>
<path d="M154.021 81.064H141.869V82.8558H154.021V81.064Z" fill="#E8E7F2"/>
<path d="M154.021 84.8557H141.869V86.6479H154.021V84.8557Z" fill="#E8E7F2"/>
<path d="M156.565 106.16H144.413V107.952H156.565V106.16Z" fill="#E8E7F2"/>
<path d="M206.077 82.88H193.925V84.6718H206.077V82.88Z" fill="white"/>
<path d="M155.57 127.84H143.418V129.632H155.57V127.84Z" fill="#E8E7F2"/>
<path d="M197.668 133.792H185.516V135.584H197.668V133.792Z" fill="white"/>
<path d="M197.668 137.864H185.516V139.656H197.668V137.864Z" fill="white"/>
<path d="M197.668 141.936H185.516V143.728H197.668V141.936Z" fill="white"/>
<path d="M170.405 146.64H158.253V148.432H170.405V146.64Z" fill="white"/>
<path d="M167.067 132.144H143.418V133.936H167.067V132.144Z" fill="#E8E7F2"/>
<path d="M171.973 142.488H148.325V144.28H171.973V142.488Z" fill="white"/>
<path d="M156.565 110.104H144.413V111.896H156.565V110.104Z" fill="#E8E7F2"/>
<path d="M210.908 115.16H198.756V116.52H210.908V115.16Z" fill="#E8E7F2"/>
<path d="M210.908 111.592H198.756V112.952H210.908V111.592Z" fill="#E8E7F2"/>
<path d="M154.021 88.6479H141.869V90.4397H154.021V88.6479Z" fill="#E8E7F2"/>
<path d="M186.74 86.2238H165.252V88.0159H186.74V86.2238Z" fill="#E8E7F2"/>
<path d="M186.74 89.8878H165.252V91.68H186.74V89.8878Z" fill="#E8E7F2"/>
<path d="M186.74 93.5519H165.252V95.3437H186.74V93.5519Z" fill="#E8E7F2"/>
<path d="M186.74 97.2078H165.252V99H186.74V97.2078Z" fill="#E8E7F2"/>
<path d="M186.74 100.872H165.252V102.664H186.74V100.872Z" fill="#E8E7F2"/>
<path d="M177.404 106.568H165.252V108.36H177.404V106.568Z" fill="#E8E7F2"/>
<path d="M177.404 110.224H165.252V112.016H177.404V110.224Z" fill="#E8E7F2"/>
<path d="M177.404 113.872H165.252V115.664H177.404V113.872Z" fill="#E8E7F2"/>
<path d="M175.661 48.7518L141.141 72.0479" stroke="#241E1B" stroke-width="0.8" stroke-miterlimit="10"/>
<path d="M175.659 48.7518L210.171 72.0479" stroke="#241E1B" stroke-width="0.8" stroke-miterlimit="10"/>
<path d="M85.6219 99.2103C82.0592 86.4346 96.7746 86.1853 99.0173 100.18C100.499 106.706 92.9829 108.248 88.9892 111.198C81.3588 113.292 78.0386 101.379 85.6219 99.2103Z" fill="#2B3084"/>
<path d="M59.4439 90.765C69.1081 83.606 78.7993 85.2493 85.2848 96.0248C85.2848 96.0248 90.08 104.106 87.2447 113.818C85.3859 120.175 81.2171 121.495 77.8363 122.101C77.082 122.236 75.7215 122.223 75.7215 122.223V123.852C75.7215 123.852 74.2938 128.149 71.1621 128.688C68.0305 129.227 61.6662 124.762 60.8917 123.812C60.1173 122.862 60.1173 122.863 60.1173 122.863L60.3866 114.397C58.1911 112.08 56.6153 109.703 55.9688 107.844C54.8509 104.632 51.1265 96.9339 59.4439 90.765Z" fill="#DFB48C" stroke="black" stroke-width="0.8" stroke-miterlimit="10"/>
<path d="M89.9843 145.383C91.2369 141.726 90.9068 141.376 92.7589 138.15C92.7589 138.15 90.3883 128.816 83.3438 125.294C83.162 125.199 82.9733 125.112 82.7915 125.024C82.7578 125.004 82.7175 124.991 82.6838 124.97C82.5289 124.896 82.3673 124.822 82.2057 124.755C82.1653 124.735 82.1247 124.721 82.0843 124.701C81.9092 124.627 81.7275 124.546 81.5457 124.472C81.5255 124.465 81.512 124.459 81.4985 124.452C81.2897 124.371 81.081 124.29 80.8722 124.21C80.8655 124.21 80.8587 124.203 80.852 124.203C80.6634 124.135 80.468 124.061 80.2727 124.001C80.2256 123.987 80.1717 123.967 80.1246 123.953C79.9697 123.899 79.8081 123.852 79.6465 123.798C79.5926 123.778 79.532 123.765 79.4781 123.745C79.3097 123.697 79.1413 123.644 78.9662 123.603C78.9258 123.59 78.8855 123.576 78.8383 123.57C78.6228 123.516 78.4073 123.455 78.1851 123.408C78.1716 123.401 78.1514 123.401 78.1379 123.394C77.9426 123.347 77.7404 123.307 77.5384 123.266C77.4778 123.253 77.4106 123.24 77.35 123.233C77.1951 123.206 77.0333 123.172 76.8784 123.145C76.8043 123.132 76.7371 123.118 76.663 123.112C76.5014 123.085 76.333 123.064 76.1714 123.044C76.1243 123.037 76.0837 123.031 76.0366 123.024H60.0216C60.0216 123.024 60.0216 123.024 60.0149 123.024C59.9273 123.038 59.8397 123.044 59.7521 123.058C59.6377 123.071 59.5232 123.091 59.4019 123.112C59.3144 123.125 59.2336 123.138 59.1461 123.152C59.0316 123.172 58.9171 123.192 58.8026 123.212C58.7218 123.226 58.6342 123.246 58.5534 123.26C58.4389 123.28 58.3244 123.307 58.2099 123.334C58.1291 123.354 58.0483 123.368 57.9675 123.388C57.853 123.415 57.7318 123.442 57.6173 123.469C57.5432 123.489 57.4623 123.502 57.3883 123.523C57.267 123.556 57.1525 123.583 57.0313 123.617C56.964 123.637 56.89 123.657 56.8227 123.677C56.6947 123.711 56.5734 123.751 56.4522 123.785C56.3916 123.805 56.3242 123.825 56.2636 123.839C56.1289 123.879 55.9942 123.926 55.8662 123.967C55.8191 123.98 55.7652 124.001 55.7181 124.014C55.5632 124.068 55.4083 124.122 55.2534 124.176C55.2265 124.182 55.1995 124.196 55.1725 124.203C46.6531 127.354 44.5049 134.587 44.5049 134.587C45.8518 136.938 43.9593 139.793 44.983 142.406L45.8921 171.123C45.8921 173.433 46.5387 175.595 47.6567 177.434L46.276 177.454V216.434C61.4493 219.182 75.9896 219.337 89.6475 215.875L89.7822 176.807L88.3073 176.828C89.2098 175.124 89.7215 173.184 89.7215 171.123L89.9843 145.383Z" fill="#1BB7B4"/>
<path d="M79.6016 143.302L88.8685 134.022L97.7247 144.252L103.523 134.978C105.247 132.345 112.763 136.783 112.635 140.703C112.635 140.703 108.163 157.91 99.8798 159.176C91.9059 160.395 79.6016 143.302 79.6016 143.302Z" fill="#DFB48C" stroke="black" stroke-width="0.8" stroke-miterlimit="10"/>
<path d="M45.5237 106.881C44.8772 104.362 45.8671 101.81 47.8269 100.348C42.6008 95.9641 49.9551 80.8179 59.1345 75.0328C63.3639 72.3659 71.1693 69.3083 75.3583 76.2114C79.3721 72.9248 85.9049 75.0864 87.0835 80.1913C87.1845 83.1142 91.589 82.892 91.9526 86.4614C91.8718 91.0342 93.1447 97.6478 87.2855 99.1698C81.6688 98.2337 72.9876 102.766 71.4925 94.1523C72.193 97.5803 69.8089 101.002 66.3136 101.513C64.374 112.329 52.0564 119.125 45.5237 106.881Z" fill="#2B3084"/>
<path d="M77.0013 117.374C77.0013 117.374 74.4489 118.505 72.314 116.377" stroke="#241E1B" stroke-width="0.8" stroke-miterlimit="10" stroke-linecap="round" stroke-linejoin="round"/>
<path d="M101.855 136.332L109.432 123.105C109.432 123.105 118.038 113.683 118.88 115.569C119.722 117.454 115.008 122.458 115.008 122.458C115.008 122.458 121.85 129.907 119.877 133.119C117.904 136.332 115.904 136.998 115.904 136.998L112.63 142.642L101.855 136.332Z" fill="#1BB7B4"/>
<path d="M113.036 126.829C113.036 126.829 118.41 128.243 118.161 129.914C117.912 131.584 113.676 131.712 113.676 131.712C113.676 131.712 114.572 134.022 113.036 135.308" stroke="#241E1B" stroke-width="0.8" stroke-miterlimit="10" stroke-linecap="round" stroke-linejoin="round"/>
<path d="M119.024 132.567C119.024 132.567 117.697 133.14 116.27 132.493C114.842 131.847 114.849 131.847 114.849 131.847" stroke="#241E1B" stroke-width="0.8" stroke-miterlimit="10" stroke-linecap="round" stroke-linejoin="round"/>
<path d="M118.452 134.749C118.452 134.749 117.126 135.321 115.698 134.675C114.27 134.028 114.277 134.028 114.277 134.028" stroke="#241E1B" stroke-width="0.8" stroke-miterlimit="10" stroke-linecap="round" stroke-linejoin="round"/>
<path d="M82.4225 109.514H71.0072C68.4211 109.514 66.3267 107.42 66.3267 104.834C66.3267 102.248 68.4211 100.153 71.0072 100.153H82.4225C85.0086 100.153 87.1032 102.248 87.1032 104.834C87.11 107.413 85.0086 109.514 82.4225 109.514Z" stroke="#20221D" stroke-width="0.8" stroke-miterlimit="10"/>
<path d="M43.4489 211.329H65.6599C65.6599 211.329 65.4916 150.704 65.6599 142.642C65.8283 134.581 57.6322 123.469 57.6322 123.469C57.5581 123.489 57.4773 123.502 57.4032 123.523C57.282 123.556 57.1674 123.583 57.0462 123.617C56.9789 123.637 56.9048 123.657 56.8374 123.677C56.7094 123.711 56.5884 123.751 56.4671 123.785C56.4065 123.805 56.3392 123.825 56.2785 123.839C56.1438 123.879 56.0091 123.926 55.8811 123.967C55.834 123.98 55.7801 124.001 55.733 124.014C55.5781 124.068 55.4232 124.122 55.2683 124.176C55.2414 124.182 55.2144 124.196 55.1874 124.203C40.9638 129.739 42.0549 136.433 42.1694 142.413C51.0929 163.324 36.9904 177.986 43.4489 211.329Z" fill="#2B3084"/>
<path d="M92.0803 212.036H72.6979C72.6979 212.036 72.8662 151.411 72.6979 143.349C72.5295 135.288 80.7257 124.176 80.7257 124.176C80.7998 124.196 81.7156 124.479 82.4497 124.741C92.6932 128.371 93.4811 137.16 93.3666 143.134C88.4907 167.156 98.2291 182.72 92.0803 212.036Z" fill="#2B3084"/>
<path d="M40.5066 134.587C43.2543 132.23 47.8677 132.789 50.2248 135.537C52.582 138.285 52.2587 142.427 49.5109 144.784L40.9174 149.687L47.4298 154.031C49.8745 156.011 50.2517 158.65 48.2784 161.095L47.1942 162.435C46.1773 163.964 42.5338 165.163 40.0891 163.19C40.0891 163.19 26.4985 156.697 26.4985 149.417C26.4918 143.423 40.5066 134.587 40.5066 134.587Z" fill="#DFB48C" stroke="black" stroke-width="0.8" stroke-miterlimit="10"/>
<path d="M52.2907 156.657C52.2907 156.657 55.7121 157.836 57.9749 160.011C59.0794 161.075 60.763 162.867 60.0693 163.998C59.5373 164.867 55.2204 162.604 55.2204 162.604C55.2204 162.604 58.7762 170.032 56.3518 172.41C54.9509 173.777 52.2841 174.086 50.0414 172.894C48.3982 172.019 46.8828 170.942 45.0711 167.931C43.0305 164.544 42.7074 161.56 44.5055 159.021C45.1857 158.072 47.7583 155.66 52.2907 156.657Z" fill="#1BB7B4"/>
<path d="M48.2515 168.396C48.2515 168.396 50.0632 172.598 53.2285 173.622L48.2515 168.396Z" fill="#DFB48C"/>
<path d="M48.2515 168.396C48.2515 168.396 50.0632 172.598 53.2285 173.622" stroke="black" stroke-width="0.8" stroke-miterlimit="10"/>
<path d="M51.0923 167.783C51.0923 167.783 52.9038 171.986 56.0691 173.009L51.0923 167.783Z" fill="#DFB48C"/>
<path d="M51.0923 167.783C51.0923 167.783 52.9038 171.986 56.0691 173.009" stroke="black" stroke-width="0.8" stroke-miterlimit="10"/>
<path d="M52.9736 166.429C52.9736 166.429 54.563 170.113 57.3377 171.009L52.9736 166.429Z" fill="#DFB48C"/>
<path d="M52.9736 166.429C52.9736 166.429 54.563 170.113 57.3377 171.009" stroke="black" stroke-width="0.8" stroke-miterlimit="10"/>
<path d="M52.2933 156.657L46.6497 152.145C46.6497 152.145 43.545 152.832 41.235 155.95C39.2281 158.651 37.9956 162.718 37.9956 162.718L44.3331 166.537L52.2933 156.657Z" fill="#1BB7B4"/>
<path d="M60.8296 211.329H65.6516C65.6516 211.329 65.4832 150.704 65.6516 142.642C65.7526 138.029 63.1059 132.419 60.8296 128.466V211.329Z" fill="#E34363"/>
<path d="M77.5173 212.036H72.6952C72.6952 212.036 72.8636 151.411 72.6952 143.349C72.5942 138.736 75.241 133.126 77.5173 129.173V212.036Z" fill="#E34363"/>
<path d="M78.7653 107.298L80.5636 114.309C80.5636 114.309 77.2163 114.195 76.5495 114.363C75.8828 114.532 75.8828 114.532 75.8828 114.532" stroke="#241E1B" stroke-width="0.8" stroke-miterlimit="10" stroke-linecap="round" stroke-linejoin="round"/>
<path d="M71.7275 105.063C71.842 105.521 72.3135 105.797 72.7714 105.682C73.2294 105.561 73.5055 105.096 73.391 104.638C73.2698 104.18 72.805 103.904 72.3471 104.019C71.8891 104.133 71.613 104.605 71.7275 105.063Z" fill="#241E1B"/>
<path d="M82.1733 105.446C82.2407 104.578 83.0017 103.931 83.8638 104.005C84.7325 104.073 85.3723 104.833 85.3049 105.702" fill="#241E1B"/>
</g>
<defs>
<clipPath id="clip0_3722_15870">
<rect width="256.8" height="212.8" fill="white" transform="translate(0.100098)"/>
</clipPath>
</defs>
</svg>
