<svg width="65" height="15" viewBox="0 0 65 15" fill="none" xmlns="http://www.w3.org/2000/svg">
<path id="Line 25" d="M1.39502 6.5C0.842735 6.5 0.39502 6.94772 0.39502 7.5C0.39502 8.05228 0.842735 8.5 1.39502 8.5V6.5ZM64.3122 8.20711C64.7027 7.81658 64.7027 7.18342 64.3122 6.79289L57.9483 0.428932C57.5577 0.0384078 56.9246 0.0384078 56.534 0.428932C56.1435 0.819457 56.1435 1.45262 56.534 1.84315L62.1909 7.5L56.534 13.1569C56.1435 13.5474 56.1435 14.1805 56.534 14.5711C56.9246 14.9616 57.5577 14.9616 57.9483 14.5711L64.3122 8.20711ZM1.39502 8.5H63.6051V6.5H1.39502V8.5Z" fill="#212121"/>
</svg>
