<svg width="266" height="184" viewBox="0 0 266 184" fill="none" xmlns="http://www.w3.org/2000/svg">
<path d="M255.38 42.6439L34.9437 30.0581C30.8532 29.8246 27.354 33.0646 27.1282 37.2949L21.0396 151.347C20.8138 155.577 23.9468 159.196 28.0373 159.429L248.474 172.015C252.564 172.248 256.063 169.008 256.289 164.778L262.378 50.7265C262.603 46.4961 259.47 42.8774 255.38 42.6439Z" fill="#E6E8F4"/>
<path d="M261.468 38.202L29.2752 24.9546C26.5466 24.8025 24.1938 26.8977 24.0467 29.6351L16.8412 164.712C16.6942 167.449 18.8019 169.798 21.5305 169.967L253.723 183.214C256.452 183.366 258.805 181.271 258.952 178.534L266.157 43.457C266.304 40.7197 264.197 38.371 261.468 38.202ZM254.164 169.341C254.115 170.305 253.282 171.048 252.318 170.997L24.3408 157.986C23.3768 157.936 22.6252 157.091 22.6742 156.128L29.2752 32.3387C29.3242 31.3755 30.1575 30.632 31.1215 30.6827L259.099 43.6936C260.063 43.7443 260.814 44.5891 260.765 45.5523L254.164 169.341Z" fill="white" stroke="#353635" stroke-width="0.51" stroke-linecap="round" stroke-linejoin="round"/>
<path d="M16.9393 162.769L16.8412 164.712C16.6942 167.449 18.8019 169.798 21.5305 169.967L253.723 183.214C256.452 183.366 258.805 181.271 258.952 178.534L259.05 176.59L16.9229 162.769H16.9393Z" fill="white" stroke="#353635" stroke-width="0.51" stroke-linecap="round" stroke-linejoin="round"/>
<path d="M34.2105 164.407L14.0972 124.344C13.558 123.262 12.594 123.212 11.9732 124.259L1.32017 141.985C0.699293 143.032 1.00973 144.401 2.00641 145.06L33.3609 165.218C34.3739 165.86 34.7497 165.506 34.1941 164.424L34.2105 164.407ZM20.2897 150.247L8.70538 142.796C8.10084 142.407 7.92111 141.579 8.2969 140.954L12.0222 134.753C12.398 134.127 12.9698 134.144 13.2966 134.803L20.7962 149.757C21.123 150.416 20.8942 150.619 20.2897 150.23V150.247Z" fill="#EA5854"/>
<path d="M11.9732 124.259L1.32017 141.984C0.699293 143.032 1.00973 144.401 2.00641 145.06L33.3609 165.218" stroke="#353635" stroke-width="0.51" stroke-linecap="round" stroke-linejoin="round"/>
<path d="M65.7782 165.658C65.5168 163.867 65.8926 161.028 66.5135 159.406C67.1834 157.682 67.7879 157.125 67.5102 155.266C66.7259 150.096 61.9713 146.682 56.9715 147.747C52.1842 148.761 49.1125 153.931 50.485 159.507C50.8771 161.282 52.0045 161.856 53.8508 163.275C55.3376 164.424 56.6448 167.06 57.2656 168.75L65.8763 166.452C65.8272 166.182 65.7782 165.928 65.7456 165.658H65.7782Z" fill="#F7B01B" stroke="white" stroke-width="0.28" stroke-miterlimit="10"/>
<path d="M63.0342 168.851C62.0539 164.627 60.8938 161.146 61.4657 159.845C62.0376 158.527 62.1029 156.871 60.8448 155.435C59.5867 153.999 58.2633 155.148 57.9692 156.026C57.626 157.074 58.2142 158.003 58.8678 158.105C58.9985 158.122 59.1292 158.105 59.2436 158.054H59.1782C59.309 158.054 59.4233 158.003 59.5214 157.919C60.0605 157.497 60.1259 156.381 59.3416 155.638C58.6881 155.013 56.9888 154.675 56.564 156.567C56.1392 158.46 56.9725 159.879 58.0835 160.741C59.1946 161.603 59.7991 165.235 60.9265 169.426" fill="white"/>
<path d="M63.0342 168.851C62.0539 164.627 60.8938 161.146 61.4657 159.845C62.0376 158.527 62.1029 156.871 60.8448 155.435C59.5867 153.999 58.2633 155.148 57.9692 156.026C57.626 157.074 58.2142 158.003 58.8678 158.105C58.9985 158.122 59.1292 158.105 59.2436 158.054H59.1782C59.309 158.054 59.4233 158.003 59.5214 157.919C60.0605 157.497 60.1259 156.381 59.3416 155.638C58.6881 155.013 56.9888 154.675 56.564 156.567C56.1392 158.46 56.9725 159.879 58.0835 160.741C59.1946 161.603 59.7991 165.235 60.9265 169.426" stroke="#353635" stroke-width="0.51" stroke-linecap="round" stroke-linejoin="round"/>
<path d="M57.2812 168.733C58.2289 172.113 59.8791 172.163 60.7778 172.518C61.6928 172.873 61.6928 173.481 61.6928 173.481C61.7418 173.718 61.9705 173.853 62.1993 173.786L63.9312 173.329C64.1599 173.279 64.2907 173.042 64.2253 172.806C64.2253 172.806 63.9475 172.248 64.5848 171.504C65.222 170.744 66.6271 169.865 65.8755 166.452L57.2812 168.75V168.733Z" fill="white" stroke="#353635" stroke-width="0.51" stroke-linecap="round" stroke-linejoin="round"/>
<mask id="mask0_813_22795" style="mask-type:luminance" maskUnits="userSpaceOnUse" x="69" y="0" width="164" height="167">
<path d="M77.5905 161.028L183.451 166.536L227.272 103.206L232.729 46.5491L137.947 0.0986328L92.5897 7.44893L82.4759 99.2516L69.127 139.67L77.5905 161.028Z" fill="white"/>
</mask>
<g mask="url(#mask0_813_22795)">
<path d="M207.256 63.5477C207.256 63.5477 208.546 49.7427 214.265 47.3771C219.984 45.0115 223.023 48.2389 224.575 49.3034C226.127 50.3679 227.091 54.5415 227.222 58.1068C227.336 61.6722 227.614 69.1069 224.248 72.9933C220.899 76.8966 219.984 83.9596 219.984 83.9596L206.635 82.1178" fill="#FCE4BC"/>
<path d="M207.256 63.5477C207.256 63.5477 208.546 49.7427 214.265 47.3771C219.984 45.0115 223.023 48.2389 224.575 49.3034C226.127 50.3679 227.091 54.5415 227.222 58.1068C227.336 61.6722 227.614 69.1069 224.248 72.9933C220.899 76.8966 219.984 83.9596 219.984 83.9596L206.635 82.1178" stroke="#050000" stroke-miterlimit="10"/>
<path d="M128.255 96.5961L140.389 94.9464C157.641 92.6006 173.496 105.187 175.764 123.029L181.779 170.339L107.115 180.491L101.101 133.181C98.8325 115.339 111.003 98.9419 128.255 96.5961Z" fill="#EDAB16"/>
<path d="M136.36 150.872C157.151 150.872 174.005 133.442 174.005 111.941C174.005 90.4399 157.151 73.0098 136.36 73.0098C115.569 73.0098 98.7148 90.4399 98.7148 111.941C98.7148 133.442 115.569 150.872 136.36 150.872Z" fill="#EDAB16"/>
<path d="M160.193 45.3073C168.576 44.1674 174.739 38.263 173.958 32.1194C173.177 25.9758 165.748 21.9194 157.365 23.0592C148.981 24.199 142.819 30.1034 143.6 36.2471C144.381 42.3907 151.81 46.4471 160.193 45.3073Z" fill="#EDAB16"/>
<path d="M167.944 43.8285C166.98 39.6211 163.075 36.7486 158.827 37.3231C158.729 37.3231 158.631 37.3569 158.516 37.3738C158.059 35.7348 157.454 34.1633 156.735 32.6764C151.883 22.6056 141.442 16.2185 130.103 17.1985C129.678 17.2323 129.27 17.283 128.845 17.3337L120.986 18.3982C120.561 18.4489 120.152 18.5165 119.728 18.601C108.535 20.6624 100.039 29.6349 97.8661 40.6519C97.5393 42.2909 97.3596 43.9637 97.3269 45.6703C97.2289 45.6703 97.1145 45.6703 97.0165 45.7041C92.7683 46.2786 89.713 50.0805 89.8273 54.4231C89.8273 54.7104 89.86 54.9976 89.8927 55.3018C89.9253 55.6059 89.9744 55.8763 90.0397 56.1635C91.0037 60.3709 94.9087 63.2435 99.1569 62.669C99.2549 62.669 99.3529 62.6352 99.4673 62.6183C102.457 73.2973 110.251 81.2052 120.61 82.7598C121.051 82.9963 121.296 83.1146 121.296 83.1146L122.244 90.6001L124.76 110.454L148.141 107.278L145.625 87.4234L144.677 79.9379C144.677 79.9379 144.89 79.7521 145.249 79.4141C154.856 75.156 160.428 65.4232 160.64 54.3048C160.738 54.3048 160.853 54.3048 160.951 54.271C165.199 53.6965 168.254 49.8946 168.14 45.5521C168.14 45.2648 168.107 44.9776 168.075 44.6734C168.042 44.3693 167.993 44.0989 167.927 43.8116L167.944 43.8285Z" fill="#FCE4BC" stroke="#050000" stroke-miterlimit="10"/>
<path d="M136.965 42.7302C137.733 44.1496 139.464 44.6565 140.837 43.8623C142.209 43.0681 142.7 41.277 141.932 39.8577C141.164 38.4383 139.432 37.9314 138.059 38.7255C136.687 39.5197 136.197 41.3108 136.965 42.7302Z" fill="#272521"/>
<path d="M113.812 45.8899C114.58 47.3092 116.312 47.8161 117.685 47.022C119.057 46.2278 119.547 44.4367 118.779 43.0173C118.011 41.598 116.279 41.091 114.907 41.8852C113.534 42.6794 113.044 44.4705 113.812 45.8899Z" fill="#272521"/>
<path d="M129.498 53.8825L128.289 44.3018" stroke="#272521" stroke-width="1.04" stroke-linecap="round" stroke-linejoin="round"/>
<path d="M96.2805 45.0789C95.3492 37.7624 108.665 29.9389 126.017 27.5733C141.719 25.4443 155.346 28.5196 158.483 34.5519L157.029 23.1125C155.395 10.3043 144.039 1.28123 131.654 2.95405L113.682 5.38725C101.297 7.07698 92.5716 18.8206 94.1892 31.6287L96.0028 45.8392L96.4276 45.7885C96.3622 45.552 96.3132 45.3154 96.2805 45.062V45.0789Z" fill="#D83D3B"/>
<path d="M137.994 14.5115C137.193 14.4777 136.409 14.596 135.674 14.8157C134.301 11.4024 131.099 8.93545 127.292 8.78338C123.093 8.61441 119.449 11.318 118.077 15.1874C117.456 15.0354 116.818 14.934 116.165 14.9171C110.953 14.7143 106.574 18.9217 106.378 24.3119C106.182 29.7022 110.25 34.2306 115.462 34.4334C117.39 34.501 119.204 33.9772 120.74 33.014C122.047 34.7375 124.04 35.8865 126.328 35.971C130.347 36.1231 133.729 32.9295 133.991 28.8066C135.004 29.4149 136.18 29.8035 137.455 29.8542C141.556 30.0063 144.987 26.7113 145.134 22.4701C145.281 18.2289 142.095 14.6805 137.994 14.5284V14.5115Z" fill="#EDAB16"/>
<path d="M136.377 107.261L114.482 89.1976L120.593 137.304L139.857 134.685H139.889L159.137 132.066L153.026 83.9595L136.377 107.261Z" fill="#EDAB16"/>
<path d="M98.8792 98.1191C98.8792 98.1191 70.7435 120.221 73.897 145.043C76.2334 163.376 97.6865 178.313 108.797 176.083C119.891 173.852 118.241 156.702 118.241 156.702C118.241 156.702 99.6308 146.58 99.8596 142.694C100.088 138.791 113.405 118.683 113.405 118.683C113.405 118.683 122.13 87.4738 98.8792 98.1022V98.1191Z" fill="#EDAB16"/>
<path d="M161.114 113.039C161.114 113.039 176.08 133.569 199.298 126.439C216.438 121.184 227.336 96.9025 223.463 85.9193C219.591 74.9361 203.465 79.3124 203.465 79.3124C203.465 79.3124 195.998 100.721 192.975 98.3894C187.322 94.013 162.486 84.0268 162.486 84.0268C162.486 84.0268 147.308 90.9546 161.114 113.039Z" fill="#EDAB16"/>
<path d="M122.93 147.696L108.797 176.083" stroke="#272521" stroke-width="1.04" stroke-linecap="round" stroke-linejoin="round"/>
<path d="M158.336 142.897L179.086 166.536" stroke="#272521" stroke-width="1.04" stroke-linecap="round" stroke-linejoin="round"/>
<path d="M137.26 110.167C137.26 110.167 126.869 120.694 125.921 111.705C124.957 102.715 137.26 110.167 137.26 110.167Z" stroke="#272521" stroke-width="1.04" stroke-linecap="round" stroke-linejoin="round"/>
<path d="M132.064 123.854L137.26 110.167" stroke="#272521" stroke-width="1.04" stroke-linecap="round" stroke-linejoin="round"/>
<path d="M136.297 110.302C136.297 110.302 148.96 117.703 147.636 108.765C146.313 99.826 136.297 110.302 136.297 110.302Z" stroke="#272521" stroke-width="1.04" stroke-linecap="round" stroke-linejoin="round"/>
<path d="M144.728 122.13L136.297 110.302" stroke="#272521" stroke-width="1.04" stroke-linecap="round" stroke-linejoin="round"/>
<path d="M136.344 57.8533C132.113 60.3034 129.188 60.7427 124.352 59.5261C120.545 58.563 118.96 62.2128 121.558 65.7105C125.773 71.4218 133.779 69.5969 136.688 67.9748C143.109 64.3588 140.2 55.6398 136.344 57.8702V57.8533Z" stroke="#272521" stroke-width="1.04" stroke-linecap="round" stroke-linejoin="round"/>
<path d="M122.161 59.4585C121.638 61.6551 123.926 64.0039 126.295 63.8349C128.664 63.6659 129.53 62.1283 129.22 60.202" stroke="#272521" stroke-width="1.04" stroke-linecap="round" stroke-linejoin="round"/>
<path d="M137.047 58.1069C138.125 61.2498 137.145 62.872 134.841 63.4803C132.538 64.0886 129.989 62.6354 129.711 60.7091" stroke="#272521" stroke-width="1.04" stroke-linecap="round" stroke-linejoin="round"/>
<path d="M207.256 78.6535C207.256 78.6535 204.053 72.7563 202.812 69.5966C201.57 66.4368 197.485 61.5366 198.613 58.9851C199.74 56.4336 207.256 63.5474 207.256 63.5474C207.256 63.5474 212.615 61.6718 214.445 65.4736L216.291 69.2755" fill="#FCE4BC"/>
<path d="M207.256 78.6535C207.256 78.6535 204.053 72.7563 202.812 69.5966C201.57 66.4368 197.485 61.5366 198.613 58.9851C199.74 56.4336 207.256 63.5474 207.256 63.5474C207.256 63.5474 212.615 61.6718 214.445 65.4736L216.291 69.2755" stroke="#050000" stroke-miterlimit="10"/>
<path d="M215.049 46.8359C215.049 46.8359 213.676 55.7915 213.66 57.4643L215.049 46.8359Z" fill="white"/>
<path d="M215.049 46.8359C215.049 46.8359 213.676 55.7915 213.66 57.4643" stroke="#272521" stroke-width="1.04" stroke-linecap="round" stroke-linejoin="round"/>
<path d="M220.065 47.5459C220.065 47.5459 218.692 56.5014 218.676 58.1743L220.065 47.5459Z" fill="white"/>
<path d="M220.065 47.5459C220.065 47.5459 218.692 56.5014 218.676 58.1743" stroke="#272521" stroke-width="1.04" stroke-linecap="round" stroke-linejoin="round"/>
</g>
<path d="M223.596 48.999C223.596 48.999 222.223 57.9546 222.207 59.6274L223.596 48.999Z" fill="white"/>
<path d="M223.596 48.999C223.596 48.999 222.223 57.9546 222.207 59.6274" stroke="#272521" stroke-width="1.04" stroke-linecap="round" stroke-linejoin="round"/>
</svg>
